<svg height="460pt" viewBox="0 -2 460.52631 460" width="460pt" xmlns="http://www.w3.org/2000/svg"><path d="m280.046875 216.214844-95.023437-107.894532-32.976563.589844 48 107.304688" fill="#ed1c24"/><path d="m454.78125 260.632812-33.296875-19.425781 1.722656 3.433594c1.976563 3.953125.371094 8.761719-3.585937 10.734375l-16 8c-1.109375.554688-2.335938.839844-3.574219.839844h-32v-16h30.109375l7.152344-3.574219-8.460938-16.953125c-16.585937-7.539062-34.585937-11.449219-52.800781-11.472656h-272l-40-80h-32l16 96-7.097656 3.542968c-6.339844 3.148438-9.886719 10.066407-8.734375 17.054688 1.148437 6.984375 6.726562 12.398438 13.742187 13.347656l146.089844 20.128906 72 9.925782 71.710937 6.519531c24.15625 1.746094 48.421876 1.335937 72.503907-1.222656l21.144531-2.640625c14.085938-1.761719 27.855469-5.492188 40.902344-11.085938l15.203125-6.515625c4.019531-1.71875 6.722656-5.5625 6.992187-9.925781.269532-4.367188-1.945312-8.507812-5.722656-10.710938zm0 0" fill="#f2f2f2"/><g fill="#00bbd6"><path d="m398.15625 248.214844h-30.109375v16h32c1.238281.015625 2.460937-.257813 3.574219-.800782l16-8c3.957031-1.972656 5.5625-6.78125 3.585937-10.734374l-1.722656-3.433594-12.957031-7.558594c-3.792969-2.1875-7.691406-4.175781-11.6875-5.960938l8.46875 16.953126zm0 0"/><path d="m96.046875 232.214844h16v16h-16zm0 0"/><path d="m128.046875 232.214844h16v16h-16zm0 0"/><path d="m160.046875 232.214844h16v16h-16zm0 0"/><path d="m192.046875 232.214844h16v16h-16zm0 0"/><path d="m224.046875 232.214844h16v16h-16zm0 0"/><path d="m256.046875 232.214844h16v16h-16zm0 0"/><path d="m288.046875 232.214844h16v16h-16zm0 0"/></g><path d="m456.046875 92.214844c0-11.046875-8.957031-20-20-20-4.539063.015625-8.933594 1.59375-12.449219 4.464844 2.425782-12.8125-5.839844-25.210938-18.601562-27.902344-12.757813-2.6875-25.328125 5.320312-28.277344 18.023437-3.816406-2.492187-8.519531-3.226562-12.914062-2.011719-4.390626 1.214844-8.050782 4.257813-10.046876 8.355469-6.042968-1.925781-12.644531-.828125-17.738281 2.953125-5.09375 3.777344-8.0625 9.777344-7.972656 16.117188-.003906 9.507812 6.6875 17.699218 16 19.601562v.398438h96v-.398438c9.3125-1.902344 16-10.09375 16-19.601562zm0 0" fill="#e6e6e6"/><path d="m296.046875 436.214844c0-11.046875-8.957031-20-20-20-4.539063.015625-8.933594 1.59375-12.449219 4.464844 2.425782-12.8125-5.839844-25.210938-18.601562-27.902344-12.757813-2.6875-25.328125 5.320312-28.277344 18.023437-3.816406-2.492187-8.519531-3.226562-12.914062-2.011719-4.390626 1.214844-8.050782 4.257813-10.046876 8.355469-6.042968-1.925781-12.644531-.828125-17.738281 2.953125-5.09375 3.777344-8.0625 9.777344-7.972656 16.117188-.003906 9.507812 6.6875 17.699218 16 19.601562v.398438h96v-.398438c9.3125-1.902344 16-10.09375 16-19.601562zm0 0" fill="#e6e6e6"/><path d="m136.046875 44.214844c0-11.046875-8.957031-20-20-20-4.539063.015625-8.933594 1.59375-12.449219 4.464844 2.425782-12.8125-5.839844-25.210938-18.601562-27.902344-12.757813-2.6875-25.328125 5.320312-28.277344 18.023437-3.816406-2.492187-8.519531-3.226562-12.914062-2.011719-4.390626 1.214844-8.050782 4.257813-10.046876 8.355469-6.042968-1.925781-12.644531-.828125-17.738281 2.953125-5.09375 3.777344-8.0625 9.777344-7.972656 16.117188-.003906 9.507812 6.6875 17.699218 16 19.601562v.398438h96v-.398438c9.3125-1.902344 16-10.09375 16-19.601562zm0 0" fill="#e6e6e6"/><path d="m176.046875 264.214844 88 8-144 128-32-8zm0 0" fill="#ed1c24"/><path d="m72.046875 216.214844h-58.664063l-13.335937-80h32zm0 0" fill="#ed1c24"/></svg>