<?xml version="1.0" encoding="iso-8859-1"?>
<!-- Generator: Adobe Illustrator 19.0.0, SVG Export Plug-In . SVG Version: 6.00 Build 0)  -->
<svg version="1.1" id="Layer_1" xmlns="http://www.w3.org/2000/svg" xmlns:xlink="http://www.w3.org/1999/xlink" x="0px" y="0px"
	 viewBox="0 0 512 512" style="enable-background:new 0 0 512 512;" xml:space="preserve">
<path style="fill:#F7A539;" d="M389.703,165.807v-21.264c0-7.425-6.02-13.444-13.444-13.444H352.58
	c-7.425,0-13.444,6.02-13.444,13.444v21.264H389.703z"/>
<path style="fill:#ED6529;" d="M377.061,131.139c-0.267-0.016-0.532-0.04-0.802-0.04H352.58c-7.425,0-13.444,6.02-13.444,13.444
	v21.264h25.283v-21.264C364.419,137.389,370.012,131.557,377.061,131.139z"/>
<g>
	<path style="fill:#F7A539;" d="M364.655,114.105c-4.642,0-8.403-3.762-8.403-8.403v-26.14c0-4.642,3.761-8.403,8.403-8.403
		c4.641,0,8.403,3.761,8.403,8.403v26.14C373.058,110.343,369.297,114.105,364.655,114.105z"/>
	<path style="fill:#F7A539;" d="M396.372,119.339c-2.039,0-4.084-0.737-5.699-2.231c-3.409-3.149-3.619-8.464-0.471-11.873
		l17.737-19.204c3.149-3.409,8.464-3.62,11.875-0.471c3.409,3.149,3.621,8.464,0.472,11.873l-17.74,19.204
		C400.89,118.431,398.635,119.339,396.372,119.339z"/>
	<path style="fill:#F7A539;" d="M332.938,119.339c-2.262,0-4.517-0.909-6.173-2.701l-17.74-19.204
		c-3.149-3.409-2.938-8.724,0.472-11.873c3.409-3.152,8.725-2.939,11.875,0.471l17.737,19.204c3.149,3.409,2.939,8.724-0.471,11.873
		C337.021,118.601,334.977,119.339,332.938,119.339z"/>
</g>
<path style="fill:#E6E9ED;" d="M496.92,282.755c0-7.425-6.019-13.444-13.444-13.444h-5.266l-61.673-103.504H306.185v241.716h45.251
	c-1.986-5.436-3.072-11.307-3.072-17.432c0-28.027,22.72-50.744,50.744-50.744c28.028,0,50.746,22.717,50.746,50.744
	c0,6.125-1.086,11.996-3.072,17.432h49.204c-8.735,0-15.816-7.081-15.816-15.816v-30.828c0-8.733,7.081-15.816,15.816-15.816h0.935
	l-0.174-28.238c0.104-0.673,0.174-1.357,0.174-2.059v-32.011H496.92z"/>
<rect x="270.901" y="165.811" style="fill:#CCD4DD;" width="58.807" height="241.716"/>
<path style="fill:#FF5357;" d="M483.476,269.31h-5.266H306.185v45.455H496.92v-32.011C496.92,275.33,490.902,269.31,483.476,269.31z
	"/>
<path style="fill:#97D3EE;" d="M444.779,269.31h33.431l-61.673-103.504h-61.583c-8.735,0-15.818,7.083-15.818,15.816v71.87
	c0,8.735,7.083,15.816,15.818,15.816h61.442"/>
<circle style="fill:#5B5E5E;" cx="399.114" cy="390.094" r="50.741"/>
<path style="fill:#464949;" d="M370.77,390.092c0-24.175,16.909-44.385,39.542-49.488c-3.606-0.813-7.353-1.256-11.205-1.256
	c-28.024,0-50.744,22.717-50.744,50.744c0,28.029,22.72,50.748,50.744,50.748c3.852,0,7.598-0.444,11.205-1.256
	C387.679,434.481,370.77,414.268,370.77,390.092z"/>
<circle style="fill:#E6E9ED;" cx="399.102" cy="390.094" r="17.43"/>
<path style="fill:#E23740;" d="M374.725,300.441h-30.316c-4.64,0-8.403-3.762-8.403-8.403c0-4.642,3.762-8.403,8.403-8.403h30.316
	c4.64,0,8.403,3.761,8.403,8.403C383.127,296.679,379.364,300.441,374.725,300.441z"/>
<path style="fill:#F7A539;" d="M512,391.706c0,8.735-7.082,15.816-15.816,15.816h-1.32c-8.735,0-15.816-7.081-15.816-15.816v-30.828
	c0-8.733,7.081-15.816,15.816-15.816h1.32c8.734,0,15.816,7.083,15.816,15.816V391.706z"/>
<path style="fill:#ED6529;" d="M495.524,391.706v-30.828c0-5.988,3.331-11.198,8.238-13.883c-2.252-1.231-4.833-1.934-7.579-1.934
	h-1.32c-8.735,0-15.816,7.083-15.816,15.816v30.828c0,8.735,7.081,15.816,15.816,15.816h1.32c2.746,0,5.327-0.701,7.579-1.934
	C498.855,402.904,495.524,397.696,495.524,391.706z"/>
<rect x="306.18" y="269.309" style="fill:#ED3A47;" width="23.527" height="45.455"/>
<path style="fill:#E6E9ED;" d="M294.981,131.098h-29.458h-28.381H13.444C6.02,131.098,0,137.118,0,144.543v249.536
	c0,7.425,6.02,13.444,13.444,13.444h33.916c-1.986-5.436-3.072-11.307-3.072-17.431c0-28.027,22.72-50.744,50.744-50.744
	c28.028,0,50.746,22.717,50.746,50.744c0,6.125-1.086,11.996-3.072,17.431h46.632h105.642h13.444v-13.444v-85.041v-143.23v-21.264
	C308.426,137.118,302.407,131.098,294.981,131.098z"/>
<path style="fill:#CCD4DD;" d="M22.407,394.078V144.543c0-7.425,6.02-13.444,13.444-13.444H13.444C6.02,131.098,0,137.118,0,144.543
	v249.536c0,7.425,6.02,13.444,13.444,13.444h22.407C28.427,407.522,22.407,401.503,22.407,394.078z"/>
<path style="fill:#F0F1F2;" d="M294.981,131.098h-29.458h-28.381h-97.351c-1.23,9.07-1.879,18.324-1.879,27.733
	c0,101.372,73.747,185.504,170.513,201.712v-51.507v-143.23v-21.264C308.426,137.118,302.407,131.098,294.981,131.098z"/>
<path style="fill:#FF5357;" d="M181.74,190.363h-21.085v-21.085c0-2.654-2.152-4.805-4.805-4.805h-12.549
	c-2.654,0-4.805,2.151-4.805,4.805v21.085h-21.087c-2.653,0-4.805,2.151-4.805,4.805v12.549c0,2.652,2.152,4.805,4.805,4.805h21.087
	v21.085c0,2.654,2.151,4.807,4.805,4.807h12.549c2.653,0,4.805-2.153,4.805-4.807v-21.085h21.085c2.654,0,4.805-2.153,4.805-4.805
	v-12.549C186.545,192.514,184.394,190.363,181.74,190.363z"/>
<path style="fill:#FF6971;" d="M181.74,190.363h-21.085v-21.085c0-2.654-2.152-4.805-4.805-4.805h-12.549
	c-2.654,0-4.805,2.151-4.805,4.805v4.96c1.684,22.618,7.043,44.208,15.487,64.178h1.868c2.653,0,4.805-2.153,4.805-4.807v-21.085
	h21.085c2.654,0,4.805-2.153,4.805-4.805v-12.549C186.545,192.514,184.394,190.363,181.74,190.363z"/>
<rect y="269.309" style="fill:#FF5357;" width="298.159" height="45.455"/>
<rect y="269.309" style="fill:#ED3A47;" width="22.407" height="45.455"/>
<path style="fill:#FF6971;" d="M170.301,269.31c10.972,17.057,24.408,32.374,39.807,45.455h98.317v-5.728V269.31H170.301z"/>
<circle style="fill:#5B5E5E;" cx="95.039" cy="390.094" r="50.741"/>
<circle style="fill:#E6E9ED;" cx="95.039" cy="390.094" r="17.429"/>
<g>
	<path style="fill:#CCD4DD;" d="M401.844,390.092c0-5.864,2.906-11.039,7.347-14.198c-2.848-2.026-6.322-3.229-10.083-3.229
		c-9.626,0-17.43,7.801-17.43,17.427c0,9.626,7.804,17.431,17.43,17.431c3.761,0,7.235-1.203,10.083-3.23
		C404.75,401.133,401.844,395.956,401.844,390.092z"/>
	<path style="fill:#CCD4DD;" d="M97.771,390.092c0-5.864,2.906-11.039,7.346-14.198c-2.848-2.026-6.322-3.229-10.083-3.229
		c-9.626,0-17.429,7.801-17.429,17.427c0,9.626,7.803,17.431,17.429,17.431c3.761,0,7.235-1.203,10.083-3.23
		C100.676,401.133,97.771,395.956,97.771,390.092z"/>
</g>
<path style="fill:#49B5CE;" d="M361.543,253.494v-71.87c0-8.733,7.083-15.816,15.818-15.816h-22.407
	c-8.735,0-15.818,7.083-15.818,15.816v71.87c0,8.735,7.083,15.816,15.818,15.816h22.407
	C368.625,269.31,361.543,262.23,361.543,253.494z"/>
<path style="fill:#464949;" d="M66.696,390.092c0-24.175,16.909-44.385,39.542-49.488c-3.606-0.813-7.353-1.256-11.205-1.256
	c-28.024,0-50.744,22.717-50.744,50.744c0,28.029,22.72,50.748,50.744,50.748c3.852,0,7.598-0.444,11.205-1.256
	C83.605,434.481,66.696,414.268,66.696,390.092z"/>
<g>
</g>
<g>
</g>
<g>
</g>
<g>
</g>
<g>
</g>
<g>
</g>
<g>
</g>
<g>
</g>
<g>
</g>
<g>
</g>
<g>
</g>
<g>
</g>
<g>
</g>
<g>
</g>
<g>
</g>
</svg>
