<?xml version="1.0" encoding="iso-8859-1"?>
<!-- Generator: Adobe Illustrator 19.0.0, SVG Export Plug-In . SVG Version: 6.00 Build 0)  -->
<svg version="1.1" id="Layer_1" xmlns="http://www.w3.org/2000/svg" xmlns:xlink="http://www.w3.org/1999/xlink" x="0px" y="0px"
	 viewBox="0 0 511.982 511.982" style="enable-background:new 0 0 511.982 511.982;" xml:space="preserve">
<circle style="fill:#72CDED;" cx="256.016" cy="255.988" r="255.951"/>
<path style="fill:#5FBAD3;" d="M248.789,483.469C123.155,418.683,73.827,264.316,138.615,138.68
	C174.931,68.255,239.397,21.816,311.17,6.004C200.494-18.49,82.933,33.186,28.533,138.68
	c-64.786,125.635-15.46,280.001,110.175,344.789c55.21,28.47,115.966,34.896,172.232,22.5
	C289.81,501.293,268.93,493.854,248.789,483.469z"/>
<path style="fill:#FD5D65;" d="M387.77,323.941c-34.137,66.195-83.136,119.696-140.834,158.553
	c-13.293,8.955-27.044,17.145-41.191,24.518c-22.809-4.567-45.35-12.361-67.049-23.549c-6.123-3.164-12.068-6.531-17.821-10.116
	c21.891-10.703,42.926-23.294,62.827-37.696c52.609-38.066,97.296-88.723,129.085-150.376
	c43.832-84.998,56.423-177.841,41.944-265.429c6.251,2.615,12.451,5.498,18.574,8.662c21.699,11.188,41.128,25.054,58.069,40.975
	C443.058,153.83,429.765,242.476,387.77,323.941z"/>
<path style="fill:#E54E5C;" d="M246.936,482.494c-13.292,8.955-27.044,17.145-41.191,24.518
	c-22.809-4.567-45.35-12.361-67.049-23.549c-6.123-3.164-12.068-6.531-17.821-10.116c21.891-10.703,42.926-23.294,62.827-37.696
	C201.777,453.996,222.94,469.891,246.936,482.494z"/>
<g>
</g>
<g>
</g>
<g>
</g>
<g>
</g>
<g>
</g>
<g>
</g>
<g>
</g>
<g>
</g>
<g>
</g>
<g>
</g>
<g>
</g>
<g>
</g>
<g>
</g>
<g>
</g>
<g>
</g>
</svg>
