<?xml version="1.0" encoding="iso-8859-1"?>
<!-- Generator: Adobe Illustrator 19.0.0, SVG Export Plug-In . SVG Version: 6.00 Build 0)  -->
<svg version="1.1" id="Capa_1" xmlns="http://www.w3.org/2000/svg" xmlns:xlink="http://www.w3.org/1999/xlink" x="0px" y="0px"
	 viewBox="0 0 512 512" style="enable-background:new 0 0 512 512;" xml:space="preserve">
<circle style="fill:#FF8C50;" cx="256" cy="256" r="256"/>
<path style="fill:#DC6E41;" d="M338.581,429.419c-141.385,0-256-114.615-256-256c0-49.537,14.111-95.76,38.473-134.947
	C48.398,83.643,0,164.152,0,256c0,141.385,114.615,256,256,256c91.847,0,172.357-48.398,217.527-121.053
	C434.341,415.308,388.118,429.419,338.581,429.419z"/>
<path style="fill:#5D5360;" d="M437.019,74.981c-1.958-1.958-3.982-3.81-5.987-5.692L314.554,185.767
	c-48.451-51.763-70.519-119.362-66.162-185.586c-5.545,0.164-11.087,0.445-16.614,0.967c-4.069,70.15,19.656,141.57,71.096,196.298
	L256,244.321L80.968,69.289c-2.005,1.882-4.028,3.733-5.987,5.692c-1.958,1.958-3.81,3.982-5.692,5.987L244.321,256l-46.874,46.874
	c-54.728-51.44-126.148-75.165-196.298-71.096c-0.522,5.527-0.803,11.069-0.967,16.614c66.223-4.357,133.822,17.711,185.586,66.162
	L69.289,431.032c1.882,2.005,3.733,4.028,5.692,5.987c1.958,1.958,3.982,3.81,5.987,5.692l116.478-116.478
	c48.451,51.763,70.518,119.363,66.162,185.586c5.546-0.164,11.087-0.446,16.614-0.968c4.069-70.15-19.656-141.57-71.096-196.298
	L256,267.679l175.032,175.032c2.005-1.882,4.028-3.733,5.987-5.692c1.958-1.958,3.81-3.982,5.692-5.987L267.679,256l46.874-46.874
	c54.728,51.44,126.148,75.165,196.298,71.096c0.522-5.527,0.804-11.069,0.968-16.614c-66.223,4.357-133.822-17.711-185.586-66.162
	L442.711,80.968C440.829,78.962,438.978,76.939,437.019,74.981z"/>
<g>
	<path style="fill:#4B3F4E;" d="M74.981,74.98c-1.959,1.959-3.81,3.982-5.692,5.987l22.929,22.929
		c1.689-5.985,3.563-11.891,5.668-17.69L80.968,69.289C78.962,71.17,76.939,73.022,74.981,74.98z"/>
	<path style="fill:#4B3F4E;" d="M280.221,510.851c1.772-30.547-1.737-61.332-10.499-90.876c-6.541-1.823-13.005-3.834-19.323-6.152
		c10.973,31.584,15.381,64.961,13.208,97.996C269.153,511.655,274.694,511.372,280.221,510.851z"/>
	<path style="fill:#4B3F4E;" d="M431.032,442.711c2.006-1.882,4.029-3.733,5.987-5.692c1.959-1.958,3.81-3.982,5.692-5.987
		l-16.918-16.918c-5.798,2.105-11.705,3.979-17.69,5.668L431.032,442.711z"/>
	<path style="fill:#4B3F4E;" d="M98.177,261.601c-2.319-6.319-4.329-12.782-6.152-19.324c-29.545-8.762-60.33-12.27-90.877-10.498
		c-0.523,5.527-0.803,11.069-0.967,16.614C33.217,246.219,66.593,250.628,98.177,261.601z"/>
	<path style="fill:#4B3F4E;" d="M151.861,348.46l-82.573,82.572c1.882,2.005,3.733,4.029,5.692,5.987
		c1.958,1.959,3.981,3.81,5.987,5.692l82.572-82.573C159.523,356.371,155.629,352.478,151.861,348.46z"/>
</g>
<g>
</g>
<g>
</g>
<g>
</g>
<g>
</g>
<g>
</g>
<g>
</g>
<g>
</g>
<g>
</g>
<g>
</g>
<g>
</g>
<g>
</g>
<g>
</g>
<g>
</g>
<g>
</g>
<g>
</g>
</svg>
