<svg id="Layer_1" enable-background="new 0 0 512 512" height="512" viewBox="0 0 512 512" width="512" xmlns="http://www.w3.org/2000/svg"><path id="XMLID_2479_" d="m55.801 380.377h400.397v15.453h-400.397z" fill="#406d87"/><path id="XMLID_2482_" d="m63.21 350.399v80.56c0 5.69-4.61 10.3-10.3 10.3h-18.94c-5.69 0-10.3-4.61-10.3-10.3v-80.56z" fill="#62879d"/><path id="XMLID_2483_" d="m23.67 350.399h39.54v16.09h-39.54z" fill="#406d87"/><path id="XMLID_2484_" d="m63.212 350.399v80.56c0 5.687-4.615 10.302-10.302 10.302h-18.935c-.278 0-.567-.01-.834-.031 5.295-.433 9.467-4.863 9.467-10.271v-80.56z" fill="#406d87"/><path id="XMLID_2486_" d="m488.33 350.399v80.56c0 5.69-4.61 10.3-10.3 10.3h-18.94c-5.69 0-10.3-4.61-10.3-10.3v-80.56z" fill="#62879d"/><path id="XMLID_2487_" d="m448.79 350.399h39.54v16.09h-39.54z" fill="#406d87"/><path id="XMLID_2488_" d="m488.326 350.399v80.56c0 5.687-4.605 10.302-10.302 10.302h-18.934c-.278 0-.567-.01-.834-.031 5.305-.433 9.467-4.863 9.467-10.271v-80.56z" fill="#406d87"/><path id="XMLID_2491_" d="m96.02 87.139v234.82h-32.81v-234.82c0-9.06 7.34-16.4 16.41-16.4 4.53 0 8.63 1.84 11.6 4.8 2.96 2.97 4.8 7.07 4.8 11.6z" fill="#62879d"/><path id="XMLID_2492_" d="m63.21 118.789h32.81v69.83h-32.81z" fill="#406d87"/><path id="XMLID_2493_" d="m63.21 226.469h32.81v69.83h-32.81z" fill="#406d87"/><path id="XMLID_2495_" d="m448.79 87.139v234.82h-32.81v-234.82c0-9.06 7.34-16.4 16.4-16.4 4.54 0 8.64 1.84 11.61 4.8 2.97 2.97 4.8 7.07 4.8 11.6z" fill="#62879d"/><path id="XMLID_2496_" d="m415.98 118.789h32.81v69.83h-32.81z" fill="#406d87"/><path id="XMLID_2497_" d="m415.98 226.469h32.81v69.83h-32.81z" fill="#406d87"/><path id="XMLID_2942_" d="m0 343.251v-17.855c0-5.69 4.612-10.302 10.302-10.302h491.396c5.69 0 10.302 4.612 10.302 10.302v17.855c0 5.69-4.612 10.302-10.302 10.302h-491.396c-5.69 0-10.302-4.612-10.302-10.302z" fill="#ffc26d"/><path id="XMLID_2501_" d="m512 325.396v17.853c0 5.687-4.615 10.302-10.302 10.302h-20.604c5.687 0 10.302-4.615 10.302-10.302v-17.853c0-5.687-4.615-10.302-10.302-10.302h20.604c5.687.001 10.302 4.616 10.302 10.302z" fill="#ffa730"/><path id="XMLID_2935_" d="m468.144 173.953h-424.288c-5.69 0-10.302-4.612-10.302-10.302v-49.226c0-5.69 4.612-10.302 10.302-10.302h424.288c5.69 0 10.302 4.612 10.302 10.302v49.226c0 5.69-4.612 10.302-10.302 10.302z" fill="#f98e19"/><path id="XMLID_2503_" d="m478.447 114.426v49.222c0 5.697-4.615 10.302-10.302 10.302h-20.604c5.687 0 10.302-4.605 10.302-10.302v-49.222c0-5.687-4.615-10.302-10.302-10.302h20.604c5.687 0 10.302 4.615 10.302 10.302z" fill="#f47e14"/><path id="XMLID_2930_" d="m468.144 281.631h-424.288c-5.69 0-10.302-4.612-10.302-10.302v-49.226c0-5.69 4.612-10.302 10.302-10.302h424.288c5.69 0 10.302 4.612 10.302 10.302v49.226c0 5.69-4.612 10.302-10.302 10.302z" fill="#f98e19"/><path id="XMLID_2506_" d="m478.447 222.1v49.232c0 5.687-4.615 10.302-10.302 10.302h-20.604c5.687 0 10.302-4.615 10.302-10.302v-49.232c0-5.687-4.615-10.302-10.302-10.302h20.604c5.687 0 10.302 4.615 10.302 10.302z" fill="#f47e14"/><g fill="#e0e8ec"><path id="XMLID_2509_" d="m79.615 146.824c-4.267 0-7.726-3.459-7.726-7.726v-.119c0-4.267 3.459-7.726 7.726-7.726s7.726 3.459 7.726 7.726v.119c.001 4.266-3.459 7.726-7.726 7.726z"/><path id="XMLID_2510_" d="m432.385 146.824c-4.267 0-7.726-3.459-7.726-7.726v-.119c0-4.267 3.459-7.726 7.726-7.726s7.726 3.459 7.726 7.726v.119c0 4.266-3.459 7.726-7.726 7.726z"/><path id="XMLID_2512_" d="m79.615 254.502c-4.267 0-7.726-3.459-7.726-7.726v-.119c0-4.267 3.459-7.726 7.726-7.726s7.726 3.459 7.726 7.726v.119c.001 4.267-3.459 7.726-7.726 7.726z"/><path id="XMLID_2513_" d="m432.385 254.502c-4.267 0-7.726-3.459-7.726-7.726v-.119c0-4.267 3.459-7.726 7.726-7.726s7.726 3.459 7.726 7.726v.119c0 4.267-3.459 7.726-7.726 7.726z"/></g></svg>