<svg id="Capa_1" enable-background="new 0 0 512 512" height="512" viewBox="0 0 512 512" width="512" xmlns="http://www.w3.org/2000/svg"><g><g><path d="m189.811 0h132.378c34.137 0 61.811 27.674 61.811 61.811v132.378c0 34.137-27.674 61.811-61.811 61.811h-132.378c-34.137 0-61.811-27.674-61.811-61.811v-132.378c0-34.137 27.674-61.811 61.811-61.811z" fill="#9edcae"/></g><g><path d="m210.414 194.189v-132.378c0-34.137 27.674-61.811 61.811-61.811h-82.414c-34.137 0-61.811 27.674-61.811 61.811v132.378c0 34.137 27.674 61.811 61.811 61.811h82.414c-34.137 0-61.811-27.674-61.811-61.811z" fill="#7fd196"/></g><g><path d="m61.811 256h132.378c34.137 0 61.811 27.674 61.811 61.811v132.378c0 34.137-27.674 61.811-61.811 61.811h-132.378c-34.137 0-61.811-27.674-61.811-61.811v-132.378c0-34.137 27.674-61.811 61.811-61.811z" fill="#ffdf8e"/></g><g><path d="m82.414 450.189v-132.378c0-34.137 27.674-61.811 61.811-61.811h-82.414c-34.137 0-61.811 27.674-61.811 61.811v132.378c0 34.137 27.674 61.811 61.811 61.811h82.414c-34.137 0-61.811-27.674-61.811-61.811z" fill="#ffcd6e"/></g><g><path d="m317.811 256h132.378c34.137 0 61.811 27.674 61.811 61.811v132.378c0 34.137-27.674 61.811-61.811 61.811h-132.378c-34.137 0-61.811-27.674-61.811-61.811v-132.378c0-34.137 27.674-61.811 61.811-61.811z" fill="#fda0c1"/></g><g><path d="m338.414 450.189v-132.378c0-34.137 27.674-61.811 61.811-61.811h-82.414c-34.137 0-61.811 27.674-61.811 61.811v132.378c0 34.137 27.674 61.811 61.811 61.811h82.414c-34.137 0-61.811-27.674-61.811-61.811z" fill="#fc90b4"/></g><g><path d="m137.239 315.405 15.894 32.205c1.501 3.041 4.402 5.148 7.757 5.636l35.541 5.164c8.451 1.228 11.825 11.613 5.71 17.573l-25.717 25.068c-2.428 2.367-3.536 5.777-2.963 9.119l6.071 35.397c1.444 8.416-7.39 14.835-14.949 10.861l-31.788-16.712c-3.001-1.578-6.587-1.578-9.589 0l-31.788 16.712c-7.558 3.974-16.392-2.445-14.949-10.861l6.071-35.397c.573-3.342-.535-6.752-2.963-9.119l-25.717-25.068c-6.115-5.961-2.741-16.346 5.71-17.573l35.541-5.164c3.356-.488 6.257-2.595 7.757-5.636l15.894-32.205c3.778-7.658 14.698-7.658 18.477 0z" fill="#f7f0eb"/></g><g><circle cx="256" cy="128" fill="#f7f0eb" r="77.264"/></g><g><path d="m256 128c0-28.593 15.544-53.54 38.632-66.901-11.367-6.579-24.554-10.363-38.632-10.363-42.671 0-77.264 34.592-77.264 77.264s34.592 77.264 77.264 77.264c14.078 0 27.265-3.784 38.632-10.362-23.088-13.362-38.632-38.309-38.632-66.902z" fill="#efe2dd"/></g><g><path d="m308.21 436.256 66.868-115.819c3.965-6.868 13.878-6.868 17.843 0l66.868 115.819c3.965 6.868-.991 15.453-8.922 15.453h-133.735c-7.93 0-12.887-8.585-8.922-15.453z" fill="#f7f0eb"/></g><g><path d="m443.846 408.64c-5.422 1.205-11.051 1.862-16.836 1.862-34.183 0-63.161-22.207-73.346-52.974l-45.454 78.729c-3.965 6.868.991 15.453 8.922 15.453h133.736c7.93 0 12.887-8.585 8.922-15.453z" fill="#efe2dd"/></g><g><path d="m173.461 410.171c-.167-.973-.175-1.949-.066-2.907-35.019-.239-64.484-23.772-73.711-55.88-1.332.968-2.897 1.617-4.575 1.861l-35.541 5.164c-8.451 1.228-11.825 11.613-5.71 17.573l25.717 25.068c2.428 2.367 3.536 5.777 2.963 9.119l-6.071 35.397c-1.444 8.416 7.39 14.835 14.949 10.861l31.788-16.712c3.002-1.578 6.587-1.578 9.589 0l31.788 16.712c7.558 3.974 16.392-2.445 14.949-10.861z" fill="#efe2dd"/></g></g></svg>