<?xml version="1.0" encoding="iso-8859-1"?>
<!-- Generator: Adobe Illustrator 19.0.0, SVG Export Plug-In . SVG Version: 6.00 Build 0)  -->
<svg version="1.1" id="Layer_1" xmlns="http://www.w3.org/2000/svg" xmlns:xlink="http://www.w3.org/1999/xlink" x="0px" y="0px"
	 viewBox="0 0 512.001 512.001" style="enable-background:new 0 0 512.001 512.001;" xml:space="preserve">
<path style="fill:#55CDEF;" d="M227.929,348.426h122.655c-2.169-5.749-3.369-11.974-3.369-18.482
	c0-28.903,23.428-52.331,52.329-52.331c28.905,0,52.331,23.427,52.331,52.331c0,6.509-1.195,12.733-3.367,18.482h24.865
	c21.335,0,38.628-17.294,38.628-38.626v-59.296c0-21.336-17.293-38.627-38.628-38.627h-87.515l-81.074-70.238
	c-12.576-10.886-26.98-11.845-30.526-11.911H132.961c-14.417,0-23.593,6.451-26.654,8.998l-1.139,1.013l-0.009,0.009l0,0
	l-89.761,79.895C6.046,226.69,0,237.89,0,250.504V309.8c0,21.331,17.293,38.626,38.626,38.626h33.829
	c-2.169-5.749-3.367-11.974-3.367-18.482c0-28.903,23.426-52.331,52.329-52.331s52.331,23.427,52.331,52.331
	c0,6.509-1.198,12.733-3.369,18.482h28.984"/>
<path style="fill:#3EBEDB;" d="M22.261,321.022v-62.993c0-13.4,6.423-25.297,16.357-32.784l95.354-84.875l0.009-0.009l1.211-1.076
	c3.251-2.706,12.999-9.559,28.315-9.559h-30.546c-14.417,0-23.593,6.451-26.654,8.998l-1.139,1.013l-0.009,0.009l-89.761,79.895
	C6.046,226.69,0,237.89,0,250.504V309.8c0,19.179,13.981,35.086,32.307,38.103C26.054,340.701,22.261,331.307,22.261,321.022z"/>
<g>
	<circle style="fill:#5B5E5E;" cx="121.411" cy="329.939" r="52.335"/>
	<path style="fill:#5B5E5E;" d="M451.873,329.944c0,28.901-23.426,52.33-52.331,52.33c-28.9,0-52.329-23.428-52.329-52.33
		c0-28.904,23.428-52.331,52.329-52.331C428.448,277.613,451.873,301.04,451.873,329.944z"/>
</g>
<path style="fill:#FF5357;" d="M31.644,285.187c10.004,0,18.113-8.111,18.113-18.113c0-10.005-8.109-18.115-18.113-18.115H0v9.332
	v26.897h31.644V285.187z"/>
<path style="fill:#ED242E;" d="M22.261,258.029c0-3.119,0.362-6.151,1.021-9.07H0.047C0.026,249.472,0,249.985,0,250.504v7.787
	v26.897h22.261V258.029z"/>
<path style="fill:#E1F4F9;" d="M480.354,277.4c-10.002,0-18.113-8.109-18.113-18.113c0-10.005,8.111-18.114,18.113-18.114h30.504
	c0.741,2.987,1.141,6.113,1.141,9.331v26.897h-31.645V277.4z"/>
<g>
	<path style="fill:#B4E7F9;" d="M484.502,259.287c0-10.005,8.111-18.114,18.113-18.114h-22.261
		c-10.002,0-18.113,8.109-18.113,18.114c0,10.004,8.111,18.113,18.113,18.113h22.261C492.613,277.4,484.502,269.291,484.502,259.287
		z"/>
	<path style="fill:#B4E7F9;" d="M304.782,141.638c-12.576-10.886-26.98-11.845-30.526-11.911H166.704l-69.995,66.164
		c-5.373,5.985-10.499,15.984,15.24,15.984h198.709h29.315h45.882L304.782,141.638z"/>
</g>
<circle style="fill:#E6E9ED;" cx="121.411" cy="329.939" r="17.976"/>
<g>
	<path style="fill:#424444;" d="M90.463,329.944c0-25.24,17.865-46.3,41.64-51.234c-3.452-0.716-7.026-1.095-10.689-1.095
		c-28.902,0-52.329,23.427-52.329,52.331c0,28.901,23.426,52.33,52.329,52.33c3.663,0,7.237-0.38,10.689-1.095
		C108.328,376.243,90.463,355.181,90.463,329.944z"/>
	<path style="fill:#424444;" d="M368.591,329.944c0-25.24,17.865-46.3,41.64-51.234c-3.45-0.716-7.024-1.095-10.687-1.095
		c-28.902,0-52.329,23.427-52.329,52.331c0,28.901,23.426,52.33,52.329,52.33c3.663,0,7.237-0.38,10.687-1.095
		C386.456,376.243,368.591,355.181,368.591,329.944z"/>
</g>
<path style="fill:#B2C3D3;" d="M124.818,329.944c0-5.918,2.873-11.152,7.286-14.426c-2.99-2.218-6.679-3.547-10.689-3.547
	c-9.926,0-17.973,8.046-17.973,17.973c0,9.924,8.047,17.972,17.973,17.972c4.009,0,7.699-1.329,10.689-3.548
	C127.691,341.093,124.818,335.86,124.818,329.944z"/>
<circle style="fill:#E6E9ED;" cx="399.549" cy="329.939" r="17.976"/>
<path style="fill:#33B3D1;" d="M256,257.307h-36.08c-4.61,0-8.348-3.738-8.348-8.348c0-4.61,3.738-8.348,8.348-8.348H256
	c4.61,0,8.348,3.738,8.348,8.348C264.348,253.569,260.61,257.307,256,257.307z"/>
<path style="fill:#97D3EE;" d="M163.227,129.727l-69.995,66.164c-5.374,5.985-10.499,15.984,15.24,15.984h88.254v-82.149h-33.499
	V129.727z"/>
<path style="fill:#B2C3D3;" d="M402.945,329.944c0-5.918,2.873-11.152,7.286-14.426c-2.988-2.218-6.679-3.547-10.687-3.547
	c-9.926,0-17.973,8.046-17.973,17.973c0,9.924,8.047,17.972,17.973,17.972c4.009,0,7.699-1.329,10.687-3.548
	C405.819,341.093,402.945,335.86,402.945,329.944z"/>
<g>
</g>
<g>
</g>
<g>
</g>
<g>
</g>
<g>
</g>
<g>
</g>
<g>
</g>
<g>
</g>
<g>
</g>
<g>
</g>
<g>
</g>
<g>
</g>
<g>
</g>
<g>
</g>
<g>
</g>
</svg>
