<?xml version="1.0" encoding="iso-8859-1"?>
<!-- Generator: Adobe Illustrator 19.0.0, SVG Export Plug-In . SVG Version: 6.00 Build 0)  -->
<svg version="1.1" id="Capa_1" xmlns="http://www.w3.org/2000/svg" xmlns:xlink="http://www.w3.org/1999/xlink" x="0px" y="0px"
	 viewBox="0 0 512.005 512.005" style="enable-background:new 0 0 512.005 512.005;" xml:space="preserve">
<path style="fill:#425A69;" d="M394.702,125.049c-0.427-0.457-0.909-0.86-1.437-1.199c-30.279-24.89-68.971-39.847-111.084-39.847
	H229.82c-42.113,0-80.805,14.957-111.084,39.847c-0.529,0.339-1.01,0.742-1.437,1.199c-38.474,32.314-62.988,80.822-62.988,134.97
	c0,4.154,3.357,7.522,7.5,7.522H450.19c4.143,0,7.5-3.368,7.5-7.522C457.689,205.87,433.176,157.363,394.702,125.049z
	 M381.733,252.497h-51.611V106.389c18.947,5.959,36.396,15.344,51.611,27.443V252.497z M315.122,102.465v150.031H263.5V99.046
	h18.681C293.469,99.046,304.486,100.231,315.122,102.465z M248.5,99.046v153.45h-51.622v-150.03
	c10.636-2.234,21.653-3.419,32.941-3.419L248.5,99.046L248.5,99.046z M130.267,133.831c15.215-12.098,32.665-21.483,51.611-27.443
	v146.107h-51.611V133.831z M115.267,147.382v105.115H69.483C71.364,211.663,88.492,174.762,115.267,147.382z M396.733,252.497
	V147.382c26.774,27.382,43.903,64.283,45.783,105.115L396.733,252.497L396.733,252.497z"/>
<g>
	<path style="fill:#FF8B00;" d="M51.509,185.908H10.302l7.096-48.033c0.436-2.95,2.961-5.135,5.935-5.135h15.144
		c2.974,0,5.499,2.185,5.935,5.135L51.509,185.908z"/>
	<path style="fill:#FF8B00;" d="M502.991,185.908h-41.207l7.096-48.033c0.436-2.95,2.961-5.135,5.935-5.135h15.144
		c2.974,0,5.499,2.185,5.935,5.135L502.991,185.908z"/>
</g>
<rect y="174.033" style="fill:#FFD237;" width="61.811" height="208.54"/>
<rect x="30.905" y="174.033" style="fill:#FFB922;" width="30.905" height="208.54"/>
<rect x="450.19" y="174.033" style="fill:#FFD237;" width="61.811" height="208.54"/>
<rect x="481.1" y="174.033" style="fill:#FFB922;" width="30.905" height="208.54"/>
<rect x="61.811" y="245.482" style="fill:#4B6A76;" width="388.38" height="30.972"/>
<rect x="419.28" y="245.482" style="fill:#425A69;" width="30.905" height="30.972"/>
<path style="fill:#FFA200;" d="M80.727,428.003H4.263c-2.212,0-4.006-1.793-4.006-4.006v-57.938h74.468
	c5.527,0,10.007,4.48,10.007,10.007v47.93C84.732,426.21,82.939,428.003,80.727,428.003z"/>
<path style="fill:#FF8B00;" d="M74.743,366.06H43.83c5.521,0,9.997,4.485,9.997,10.018v51.925h26.905c2.209,0,4-1.796,4-4.012
	v-47.914C84.732,370.544,80.26,366.06,74.743,366.06z"/>
<path style="fill:#FFA200;" d="M431.531,428.003h76.463c2.212,0,4.006-1.793,4.006-4.006v-57.938h-74.468
	c-5.527,0-10.007,4.48-10.007,10.007v47.93C427.525,426.21,429.319,428.003,431.531,428.003z"/>
<path style="fill:#FF8B00;" d="M481.095,366.06v61.943H508c2.209,0,4-1.796,4-4.012v-57.932h-30.905V366.06z"/>
<g>
	<path style="fill:#FFA200;" d="M30.905,228.691c-4.143,0-7.5-3.368-7.5-7.522v-17.855c0-4.154,3.357-7.522,7.5-7.522
		s7.5,3.368,7.5,7.522v17.855C38.405,225.325,35.048,228.691,30.905,228.691z"/>
	<path style="fill:#FFA200;" d="M30.905,296.635c-4.143,0-7.5-3.368-7.5-7.522v-17.855c0-4.154,3.357-7.522,7.5-7.522
		s7.5,3.368,7.5,7.522v17.855C38.405,293.268,35.048,296.635,30.905,296.635z"/>
	<path style="fill:#FFA200;" d="M481.095,228.691c-4.143,0-7.5-3.368-7.5-7.522v-17.855c0-4.154,3.357-7.522,7.5-7.522
		s7.5,3.368,7.5,7.522v17.855C488.595,225.325,485.237,228.691,481.095,228.691z"/>
	<path style="fill:#FFA200;" d="M481.095,296.635c-4.143,0-7.5-3.368-7.5-7.522v-17.855c0-4.154,3.357-7.522,7.5-7.522
		s7.5,3.368,7.5,7.522v17.855C488.595,293.268,485.237,296.635,481.095,296.635z"/>
</g>
<g>
</g>
<g>
</g>
<g>
</g>
<g>
</g>
<g>
</g>
<g>
</g>
<g>
</g>
<g>
</g>
<g>
</g>
<g>
</g>
<g>
</g>
<g>
</g>
<g>
</g>
<g>
</g>
<g>
</g>
</svg>
