<?xml version="1.0" encoding="iso-8859-1"?>
<!-- Generator: Adobe Illustrator 19.0.0, SVG Export Plug-In . SVG Version: 6.00 Build 0)  -->
<svg version="1.1" id="Layer_1" xmlns="http://www.w3.org/2000/svg" xmlns:xlink="http://www.w3.org/1999/xlink" x="0px" y="0px"
	 viewBox="0 0 512 512" style="enable-background:new 0 0 512 512;" xml:space="preserve">
<path id="SVGCleanerId_0" style="fill:#FF5357;" d="M121.285,116.754H33.17H15.309C6.854,116.754,0,123.608,0,132.064v204.118
	c0,8.457,6.854,15.311,15.309,15.311H33.17h43.391c-0.032-0.722-0.055-1.445-0.055-2.174c0-25.365,20.561-45.926,45.925-45.926
	s45.925,20.561,45.925,45.926c0,0.729-0.022,1.451-0.055,2.174h186.509c-0.033-0.722-0.056-1.445-0.056-2.174
	c0-25.365,20.561-45.926,45.924-45.926c25.365,0,45.926,20.561,45.926,45.926c0,0.729-0.022,1.451-0.055,2.174h32.278h17.861
	c8.455,0,15.309-6.854,15.309-15.311V170.46c-0.013-29.665-24.063-53.705-53.729-53.705h-62.685H149.111"/>
<g>
	<path id="SVGCleanerId_0_1_" style="fill:#FF5357;" d="M121.285,116.754H33.17H15.309C6.854,116.754,0,123.608,0,132.064v204.118
		c0,8.457,6.854,15.311,15.309,15.311H33.17h43.391c-0.032-0.722-0.055-1.445-0.055-2.174c0-25.365,20.561-45.926,45.925-45.926
		s45.925,20.561,45.925,45.926c0,0.729-0.022,1.451-0.055,2.174h186.509c-0.033-0.722-0.056-1.445-0.056-2.174
		c0-25.365,20.561-45.926,45.924-45.926c25.365,0,45.926,20.561,45.926,45.926c0,0.729-0.022,1.451-0.055,2.174h32.278h17.861
		c8.455,0,15.309-6.854,15.309-15.311V170.46c-0.013-29.665-24.063-53.705-53.729-53.705h-62.685H149.111"/>
</g>
<rect x="198.589" y="155.024" style="fill:#97D3EE;" width="126.72" height="196.463"/>
<rect x="198.589" y="155.024" style="fill:#6CC6E4;" width="63.362" height="196.463"/>
<path style="fill:#ED3A47;" d="M21.89,336.182V132.064c0-8.456,6.854-15.31,15.309-15.31H33.17H15.309
	C6.854,116.754,0,123.608,0,132.064v204.118c0,8.457,6.854,15.311,15.309,15.311H33.17h4.029
	C28.744,351.492,21.89,344.638,21.89,336.182z"/>
<g>
	<circle style="fill:#5B5E5E;" cx="400.684" cy="349.317" r="45.924"/>
	<circle style="fill:#5B5E5E;" cx="122.435" cy="349.317" r="45.924"/>
</g>
<g>
	<circle style="fill:#E6E9ED;" cx="400.684" cy="349.317" r="15.774"/>
	<circle style="fill:#E6E9ED;" cx="122.435" cy="349.317" r="15.773"/>
</g>
<rect x="198.589" y="261.976" style="fill:#EF4556;" width="126.72" height="89.511"/>
<rect x="198.589" y="261.976" style="fill:#E23740;" width="63.361" height="89.511"/>
<g>
	<path style="fill:#424444;" d="M376.646,349.318c0-21.592,14.903-39.693,34.978-44.603c-3.508-0.858-7.171-1.322-10.945-1.322
		c-25.363,0-45.924,20.561-45.924,45.926c0,25.362,20.561,45.926,45.924,45.926c3.773,0,7.436-0.464,10.945-1.323
		C391.549,389.01,376.646,370.908,376.646,349.318z"/>
	<path style="fill:#424444;" d="M98.396,349.318c0-21.592,14.903-39.693,34.98-44.603c-3.508-0.858-7.171-1.322-10.945-1.322
		c-25.364,0-45.925,20.561-45.925,45.926c0,25.362,20.561,45.926,45.925,45.926c3.773,0,7.436-0.464,10.945-1.323
		C113.299,389.01,98.396,370.908,98.396,349.318z"/>
</g>
<g>
	<path style="fill:#B2C3D3;" d="M406.798,349.318c0-4.457,1.855-8.475,4.828-11.344c-2.837-2.738-6.692-4.43-10.945-4.43
		c-8.713,0-15.774,7.062-15.774,15.774c0,8.711,7.061,15.774,15.774,15.774c4.253,0,8.107-1.693,10.945-4.43
		C408.654,357.793,406.798,353.776,406.798,349.318z"/>
	<path style="fill:#B2C3D3;" d="M128.549,349.318c0-4.457,1.855-8.475,4.828-11.343c-2.837-2.738-6.692-4.43-10.945-4.43
		c-8.713,0-15.774,7.062-15.774,15.774c0,8.711,7.061,15.774,15.774,15.774c4.253,0,8.107-1.693,10.945-4.43
		C130.404,357.793,128.549,353.776,128.549,349.318z"/>
</g>
<polyline style="fill:#97D3EE;" points="451.859,261.976 512,261.976 512,166.632 400.68,166.632 400.68,261.976 424.033,261.976 
	"/>
<rect x="325.309" y="166.633" style="fill:#6CC6E4;" width="75.364" height="95.343"/>
<rect x="122.435" y="166.633" style="fill:#97D3EE;" width="75.364" height="95.343"/>
<path style="fill:#F98B38;" d="M0,319.601v-31.008h16.175c8.564,0,15.506,6.941,15.506,15.505c0,8.563-6.941,15.505-15.506,15.505H0
	V319.601z"/>
<path style="fill:#F77D39;" d="M21.89,318.5v-28.808c-1.771-0.702-3.694-1.101-5.715-1.101H0V319.6h16.175
	C18.196,319.601,20.119,319.202,21.89,318.5z"/>
<g>
	<path style="fill:#C92838;" d="M333.663,351.492v-89.515c0-4.61-3.738-8.348-8.348-8.348H198.591c-4.61,0-8.348,3.738-8.348,8.348
		v89.517h16.696v-81.169h110.029v81.169h16.695V351.492z"/>
	<path style="fill:#C92838;" d="M261.954,270.324c-4.611,0-8.348-3.738-8.348-8.348V155.027c0-4.61,3.736-8.348,8.348-8.348
		c4.611,0,8.348,3.738,8.348,8.348v106.949C270.301,266.587,266.564,270.324,261.954,270.324z"/>
</g>
<path style="fill:#97D3EE;" d="M512,319.601v-31.008h-23.83c-8.563,0-15.506,6.941-15.506,15.505
	c0,8.563,6.942,15.505,15.506,15.505H512V319.601z"/>
<path style="fill:#6CC6E4;" d="M494.554,304.096c0-8.563,6.942-15.505,15.506-15.505h-21.89c-8.563,0-15.506,6.941-15.506,15.505
	c0,8.563,6.942,15.505,15.506,15.505h21.89C501.496,319.601,494.554,312.66,494.554,304.096z"/>
<path style="fill:#C92838;" d="M333.663,351.492V155.027c0-4.61-3.738-8.348-8.348-8.348H198.591c-4.61,0-8.348,3.738-8.348,8.348
	v196.465h16.696V163.375h110.029v188.118h16.695V351.492z"/>
<path style="fill:#6CC6E4;" d="M60.419,166.632c-7.377,0-13.357,5.979-13.357,13.357v68.631c0,7.376,5.979,13.357,13.357,13.357
	h62.012v-95.344L60.419,166.632L60.419,166.632z"/>
<g>
</g>
<g>
</g>
<g>
</g>
<g>
</g>
<g>
</g>
<g>
</g>
<g>
</g>
<g>
</g>
<g>
</g>
<g>
</g>
<g>
</g>
<g>
</g>
<g>
</g>
<g>
</g>
<g>
</g>
</svg>
