<svg height="511pt" viewBox="0 -87 511.99866 511" width="511pt" xmlns="http://www.w3.org/2000/svg"><path d="m248.773438 178.660156c-1.902344-2.214844-3.066407-5.085937-3.066407-8.222656v-6.066406h-107.113281s-14.667969 4.636718-31.199219 15.300781c-19.679687 31.007813-22.964843 77.757813 14.074219 95.742187 3.15625 1.53125 5.121094 4.742188 5.226562 8.25.902344 30.164063 37.628907 46.839844 61.601563 33.503907.003906-.003907.007813-.003907.007813-.007813l53.175781-70.101562c-1.210938-6.96875-1.890625-14.769532-1.890625-23.007813 0-19.148437 3.671875-35.941406 9.183594-45.390625zm0 0" fill="#ffc265"/><path d="m97.558594 250.863281c.941406-51.691406 49.257812-77.789062 69.582031-86.492187h-28.546875s-14.667969 4.636718-31.199219 15.300781c-13.402343 21.113281-19.199219 49.53125-9.835937 71.191406zm0 0" fill="#ffb541"/><path d="m125.410156 36.066406c-8.015625 1-14.539062 6.234375-17.53125 13.242188-.710937 1.664062-2.484375 2.625-4.234375 2.171875-24.753906-6.382813-47.253906 16.828125-40.679687 41.167969.558594 2.066406-.707032 4.160156-2.804688 4.578124-10.308594 2.054688-17.710937 10.914063-18.234375 21.214844 8.480469 20.484375 30.710938 47.992188 88.941407 47.992188h111.75v-19.59375c0-2.359375.671874-4.5625 1.808593-6.453125-19.445312-23.78125-62.183593-70.996094-119.015625-104.320313zm0 0" fill="#ffb541"/><g fill="#ffa812"><path d="m68.675781 104.835938c-.976562-4.875-2.996093-9.484376-6-13.421876.09375.414063.175781.824219.289063 1.234376.558594 2.066406-.707032 4.160156-2.804688 4.578124-10.3125 2.054688-17.710937 10.914063-18.234375 21.214844 8.480469 20.484375 30.707031 47.992188 88.941407 47.992188h30.902343c-72.925781 0-89.386719-43.148438-93.09375-61.597656zm0 0"/><path d="m220.847656 113.625c-1.003906.902344-2.25 1.5625-3.671875 1.84375-13.355469 2.625-28.464843 3.949219-45.050781 3.949219-15.210938 0-29.101562-.425781-43.8125-10.417969-22.335938 11.078125-52.324219 10.132812-75.238281-10.285156-3.1875-2.839844-3.46875-7.722656-.628907-10.910156 2.839844-3.183594 7.722657-3.464844 10.910157-.628907 19.894531 17.730469 41.136719 14.171875 52.347656 10.289063-12.480469-15.050782-18.511719-36.78125-19.367187-50.390625-.269532-4.253907 2.957031-7.914063 7.210937-8.191407 4.25-.273437 7.925781 2.949219 8.210937 7.203126.152344 2.292968 4.285157 56.183593 49.949219 57.703124 17.425781.582032 33.222657-.269531 47.0625-2.515624 4.289063 4.242187 8.320313 8.375 12.078125 12.351562zm0 0"/><path d="m238.640625 235.109375c-29.40625 8.996094-82.972656 27.808594-111.332031 52.683594-3.207032 2.8125-8.089844 2.496093-10.902344-.714844-2.816406-3.207031-2.496094-8.089844.710938-10.902344 30.53125-26.777343 86.410156-46.484375 117.003906-55.84375 1.894531-.578125 3.839844-.386719 5.507812.386719-.023437 1.105469-.039062 2.214844-.039062 3.335938 0 3.597656.136718 7.101562.382812 10.5-.417968.21875-.863281.410156-1.332031.554687zm0 0"/></g><path d="m27.550781.714844c36.414063 4.796875 70.210938 18.851562 100.046875 36.648437-.195312.003907-.386718-.007812-.582031 0-8.59375.460938-15.671875 5.820313-18.808594 13.164063-.695312 1.632812-2.441406 2.578125-4.160156 2.136718-24.339844-6.277343-46.460937 16.542969-39.996094 40.476563.550781 2.03125-.695312 4.085937-2.757812 4.5-11.222657 2.238281-18.96875 12.667969-17.878907 24.15625-3.066406-6.46875-4.738281-12.453125-5.644531-16.960937-1.097656-5.476563-3.5-10.621094-7.148437-14.851563-18.710938-21.6875-26.796875-43.582031-30.148438-60.464844-3.238281-16.316406 10.582032-30.980469 27.078125-28.804687zm0 0" fill="#855151"/><path d="m.472656 29.519531c3.351563 16.882813 11.433594 38.777344 30.148438 60.464844 2.402344 2.785156 4.253906 5.972656 5.558594 9.382813 2.414062 6.3125 1.695312 10.742187 7.230468 22.421874 0 0 .003906.003907.003906.003907-1.089843-11.484375 6.65625-21.917969 17.878907-24.152344 1.960937-.394531 3.164062-2.273437 2.808593-4.203125-3.285156-5.105469-25.304687-26.550781-32.722656-63.917969-2.175781-10.96875 3.363282-21.183593 12.238282-26.042969-4.292969-.898437-15.042969-2.941406-19.125-2.976562-15.152344-.121094-27.042969 13.785156-24.019532 29.019531zm0 0" fill="#704444"/><path d="m109.644531 178.253906c-20.15625 30.480469-24.058593 77.632813 12.945313 95.597656 3.101562 1.507813 5.039062 4.667969 5.140625 8.117188.925781 30.863281 39.960937 47.390625 63.371093 31.277344l-2.796874 3.914062c-10.863282 15.207032-29.503907 22.765625-47.90625 19.515625-37.886719-6.695312-78.753907-32.925781-78.753907-82.640625 0-38.117187 26.179688-62.269531 48-75.78125zm0 0" fill="#855151"/><path d="m166.515625 334.09375c-35.023437-9.695312-68.980469-35.941406-68.980469-81.699219 0-2.050781.082032-4.058593.226563-6.03125-7.476563-21.328125-1.25-48.253906 11.882812-68.109375-27.660156 16.59375-47.96875 42.820313-47.996093 75.722656 0 .019532-.003907.039063-.003907.058594 0 42.726563 30.183594 68.105469 62.71875 78.644532 13.863281 4.492187 27.296875 7.207031 42.152344 1.414062zm0 0" fill="#704444"/><path d="m323.695312 317.160156c.554688.777344 1.136719 1.53125 1.730469 2.265625 24.203125 11.792969 59.617188-4.976562 60.507813-34.730469.105468-3.539062 2.089844-6.785156 5.277344-8.332031 37.054687-17.988281 34.140624-64.488281 14.761718-95.796875-17.078125-11.296875-32.566406-16.195312-32.566406-16.195312h-107.113281v6.066406c0 3.132812-1.164063 6.007812-3.070313 8.222656 5.515625 9.449219 9.1875 26.242188 9.1875 45.394532 0 8.234374-.679687 16.035156-1.890625 23.003906zm0 0" fill="#ffc265"/><path d="m301.316406 164.371094h-35.023437v6.066406c0 3.136719-1.164063 6.007812-3.070313 8.222656 5.515625 9.449219 9.1875 26.242188 9.1875 45.394532 0 8.234374-.679687 16.035156-1.890625 23.003906l25.785157 33.996094c1.125-2.28125 2.199218-4.726563 3.203124-7.382813 5.1875-13.777344 7.929688-30.9375 7.929688-49.617187 0-8.925782-.6875-22.804688-4.070312-36.882813-1.308594-5.4375-2.050782-10.988281-2.046876-16.578125v-.15625c-.003906-2.226562-.003906-4.238281-.003906-6.066406zm0 0" fill="#ffb541"/><path d="m451.605469 97.3125c-2.089844-.417969-3.351563-2.503906-2.796875-4.5625 6.554687-24.253906-15.871094-47.386719-40.539063-41.023438-1.742187.449219-3.511719-.507812-4.21875-2.164062-3.035156-7.113281-9.722656-12.378906-17.910156-13.238281-56.609375 33.308593-99.175781 80.339843-118.566406 104.0625 1.136719 1.890625 1.808593 4.09375 1.808593 6.453125v19.59375h111.75c57.628907 0 79.992188-26.945313 88.671876-47.355469-.246094-10.53125-7.71875-19.675781-18.199219-21.765625zm0 0" fill="#ffb541"/><path d="m301.394531 103.09375c-14.59375 14.578125-26.0625 27.800781-33.820312 37.292969 1.136719 1.890625 1.808593 4.09375 1.808593 6.453125v19.59375h31.933594c0-5.800782.003906-9.902344.003906-12.800782 0-4.25.648438-8.480468 2.058594-12.488281 2.269532-6.457031 3.257813-13.507812 2.652344-20.859375-.507812-6.097656-2.117188-11.894531-4.636719-17.191406zm0 0" fill="#ffa812"/><path d="m265.683594 129.519531c-4.265625 0-7.726563-3.457031-7.726563-7.726562 0-39.675781 15.382813-63.757813 28.289063-76.972657 14.179687-14.523437 28.546875-19.46875 29.152344-19.671874 4.042968-1.359376 8.425781.816406 9.785156 4.863281 1.359375 4.035156-.804688 8.402343-4.828125 9.773437-1.972657.6875-46.945313 17.070313-46.945313 82.007813 0 4.269531-3.457031 7.726562-7.726562 7.726562zm0 0" fill="#d8694b"/><path d="m246.316406 129.519531c-4.269531 0-7.726562-3.457031-7.726562-7.726562 0-65.460938-46.445313-81.839844-46.914063-81.996094-4.046875-1.359375-6.222656-5.742187-4.863281-9.785156 1.359375-4.046875 5.742188-6.222657 9.785156-4.863281.605469.203124 14.972656 5.148437 29.15625 19.671874 12.90625 13.214844 28.289063 37.296876 28.289063 76.972657 0 4.269531-3.460938 7.726562-7.726563 7.726562zm0 0" fill="#d8694b"/><path d="m291.152344 113.625c1.003906.902344 2.25 1.5625 3.671875 1.84375 13.351562 2.625 28.464843 3.949219 45.046875 3.949219 15.214844 0 29.101562-.425781 43.8125-10.417969 22.335937 11.078125 52.328125 10.132812 75.242187-10.285156 3.183594-2.839844 3.464844-7.722656.628907-10.910156-2.839844-3.183594-7.722657-3.464844-10.910157-.628907-19.898437 17.730469-41.136719 14.171875-52.347656 10.289063 12.476563-15.050782 18.511719-36.78125 19.367187-50.390625.265626-4.253907-2.957031-7.914063-7.210937-8.191407-4.253906-.273437-7.925781 2.949219-8.210937 7.203126-.152344 2.292968-4.289063 56.183593-49.949219 57.703124-17.425781.582032-33.226563-.269531-47.066407-2.515624-4.289062 4.242187-8.316406 8.375-12.074218 12.351562zm0 0" fill="#ffa812"/><path d="m273.355469 235.109375c29.410156 8.996094 82.976562 27.808594 111.335937 52.683594 3.207032 2.8125 8.089844 2.496093 10.902344-.714844 2.816406-3.207031 2.496094-8.089844-.710938-10.902344-30.53125-26.777343-86.410156-46.484375-117.003906-55.84375-1.898437-.578125-3.839844-.386719-5.507812.386719.023437 1.105469.039062 2.214844.039062 3.335938 0 3.597656-.136718 7.101562-.386718 10.5.421874.21875.863281.410156 1.332031.554687zm0 0" fill="#ffa812"/><path d="m307.332031 230.164062c-11-3.992187-21.160156-7.296874-29.453125-9.832031-1.898437-.582031-3.839844-.386719-5.507812.386719.023437 1.101562.039062 2.214844.039062 3.335938 0 3.59375-.136718 7.101562-.386718 10.5.421874.21875.863281.410156 1.332031.550781 9.082031 2.78125 20.472656 6.5 32.707031 11.039062.660156-5.136719 1.085938-10.480469 1.269531-15.980469zm0 0" fill="#ff9a00"/><path d="m484.449219.714844c-36.414063 4.796875-70.210938 18.851562-100.046875 36.648437.195312.003907.386718-.007812.582031 0 8.589844.460938 15.671875 5.820313 18.804687 13.164063.699219 1.632812 2.441407 2.578125 4.164063 2.136718 24.335937-6.277343 46.460937 16.542969 39.996094 40.476563-.550781 2.03125.695312 4.085937 2.757812 4.5 11.222657 2.238281 18.96875 12.667969 17.878907 24.15625 3.066406-6.46875 4.738281-12.453125 5.640624-16.960937 1.101563-5.476563 3.5-10.621094 7.152344-14.851563 18.710938-21.6875 26.796875-43.582031 30.144532-60.464844 3.238281-16.316406-10.582032-30.980469-27.074219-28.804687zm0 0" fill="#855151"/><path d="m267.203125 178.140625-.726563-1.25-.941406 1.097656c-2.226562 2.585938-5.433594 4.070313-8.800781 4.070313h-1.46875c-3.367187 0-6.578125-1.484375-8.800781-4.070313l-.941406-1.097656-.730469 1.25c-5.839844 10.007813-9.324219 27.171875-9.324219 45.914063 0 30.574218 9.019531 54.523437 20.53125 54.523437s20.53125-23.949219 20.53125-54.523437c0-18.742188-3.488281-35.90625-9.328125-45.914063zm0 0" fill="#d8694b"/><path d="m257.957031 224.054688c0-18.699219 3.472657-35.824219 9.285157-45.839844-.011719-.023438-.023438-.050782-.039063-.074219l-.726563-1.25-.945312 1.097656c-2.222656 2.585938-5.429688 4.066407-8.800781 4.066407h-1.464844c-3.371094 0-6.578125-1.480469-8.800781-4.066407l-.945313-1.097656-.726562 1.25c-5.839844 10.007813-9.324219 27.171875-9.324219 45.914063 0 30.574218 9.019531 54.523437 20.53125 54.523437 4.179688 0 8.03125-3.171875 11.242188-8.667969-5.625-9.621094-9.285157-26.390625-9.285157-45.855468zm0 0" fill="#c5573a"/><path d="m267.628906 138.613281-.613281-.808593-.820313.601562c-2.988281 2.199219-6.511718 3.363281-10.195312 3.363281s-7.210938-1.164062-10.199219-3.363281l-.816406-.601562-.613281.808593c-1.824219 2.40625-2.785156 5.25-2.785156 8.226563v23.597656c0 7.542969 6.136718 13.679688 13.679687 13.679688h1.46875c7.542969 0 13.679687-6.136719 13.679687-13.679688v-23.597656c0-2.976563-.964843-5.820313-2.785156-8.226563zm0 0" fill="#c5573a"/><path d="m260.886719 170.4375v-23.597656c0-2.230469.542969-4.390625 1.578125-6.34375-2.039063.835937-4.222656 1.273437-6.464844 1.273437-3.683594 0-7.210938-1.164062-10.199219-3.363281l-.816406-.601562-.613281.808593c-1.824219 2.402344-2.785156 5.25-2.785156 8.226563v23.597656c0 7.542969 6.136718 13.679688 13.679687 13.679688h1.46875c3.40625 0 6.519531-1.261719 8.914063-3.328126-2.910157-2.511718-4.761719-6.214843-4.761719-10.351562zm0 0" fill="#a94b30"/><path d="m402.355469 178.253906c20.15625 30.480469 24.058593 77.632813-12.945313 95.597656-3.105468 1.507813-5.039062 4.667969-5.144531 8.117188-.921875 30.863281-39.957031 47.390625-63.367187 31.277344l2.792968 3.914062h.003906c10.863282 15.207032 29.5 22.765625 47.902344 19.515625 37.886719-6.695312 78.753906-32.925781 78.753906-82.640625 0-38.117187-26.175781-62.269531-47.996093-75.78125zm0 0" fill="#855151"/><path d="m256 105.226562c-10.644531 0-19.300781 8.660157-19.300781 19.300782 0 10.644531 8.65625 19.300781 19.300781 19.300781 10.640625 0 19.300781-8.65625 19.300781-19.300781 0-10.640625-8.660156-19.300782-19.300781-19.300782zm0 0" fill="#a94b30"/><path d="m263.222656 124.527344c0-5.503906 2.328125-10.464844 6.039063-13.984375-3.460938-3.285157-8.125-5.316407-13.261719-5.316407-10.644531 0-19.300781 8.660157-19.300781 19.300782 0 10.644531 8.65625 19.300781 19.300781 19.300781 5.136719 0 9.800781-2.027344 13.261719-5.3125-3.710938-3.519531-6.039063-8.480469-6.039063-13.988281zm0 0" fill="#8c3d27"/></svg>