<svg id="Capa_1" enable-background="new 0 0 510 510" height="512" viewBox="0 0 510 510" width="512" xmlns="http://www.w3.org/2000/svg" xmlns:xlink="http://www.w3.org/1999/xlink"><linearGradient id="lg1"><stop offset="0" stop-color="#f9f7fc"/><stop offset="1" stop-color="#f0ddfc"/></linearGradient><linearGradient id="SVGID_1_" gradientUnits="userSpaceOnUse" x1="486.178" x2="486.178" xlink:href="#lg1" y1="452.332" y2="477.313"/><linearGradient id="SVGID_2_" gradientUnits="userSpaceOnUse" x1="486.178" x2="486.178" xlink:href="#lg1" y1="416.599" y2="441.579"/><linearGradient id="SVGID_3_" gradientUnits="userSpaceOnUse" x1="486.178" x2="486.178" xlink:href="#lg1" y1="380.865" y2="405.846"/><linearGradient id="SVGID_4_" gradientUnits="userSpaceOnUse" x1="486.178" x2="486.178" xlink:href="#lg1" y1="345.131" y2="370.112"/><linearGradient id="SVGID_5_" gradientUnits="userSpaceOnUse" x1="486.178" x2="486.178" xlink:href="#lg1" y1="309.397" y2="334.378"/><linearGradient id="SVGID_6_" gradientUnits="userSpaceOnUse" x1="486.178" x2="486.178" xlink:href="#lg1" y1="273.664" y2="298.644"/><linearGradient id="SVGID_7_" gradientUnits="userSpaceOnUse" x1="486.178" x2="486.178" xlink:href="#lg1" y1="237.93" y2="262.911"/><linearGradient id="SVGID_8_" gradientUnits="userSpaceOnUse" x1="486.178" x2="486.178" xlink:href="#lg1" y1="202.196" y2="227.177"/><linearGradient id="SVGID_9_" gradientUnits="userSpaceOnUse" x1="486.178" x2="486.178" xlink:href="#lg1" y1="166.462" y2="191.443"/><linearGradient id="SVGID_10_" gradientUnits="userSpaceOnUse" x1="486.178" x2="486.178" xlink:href="#lg1" y1="130.729" y2="155.709"/><linearGradient id="SVGID_11_" gradientUnits="userSpaceOnUse" x1="486.178" x2="486.178" xlink:href="#lg1" y1="94.995" y2="119.976"/><linearGradient id="SVGID_12_" gradientUnits="userSpaceOnUse" x1="486.178" x2="486.178" xlink:href="#lg1" y1="59.261" y2="84.242"/><linearGradient id="lg2"><stop offset="0" stop-color="#ffb5b0"/><stop offset="1" stop-color="#ff70ac"/></linearGradient><linearGradient id="SVGID_13_" gradientUnits="userSpaceOnUse" x1="96.477" x2="587.294" xlink:href="#lg2" y1="123.449" y2="556.525"/><linearGradient id="SVGID_14_" gradientUnits="userSpaceOnUse" x1="161.576" x2="334.29" xlink:href="#lg1" y1="216.783" y2="369.178"/><linearGradient id="lg3"><stop offset="0" stop-color="#ff7044"/><stop offset=".2089" stop-color="#fe683f"/><stop offset=".5289" stop-color="#fd5331"/><stop offset=".9182" stop-color="#fa3019"/><stop offset="1" stop-color="#f92814"/></linearGradient><linearGradient id="SVGID_15_" gradientTransform="matrix(.707 .707 -.707 .707 -524.857 -424.499)" gradientUnits="userSpaceOnUse" x1="983.751" x2="1080.213" xlink:href="#lg3" y1="-65.409" y2="19.705"/><linearGradient id="SVGID_16_" gradientTransform="matrix(.707 -.707 .707 .707 -369.379 630.719)" gradientUnits="userSpaceOnUse" x1="786.213" x2="830.215" xlink:href="#lg3" y1="150.606" y2="189.432"/><linearGradient id="SVGID_17_" gradientTransform="matrix(.707 -.707 .707 .707 -369.379 630.719)" gradientUnits="userSpaceOnUse" x1="826.085" x2="870.088" xlink:href="#lg1" y1="150.606" y2="189.432"/><linearGradient id="SVGID_18_" gradientTransform="matrix(.707 .707 -.707 .707 579.18 204.406)" gradientUnits="userSpaceOnUse" x1="-95.93" x2="-51.927" xlink:href="#lg3" y1="282.582" y2="321.408"/><linearGradient id="SVGID_19_" gradientTransform="matrix(.707 .707 -.707 .707 579.18 204.406)" gradientUnits="userSpaceOnUse" x1="-56.057" x2="-12.054" xlink:href="#lg1" y1="282.582" y2="321.408"/><linearGradient id="SVGID_20_" gradientTransform="matrix(-.707 -.707 -.707 .707 1005.494 630.719)" gradientUnits="userSpaceOnUse" x1="925.304" x2="969.307" xlink:href="#lg3" y1="289.698" y2="328.524"/><linearGradient id="SVGID_21_" gradientTransform="matrix(-.707 -.707 -.707 .707 1005.494 630.719)" gradientUnits="userSpaceOnUse" x1="965.177" x2="1009.18" xlink:href="#lg1" y1="289.698" y2="328.524"/><linearGradient id="SVGID_22_" gradientTransform="matrix(-.707 .707 .707 .707 56.935 204.406)" gradientUnits="userSpaceOnUse" x1="43.162" x2="87.165" xlink:href="#lg3" y1="143.49" y2="182.316"/><linearGradient id="SVGID_23_" gradientTransform="matrix(-.707 .707 .707 .707 56.935 204.406)" gradientUnits="userSpaceOnUse" x1="83.035" x2="127.038" xlink:href="#lg1" y1="143.49" y2="182.316"/><linearGradient id="lg4"><stop offset="0" stop-color="#ffda45"/><stop offset="1" stop-color="#ffa425"/></linearGradient><linearGradient id="SVGID_24_" gradientUnits="userSpaceOnUse" x1="264.888" x2="264.888" xlink:href="#lg4" y1="94.126" y2="120.461"/><linearGradient id="SVGID_25_" gradientUnits="userSpaceOnUse" x1="264.888" x2="264.888" xlink:href="#lg4" y1="430.773" y2="457.108"/><linearGradient id="SVGID_26_" gradientUnits="userSpaceOnUse" x1="96.477" x2="587.295" xlink:href="#lg3" y1="123.449" y2="556.525"/><linearGradient id="SVGID_27_" gradientUnits="userSpaceOnUse" x1="276.257" x2="-187.316" y1="268.929" y2="268.929"><stop offset="0" stop-color="#f92814" stop-opacity="0"/><stop offset="1" stop-color="#c1272d"/></linearGradient><linearGradient id="SVGID_28_" gradientUnits="userSpaceOnUse" x1="30.101" x2="119.424" xlink:href="#lg2" y1="254.999" y2="254.999"/><linearGradient id="lg5"><stop offset="0" stop-color="#ffb5b0" stop-opacity="0"/><stop offset=".0454" stop-color="#ffafb0" stop-opacity=".045"/><stop offset=".2799" stop-color="#ff93ae" stop-opacity=".28"/><stop offset=".5169" stop-color="#ff80ad" stop-opacity=".517"/><stop offset=".7559" stop-color="#ff74ac" stop-opacity=".756"/><stop offset="1" stop-color="#ff70ac"/></linearGradient><linearGradient id="SVGID_29_" gradientUnits="userSpaceOnUse" x1="63.629" x2="63.629" xlink:href="#lg5" y1="508.242" y2="409.957"/><linearGradient id="SVGID_30_" gradientUnits="userSpaceOnUse" x1="114.755" x2="23.379" xlink:href="#lg5" y1="498.767" y2="407.392"/><linearGradient id="SVGID_31_" gradientUnits="userSpaceOnUse" x1="80.865" x2="80.865" xlink:href="#lg1" y1="426.296" y2="451.276"/><linearGradient id="SVGID_32_" gradientUnits="userSpaceOnUse" x1="30.85" x2="56.775" xlink:href="#lg3" y1="450.286" y2="450.286"/><linearGradient id="SVGID_33_" gradientUnits="userSpaceOnUse" x1="30.101" x2="119.424" xlink:href="#lg3" y1="431.12" y2="431.12"/><linearGradient id="SVGID_34_" gradientUnits="userSpaceOnUse" x1="30.101" x2="119.424" xlink:href="#lg3" y1="49.531" y2="49.531"/><linearGradient id="SVGID_35_" gradientUnits="userSpaceOnUse" x1="-27.826" x2="61.802" xlink:href="#lg1" y1="205.739" y2="284.822"/><linearGradient id="SVGID_36_" gradientTransform="matrix(.707 -.707 .707 .707 -369.379 630.719)" gradientUnits="userSpaceOnUse" x1="612.179" x2="651.349" xlink:href="#lg3" y1="-63.378" y2="-28.817"/><linearGradient id="SVGID_37_" gradientTransform="matrix(.707 -.707 .707 .707 -369.379 630.719)" gradientUnits="userSpaceOnUse" x1="647.673" x2="686.842" xlink:href="#lg1" y1="-63.378" y2="-28.817"/><linearGradient id="SVGID_38_" gradientTransform="matrix(.707 .707 -.707 .707 579.18 204.406)" gradientUnits="userSpaceOnUse" x1="-323.397" x2="-284.228" xlink:href="#lg3" y1="446.003" y2="480.564"/><linearGradient id="SVGID_39_" gradientTransform="matrix(.707 .707 -.707 .707 579.18 204.406)" gradientUnits="userSpaceOnUse" x1="-287.904" x2="-248.735" xlink:href="#lg1" y1="446.003" y2="480.564"/><linearGradient id="SVGID_40_" gradientTransform="matrix(.957 .289 -.289 .957 183.396 .669)" gradientUnits="userSpaceOnUse" x1="-64.589" x2="-64.589" xlink:href="#lg4" y1="94.334" y2="120.669"/><linearGradient id="SVGID_41_" gradientTransform="matrix(-.957 .289 .289 .957 -4.528 .669)" gradientUnits="userSpaceOnUse" x1="-10.82" x2="-10.82" xlink:href="#lg4" y1="78.098" y2="104.432"/><linearGradient id="SVGID_42_" gradientTransform="matrix(.957 .289 -.289 .957 183.396 .669)" gradientUnits="userSpaceOnUse" x1="23.806" x2="23.806" xlink:href="#lg4" y1="387.066" y2="413.401"/><linearGradient id="SVGID_43_" gradientTransform="matrix(-.957 .289 .289 .957 -4.528 .669)" gradientUnits="userSpaceOnUse" x1="77.575" x2="77.575" xlink:href="#lg4" y1="370.829" y2="397.164"/><path d="m496.465 479.001h-34.109v-27.07h34.109c7.475 0 13.535 6.06 13.535 13.535 0 7.475-6.06 13.535-13.535 13.535z" fill="url(#SVGID_1_)"/><path d="m496.465 443.267h-34.109v-27.07h34.109c7.475 0 13.535 6.06 13.535 13.535 0 7.475-6.06 13.535-13.535 13.535z" fill="url(#SVGID_2_)"/><path d="m496.465 407.533h-34.109v-27.07h34.109c7.475 0 13.535 6.06 13.535 13.535 0 7.476-6.06 13.535-13.535 13.535z" fill="url(#SVGID_3_)"/><path d="m496.465 371.8h-34.109v-27.07h34.109c7.475 0 13.535 6.06 13.535 13.535 0 7.475-6.06 13.535-13.535 13.535z" fill="url(#SVGID_4_)"/><path d="m496.465 336.066h-34.109v-27.07h34.109c7.475 0 13.535 6.06 13.535 13.535 0 7.475-6.06 13.535-13.535 13.535z" fill="url(#SVGID_5_)"/><path d="m496.465 300.332h-34.109v-27.07h34.109c7.475 0 13.535 6.06 13.535 13.535 0 7.475-6.06 13.535-13.535 13.535z" fill="url(#SVGID_6_)"/><path d="m496.465 264.598h-34.109v-27.07h34.109c7.475 0 13.535 6.06 13.535 13.535 0 7.475-6.06 13.535-13.535 13.535z" fill="url(#SVGID_7_)"/><path d="m496.465 228.865h-34.109v-27.07h34.109c7.475 0 13.535 6.06 13.535 13.535 0 7.475-6.06 13.535-13.535 13.535z" fill="url(#SVGID_8_)"/><path d="m496.465 193.131h-34.109v-27.07h34.109c7.475 0 13.535 6.06 13.535 13.535 0 7.475-6.06 13.535-13.535 13.535z" fill="url(#SVGID_9_)"/><path d="m496.465 157.397h-34.109v-27.07h34.109c7.475 0 13.535 6.06 13.535 13.535 0 7.475-6.06 13.535-13.535 13.535z" fill="url(#SVGID_10_)"/><path d="m496.465 121.663h-34.109v-27.07h34.109c7.475 0 13.535 6.06 13.535 13.535 0 7.475-6.06 13.535-13.535 13.535z" fill="url(#SVGID_11_)"/><path d="m496.465 85.929h-34.109v-27.07h34.109c7.475 0 13.535 6.06 13.535 13.535 0 7.476-6.06 13.535-13.535 13.535z" fill="url(#SVGID_12_)"/><path d="m452.48 485.642h-387.998v-433.424h387.998c8.394 0 15.198 6.804 15.198 15.198v403.027c0 8.394-6.804 15.199-15.198 15.199z" fill="url(#SVGID_13_)"/><path d="m213.911 136.446-125.833 125.833c-3.2 3.2-3.2 8.388 0 11.588l125.833 125.833c3.2 3.2 8.388 3.2 11.588 0l125.833-125.833c3.2-3.2 3.2-8.388 0-11.588l-125.833-125.833c-3.2-3.2-8.388-3.2-11.588 0zm-88.193 125.833 88.193-88.193c3.2-3.2 8.388-3.2 11.588 0l88.193 88.193c3.2 3.2 3.2 8.388 0 11.588l-88.193 88.193c-3.2 3.2-8.388 3.2-11.588 0l-88.193-88.193c-3.2-3.2-3.2-8.388 0-11.588z" fill="url(#SVGID_14_)"/><path d="m213.833 323.01-49.065-49.065c-3.243-3.243-3.243-8.501 0-11.744l49.065-49.065c3.243-3.243 8.501-3.243 11.744 0l49.065 49.065c3.243 3.243 3.243 8.501 0 11.744l-49.065 49.065c-3.244 3.243-8.501 3.243-11.744 0z" fill="url(#SVGID_15_)"/><path d="m336.143 203.424c-4.906 4.906-12.861 4.906-17.768 0l-28.99-28.99c-4.906-4.906-4.906-12.861 0-17.768 4.906-4.906 12.861-4.906 17.768 0l28.99 28.99c4.906 4.907 4.906 12.862 0 17.768z" fill="url(#SVGID_16_)"/><path d="m364.337 175.23c-4.906 4.906-12.861 4.906-17.768 0l-28.99-28.99c-4.906-4.906-4.906-12.861 0-17.768 4.906-4.906 12.861-4.906 17.768 0l28.99 28.99c4.907 4.906 4.907 12.861 0 17.768z" fill="url(#SVGID_17_)"/><path d="m289.385 379.48c-4.906-4.906-4.906-12.861 0-17.768l28.99-28.99c4.906-4.906 12.861-4.906 17.768 0 4.906 4.906 4.906 12.861 0 17.768l-28.99 28.99c-4.907 4.906-12.862 4.906-17.768 0z" fill="url(#SVGID_18_)"/><path d="m317.579 407.674c-4.906-4.906-4.906-12.861 0-17.768l28.99-28.99c4.906-4.906 12.861-4.906 17.768 0 4.906 4.906 4.906 12.861 0 17.768l-28.99 28.99c-4.906 4.907-12.861 4.907-17.768 0z" fill="url(#SVGID_19_)"/><path d="m103.267 203.424c4.906 4.906 12.861 4.906 17.768 0l28.99-28.99c4.906-4.906 4.906-12.861 0-17.768-4.906-4.906-12.861-4.906-17.768 0l-28.99 28.99c-4.907 4.907-4.907 12.862 0 17.768z" fill="url(#SVGID_20_)"/><path d="m75.072 175.23c4.906 4.906 12.861 4.906 17.768 0l28.99-28.99c4.906-4.906 4.906-12.861 0-17.768-4.906-4.906-12.861-4.906-17.768 0l-28.99 28.99c-4.906 4.906-4.906 12.861 0 17.768z" fill="url(#SVGID_21_)"/><path d="m150.024 379.48c4.906-4.906 4.906-12.861 0-17.768l-28.99-28.99c-4.906-4.906-12.861-4.906-17.768 0-4.906 4.906-4.906 12.861 0 17.768l28.99 28.99c4.907 4.906 12.862 4.906 17.768 0z" fill="url(#SVGID_22_)"/><path d="m121.83 407.674c4.906-4.906 4.906-12.861 0-17.768l-28.99-28.99c-4.906-4.906-12.861-4.906-17.768 0-4.906 4.906-4.906 12.861 0 17.768l28.99 28.99c4.906 4.907 12.861 4.907 17.768 0z" fill="url(#SVGID_23_)"/><path d="m373.395 113.524h-15.501c-7.134 0-12.918-5.784-12.918-12.918s5.784-12.918 12.918-12.918h15.501c7.134 0 12.918 5.784 12.918 12.918s-5.784 12.918-12.918 12.918zm-67.171 0h-15.501c-7.134 0-12.918-5.784-12.918-12.918s5.784-12.918 12.918-12.918h15.501c7.134 0 12.918 5.784 12.918 12.918s-5.784 12.918-12.918 12.918zm-67.172 0h-15.501c-7.134 0-12.918-5.784-12.918-12.918s5.784-12.918 12.918-12.918h15.501c7.134 0 12.918 5.784 12.918 12.918s-5.784 12.918-12.918 12.918zm-67.171 0h-15.501c-7.134 0-12.918-5.784-12.918-12.918s5.784-12.918 12.918-12.918h15.501c7.134 0 12.918 5.784 12.918 12.918-.001 7.134-5.784 12.918-12.918 12.918z" fill="url(#SVGID_24_)"/><path d="m373.395 450.171h-15.501c-7.134 0-12.918-5.784-12.918-12.918s5.784-12.918 12.918-12.918h15.501c7.134 0 12.918 5.784 12.918 12.918s-5.784 12.918-12.918 12.918zm-67.171 0h-15.501c-7.134 0-12.918-5.784-12.918-12.918s5.784-12.918 12.918-12.918h15.501c7.134 0 12.918 5.784 12.918 12.918s-5.784 12.918-12.918 12.918zm-67.172 0h-15.501c-7.134 0-12.918-5.784-12.918-12.918s5.784-12.918 12.918-12.918h15.501c7.134 0 12.918 5.784 12.918 12.918s-5.784 12.918-12.918 12.918zm-67.171 0h-15.501c-7.134 0-12.918-5.784-12.918-12.918s5.784-12.918 12.918-12.918h15.501c7.134 0 12.918 5.784 12.918 12.918s-5.784 12.918-12.918 12.918z" fill="url(#SVGID_25_)"/><path d="m452.48 52.218h-387.998v22.903h336.164v387.619h-336.164v22.903h387.998c8.394 0 15.198-6.804 15.198-15.198v-403.029c0-8.393-6.804-15.198-15.198-15.198zm-10.15 396.149c0 7.938-6.435 14.373-14.373 14.373h-3.501v-387.619h3.501c7.938 0 14.373 6.435 14.373 14.373z" fill="url(#SVGID_26_)"/><path d="m467.679 392.545v77.898c0 8.391-6.81 15.201-15.201 15.201h-387.993v-433.431h62.862l.01.01z" fill="url(#SVGID_27_)"/><path d="m127.226 52.098c-.645-15.369-28.86-27.742-63.597-27.742-34.736 0-62.952 12.373-63.597 27.742h-.032v405.275c0 15.609 28.487 28.269 63.629 28.269s63.629-12.66 63.629-28.269v-405.275z" fill="url(#SVGID_28_)"/><path d="m127.258 457.373c0 15.609-28.487 28.269-63.629 28.269s-63.629-12.661-63.629-28.269c0-15.622 28.487-28.282 63.629-28.282s63.629 12.66 63.629 28.282z" fill="url(#SVGID_29_)"/><path d="m127.258 457.373c0 15.609-28.487 28.269-63.629 28.269-4 0-7.913-.168-11.711-.478-1.037-.168-2.04-.362-3.024-.582-1.196-.272-2.356-.569-3.473-.892-.738-.22-1.459-.453-2.154-.698-.352-.129-.695-.246-1.029-.375-4.73-1.785-8.3-4.164-10.146-6.867-.791-1.151-1.275-2.38-1.398-3.634-.018-.207-.026-.427-.026-.634v-38.305c9.619-2.586 20.899-4.086 32.962-4.086.281 0 .571 0 .853.013 34.746.193 62.775 12.776 62.775 28.269z" fill="url(#SVGID_30_)"/><path d="m91.152 452.964h-34.109v-27.07h34.109c7.475 0 13.535 6.06 13.535 13.535 0 7.475-6.06 13.535-13.535 13.535z" fill="url(#SVGID_31_)"/><path d="m64.482 429.103v27.739c-.281 0-.563-.013-.853-.013-18.2 0-32.962 6.557-32.962 14.652v-38.305c9.619-2.586 20.899-4.086 32.962-4.086.281 0 .572 0 .853.013z" fill="url(#SVGID_32_)"/><path d="m63.629 404.868c-35.142 0-63.629 12.66-63.629 28.282v24.223c0-15.622 28.487-28.282 63.629-28.282s63.629 12.66 63.629 28.282v-24.223c0-15.622-28.487-28.282-63.629-28.282z" fill="url(#SVGID_33_)"/><path d="m127.226 52.098c-.645-15.369-28.86-27.742-63.597-27.742-34.736 0-62.952 12.373-63.597 27.742h-.032v22.609h.032c.645-15.369 28.861-27.742 63.597-27.742s62.952 12.373 63.597 27.742h.032v-22.609z" fill="url(#SVGID_34_)"/><path d="m70.561 225.135-70.561-70.562v33.503l37.058 37.058c2.842 2.842 2.842 7.461 0 10.313l-37.058 37.059v33.503l70.561-70.561c2.852-2.852 2.852-7.472 0-10.313z" fill="url(#SVGID_35_)"/><path d="m57.04 172.742c-4.368 4.368-11.449 4.368-15.816 0l-25.805-25.805c-4.368-4.368-4.368-11.449 0-15.816 4.368-4.368 11.449-4.368 15.816 0l25.805 25.805c4.367 4.367 4.367 11.448 0 15.816z" fill="url(#SVGID_36_)"/><path d="m82.137 147.644c-4.368 4.368-11.449 4.368-15.816 0l-25.805-25.805c-4.368-4.368-4.368-11.449 0-15.816 4.368-4.368 11.449-4.368 15.816 0l25.805 25.805c4.368 4.368 4.368 11.449 0 15.816z" fill="url(#SVGID_37_)"/><path d="m15.418 329.459c-4.368-4.368-4.368-11.449 0-15.816l25.805-25.805c4.368-4.368 11.449-4.368 15.816 0 4.368 4.368 4.368 11.449 0 15.816l-25.805 25.805c-4.367 4.367-11.448 4.367-15.816 0z" fill="url(#SVGID_38_)"/><path d="m40.516 354.556c-4.368-4.368-4.368-11.449 0-15.816l25.805-25.805c4.368-4.368 11.449-4.368 15.816 0 4.368 4.368 4.368 11.449 0 15.816l-25.805 25.805c-4.368 4.368-11.449 4.368-15.816 0z" fill="url(#SVGID_39_)"/><path d="m96.107 93.115-14.839-4.481c-6.829-2.062-10.694-9.271-8.632-16.1s9.271-10.694 16.1-8.632l14.839 4.481c6.829 2.062 10.694 9.271 8.632 16.1s-9.271 10.694-16.1 8.632z" fill="url(#SVGID_40_)"/><path d="m10.493 84.483c-2.062-6.829 1.803-14.038 8.632-16.1l14.839-4.481c6.829-2.062 14.038 1.803 16.1 8.632s-1.803 14.038-8.632 16.1l-14.839 4.481c-6.829 2.062-14.038-1.802-16.1-8.632z" fill="url(#SVGID_41_)"/><path d="m96.107 398.902-14.839-4.481c-6.829-2.062-10.694-9.271-8.632-16.1s9.271-10.694 16.1-8.632l14.839 4.481c6.829 2.062 10.694 9.271 8.632 16.1s-9.271 10.694-16.1 8.632z" fill="url(#SVGID_42_)"/><path d="m10.493 390.27c-2.062-6.829 1.803-14.038 8.632-16.1l14.839-4.481c6.829-2.062 14.038 1.803 16.1 8.632s-1.803 14.038-8.632 16.1l-14.839 4.481c-6.829 2.062-14.038-1.803-16.1-8.632z" fill="url(#SVGID_43_)"/></svg>