<?xml version="1.0" encoding="iso-8859-1"?>
<!-- Generator: Adobe Illustrator 19.0.0, SVG Export Plug-In . SVG Version: 6.00 Build 0)  -->
<svg version="1.1" id="Layer_1" xmlns="http://www.w3.org/2000/svg" xmlns:xlink="http://www.w3.org/1999/xlink" x="0px" y="0px"
	 viewBox="0 0 512 512" style="enable-background:new 0 0 512 512;" xml:space="preserve">
<path style="fill:#5B5E5E;" d="M351.452,313.024c-2.125,0-4.25-0.806-5.88-2.418l-81.331-80.523
	c-3.279-3.247-3.306-8.538-0.059-11.818c3.248-3.279,8.539-3.306,11.819-0.059l81.331,80.523c3.279,3.247,3.306,8.538,0.059,11.819
	C355.757,312.198,353.605,313.024,351.452,313.024z"/>
<path style="fill:#DCDEE2;" d="M430.005,90.498c0.039,0,0.076,0.006,0.114,0.006c-4.459-20.502-22.698-35.858-44.539-35.858H273.605
	H187.84H75.866c-21.838,0-40.075,15.354-44.537,35.858c0.037,0,0.075-0.006,0.115-0.006"/>
<g>
	<path style="fill:#E6E9ED;" d="M312.775,90.498h117.229c0.039,0,0.076,0.006,0.114,0.006
		c-4.459-20.502-22.698-35.858-44.539-35.858h-37.039C335.182,65.065,323.164,77.115,312.775,90.498z"/>
	<path style="fill:#E6E9ED;" d="M351.452,106.133v198.7l7.695-12.072c0,0,6.324-8.186,16.929-14.827V106.133H351.452z"/>
	<rect x="86.432" y="106.132" style="fill:#E6E9ED;" width="24.625" height="205.613"/>
</g>
<g>
	<path style="fill:#C8CACC;" d="M363.615,106.133h-12.163v198.7l7.695-12.072c0,0,1.574-2.037,4.468-4.903L363.615,106.133
		L363.615,106.133z"/>
	<rect x="86.432" y="106.132" style="fill:#C8CACC;" width="12.163" height="205.613"/>
</g>
<path style="fill:#F7A539;" d="M456.616,268.773c-51.794-55.272-97.469-9.083-97.469-9.083l-84.32,103.253h-68.785v76.861
	c0,0,37.242,0,92.675,0h27.48c3.427,0,7.579,0,12.067,0c12.612,0,27.949,0,37.849,0h76.664c0.004,0,0.009,0,0.013,0
	C554.599,439.804,504.132,319.483,456.616,268.773z M459.284,430.271c-1.791,3.392-3.95,6.561-6.433,9.443L459.284,430.271z"/>
<path style="fill:#F9C153;" d="M359.147,259.689l-55.275,67.686c36.424,54.953,98.815,91.196,169.679,91.196
	c10.934,0,21.663-0.874,32.13-2.534c21.108-37.686-14.742-110.633-49.066-147.264C404.823,213.5,359.147,259.689,359.147,259.689z"
	/>
<rect x="188.954" y="319.911" style="fill:#8B8C8C;" width="55.572" height="50.841"/>
<rect x="192.297" y="319.911" style="fill:#7B7C7C;" width="36.035" height="50.841"/>
<path style="fill:#5B5E5E;" d="M163.463,274.505V170.508c0-8.141-6.6-14.739-14.74-14.739h-0.819c-8.14,0-14.74,6.599-14.74,14.739
	v103.996L163.463,274.505L163.463,274.505z"/>
<path style="fill:#464949;" d="M155.252,157.31c-1.97-0.977-4.182-1.54-6.528-1.54h-0.819c-8.14,0-14.74,6.599-14.74,14.739v103.996
	h13.877V170.51C147.041,164.717,150.391,159.719,155.252,157.31z"/>
<path style="fill:#5B5E5E;" d="M244.089,297.433h-38.046v30.298h38.046c8.141,0,14.738-6.6,14.738-14.739v-0.82
	C258.828,304.031,252.229,297.433,244.089,297.433z"/>
<rect x="206.047" y="297.437" style="fill:#464949;" width="22.285" height="30.296"/>
<g>
	<circle style="fill:#5B5E5E;" cx="414.445" cy="406.678" r="50.676"/>
	<rect x="206.047" y="362.944" style="fill:#5B5E5E;" width="69.607" height="76.861"/>
</g>
<rect x="206.047" y="362.944" style="fill:#464949;" width="22.285" height="76.861"/>
<path style="fill:#6E7070;" d="M323.224,89.383h-67.47h-50.06H31.445c-6.802,0-12.314,5.511-12.314,12.312
	c0,6.799,5.51,12.312,12.314,12.312h174.25h50.06h174.251c6.801,0,12.312-5.513,12.312-12.312c0-6.801-5.51-12.312-12.312-12.312
	H351.82"/>
<path style="fill:#464949;" d="M430.005,101.696H255.754h-50.06H31.445c-4.556,0-8.524-2.48-10.653-6.156
	c-1.05,1.812-1.66,3.911-1.66,6.156c0,6.799,5.51,12.312,12.314,12.312h174.25h50.06h174.251c6.801,0,12.312-5.513,12.312-12.312
	c0-2.246-0.611-4.344-1.66-6.156C438.527,99.215,434.561,101.696,430.005,101.696z"/>
<path style="fill:#F7A539;" d="M191.303,274.505H57.221C25.614,274.505,0,300.124,0,331.724v50.861
	c0,28.233,20.451,51.673,47.346,56.352c-0.52-0.63-1.022-1.277-1.512-1.931l1.512,1.931l77.415,0.866h81.281V289.244
	C206.043,281.104,199.444,274.505,191.303,274.505z"/>
<circle style="fill:#E6E9ED;" cx="414.445" cy="406.678" r="17.407"/>
<path style="fill:#E87528;" d="M22.285,382.585v-50.861c0-31.6,25.614-57.219,57.221-57.219H57.221
	C25.614,274.505,0,300.124,0,331.724v50.861c0,28.233,20.451,51.673,47.346,56.352l77.415,0.866h22.285l-77.415-0.866
	C42.736,434.258,22.285,410.818,22.285,382.585z"/>
<path style="fill:#DCDEE2;" d="M240.845,262.391c-2.109,0-4.221-0.793-5.848-2.387c-3.297-3.229-3.353-8.521-0.123-11.818
	l58.548-59.778c3.229-3.297,8.521-3.352,11.818-0.123c3.297,3.229,3.353,8.521,0.123,11.818l-58.548,59.778
	C245.178,261.553,243.013,262.391,240.845,262.391z"/>
<path style="fill:#C8CACC;" d="M240.818,253.473l58.548-59.778c2.12-2.165,5.129-2.923,7.878-2.28
	c-0.413-1.145-1.075-2.221-2.003-3.13c-3.297-3.229-8.589-3.174-11.818,0.123l-58.548,59.778c-3.229,3.298-3.174,8.589,0.123,11.818
	c1.133,1.109,2.503,1.822,3.94,2.157C237.882,259.238,238.497,255.842,240.818,253.473z"/>
<path style="fill:#FF5357;" d="M34.49,306.85H5.675C2.039,314.373,0,322.81,0,331.724v10.207c0.032,0,0.066,0.004,0.098,0.004H34.49
	c8.14,0,14.739-6.599,14.739-14.738v-5.606C49.23,313.45,42.63,306.85,34.49,306.85z"/>
<path style="fill:#ED3A47;" d="M22.285,341.935v-10.211c0-8.914,2.04-17.352,5.676-24.873H5.676
	c-0.004,0.009-0.01,0.019-0.014,0.028c-0.431,0.894-0.839,1.802-1.223,2.721c-0.109,0.26-0.206,0.527-0.312,0.79
	c-0.265,0.661-0.527,1.324-0.769,1.997c-0.125,0.348-0.237,0.7-0.355,1.051c-0.203,0.599-0.4,1.201-0.583,1.81
	c-0.116,0.383-0.222,0.77-0.329,1.157c-0.163,0.588-0.32,1.18-0.465,1.776c-0.097,0.401-0.189,0.803-0.279,1.208
	c-0.131,0.597-0.252,1.198-0.363,1.802c-0.076,0.406-0.152,0.812-0.218,1.221c-0.101,0.623-0.189,1.251-0.27,1.881
	c-0.051,0.393-0.107,0.787-0.15,1.183c-0.075,0.691-0.129,1.387-0.179,2.085c-0.025,0.341-0.059,0.68-0.078,1.022
	C0.033,329.62,0,330.669,0,331.724v10.207c0.032,0,0.066,0.004,0.098,0.004H22.285z"/>
<circle style="fill:#5B5E5E;" cx="86.432" cy="406.678" r="50.676"/>
<circle style="fill:#E6E9ED;" cx="86.432" cy="406.678" r="17.407"/>
<path style="fill:#464949;" d="M58.035,406.673c0-24.162,16.91-44.359,39.536-49.438c-3.587-0.804-7.313-1.243-11.142-1.243
	c-27.99,0-50.678,22.689-50.678,50.682c0,27.989,22.688,50.681,50.678,50.681c3.831,0,7.556-0.439,11.142-1.245
	C74.944,451.03,58.035,430.832,58.035,406.673z"/>
<path style="fill:#C8CACC;" d="M91.307,406.673c0-5.373,2.438-10.175,6.264-13.369c-3.02-2.519-6.903-4.039-11.142-4.039
	c-9.616,0-17.407,7.795-17.407,17.408c0,9.613,7.791,17.406,17.407,17.406c4.239,0,8.123-1.519,11.142-4.038
	C93.745,416.847,91.307,412.046,91.307,406.673z"/>
<path style="fill:#464949;" d="M386.051,406.673c0-24.162,16.91-44.359,39.536-49.438c-3.587-0.804-7.313-1.243-11.143-1.243
	c-27.991,0-50.678,22.689-50.678,50.682c0,27.989,22.687,50.681,50.678,50.681c3.831,0,7.556-0.439,11.143-1.245
	C402.961,451.03,386.051,430.832,386.051,406.673z"/>
<path style="fill:#C8CACC;" d="M419.323,406.673c0-5.373,2.438-10.175,6.263-13.369c-3.019-2.519-6.902-4.039-11.141-4.039
	c-9.616,0-17.407,7.795-17.407,17.408c0,9.613,7.791,17.406,17.407,17.406c4.24,0,8.123-1.519,11.141-4.038
	C421.761,416.847,419.323,412.046,419.323,406.673z"/>
<g>
</g>
<g>
</g>
<g>
</g>
<g>
</g>
<g>
</g>
<g>
</g>
<g>
</g>
<g>
</g>
<g>
</g>
<g>
</g>
<g>
</g>
<g>
</g>
<g>
</g>
<g>
</g>
<g>
</g>
</svg>
