<svg id="Capa_1" enable-background="new 0 0 497 497" height="512" viewBox="0 0 497 497" width="512" xmlns="http://www.w3.org/2000/svg"><g><path d="m382.688 300-23.277-45v-45l-15.518-60-23.277-45v-45l-12.613-48.766c-1.672-6.458-7.522-11.234-14.503-11.234h-30l-163.673 472h327.345z" fill="#ff4e51"/><path d="m278.004 11.234c-1.673-6.458-7.523-11.234-14.504-11.234h-60c-6.981 0-12.831 4.776-14.504 11.234l-12.613 48.766v45l-23.277 45-15.518 60v45l-23.277 45-44.484 172h327.345z" fill="#ff7149"/><path d="m359.411 210h-30l-30 51.782 53.277 38.218h30z" fill="#ffeac3"/><path d="m114.312 300h238.376l-23.277-90h-191.822z" fill="#fff7e8"/><path d="m320.617 60h-30l-30 45 53.277 45h30z" fill="#ffeac3"/><path d="m290.617 60h-114.234l-23.276 90h160.787z" fill="#fff7e8"/><path d="m467 452h-30l30 45h22.5c4.142 0 7.5-3.358 7.5-7.5v-7.5c0-16.569-13.431-30-30-30z" fill="#ff2b59"/><path d="m437 452h-407c-16.569 0-30 13.431-30 30v7.5c0 4.142 3.358 7.5 7.5 7.5h459.5v-15c0-16.569-13.431-30-30-30z" fill="#ff4e51"/></g></svg>