<svg id="Capa_1" enable-background="new 0 0 512 512" height="512" viewBox="0 0 512 512" width="512" xmlns="http://www.w3.org/2000/svg"><g><path d="m256 422.462h-109.203v-104.462h-30v194h30v-59.538h109.203l10-15.462z" fill="#bd8472"/><path d="m365.203 318v104.462h-109.203v30h109.203v59.538h30v-194z" fill="#a05f4b"/><path d="m256 0h-64.203c-24.813 0-45 20.187-45 45v234h30v-234c0-8.271 6.729-15 15-15h15v249h30v-249h19.203l10-15.875z" fill="#bd8472"/><path d="m320.203 0h-64.203v30h19.203v249h30v-249h15c8.271 0 15 6.729 15 15v234h30v-234c0-24.813-20.187-45-45-45z" fill="#a05f4b"/><g><path d="m136.765 275.339c-18.591 0-33.661 15.071-33.661 33.661 0 18.591 15.071 33.661 33.661 33.661h119.235l10-33.661-10-33.661z" fill="#fad17f"/><path d="m375.235 275.339h-119.235v67.323h119.235c18.591 0 33.661-15.071 33.661-33.661 0-18.592-15.071-33.662-33.661-33.662z" fill="#ffb655"/></g></g></svg>