<?xml version="1.0" encoding="iso-8859-1"?>
<!-- Generator: Adobe Illustrator 19.0.0, SVG Export Plug-In . SVG Version: 6.00 Build 0)  -->
<svg version="1.1" id="Capa_1" xmlns="http://www.w3.org/2000/svg" xmlns:xlink="http://www.w3.org/1999/xlink" x="0px" y="0px"
	 viewBox="0 0 512 512" style="enable-background:new 0 0 512 512;" xml:space="preserve">
<path style="fill:#F5B97D;" d="M470.71,512H41.29c-4.561,0-8.258-3.697-8.258-8.258V8.258C33.032,3.697,36.73,0,41.29,0h429.42
	c4.561,0,8.258,3.697,8.258,8.258v495.484C478.968,508.303,475.27,512,470.71,512z"/>
<path style="fill:#A5CDFF;" d="M289.032,454.194h-66.065c-4.561,0-8.258-3.697-8.258-8.258V33.032c0-4.561,3.697-8.258,8.258-8.258
	h66.065c4.561,0,8.258,3.697,8.258,8.258v412.903C297.29,450.496,293.593,454.194,289.032,454.194z"/>
<rect x="231.23" y="41.29" style="fill:#C4DEFF;" width="49.548" height="396.39"/>
<g>
	<path style="fill:#F7D291;" d="M140.387,454.194H66.065c-4.561,0-8.258-3.697-8.258-8.258V33.032c0-4.561,3.697-8.258,8.258-8.258
		h74.323c4.561,0,8.258,3.697,8.258,8.258v412.903C148.645,450.496,144.948,454.194,140.387,454.194z"/>
	<path style="fill:#F7D291;" d="M445.935,454.194h-74.323c-4.561,0-8.258-3.697-8.258-8.258V33.032c0-4.561,3.697-8.258,8.258-8.258
		h74.323c4.561,0,8.258,3.697,8.258,8.258v412.903C454.194,450.496,450.496,454.194,445.935,454.194z"/>
</g>
<path style="fill:#E3AA75;" d="M33.032,478.968v24.774c0,4.56,3.697,8.258,8.258,8.258h429.42c4.561,0,8.258-3.698,8.258-8.258
	v-24.774H33.032z"/>
<g>
	<path style="fill:#6F6571;" d="M173.419,239.484h-8.258c-4.561,0-8.258-3.697-8.258-8.258l0,0c0-4.561,3.697-8.258,8.258-8.258
		h8.258V239.484z"/>
	<path style="fill:#6F6571;" d="M189.935,222.968h8.258c4.561,0,8.258,3.697,8.258,8.258l0,0c0,4.561-3.697,8.258-8.258,8.258
		h-8.258V222.968z"/>
	<path style="fill:#6F6571;" d="M338.581,222.968h8.258c4.561,0,8.258,3.697,8.258,8.258l0,0c0,4.561-3.697,8.258-8.258,8.258
		h-8.258V222.968z"/>
</g>
<rect x="33.03" y="478.97" style="fill:#CD916E;" width="445.94" height="16.516"/>
<g>
	<rect x="173.42" style="fill:#E3AA75;" width="16.516" height="478.97"/>
	<rect x="322.06" style="fill:#E3AA75;" width="16.516" height="478.97"/>
</g>
<polygon style="fill:#FFFFFF;" points="214.71,218.129 297.29,135.548 297.29,112.194 214.71,194.774 "/>
<path style="fill:#E2EFFF;" d="M297.29,161.742l-55.387,55.387c-3.226,3.226-3.226,8.452,0,11.677
	c1.613,1.613,3.726,2.419,5.839,2.419s4.226-0.806,5.839-2.419l43.71-43.71v-23.354H297.29z"/>
<g>
</g>
<g>
</g>
<g>
</g>
<g>
</g>
<g>
</g>
<g>
</g>
<g>
</g>
<g>
</g>
<g>
</g>
<g>
</g>
<g>
</g>
<g>
</g>
<g>
</g>
<g>
</g>
<g>
</g>
</svg>
