<svg id="Capa_1" enable-background="new 0 0 512 512" height="512" viewBox="0 0 512 512" width="512" xmlns="http://www.w3.org/2000/svg"><g><path d="m52.888 74.31v31.999h91.4c5.869-11.359 12.815-22.068 20.702-31.999z" fill="#dbedff"/><path d="m52.888 90.31v16h91.4c2.837-5.491 5.931-10.827 9.256-16z" fill="#b5dcff"/><path d="m52.888 317.71h111.681c-7.836-9.936-14.734-20.646-20.556-31.999h-91.125z" fill="#dbedff"/><path d="m52.888 301.71v16h111.681c-4.047-5.132-7.838-10.473-11.366-16z" fill="#b5dcff"/><circle cx="313.615" cy="196.271" fill="#ff9568" r="196.271"/><path d="m151.597 196.271c0-102.626 78.769-186.84 179.145-195.519-5.645-.488-11.355-.752-17.127-.752-108.397 0-196.271 87.874-196.271 196.271s87.874 196.271 196.271 196.271c5.772 0 11.481-.264 17.127-.752-100.376-8.678-179.145-92.893-179.145-195.519z" fill="#ff7c42"/><path d="m47.139 270.922c.531 0 1.048.055 1.553.145v-154.235c-.505.09-1.022.145-1.553.145h-36.186c-.531 0-1.048-.055-1.553-.145v154.235c.505-.09 1.022-.145 1.553-.145z" fill="#dbedff"/><g><path d="m29.046 116.977h-18.093c-.531 0-1.048-.055-1.553-.145v154.235c.505-.09 1.022-.145 1.553-.145h18.093z" fill="#b5dcff"/></g><path d="m10.953 59.521h36.186c.531 0 1.048.055 1.553.145v-51.406c0-4.562-3.698-8.26-8.26-8.26h-22.772c-4.562 0-8.26 3.698-8.26 8.26v51.406c.505-.09 1.022-.145 1.553-.145z" fill="#dbedff"/><path d="m10.953 59.521h36.186c.531 0 1.048.055 1.553.145v-51.406c0-4.562-3.698-8.26-8.26-8.26h-22.772c-4.562 0-8.26 3.698-8.26 8.26v51.406c.505-.09 1.022-.145 1.553-.145z" fill="#dbedff"/><g><path d="m29.046 8.26c0-4.562 3.698-8.26 8.26-8.26h-19.646c-4.562 0-8.26 3.698-8.26 8.26v51.406c.505-.09 1.022-.145 1.553-.145h18.093z" fill="#b5dcff"/></g><path d="m47.139 328.378h-36.186c-.531 0-1.048-.055-1.553-.145v175.507c0 4.562 3.698 8.26 8.26 8.26h22.771c4.562 0 8.26-3.698 8.26-8.26v-175.507c-.504.09-1.022.145-1.552.145z" fill="#dbedff"/><g><path d="m29.046 503.74v-175.362h-18.093c-.531 0-1.048-.055-1.553-.145v175.507c0 4.562 3.698 8.26 8.26 8.26h19.646c-4.562 0-8.26-3.698-8.26-8.26z" fill="#b5dcff"/></g><path d="m47.139 262.681h-36.186c-4.882 0-8.84 3.958-8.84 8.84v60.379c0 4.882 3.958 8.84 8.84 8.84h36.186c4.882 0 8.84-3.958 8.84-8.84v-60.379c0-4.882-3.958-8.84-8.84-8.84z" fill="#7b6c79"/><path d="m47.139 51.28h-36.186c-4.882 0-8.84 3.958-8.84 8.84v60.379c0 4.882 3.958 8.84 8.84 8.84h36.186c4.882 0 8.84-3.958 8.84-8.84v-60.379c0-4.882-3.958-8.84-8.84-8.84z" fill="#7b6c79"/><path d="m29.046 331.9v-60.379c0-4.882 3.958-8.84 8.84-8.84h-26.933c-4.882 0-8.84 3.958-8.84 8.84v60.379c0 4.882 3.958 8.84 8.84 8.84h26.933c-4.882 0-8.84-3.958-8.84-8.84z" fill="#665e68"/><path d="m29.046 120.499v-60.379c0-4.882 3.958-8.84 8.84-8.84h-26.933c-4.882 0-8.84 3.958-8.84 8.84v60.379c0 4.882 3.958 8.84 8.84 8.84h26.933c-4.882 0-8.84-3.958-8.84-8.84z" fill="#665e68"/><circle cx="313.615" cy="196.271" fill="#ff7c42" r="165.116"/><path d="m182.753 196.271c0-85.408 64.846-155.667 147.99-164.236-5.63-.58-11.343-.88-17.127-.88-91.191 0-165.116 73.925-165.116 165.116s73.925 165.116 165.116 165.116c5.783 0 11.496-.3 17.127-.88-83.144-8.568-147.99-78.828-147.99-164.236z" fill="#ff6930"/><g><path d="m270.032 138.917c-3.469-2.485-4.267-7.311-1.781-10.78.449-.653 4.611-6.998.554-11.478-10.006-11.048-4.737-25.01-.554-30.85 2.485-3.468 7.312-4.267 10.781-1.781 3.453 2.474 4.259 7.268 1.814 10.733-.515.749-4.629 7.062-.587 11.524 10.005 11.048 4.737 25.011.554 30.85-2.487 3.472-7.316 4.267-10.781 1.782z" fill="#eee1dd"/></g><g><path d="m303.24 138.917c-3.469-2.485-4.267-7.311-1.781-10.78.449-.653 4.611-6.998.554-11.478-10.005-11.048-4.737-25.01-.554-30.849 2.485-3.469 7.312-4.267 10.78-1.781 3.453 2.473 4.259 7.267 1.815 10.732-.511.744-4.631 7.061-.588 11.525 10.005 11.048 4.737 25.011.554 30.85-2.486 3.471-7.315 4.266-10.78 1.781z" fill="#eee1dd"/></g><g><path d="m336.447 138.917c-3.469-2.485-4.266-7.312-1.781-10.781.449-.653 4.612-6.997.554-11.477-10.005-11.048-4.737-25.01-.554-30.849 2.485-3.469 7.313-4.267 10.78-1.781 3.453 2.473 4.26 7.267 1.815 10.732-.511.744-4.631 7.061-.588 11.525 10.006 11.048 4.737 25.011.554 30.85-2.484 3.47-7.312 4.266-10.78 1.781z" fill="#eee1dd"/></g><g><path d="m372.608 249.196c-2.95 0-7.745-.353-11.548-1.348-4.223-1.104-6.751-5.423-5.646-9.645 1.104-4.222 5.421-6.755 9.645-5.646 1.846.483 5.021.833 7.549.833 14.107 0 25.584-11.477 25.584-25.584s-11.477-25.584-25.584-25.584c-2.067 0-4.809.231-6.241.525-4.274.882-8.454-1.873-9.333-6.149-.879-4.275 1.874-8.454 6.149-9.333 3.049-.627 6.983-.849 9.425-.849 22.822 0 41.39 18.568 41.39 41.39s-18.568 41.39-41.39 41.39z" fill="#eee1dd"/></g><path d="m357.005 155.32h-98.531c-4.853 0-8.824 3.971-8.824 8.824v66.251c0 19.547 15.993 35.54 35.54 35.54h45.099c19.547 0 35.539-15.993 35.539-35.54v-66.251c0-4.853-3.97-8.824-8.823-8.824z" fill="#eee1dd"/><path d="m294.513 230.394v-66.251c0-4.853 3.971-8.824 8.824-8.824h-44.862c-4.853 0-8.824 3.971-8.824 8.824v66.251c0 19.546 15.993 35.54 35.54 35.54h44.862c-19.547 0-35.54-15.993-35.54-35.54z" fill="#e1d3ce"/><path d="m385.191 272.136c1.554-3.39-.899-7.256-4.629-7.256h-141.523c-3.73 0-6.183 3.866-4.629 7.256 3.009 6.562 7.231 12.461 12.377 17.409 2.786 2.678 6.514 4.155 10.379 4.155h105.268c3.865 0 7.594-1.477 10.379-4.156 5.147-4.947 9.369-10.846 12.378-17.408z" fill="#eee1dd"/><path d="m296.559 272.136c-1.554-3.39.899-7.256 4.629-7.256h-62.149c-3.73 0-6.183 3.866-4.629 7.256 3.009 6.562 7.231 12.461 12.377 17.409 2.786 2.678 6.514 4.155 10.379 4.155h62.149c-3.865 0-7.593-1.477-10.379-4.155-5.146-4.948-9.368-10.847-12.377-17.409z" fill="#e1d3ce"/></g></svg>