<svg id="Capa_1" enable-background="new 0 0 512 512" height="512" viewBox="0 0 512 512" width="512" xmlns="http://www.w3.org/2000/svg"><path d="m350.562 90.588c-11.629-34.88-36.145-63.146-69.028-79.588l-18.826-9.417c-4.222-2.111-9.193-2.111-13.416 0l-18.826 9.417c-32.883 16.441-57.399 44.707-69.028 79.588-2.621 7.858 1.626 16.354 9.485 18.974 1.573.525 3.174.774 4.746.774h160.662c1.572 0 3.173-.249 4.746-.774 7.859-2.62 12.106-11.115 9.485-18.974z" fill="#912200"/><path d="m341.077 109.562c7.859-2.62 12.106-11.115 9.485-18.974-11.629-34.88-36.145-63.146-69.028-79.588l-18.826-9.417c-2.111-1.055-4.41-1.583-6.708-1.583v110.336h80.331c1.572 0 3.173-.249 4.746-.774z" fill="#5f0000"/><path d="m277.527 116.86c23.555-23.555 54.873-36.527 88.184-36.527h2.756c3.978 0 7.793 1.58 10.606 4.394 23.555 23.555 36.527 54.869 36.527 88.177v34.896c0 8.284-6.716 15-15 15h-97.467c-16.569 0-30-13.431-30-30v-65.333c0-3.84 1.465-7.678 4.394-10.607z" fill="#280000"/><path d="m234.473 116.86c-23.555-23.555-54.873-36.527-88.184-36.527h-2.756c-3.978 0-7.793 1.58-10.606 4.394-23.555 23.554-36.527 54.868-36.527 88.176v34.896c0 8.284 6.716 15 15 15h97.467c16.569 0 30-13.431 30-30v-65.333c-.001-3.839-1.465-7.677-4.394-10.606z" fill="#5f0000"/><path d="m301.25 243.969v61.3c0 16.569 13.431 30 30 30h101.49c6.73 0 12.85-4.56 14.55-11.37 0-.01 1.57-6.32 3.74-14.97 8.75-35.02 7.35-71.62-4.07-105.87-2.04-6.13-7.77-10.26-14.23-10.26h-15.8c-34.77 0-68.26 10.46-96.85 30.25-7.13 4.95-12.36 8.56-12.36 8.56-4.21 2.911-6.47 7.6-6.47 12.36z" fill="#5f0000"/><path d="m210.75 243.969v61.3c0 16.569-13.431 30-30 30h-101.49c-6.73 0-12.85-4.56-14.55-11.37 0-.01-1.57-6.32-3.74-14.97-8.75-35.02-7.35-71.62 4.07-105.87 2.04-6.13 7.77-10.26 14.23-10.26h15.8c34.77 0 68.26 10.46 96.85 30.25 7.13 4.95 12.36 8.56 12.36 8.56 4.21 2.911 6.47 7.6 6.47 12.36z" fill="#912200"/><path d="m334.877 166.261c-9.745-25.633-28.619-46.504-53.146-58.768l-19.022-9.51c-4.222-2.111-9.193-2.111-13.416 0l-19.022 9.51c-24.527 12.264-43.401 33.135-53.146 58.768-9.7 25.514-9.505 53.51.541 78.879 2.119 5.715 7.618 9.789 14.069 9.789h128.533c6.451 0 11.95-4.074 14.069-9.789 10.045-25.369 10.24-53.365.54-78.879z" fill="#c24400"/><path d="m334.336 245.14c10.046-25.369 10.241-53.365.541-78.879-9.745-25.633-28.619-46.504-53.146-58.768l-19.022-9.51c-2.111-1.056-4.409-1.583-6.708-1.583v158.529h64.267c6.45 0 11.949-4.074 14.068-9.789z" fill="#912200"/><path d="m319.844 234.974-55.126-39.381c-5.215-3.725-12.222-3.725-17.438 0l-55.126 39.381c-39.085 27.909-52.843 79.817-32.709 123.424l2.598 5.637c2.529 5.491 7.959 8.727 13.633 8.727h160.646c5.674 0 11.104-3.235 13.633-8.727l2.598-5.637c20.134-43.606 6.376-95.515-32.709-123.424z" fill="#5f0000"/><path d="m349.956 364.035 2.598-5.637c20.134-43.606 6.376-95.515-32.709-123.424l-55.126-39.381c-2.608-1.862-5.663-2.793-8.719-2.793v179.961h80.323c5.674 0 11.104-3.235 13.633-8.726z" fill="#280000"/><path d="m248.345 411.737c0-4.721-2.222-9.166-5.998-11.999l-80.576-60.448c-29.254-21.946-65.511-34.024-102.082-34.024h-12.556c-8.284 0-15 6.716-15 15v48.2c0 79.399 64.261 143.534 143.533 143.534h57.679c8.284 0 15-6.716 15-15z" fill="#c24400"/><path d="m263.654 411.737c0-4.721 2.222-9.166 5.998-11.999l80.576-60.448c29.254-21.946 65.511-34.024 102.082-34.024h12.556c8.284 0 15 6.716 15 15v48.2c0 79.398-64.261 143.533-143.533 143.533h-57.679c-8.284 0-15-6.716-15-15z" fill="#912200"/><path d="m278.654 512h-45.309c-48.935 0-88.746-39.812-88.746-88.746 0-29.266 14.538-56.437 38.89-72.681 28.033-18.68 64.189-42.787 64.189-42.787 5.04-3.359 11.604-3.358 16.643 0 0 .001 36.156 24.107 64.183 42.783 24.358 16.249 38.896 43.419 38.896 72.685 0 48.934-39.812 88.746-88.746 88.746z" fill="#912200"/><path d="m367.4 423.253c0-29.266-14.538-56.436-38.896-72.685-28.026-18.676-64.183-42.782-64.183-42.783-2.519-1.679-5.42-2.519-8.321-2.519v206.734h22.654c48.934 0 88.746-39.812 88.746-88.747z" fill="#5f0000"/></svg>