<svg id="Capa_1" enable-background="new 0 0 512 512" height="512" viewBox="0 0 512 512" width="512" xmlns="http://www.w3.org/2000/svg"><g><path d="m134.216 43.301v-25.541c0-9.793 7.967-17.76 17.76-17.76h35.52c9.793 0 17.76 7.967 17.76 17.76v24.865c0 4.204-15.223 4.204-15.223 0v-24.865c0-1.399-1.138-2.537-2.537-2.537h-35.52c-1.399 0-2.537 1.138-2.537 2.537v25.541c0 4.203-15.223 4.203-15.223 0z" fill="#6f6571"/><path d="m65.713 175.572c-4.204 0-7.611-3.408-7.611-7.611v-55.818c0-4.204 3.408-7.611 7.611-7.611s7.611 3.408 7.611 7.611v55.818c0 4.203-3.408 7.611-7.611 7.611z" fill="#edebed"/><path d="m388.947 224.285c-4.204 0-7.612-3.408-7.612-7.611v-80.174c0-4.204 3.408-7.612 7.612-7.612s7.611 3.408 7.611 7.612v80.174c.001 4.204-3.407 7.611-7.611 7.611z" fill="#edebed"/><path d="m410.767 247.12h-45.669v-30.446c0-5.605 4.544-10.149 10.149-10.149h25.372c5.605 0 10.149 4.544 10.149 10.149v30.446z" fill="#ffc269"/><path d="m400.618 146.648h-25.372c-5.605 0-10.149-4.544-10.149-10.149v-20.297h45.669v20.298c.001 5.604-4.543 10.148-10.148 10.148z" fill="#ffc269"/><path d="m457.451 267.417h-137.007c-5.605 0-10.149-4.544-10.149-10.149v-10.148c0-5.605 4.544-10.149 10.149-10.149h137.007c5.605 0 10.149 4.544 10.149 10.149v10.149c0 5.605-4.544 10.148-10.149 10.148z" fill="#d19a6e"/><path d="m467.6 247.12v10.149c0 5.602-4.547 10.149-10.149 10.149h-30.446c5.602 0 10.149-4.547 10.149-10.149v-10.149c0-5.602-4.547-10.149-10.149-10.149h30.446c5.602 0 10.149 4.547 10.149 10.149z" fill="#bc845e"/><path d="m88.04 192.317h-44.654c-5.605 0-10.149-4.544-10.149-10.149v-10.148c0-5.605 4.544-10.149 10.149-10.149h44.654c5.605 0 10.149 4.544 10.149 10.149v10.149c-.001 5.604-4.544 10.148-10.149 10.148z" fill="#d19a6e"/><path d="m98.188 172.02v10.149c0 5.602-4.547 10.149-10.149 10.149h-30.445c5.602 0 10.149-4.547 10.149-10.149v-10.149c0-5.602-4.547-10.149-10.149-10.149h30.446c5.602 0 10.148 4.547 10.148 10.149z" fill="#bc845e"/><g fill="#6f6571"><path d="m190.034 129.564v38.903h-40.595v-38.227c0-4.204-15.223-4.204-15.223 0v320.867c0 4.204 3.408 7.611 7.611 7.611h55.818c4.204 0 7.611-3.408 7.611-7.611v-321.543c.001-4.203-15.222-4.203-15.222 0zm-40.595 175.911v-30.446h40.595v30.446zm40.595 15.223v30.446h-40.595v-30.446zm-40.595-60.892v-30.446h40.595v30.446zm0 106.561h40.595v30.446h-40.595zm40.595-182.676v30.446h-40.595v-30.446zm-40.595 269.954v-41.61h40.595v41.61z"/><path d="m509.768 105.054-20.583-37.736c-4.893-8.971-14.281-14.545-24.501-14.545h-236.593c-4.204 0-7.612 3.408-7.612 7.611v55.818c0 4.204 3.408 7.611 7.612 7.611h270.54c4.522 0 8.601-2.322 10.909-6.211 2.308-3.887 2.394-8.579.228-12.548zm-182.727-37.058h30.446v40.595h-30.446zm-15.223 40.595h-30.446v-40.595h30.446zm60.892-40.595h30.446v40.595h-30.446zm45.669 0h30.446v40.595h-30.446zm-192.825 0h40.595v40.595h-40.595zm238.494 40.595v-40.595h.637c4.645 0 8.912 2.533 11.136 6.611l18.537 33.984z"/><path d="m111.382 52.773h-64.066c-10.22 0-19.608 5.573-24.5 14.545l-20.584 37.735c-2.166 3.97-2.08 8.662.228 12.55 2.308 3.889 6.387 6.211 10.909 6.211h98.013c4.204 0 7.611-3.408 7.611-7.611v-55.818c0-4.204-3.408-7.612-7.611-7.612zm-75.203 21.834c2.224-4.078 6.491-6.611 11.136-6.611h10.785v40.595h-40.457zm77.74 33.984h-40.595v-40.595h40.595z"/></g><path d="m217.943 138.529h-96.413c-5.605 0-10.149-4.544-10.149-10.149v-80.174c0-5.605 4.544-10.149 10.149-10.149h96.412c5.605 0 10.149 4.544 10.149 10.149v80.174c0 5.606-4.544 10.149-10.148 10.149z" fill="#ffc269"/><path d="m192.571 108.083h-45.669c-2.802 0-5.074-2.272-5.074-5.074v-29.431c0-2.802 2.272-5.074 5.074-5.074h45.669c2.802 0 5.074 2.272 5.074 5.074v29.431c0 2.802-2.272 5.074-5.074 5.074z" fill="#fff"/><path d="m228.091 490.688h-116.71v-29.431c0-5.605 4.544-10.149 10.149-10.149h96.412c5.605 0 10.149 4.544 10.149 10.149z" fill="#ffc269"/><path d="m228.091 461.257v29.431h-30.446v-29.431c0-5.602-4.547-10.149-10.149-10.149h30.446c5.603 0 10.149 4.547 10.149 10.149z" fill="#ffa95f"/><path d="m228.091 48.206v80.174c0 5.602-4.547 10.149-10.149 10.149h-30.446c5.602 0 10.149-4.547 10.149-10.149v-80.174c0-5.602-4.547-10.149-10.149-10.149h30.446c5.603 0 10.149 4.547 10.149 10.149z" fill="#ffa95f"/><path d="m272.809 512h-206.145c-3.464 0-5.909-3.393-4.814-6.679l5.609-16.828c1.381-4.144 5.26-6.939 9.628-6.939h185.299c4.368 0 8.246 2.795 9.628 6.939l5.609 16.828c1.095 3.286-1.35 6.679-4.814 6.679z" fill="#6f6571"/><path d="m272.806 512h-30.446c3.471 0 5.917-3.39 4.821-6.678l-5.612-16.827c-1.38-4.151-5.257-6.942-9.631-6.942h30.446c4.374 0 8.251 2.791 9.631 6.942l5.612 16.827c1.096 3.288-1.35 6.678-4.821 6.678z" fill="#5d5360"/></g></svg>