<svg id="Capa_1" enable-background="new 0 0 512 512" height="512" viewBox="0 0 512 512" width="512" xmlns="http://www.w3.org/2000/svg"><g><g><path clip-rule="evenodd" d="m354.29 17.93-24.379 73.91c-1.489 4.526-1.956 5.753-2.044 9.286l40.904 11.126 30.452-11.126c-.117-3.533-.584-4.76-2.073-9.286l-24.379-73.91c-1.781-4.994-5.518-7.476-9.226-7.476-3.737 0-7.474 2.483-9.255 7.476z" fill="#7bacdf" fill-rule="evenodd"/></g><g><path clip-rule="evenodd" d="m399.253 142.097-71.415-.058v12.995l-14.219 51.191 14.219 54.841c2.978-3.037 5.985-6.921 10.131-11.476l47.444-52.505c1.81-1.986 2.599-2.19 4.263-2.161 3.182.058 6.394 0 9.576 0v-52.827z" fill="#7bacdf" fill-rule="evenodd"/></g><g><path clip-rule="evenodd" d="m348.305 36.094 18.394 55.747c1.489 4.526 1.927 5.753 2.044 9.286h30.481c-.117-3.533-.584-4.76-2.073-9.286l-24.379-73.91c-1.781-4.994-5.518-7.476-9.226-7.476-3.737 0-7.474 2.482-9.255 7.476z" fill="#3987d0" fill-rule="evenodd"/></g><g><path clip-rule="evenodd" d="m368.771 142.097v63.106l16.642-18.427c1.81-1.986 2.599-2.19 4.263-2.161 3.182.058 6.394 0 9.576 0v-42.518l-30.481-.029z" fill="#3987d0" fill-rule="evenodd"/></g><g><path clip-rule="evenodd" d="m399.223 101.127h-71.356c-.029.759-.029 1.606-.029 2.628v38.284l71.415.058v-38.342c0-1.022-.03-1.869-.03-2.628z" fill="#f3eae6" fill-rule="evenodd"/></g><g><path clip-rule="evenodd" d="m368.742 101.127c.029.759.029 1.606.029 2.628v38.313l30.481.029v-38.342c0-1.022-.029-1.869-.029-2.628z" fill="#cdbeb9" fill-rule="evenodd"/></g><g><path clip-rule="evenodd" d="m210.76 69.238-24.525 73.881c-1.81 5.49-2.073 6.132-2.073 11.914l37.488 12.352 34.335-12.352c0-5.782-.263-6.424-2.102-11.914l-24.496-73.881c-1.81-4.994-5.577-7.505-9.314-7.505-3.766 0-7.503 2.512-9.313 7.505z" fill="#fea610" fill-rule="evenodd"/></g><g><path clip-rule="evenodd" d="m282.613 69.238-24.525 73.881c-1.81 5.49-2.102 6.132-2.102 11.914l35.912 12.352 35.941-12.352c0-5.782-.292-6.424-2.102-11.914l-24.525-73.881c-1.81-4.994-5.547-7.505-9.314-7.505-3.738 0-7.504 2.512-9.285 7.505z" fill="#fd4755" fill-rule="evenodd"/></g><g><path clip-rule="evenodd" d="m204.6 87.781 18.365 55.338c1.839 5.49 2.102 6.132 2.102 11.914h30.919c0-5.782-.263-6.424-2.102-11.914l-24.496-73.881c-1.81-4.994-5.577-7.505-9.314-7.505-3.766 0-7.504 2.511-9.314 7.505z" fill="#fe7600" fill-rule="evenodd"/></g><g><path clip-rule="evenodd" d="m276.452 87.781 18.365 55.338c1.81 5.49 2.073 6.132 2.073 11.914h30.948c0-5.782-.292-6.424-2.102-11.914l-24.525-73.881c-1.81-4.994-5.547-7.505-9.314-7.505-3.737 0-7.503 2.511-9.284 7.505z" fill="#e41e2b" fill-rule="evenodd"/></g><g><path clip-rule="evenodd" d="m255.956 185.638h-71.794l-10.511 27.275 10.511 48.621c4.321 4.614 8.701 7.125 17.839 7.125h53.984v-83.021z" fill="#fea610" fill-rule="evenodd"/></g><g><path clip-rule="evenodd" d="m327.838 185.638h-71.853l-12.35 38.167 12.35 44.854h52.758c9.46 0 14.248-2.716 19.095-7.593z" fill="#fd4755" fill-rule="evenodd"/></g><g><path clip-rule="evenodd" d="m225.066 195.946v62.434h30.919v-62.434h-.029z" fill="#fe7600" fill-rule="evenodd"/></g><g><path clip-rule="evenodd" d="m296.89 195.946v62.434h11.854c9.46 0 14.248-2.716 19.095-7.622v-54.812h-14.219z" fill="#e41e2b" fill-rule="evenodd"/></g><g><path clip-rule="evenodd" d="m184.162 121.276h-72.261v73.648h3.737c10.715 0 10.744 1.489 20.292 12.177l38.101 42.489c4.321 4.818 7.212 8.848 10.131 11.944v-55.309-51.191z" fill="#bbec6a" fill-rule="evenodd"/></g><g><path clip-rule="evenodd" d="m138.937 7.476-24.525 72.363c-1.81 5.49-2.511 5.052-2.511 10.834l34.598 9.491 37.663-9.491c-.146-3.796-.292-3.796-2.102-9.286l-24.525-73.91c-1.781-4.995-5.548-7.477-9.314-7.477-3.737 0-7.503 2.482-9.284 7.476z" fill="#bbec6a" fill-rule="evenodd"/></g><g><path clip-rule="evenodd" d="m138.937 7.476-6.219 18.368 18.423 55.542c1.81 5.49 1.956 5.49 2.102 9.286h30.919c-.146-3.796-.292-3.796-2.102-9.286l-24.525-73.91c-1.781-4.994-5.548-7.476-9.314-7.476-3.737 0-7.503 2.482-9.284 7.476z" fill="#97d729" fill-rule="evenodd"/></g><g><path clip-rule="evenodd" d="m153.243 155.034v40.912 20.149l20.788 23.186c4.321 4.818 7.212 8.848 10.131 11.944v-55.279-40.912-23.449h-30.919z" fill="#97d729" fill-rule="evenodd"/></g><g><path clip-rule="evenodd" d="m435.398 184.616h-35.737c-3.328 0-6.657.058-9.985 0-1.664-.029-2.453.175-4.263 2.161l-47.444 52.505c-10.832 11.973-13.927 19.098-29.226 19.098h-52.758-53.984c-15.299 0-17.226-7.096-27.97-19.098l-38.101-42.489c-9.547-10.688-9.576-12.177-20.292-12.177h-39.065c-3.328 0-6.073 2.745-6.073 6.103v315.178c0 3.358 2.744 6.103 6.073 6.103h179.413 179.413c3.358 0 6.102-2.745 6.102-6.103v-315.178c-.001-3.358-2.745-6.103-6.103-6.103z" fill="#f3eae6" fill-rule="evenodd"/></g><g><path clip-rule="evenodd" d="m184.162 306.651h-61.867c-5.489 0-9.985 4.497-9.985 9.987v89.796c0 5.49 4.496 9.987 9.985 9.987h61.867z" fill="#bbec6a" fill-rule="evenodd"/></g><g><path clip-rule="evenodd" d="m255.985 306.651h-71.823l-15.46 54.885 15.46 54.886h71.823z" fill="#fea610" fill-rule="evenodd"/></g><g><path clip-rule="evenodd" d="m327.838 306.651h-71.853l-15.459 58.033 15.459 51.738h71.853z" fill="#fd4755" fill-rule="evenodd"/></g><g><path clip-rule="evenodd" d="m389.676 306.651h-61.838l-14.219 52.367 14.219 57.404h61.838c5.489 0 9.985-4.497 9.985-9.987v-89.796c0-5.491-4.496-9.988-9.985-9.988z" fill="#7bacdf" fill-rule="evenodd"/></g><g><path clip-rule="evenodd" d="m441.5 464.693h-371v41.204c0 3.358 2.744 6.103 6.073 6.103h179.413 179.413c3.358 0 6.102-2.745 6.102-6.103v-41.204z" fill="#c5e3ff" fill-rule="evenodd"/></g><g><path clip-rule="evenodd" d="m416.771 190.719v273.974h24.729v-273.974c0-3.358-2.744-6.103-6.102-6.103h-24.729c3.357 0 6.102 2.745 6.102 6.103z" fill="#cdbeb9" fill-rule="evenodd"/></g><g><path clip-rule="evenodd" d="m441.5 464.693h-24.729v41.204c0 3.358-2.744 6.103-6.102 6.103h24.729c3.358 0 6.102-2.745 6.102-6.103z" fill="#8ac9fe" fill-rule="evenodd"/></g><g><path clip-rule="evenodd" d="m153.243 306.651h30.919v109.771h-30.919z" fill="#97d729" fill-rule="evenodd"/></g><g><path clip-rule="evenodd" d="m225.066 306.651h30.919v109.771h-30.919z" fill="#fe7600" fill-rule="evenodd"/></g><g><path clip-rule="evenodd" d="m296.89 306.651h30.948v109.771h-30.948z" fill="#e41e2b" fill-rule="evenodd"/></g><g><path clip-rule="evenodd" d="m368.742 306.651v109.771h20.934c5.489 0 9.985-4.497 9.985-9.987v-89.796c0-5.49-4.496-9.987-9.985-9.987h-20.934z" fill="#3987d0" fill-rule="evenodd"/></g><g><path clip-rule="evenodd" d="m255.985 155.034h-71.823v40.912h71.794.029z" fill="#f3eae6" fill-rule="evenodd"/></g><g><path clip-rule="evenodd" d="m255.985 155.034h71.853v40.912h-71.853z" fill="#f3eae6" fill-rule="evenodd"/></g><g><path clip-rule="evenodd" d="m255.985 155.034h-30.919v11.126 29.786h30.89.029z" fill="#cdbeb9" fill-rule="evenodd"/></g><g><path clip-rule="evenodd" d="m327.838 155.034h-30.948v10.629 30.283h16.729 14.219z" fill="#cdbeb9" fill-rule="evenodd"/></g><g><path clip-rule="evenodd" d="m111.901 90.672h72.261v40.912h-72.261z" fill="#f3eae6" fill-rule="evenodd"/></g><g><path clip-rule="evenodd" d="m153.243 90.672v7.797 22.807 10.309h30.919v-10.309-30.604z" fill="#cdbeb9" fill-rule="evenodd"/></g></g></svg>