<svg id="Capa_1" enable-background="new 0 0 512 512" height="512" viewBox="0 0 512 512" width="512" xmlns="http://www.w3.org/2000/svg"><g><g><g><path d="m271.014 452h-150.004v-90.001h150.004z" fill="#ff9300"/></g><path d="m196.012 361.999h75.002v90.001h-75.002z" fill="#ff7403"/></g><g><g><g><path d="m357.542 437h-312.603c-16.535 0-29.939 13.403-29.939 29.938v.125c0 16.534 13.404 29.937 29.939 29.937h312.603c16.534 0 29.938-13.404 29.938-29.938v-.125c0-16.534-13.404-29.937-29.938-29.937z" fill="#ffc12e"/><path d="m357.542 437h-161.53v60h161.53c16.534 0 29.938-13.404 29.938-29.938v-.125c0-16.534-13.404-29.937-29.938-29.937z" fill="#ff9300"/></g><path d="m357.542 512h-312.604c-24.779 0-44.938-20.159-44.938-44.937v-.125c0-24.779 20.159-44.938 44.938-44.938h312.604c24.778 0 44.938 20.159 44.938 44.938v.125c0 24.778-20.16 44.937-44.938 44.937zm-312.604-60c-8.237 0-14.938 6.701-14.938 14.938v.125c0 8.236 6.701 14.937 14.938 14.937h312.604c8.236 0 14.938-6.701 14.938-14.938v-.125c0-8.236-6.701-14.938-14.938-14.938h-312.604z" fill="#696453"/><path d="m357.542 422h-161.53v30h161.53c8.236 0 14.938 6.701 14.938 14.938v.125c0 8.236-6.701 14.938-14.938 14.938h-161.53v30h161.53c24.778 0 44.938-20.159 44.938-44.938v-.125c-.001-24.779-20.16-44.938-44.938-44.938z" fill="#2e2c27"/></g></g><g><g><path d="m89.504 271.997v-32.006c0-8.284 6.716-15 15-15s15 6.716 15 15v32.006z" fill="#787465"/></g><g><path d="m224.506 376.999h-165.004c-8.284 0-15-6.716-15-15v-90.002c0-8.284 6.716-15 15-15h165.004z" fill="#ffb500"/></g><g><g><path d="m350.51 376.999h-154.498v-199.929h78.496c3.764 0 7.39 1.415 10.159 3.964l46.957 43.226c21.535 19.825 33.886 47.982 33.886 77.253v60.486c0 8.284-6.716 15-15 15z" fill="#ffcf2c"/></g></g><path d="m269.508 177.07v103.427c0 8.284 6.716 15 15 15h80.823c-1.567-27.085-13.651-52.775-33.706-71.238l-46.957-43.226c-2.77-2.549-6.395-3.964-10.159-3.964h-5.001z" fill="#176cad"/></g><g><g><g><path d="m480.514 244.84h-64.002c-6.023 0-11.46-3.602-13.811-9.146l-71.011-167.529c-2.786-6.573-.553-14.2 5.34-18.233l49.511-33.881c3.71-2.539 8.363-3.279 12.683-2.018 4.316 1.263 7.838 4.396 9.596 8.535l85.503 201.409c1.967 4.633 1.479 9.943-1.299 14.14-2.78 4.199-7.477 6.723-12.51 6.723z" fill="#ff9300"/></g><g><path d="m413.005 371.996c-2.319 0-4.647-.537-6.794-1.628-5.033-2.558-8.204-7.726-8.204-13.372v-134.002c0-8.284 6.716-15 15-15h53.993c24.814 0 45 20.186 45 45v17.292c0 20.684-9.975 40.311-26.682 52.504l-63.469 46.322c-2.616 1.91-5.722 2.884-8.844 2.884z" fill="#ffc12e"/></g></g><g><path d="m263.791 211.526c-3.664 0-7.333-1.334-10.22-4.021l-43.84-40.816c-2.958-2.755-4.68-6.586-4.774-10.627-.095-4.041 1.445-7.949 4.271-10.839l130.557-133.503c2.931-2.997 6.991-4.649 11.171-4.506 4.19.125 8.137 1.997 10.883 5.162l39.311 45.306c5.116 5.896 4.855 14.729-.599 20.313l-126.028 129.013c-2.935 3.005-6.831 4.518-10.732 4.518z" fill="#ffb500"/></g><g><ellipse cx="370.004" cy="45" fill="#ff9300" rx="30" ry="30" transform="matrix(.999 -.038 .038 .999 -1.454 14.233)"/><path d="m370.004 90c-24.814 0-45-20.187-45-45s20.186-45 45-45c24.813 0 45 20.187 45 45s-20.187 45-45 45zm0-60c-8.271 0-15 6.729-15 15s6.729 15 15 15 15-6.729 15-15-6.729-15-15-15z" fill="#ffcf2c"/></g><g><circle cx="241.011" cy="177.07" fill="#ff9300" r="30"/><path d="m241.012 222.07c-24.813 0-45-20.186-45-45 0-24.813 20.187-44.999 45-44.999s45 20.186 45 44.999c0 24.814-20.187 45-45 45zm0-59.999c-8.271 0-15 6.729-15 14.999 0 8.271 6.729 15 15 15s15-6.729 15-15c0-8.27-6.729-14.999-15-14.999z" fill="#ffe645"/></g></g></g></svg>