<?xml version="1.0" encoding="iso-8859-1"?>
<!-- Generator: Adobe Illustrator 19.0.0, SVG Export Plug-In . SVG Version: 6.00 Build 0)  -->
<svg version="1.1" id="Capa_1" xmlns="http://www.w3.org/2000/svg" xmlns:xlink="http://www.w3.org/1999/xlink" x="0px" y="0px"
	 viewBox="0 0 512 512" style="enable-background:new 0 0 512 512;" xml:space="preserve">
<path style="fill:#FF9F3D;" d="M289.544,81h45.603l10.525-32.385c0.877-2.693-0.725-4.897-3.557-4.897H281.68
	c-2.832,0-4.387,2.188-3.453,4.862L289.544,81z"/>
<path style="fill:#FFBB4A;" d="M311.94,110.239c17.889,0,34.82,2.823,49.882,7.84L358.5,83.281c-0.27-2.819-2.809-5.127-5.641-5.127
	h-81.84c-2.832,0-5.371,2.308-5.641,5.127l-3.321,34.799C277.118,113.063,294.051,110.239,311.94,110.239z"/>
<path style="opacity:0.1;fill:#231F20;enable-background:new    ;" d="M284.519,112.514l2.79-29.232
	c0.27-2.819,2.809-5.127,5.641-5.127h-21.93c-2.832,0-5.371,2.308-5.641,5.127l-3.321,34.799
	C269.16,115.714,276.678,113.838,284.519,112.514z"/>
<path style="fill:#D7F7FF;" d="M207.02,512c-7.422,0-13.818-5.212-15.291-12.463c-5.148-25.315-7.762-52.006-7.762-79.33
	c0-67.146,16.244-131.069,44.566-175.378c2.182-3.409,1.406-7.845-1.799-10.321c-18.182-14.051-28.191-31.982-28.191-50.489
	c0-42.335,50.869-76.779,113.397-76.779c62.529,0,113.4,34.444,113.4,76.779c0,18.507-10.014,36.438-28.195,50.489
	c-3.203,2.477-3.979,6.912-1.799,10.323c28.322,44.307,44.566,108.23,44.566,175.376c0,27.324-2.611,54.015-7.76,79.33
	C430.68,506.788,424.283,512,416.861,512H207.02z"/>
<path style="fill:#3EAF91;" d="M198.543,184.019c0,18.507,10.01,36.438,28.191,50.489c3.205,2.477,3.98,6.912,1.799,10.321
	c-28.322,44.309-44.566,108.232-44.566,175.378c0,27.324,2.613,54.015,7.762,79.33c1.473,7.251,7.869,12.463,15.291,12.463h209.842
	c7.422,0,13.818-5.212,15.291-12.463c5.148-25.315,7.76-52.006,7.76-79.33c0-67.146-16.244-131.069-44.566-175.376
	c-2.18-3.411-1.404-7.847,1.799-10.323c18.182-14.051,28.195-31.982,28.195-50.489c0-0.512-0.014-1.019-0.029-1.528H198.57
	C198.555,183,198.543,183.507,198.543,184.019z"/>
<path style="opacity:0.1;fill:#231F20;enable-background:new    ;" d="M214.313,499.537c-5.15-25.315-7.762-52.006-7.762-79.33
	c0-67.146,16.244-131.069,44.566-175.378c2.18-3.409,1.406-7.845-1.799-10.321c-18.182-14.051-28.191-31.982-28.191-50.489
	c0-39.755,44.859-72.55,102.104-76.398c-3.713-0.251-7.48-0.381-11.291-0.381c-62.527,0-113.397,34.444-113.397,76.779
	c0,18.507,10.01,36.438,28.191,50.489c3.205,2.477,3.98,6.912,1.799,10.321c-28.322,44.309-44.566,108.232-44.566,175.378
	c0,27.324,2.613,54.015,7.762,79.33c1.473,7.251,7.869,12.463,15.291,12.463h22.584C222.182,512,215.785,506.788,214.313,499.537z"
	/>
<path style="fill:#FFBB4A;" d="M226.711,473.123c-2.482-17.109-3.73-34.803-3.73-52.916c0-55.338,12.291-108.789,33.721-146.645
	c16.492-29.123,37.143-46.511,55.238-46.511c18.096,0,38.746,17.388,55.238,46.511c21.432,37.855,33.721,91.307,33.721,146.645
	c0,18.113-1.248,35.807-3.73,52.916H226.711z"/>
<path style="fill:#FFFFFF;" d="M256.701,273.563c-2.676,4.727-5.209,9.697-7.594,14.884h125.665
	c-2.385-5.186-4.919-10.157-7.595-14.884c-16.492-29.123-37.143-46.511-55.238-46.511
	C293.844,227.052,273.193,244.439,256.701,273.563z"/>
<path style="opacity:0.1;fill:#231F20;enable-background:new    ;" d="M278.691,273.563c13.227-23.358,29.129-39.157,44.242-44.5
	c-3.73-1.319-7.412-2.011-10.994-2.011c-18.096,0-38.746,17.388-55.238,46.511c-21.43,37.855-33.721,91.307-33.721,146.645
	c0,18.113,1.248,35.807,3.73,52.916h21.988c-2.48-17.109-3.73-34.803-3.73-52.916C244.969,364.869,257.262,311.418,278.691,273.563z
	"/>
<path style="fill:#FF9F3D;" d="M295.822,3.98C297.621,1.791,301.41,0,304.243,0h14.236c2.834,0,6.666,1.755,8.517,3.898
	l18.084,20.946c1.852,2.145,1.049,3.899-1.785,3.899H280.63c-2.832,0-3.68-1.79-1.881-3.979L295.822,3.98z"/>
<path style="fill:#FFBB4A;" d="M359.621,43.389c0,2.833-2.318,5.15-5.15,5.15H269.41c-2.832,0-5.15-2.317-5.15-5.15v-12.44
	c0-2.834,2.318-5.151,5.15-5.151h85.061c2.832,0,5.15,2.317,5.15,5.151V43.389z"/>
<path style="fill:#FFFFFF;" d="M314.408,373.897c-1.357,1.023-3.58,1.023-4.938,0l-35.063-26.393c-1.357-1.023-1.357-2.695,0-3.718
	l35.063-26.393c1.357-1.022,3.58-1.022,4.938,0l35.063,26.393c1.357,1.022,1.357,2.695,0,3.718L314.408,373.897z"/>
<g>
	<path style="fill:#3EAF91;" d="M337.647,415.862h-51.414c-4.143,0-7.5-3.357-7.5-7.5s3.357-7.5,7.5-7.5h51.414
		c4.143,0,7.5,3.357,7.5,7.5S341.789,415.862,337.647,415.862z"/>
	<path style="fill:#3EAF91;" d="M325,443.81h-26.121c-4.143,0-7.5-3.358-7.5-7.5c0-4.143,3.357-7.5,7.5-7.5H325
		c4.143,0,7.5,3.357,7.5,7.5C332.5,440.452,329.143,443.81,325,443.81z"/>
</g>
<ellipse style="fill:#B1E8FF;" cx="132.08" cy="249.7" rx="46.31" ry="46.863"/>
<path style="opacity:0.1;fill:#231F20;enable-background:new    ;" d="M107.744,249.702c0-22.051,15.053-40.534,35.324-45.527
	c-3.521-0.867-7.199-1.338-10.986-1.338c-25.58,0-46.313,20.982-46.313,46.865s20.732,46.863,46.313,46.863
	c3.787,0,7.465-0.471,10.986-1.338C122.797,290.234,107.744,271.753,107.744,249.702z"/>
<ellipse style="fill:#D7F7FF;" cx="146.09" cy="144.93" rx="27.881" ry="28.21"/>
<path style="opacity:0.1;fill:#231F20;enable-background:new    ;" d="M135.338,144.925c0-12.559,8.109-23.196,19.318-26.854
	c-2.699-0.88-5.574-1.361-8.563-1.361c-15.4,0-27.881,12.632-27.881,28.215c0,15.581,12.481,28.213,27.881,28.213
	c2.988,0,5.863-0.48,8.563-1.361C143.447,168.119,135.338,157.482,135.338,144.925z"/>
<path style="fill:#D7F7FF;" d="M294.743,467.06h-12.68c0-13.96-11.355-25.28-25.369-25.28c-9.416,0-17.619,5.129-21.994,12.725
	c-3.137-12.936-14.793-22.555-28.736-22.555c-1.004,0-1.99,0.052-2.969,0.149c0.096-0.974,0.148-1.96,0.148-2.958
	c0-16.291-13.248-29.494-29.594-29.494c-16.344,0-29.594,13.203-29.594,29.494c0,2.44,0.332,4.798,0.893,7.065
	c-0.299-0.008-0.592-0.044-0.893-0.044c-16.342,0-29.594,13.204-29.594,29.493c0,0.473,0.049,0.936,0.074,1.404H94.637
	c-12.453,0-22.549,10.061-22.549,22.471c0,12.411,10.096,22.47,22.549,22.47h200.107c12.455,0,22.549-10.059,22.549-22.47
	C317.293,477.121,307.199,467.06,294.743,467.06z"/>
<g>
	<path style="fill:#B1E8FF;" d="M132,478.993c-4.143,0-7.5-3.357-7.5-7.5c0-13.781,11.238-24.993,25.053-24.993
		c11,0,20.874,7.34,24.013,17.851c1.186,3.969-1.071,8.147-5.041,9.332c-3.966,1.188-8.146-1.071-9.332-5.041
		c-1.256-4.205-5.22-7.142-9.64-7.142c-5.543,0-10.053,4.483-10.053,9.993C139.5,475.636,136.143,478.993,132,478.993z"/>
	<path style="fill:#B1E8FF;" d="M186.139,438c-4.143,0-7.5-3.357-7.5-7.5c0-2.084-1.714-3.78-3.82-3.78
		c-2.105,0-3.818,1.696-3.818,3.78c0,4.143-3.357,7.5-7.5,7.5s-7.5-3.357-7.5-7.5c0-10.355,8.441-18.78,18.818-18.78
		c10.378,0,18.82,8.425,18.82,18.78C193.639,434.643,190.281,438,186.139,438z"/>
	<path style="fill:#B1E8FF;" d="M214.139,494.28c-4.143,0-7.5-3.357-7.5-7.5c0-2.084-1.714-3.78-3.82-3.78
		c-2.105,0-3.818,1.696-3.818,3.78c0,4.143-3.357,7.5-7.5,7.5s-7.5-3.357-7.5-7.5c0-10.355,8.441-18.78,18.818-18.78
		c10.378,0,18.82,8.425,18.82,18.78C221.639,490.923,218.281,494.28,214.139,494.28z"/>
</g>
<g>
</g>
<g>
</g>
<g>
</g>
<g>
</g>
<g>
</g>
<g>
</g>
<g>
</g>
<g>
</g>
<g>
</g>
<g>
</g>
<g>
</g>
<g>
</g>
<g>
</g>
<g>
</g>
<g>
</g>
</svg>
