<svg height="469pt" viewBox="0 0 469.59375 469" width="469pt" xmlns="http://www.w3.org/2000/svg"><path d="m341.332031 213.628906 16.472657-49.410156c2.902343-8.710938 11.054687-14.589844 20.238281-14.589844h48.625l21.332031-85.332031-85.332031-42.667969-42.667969-21.332031h-21.332031s-21.335938 21.332031-64 21.332031c-42.667969 0-63.113281-21.332031-63.113281-21.332031h-22.222657l-128 64 21.335938 85.332031h48.621093c9.183594 0 17.335938 5.878906 20.238282 14.589844l16.472656 49.410156s-128 42.667969-128 192c0 0 64 64 234.667969 64 170.664062 0 234.664062-64 234.664062-64 0-149.332031-128-192-128-192zm0 0" fill="#f73478"/><path d="m337.96875 223.714844-20.230469-6.75 19.835938-59.5c5.789062-17.429688 22.101562-29.1875 40.46875-29.167969h40.289062v21.332031h-40.289062c-9.183594-.003906-17.339844 5.871094-20.242188 14.585938zm0 0" fill="#c2004f"/><path d="m179.5 277.628906v-21.332031c8.003906.023437 15.6875-3.15625 21.332031-8.832031l33.835938-33.835938-33.835938-33.832031c-5.644531-5.675781-13.328125-8.855469-21.332031-8.832031v-21.335938c13.667969-.039062 26.78125 5.394532 36.417969 15.085938l48.914062 48.914062-48.914062 48.917969c-9.636719 9.691406-22.75 15.121094-36.417969 15.082031zm0 0" fill="#e41a67"/><path d="m289.832031 277.628906c-13.664062.039063-26.777343-5.390625-36.414062-15.082031l-48.917969-48.917969 48.917969-48.914062c14.726562-14.730469 36.878906-19.136719 56.125-11.164063 19.242187 7.972657 31.789062 26.75 31.789062 47.578125v25c-.03125 28.429688-23.070312 51.46875-51.5 51.5zm-55.164062-64 33.832031 33.835938c8.628906 8.625 21.605469 11.203125 32.875 6.535156 11.273438-4.667969 18.625-15.667969 18.625-27.871094v-25c0-12.199218-7.351562-23.199218-18.625-27.867187-11.269531-4.671875-24.246094-2.089844-32.875 6.535156zm0 0" fill="#e41a67"/><path d="m179.5 277.628906v-21.332031c8.003906.023437 15.6875-3.15625 21.332031-8.832031l33.835938-33.835938-33.835938-33.832031c-5.644531-5.675781-13.328125-8.855469-21.332031-8.832031v-21.335938c13.667969-.039062 26.78125 5.394532 36.417969 15.085938l48.914062 48.914062-48.914062 48.917969c-9.636719 9.691406-22.75 15.121094-36.417969 15.082031zm0 0" fill="#e41a67"/><path d="m289.832031 277.628906c-13.664062.039063-26.777343-5.390625-36.414062-15.082031l-48.917969-48.917969 48.917969-48.914062c14.726562-14.730469 36.878906-19.136719 56.125-11.164063 19.242187 7.972657 31.789062 26.75 31.789062 47.578125v25c-.03125 28.429688-23.070312 51.46875-51.5 51.5zm-55.164062-64 33.832031 33.835938c8.628906 8.625 21.605469 11.203125 32.875 6.535156 11.273438-4.667969 18.625-15.667969 18.625-27.871094v-25c0-12.199218-7.351562-23.199218-18.625-27.867187-11.269531-4.671875-24.246094-2.089844-32.875 6.535156zm0 0" fill="#e41a67"/><path d="m264.832031 243.796875-15.082031-15.082031c8.332031-8.332032 8.332031-21.835938 0-30.167969s-21.835938-8.332031-30.167969 0l-15.082031-15.082031c16.660156-16.660156 43.671875-16.660156 60.332031 0 16.660157 16.660156 16.660157 43.671875 0 60.332031zm0 0" fill="#e41a67"/><path d="m85.332031 128.296875h-21.332031v-21.332031h21.332031v-74.667969h21.335938v74.667969c-.015625 11.773437-9.558594 21.316406-21.335938 21.332031zm0 0" fill="#fa7ca7"/><path d="m46.179688 75.722656-5.300782-21.199218-19.546875 9.773437 21.335938 85.332031h21.988281l-5.332031-21.332031zm0 0" fill="#5bcade"/><path d="m423.152344 75.722656 5.300781-21.199218 19.546875 9.773437-21.332031 85.332031h-21.992188l5.335938-21.332031zm0 0" fill="#27b9d4"/><path d="m234.667969 106.964844c-46.917969.191406-88.394531-30.449219-101.992188-75.355469l20.398438-6.25c11.015625 35.824219 44.113281 60.269531 81.59375 60.269531 37.476562 0 70.574219-24.445312 81.59375-60.269531l20.394531 6.25c-13.59375 44.910156-55.070312 75.554687-101.988281 75.355469zm0 0" fill="#e41a67"/><path d="m234.667969 106.964844v-21.335938c37.53125.167969 70.714843-24.34375 81.59375-60.269531l20.394531 6.25c-13.59375 44.910156-55.070312 75.554687-101.988281 75.355469zm0 0" fill="#c2004f"/><path d="m341.332031 64.296875c-20.160156.078125-39.160156-9.421875-51.195312-25.59375l17.0625-12.8125c8.019531 10.789063 20.691406 17.128906 34.132812 17.074219zm0 0" fill="#009fc2"/><path d="m128 64.296875v-21.332031c13.445312.054687 26.113281-6.285156 34.136719-17.074219l17.0625 12.8125c-12.039063 16.171875-31.039063 25.671875-51.199219 25.59375zm0 0" fill="#27b9d4"/><path d="m234.667969 74.964844c41.234375 0 74.664062-33.429688 74.664062-74.667969h-10.664062s-21.335938 21.332031-64 21.332031c-42.667969 0-63.113281-21.332031-63.113281-21.332031h-11.554688c0 41.238281 33.429688 74.667969 74.667969 74.667969zm0 0" fill="#fa7ca7"/><path d="m128 42.964844v-21.335938c11.777344-.015625 21.316406-9.554687 21.332031-21.332031h21.335938c-.023438 23.554687-19.113281 42.644531-42.667969 42.667969zm0 0" fill="#e41a67"/><path d="m341.332031 42.964844c-23.554687-.023438-42.640625-19.113282-42.664062-42.667969h21.332031c.015625 11.777344 9.558594 21.316406 21.332031 21.332031zm0 0" fill="#c2004f"/><path d="m234.667969 85.628906c-47.105469-.050781-85.28125-38.226562-85.335938-85.332031h21.335938c0 35.347656 28.652343 64 64 64 35.34375 0 64-28.652344 64-64h21.332031c-.054688 47.105469-38.226562 85.28125-85.332031 85.332031zm0 0" fill="#27b9d4"/><path d="m384 149.628906c-23.554688-.023437-42.644531-19.109375-42.667969-42.664062v-85.335938h21.335938v85.335938c.015625 11.773437 9.554687 21.316406 21.332031 21.332031zm0 0" fill="#c2004f"/><path d="m85.332031 149.628906v-21.332031c11.777344-.015625 21.320313-9.558594 21.335938-21.332031v-85.335938h21.332031v85.335938c-.023438 23.554687-19.113281 42.640625-42.667969 42.664062zm0 0" fill="#e41a67"/><path d="m341.332031 74.964844c0 5.890625-4.773437 10.664062-10.664062 10.664062s-10.667969-4.773437-10.667969-10.664062 4.777344-10.667969 10.667969-10.667969 10.664062 4.777344 10.664062 10.667969zm0 0" fill="#7cd5e5"/><path d="m320 64.296875h21.332031v64h-21.332031zm0 0" fill="#f9578f"/><path d="m341.332031 213.628906h-213.332031s-128 42.667969-128 192c0 0 64 64 234.667969 64 170.664062 0 234.664062-64 234.664062-64 0-149.332031-128-192-128-192zm0 0" fill="#27b9d4"/><path d="m394.640625 445.859375c-.402344-22.359375-7.011719-177.253906-111.503906-232.230469h-27.136719l-3.375 10.117188c119.136719 39.71875 120.707031 222.71875 120.707031 224.5625v4.179687c7.601563-2.117187 14.695313-4.34375 21.308594-6.628906zm0 0" fill="#009fc2"/><path d="m234.667969 426.964844c-132.929688 0-201-44.367188-203.835938-46.25l23.574219-35.5625c.605469.394531 61.394531 39.144531 180.261719 39.144531zm0 0" fill="#5bcade"/><path d="m153.71875 421.058594c-16.511719-2.5-32.871094-5.921875-49-10.25l11.144531-41.1875c14.574219 3.914062 29.351563 7 44.273438 9.25zm0 0" fill="#b4e7f0"/><g fill="#009fc2"><path d="m12.363281 415.417969c6.324219 4.367187 12.894531 8.367187 19.675781 11.984375 1.890626-13.039063 26.375-165.109375 142.003907-203.65625l-3.375-10.117188h-27.816407c-96.019531 47.964844-124.0625 165.996094-130.488281 201.789063zm0 0"/><path d="m74.691406 445.859375c6.617188 2.285156 13.710938 4.511719 21.308594 6.628906v-4.191406c0-1.84375 1.386719-184.769531 120.707031-224.550781l-3.375-10.117188h-27.136719c-104.488281 54.976563-111.097656 209.871094-111.503906 232.230469zm0 0"/><path d="m160.035156 465.136719c6.859375.867187 13.964844 1.625 21.316406 2.265625.273438-21.34375 4.253907-189.625 60.855469-246.230469l-7.539062-7.542969h-14.378907c-55.097656 66.644532-59.851562 222.351563-60.253906 251.507813zm0 0"/><path d="m309.296875 465.136719c-.402344-29.15625-5.152344-184.863281-60.253906-251.507813h-14.375l-7.542969 7.542969c56.566406 56.566406 60.578125 224.882813 60.855469 246.230469 7.359375-.636719 14.464843-1.390625 21.316406-2.265625zm0 0"/><path d="m234.667969 469.628906v-42.664062c106.570312 0 166.207031-27.179688 190.945312-42.136719-8.914062-85.394531-72.09375-119.667969-92.351562-128.53125h-141.261719v-42.667969h149.582031l3.773438 1.492188c19.707031 7.78125 118.320312 53.007812 123.75 179.675781l.488281 11.40625-9.21875 6.738281c-23.324219 17.042969-92.011719 56.6875-225.707031 56.6875zm0 0"/><path d="m179.5 277.628906v-21.332031c8.003906.023437 15.6875-3.15625 21.332031-8.832031l41.375-41.375 15.085938 15.082031-41.375 41.375c-9.636719 9.691406-22.75 15.121094-36.417969 15.082031zm0 0"/><path d="m289.832031 277.628906c-13.664062.039063-26.777343-5.390625-36.414062-15.082031l-41.375-41.375 15.082031-15.082031 41.375 41.375c8.628906 8.625 21.605469 11.203125 32.875 6.535156 11.273438-4.667969 18.625-15.667969 18.625-27.871094v-12.5h21.332031v12.5c-.03125 28.429688-23.070312 51.46875-51.5 51.5zm0 0"/></g><path d="m234.667969 213.628906-11.167969-11.164062-22.664062-22.664063c-5.65625-5.660156-13.332032-8.835937-21.332032-8.835937-16.664062 0-30.171875 13.507812-30.171875 30.167968v24.996094c0 16.660156 13.507813 30.167969 30.171875 30.167969 8 0 15.675782-3.179687 21.332032-8.835937zm0 0" fill="#f9578f"/><path d="m234.667969 213.628906 33.828125-33.828125c5.660156-5.660156 13.332031-8.835937 21.335937-8.835937 16.660157 0 30.167969 13.507812 30.167969 30.167968v24.996094c0 16.660156-13.507812 30.167969-30.167969 30.167969-8.003906 0-15.675781-3.179687-21.335937-8.835937zm0 0" fill="#f9578f"/><path d="m264.832031 243.796875-15.082031-15.082031c8.3125-8.339844 8.3125-21.832032 0-30.167969l15.082031-15.082031c16.636719 16.667968 16.636719 43.660156 0 60.332031zm0 0" fill="#f73478"/><path d="m234.667969 192.296875c11.78125 0 21.332031 9.550781 21.332031 21.332031 0 11.785156-9.550781 21.335938-21.332031 21.335938-11.785157 0-21.335938-9.550782-21.335938-21.335938 0-11.78125 9.550781-21.332031 21.335938-21.332031zm0 0" fill="#fa7ca7"/><path d="m192 202.964844c0 5.890625-4.777344 10.664062-10.667969 10.664062s-10.664062-4.773437-10.664062-10.664062 4.773437-10.667969 10.664062-10.667969 10.667969 4.777344 10.667969 10.667969zm0 0" fill="#fb91b5"/><path d="m298.667969 202.964844c0 5.890625-4.777344 10.664062-10.667969 10.664062s-10.667969-4.773437-10.667969-10.664062 4.777344-10.667969 10.667969-10.667969 10.667969 4.777344 10.667969 10.667969zm0 0" fill="#fb91b5"/></svg>