<svg id="Flat" height="512" viewBox="0 0 64 64" width="512" xmlns="http://www.w3.org/2000/svg"><path d="m10 49v6c0 3.314 9.85 6 22 6s22-2.686 22-6v-6z" fill="#35d7fd"/><path d="m10 49v6c0 3.314 9.85 6 22 6s22-2.686 22-6v-6z" fill="#03b3e2"/><path d="m10 47v6c0 3.314 9.85 6 22 6s22-2.686 22-6v-6z" fill="#35d7fd"/><path d="m10 30v21c0 3.314 9.85 6 22 6s22-2.686 22-6v-21z" fill="#c6ec6b"/><rect fill="#bbf9ff" height="6" rx="2" width="4" x="8" y="41"/><path d="m10 41a1.905 1.905 0 0 0 -.263.027 1.972 1.972 0 0 1 .263.973v2a1.993 1.993 0 0 1 -1.737 1.973 1.993 1.993 0 0 0 3.737-.973v-2a2 2 0 0 0 -2-2z" fill="#35d7fd"/><path d="m42.379 18.621a.761.761 0 0 1 -.039-1.035l12.039-13.965a2.122 2.122 0 0 1 3 0 2.122 2.122 0 0 1 0 3l-13.965 12.039a.761.761 0 0 1 -1.035-.039z" fill="#ffd257"/><path d="m21.621 18.621a.761.761 0 0 0 .039-1.035l-12.039-13.965a2.122 2.122 0 0 0 -3 0 2.122 2.122 0 0 0 0 3l13.965 12.039a.761.761 0 0 0 1.035-.039z" fill="#ffd257"/><g fill="#895e7a"><path d="m31 13h2v4h-2z"/><path d="m35.379 15.5h4.243v2h-4.243z" transform="matrix(.707 -.707 .707 .707 -.684 31.349)"/><path d="m25.5 14.379h2v4.243h-2z" transform="matrix(.707 -.707 .707 .707 -3.906 23.571)"/></g><path d="m10.687 30h-.687v.515c.221-.183.453-.35.687-.515z" fill="#7dd491"/><path d="m43.313 30a10.995 10.995 0 0 1 -6.313 20h-20a10.955 10.955 0 0 1 -7-2.515v3.515c0 3.314 9.85 6 22 6s22-2.686 22-6v-21z" fill="#7dd491"/><path d="m10 30v4c0 3.314 9.85 6 22 6s22-2.686 22-6v-4z" fill="#bbf9ff"/><path d="m21 39h2v18h-2z" fill="#bbf9ff"/><path d="m21 49h2v8h-2z" fill="#35d7fd"/><path d="m41 39h2v18h-2z" fill="#bbf9ff"/><path d="m41 47h2v10h-2z" fill="#35d7fd"/><rect fill="#bbf9ff" height="6" rx="2" width="4" x="40" y="44"/><path d="m42 44a1.905 1.905 0 0 0 -.263.027 1.972 1.972 0 0 1 .263.973v2a1.993 1.993 0 0 1 -1.737 1.973 1.993 1.993 0 0 0 3.737-.973v-2a2 2 0 0 0 -2-2z" fill="#35d7fd"/><rect fill="#bbf9ff" height="6" rx="2" width="4" x="20" y="44"/><path d="m22 44a1.905 1.905 0 0 0 -.263.027 1.972 1.972 0 0 1 .263.973v2a1.993 1.993 0 0 1 -1.737 1.973 1.993 1.993 0 0 0 3.737-.973v-2a2 2 0 0 0 -2-2z" fill="#35d7fd"/><rect fill="#35d7fd" height="6" rx="2" width="4" x="52" y="41"/><path d="m54 41a1.905 1.905 0 0 0 -.263.027 1.972 1.972 0 0 1 .263.973v2a1.993 1.993 0 0 1 -1.737 1.973 1.993 1.993 0 0 0 3.737-.973v-2a2 2 0 0 0 -2-2z" fill="#03b3e2"/><path d="m48 30v8.116c3.717-1.075 6-2.522 6-4.116v-4z" fill="#35d7fd"/><path d="m14 32v5.448a28.58 28.58 0 0 0 4 1.18v-6.628z" fill="#fff"/><ellipse cx="32" cy="30" fill="#ffe8ae" rx="22" ry="6"/><path d="m32.166 24c5.926 1.076 9.834 2.913 9.834 5 0 3.314-9.85 6-22 6h-.166a69.556 69.556 0 0 0 12.166 1c12.15 0 22-2.686 22-6 0-3.3-9.761-5.974-21.834-6z" fill="#ffd257"/><path d="m14.875 45.438.834.417a1.583 1.583 0 0 0 2.291-1.416v-2.2a1.583 1.583 0 0 0 -1.182-1.529c-.27-.07-.534-.143-.791-.217a1.581 1.581 0 0 0 -2.027 1.52v2.009a1.585 1.585 0 0 0 .875 1.416z" fill="#fff"/></svg>