<?xml version="1.0" encoding="iso-8859-1"?>
<!-- Generator: Adobe Illustrator 19.0.0, SVG Export Plug-In . SVG Version: 6.00 Build 0)  -->
<svg version="1.1" id="Capa_1" xmlns="http://www.w3.org/2000/svg" xmlns:xlink="http://www.w3.org/1999/xlink" x="0px" y="0px"
	 viewBox="0 0 511.585 511.585" style="enable-background:new 0 0 511.585 511.585;" xml:space="preserve">
<g>
	<polygon style="fill:#E57E25;" points="246.758,254.554 246.758,328.114 282.068,328.114 282.068,239.838 	"/>
	<path style="fill:#F29C1F;" d="M123.171,319.286h158.897c4.875,0,8.828,3.952,8.828,8.828v35.31H114.344v-35.31
		C114.344,323.238,118.296,319.286,123.171,319.286z"/>
	<polygon style="fill:#E57E25;" points="87.861,222.183 87.861,363.424 52.551,363.424 52.551,195.7 	"/>
	<path style="fill:#D25627;" d="M511.585,273.03v116.877c-0.029,9.739-7.916,17.626-17.655,17.655H343.861v-220.69h89.159
		c5.057-0.014,9.877,2.139,13.241,5.914l60.822,68.502C509.979,264.514,511.583,268.695,511.585,273.03L511.585,273.03z"/>
	<path style="fill:#E57E25;" d="M449.792,407.562H34.895c-9.739-0.029-17.627-7.916-17.655-17.655v-35.31h379.586
		C426.069,354.62,449.769,378.32,449.792,407.562z"/>
	<circle style="fill:#95A5A5;" cx="396.827" cy="407.562" r="52.966"/>
	<circle style="fill:#E6E7E8;" cx="396.827" cy="407.562" r="17.655"/>
	<path style="fill:#B0D3F0;" d="M511.585,273.03v28.601h-97.103c-9.739-0.029-17.627-7.916-17.655-17.655v-97.103h36.193
		c5.057-0.014,9.877,2.139,13.241,5.914l60.822,68.502C509.979,264.514,511.583,268.695,511.585,273.03L511.585,273.03z"/>
	<rect x="211.447" y="354.597" style="fill:#F29C1F;" width="79.448" height="52.966"/>
	<circle style="fill:#95A5A5;" cx="114.344" cy="407.562" r="52.966"/>
	<circle style="fill:#E6E7E8;" cx="114.344" cy="407.562" r="17.655"/>
	<path style="fill:#E57E25;" d="M208.516,282.408l-93.595-26.988c-1.823-0.526-3.55-1.342-5.113-2.417L7.652,182.742
		c-6.261-4.306-9.065-12.136-6.959-19.438l27.19-94.295c2.105-7.302,8.647-12.437,16.24-12.749l123.882-5.084
		c1.896-0.078,3.792,0.151,5.615,0.676l93.595,26.988c3.536,1.019,6.664,3.118,8.949,6.003l37.992,47.971
		c3.54,4.47,4.703,10.374,3.123,15.853l-29.207,101.289c-1.58,5.479-5.708,9.857-11.084,11.756l-57.701,20.38
		C215.818,283.317,212.052,283.428,208.516,282.408z"/>
	
		<rect x="139.445" y="61.585" transform="matrix(-0.9609 -0.2771 0.2771 -0.9609 330.8762 381.7835)" style="fill:#F29C1F;" width="105.931" height="211.862"/>
</g>
<g>
</g>
<g>
</g>
<g>
</g>
<g>
</g>
<g>
</g>
<g>
</g>
<g>
</g>
<g>
</g>
<g>
</g>
<g>
</g>
<g>
</g>
<g>
</g>
<g>
</g>
<g>
</g>
<g>
</g>
</svg>
