<?xml version="1.0" encoding="iso-8859-1"?>
<!-- Generator: Adobe Illustrator 19.0.0, SVG Export Plug-In . SVG Version: 6.00 Build 0)  -->
<svg version="1.1" id="Layer_1" xmlns="http://www.w3.org/2000/svg" xmlns:xlink="http://www.w3.org/1999/xlink" x="0px" y="0px"
	 viewBox="0 0 512 512" style="enable-background:new 0 0 512 512;" xml:space="preserve">
<g>
	<rect x="34.133" y="358.4" style="fill:#F28618;" width="466.489" height="34.133"/>
	<rect x="34.133" y="153.6" style="fill:#F28618;" width="466.489" height="34.133"/>
</g>
<path style="fill:#FFBD66;" d="M85.333,460.8H17.067C7.639,460.8,0,453.161,0,443.733V102.4c0-4.527,1.8-8.867,5.001-12.066
	l34.133-34.133c6.666-6.666,17.467-6.666,24.133,0l34.133,34.133c3.199,3.199,4.999,7.539,4.999,12.066v341.333
	C102.4,453.161,94.761,460.8,85.333,460.8z"/>
<path style="fill:#FFB24D;" d="M85.333,460.8c9.428,0,17.067-7.639,17.067-17.067V102.4c0-4.527-1.8-8.867-5.001-12.066
	L63.266,56.201C59.934,52.867,55.567,51.2,51.2,51.2v409.6H85.333z"/>
<path style="fill:#FFBD66;" d="M221.867,460.8H153.6c-9.428,0-17.067-7.639-17.067-17.067V102.4c0-4.527,1.8-8.867,5.001-12.066
	l34.133-34.133c6.666-6.666,17.467-6.666,24.133,0l34.133,34.133c3.199,3.199,4.999,7.539,4.999,12.066v341.333
	C238.933,453.161,231.294,460.8,221.867,460.8z"/>
<path style="fill:#FFB24D;" d="M221.867,460.8c9.428,0,17.067-7.639,17.067-17.067V102.4c0-4.527-1.8-8.867-5.001-12.066
	l-34.133-34.133c-3.333-3.334-7.699-5.001-12.066-5.001v409.6H221.867z"/>
<path style="fill:#FFBD66;" d="M358.4,460.8h-68.267c-9.428,0-17.067-7.639-17.067-17.067V102.4c0-4.527,1.8-8.867,5.001-12.066
	l34.133-34.133c6.666-6.666,17.467-6.666,24.133,0l34.133,34.133c3.199,3.199,4.999,7.539,4.999,12.066v341.333
	C375.467,453.161,367.828,460.8,358.4,460.8z"/>
<path style="fill:#FFB24D;" d="M358.4,460.8c9.428,0,17.067-7.639,17.067-17.067V102.4c0-4.527-1.8-8.867-5.001-12.066
	l-34.133-34.133C333,52.867,328.633,51.2,324.267,51.2v409.6H358.4z"/>
<path style="fill:#FFBD66;" d="M494.933,460.8h-68.267c-9.428,0-17.067-7.639-17.067-17.067V102.4c0-4.527,1.8-8.867,5.001-12.066
	l34.133-34.133c6.666-6.666,17.467-6.666,24.133,0l34.133,34.133C510.2,93.533,512,97.873,512,102.4v341.333
	C512,453.161,504.361,460.8,494.933,460.8z"/>
<path style="fill:#FFB24D;" d="M494.933,460.8c9.428,0,17.067-7.639,17.067-17.067V102.4c0-4.527-1.8-8.867-5.001-12.066
	l-34.133-34.133c-3.333-3.334-7.699-5.001-12.066-5.001v409.6H494.933z"/>
<circle style="fill:#997B57;" cx="460.8" cy="170.667" r="17.067"/>
<path style="fill:#806749;" d="M477.867,170.667c0-9.425-7.641-17.067-17.067-17.067v34.133
	C470.225,187.733,477.867,180.092,477.867,170.667z"/>
<circle style="fill:#997B57;" cx="324.267" cy="170.667" r="17.067"/>
<path style="fill:#806749;" d="M341.333,170.667c0-9.425-7.641-17.067-17.067-17.067v34.133
	C333.692,187.733,341.333,180.092,341.333,170.667z"/>
<circle style="fill:#997B57;" cx="187.733" cy="170.667" r="17.067"/>
<path style="fill:#806749;" d="M204.8,170.667c0-9.425-7.641-17.067-17.067-17.067v34.133
	C197.159,187.733,204.8,180.092,204.8,170.667z"/>
<circle style="fill:#997B57;" cx="51.2" cy="170.667" r="17.067"/>
<path style="fill:#806749;" d="M68.267,170.667c0-9.425-7.641-17.067-17.067-17.067v34.133
	C60.625,187.733,68.267,180.092,68.267,170.667z"/>
<circle style="fill:#997B57;" cx="460.8" cy="375.467" r="17.067"/>
<path style="fill:#806749;" d="M477.867,375.467c0-9.425-7.641-17.067-17.067-17.067v34.133
	C470.225,392.533,477.867,384.892,477.867,375.467z"/>
<circle style="fill:#997B57;" cx="324.267" cy="375.467" r="17.067"/>
<path style="fill:#806749;" d="M341.333,375.467c0-9.425-7.641-17.067-17.067-17.067v34.133
	C333.692,392.533,341.333,384.892,341.333,375.467z"/>
<circle style="fill:#997B57;" cx="187.733" cy="375.467" r="17.067"/>
<path style="fill:#806749;" d="M204.8,375.467c0-9.425-7.641-17.067-17.067-17.067v34.133
	C197.159,392.533,204.8,384.892,204.8,375.467z"/>
<circle style="fill:#997B57;" cx="51.2" cy="375.467" r="17.067"/>
<path style="fill:#806749;" d="M68.267,375.467c0-9.425-7.641-17.067-17.067-17.067v34.133
	C60.625,392.533,68.267,384.892,68.267,375.467z"/>
<g>
</g>
<g>
</g>
<g>
</g>
<g>
</g>
<g>
</g>
<g>
</g>
<g>
</g>
<g>
</g>
<g>
</g>
<g>
</g>
<g>
</g>
<g>
</g>
<g>
</g>
<g>
</g>
<g>
</g>
</svg>
