<?xml version="1.0" encoding="iso-8859-1"?>
<!-- Generator: Adobe Illustrator 19.0.0, SVG Export Plug-In . SVG Version: 6.00 Build 0)  -->
<svg version="1.1" id="Layer_1" xmlns="http://www.w3.org/2000/svg" xmlns:xlink="http://www.w3.org/1999/xlink" x="0px" y="0px"
	 viewBox="0 0 512 512" style="enable-background:new 0 0 512 512;" xml:space="preserve">
<rect x="195.385" y="285.549" style="fill:#E6E9ED;" width="134.972" height="32.694"/>
<rect x="195.385" y="318.243" style="fill:#5B5E5E;" width="134.972" height="137.604"/>
<rect x="195.385" y="285.549" style="fill:#CCD4DD;" width="89.985" height="32.694"/>
<rect x="195.385" y="318.243" style="fill:#464949;" width="89.985" height="137.604"/>
<path style="fill:#F7A539;" d="M390.235,216.307v-21.172c0-7.392-5.993-13.386-13.386-13.386h-23.575
	c-7.392,0-13.386,5.993-13.386,13.386v21.172H390.235z"/>
<path style="fill:#ED6529;" d="M377.65,181.789c-0.265-0.016-0.53-0.04-0.8-0.04h-23.575c-7.392,0-13.386,5.993-13.386,13.386
	v21.172h25.173v-21.172C365.062,188.013,370.63,182.205,377.65,181.789z"/>
<g>
	<path style="fill:#F7A539;" d="M365.297,164.829c-4.62,0-8.366-3.745-8.366-8.366v-26.026c0-4.621,3.746-8.366,8.366-8.366
		s8.366,3.745,8.366,8.366v26.026C373.663,161.085,369.917,164.829,365.297,164.829z"/>
	<path style="fill:#F7A539;" d="M396.876,170.041c-2.03,0-4.066-0.734-5.674-2.221c-3.394-3.136-3.604-8.427-0.47-11.822
		l17.662-19.12c3.134-3.394,8.427-3.605,11.822-0.468c3.394,3.136,3.603,8.427,0.469,11.822l-17.66,19.12
		C401.375,169.137,399.129,170.041,396.876,170.041z"/>
	<path style="fill:#F7A539;" d="M333.719,170.041c-2.253,0-4.499-0.905-6.148-2.689l-17.66-19.12
		c-3.136-3.394-2.926-8.686,0.469-11.822c3.394-3.137,8.686-2.926,11.822,0.468l17.662,19.12c3.134,3.394,2.925,8.686-0.47,11.822
		C337.784,169.307,335.749,170.041,333.719,170.041z"/>
</g>
<path style="fill:#DEDFE0;" d="M376.565,30.597c-3.493-6.862-11.886-9.595-18.75-6.105l-50.713,25.804L282.65,62.738L48.744,181.749
	h61.495L370.46,49.346C377.326,45.855,380.058,37.46,376.565,30.597z"/>
<path style="fill:#E6E9ED;" d="M357.815,24.492l-50.713,25.804L282.65,62.738l-160.851,81.841
	c-5.16,11.875-9.295,24.298-12.262,37.17h0.703L370.46,49.346c6.865-3.491,9.597-11.886,6.105-18.75
	C373.073,23.734,364.679,21.002,357.815,24.492z"/>
<path style="fill:#FF5357;" d="M198.099,455.854h63.022V227.142c0-7.392-5.993-13.386-13.386-13.386h-11.627H13.386
	C5.993,213.756,0,219.75,0,227.142v215.327c0,7.392,5.993,13.386,13.386,13.386h33.233c0.085-0.263,0.175-0.528,0.267-0.789
	c-1.8-5.19-2.79-10.762-2.79-16.567c0-27.905,22.621-50.523,50.523-50.523c27.906,0,50.525,22.618,50.525,50.523
	c0,5.804-0.989,11.376-2.79,16.567c0.091,0.261,0.181,0.525,0.267,0.789h27.591"/>
<path style="fill:#FF6971;" d="M247.735,213.756h-11.627H104.662c-0.416,5.47-0.628,10.997-0.628,16.575
	c0,98.747,66.46,181.965,157.087,207.381v-210.57C261.121,219.75,255.128,213.756,247.735,213.756z"/>
<g>
	<rect x="52.223" y="247.623" style="fill:#E6E9ED;" width="52.224" height="37.926"/>
	<rect x="156.668" y="247.623" style="fill:#E6E9ED;" width="52.224" height="37.926"/>
</g>
<g>
	<rect x="104.452" y="247.623" style="fill:#F7A539;" width="52.224" height="37.926"/>
	<rect x="208.894" y="247.623" style="fill:#F7A539;" width="52.223" height="37.926"/>
</g>
<path style="fill:#CCD4DD;" d="M145.144,213.756V194.02c0-7.392-5.992-13.386-13.386-13.386H38.217
	c-7.392,0-13.386,5.993-13.386,13.386v19.736H145.144z"/>
<path style="fill:#E6E9ED;" d="M145.144,213.756V194.02c0-7.392-5.992-13.386-13.386-13.386h-21.951
	c-2.54,10.753-4.285,21.814-5.145,33.122H145.144z"/>
<path style="fill:#FF5357;" d="M349.076,438.498c0-27.905,22.621-50.523,50.523-50.523c27.906,0,50.525,22.618,50.525,50.523
	c0,6.098-1.081,11.943-3.059,17.356h48.989c-8.697,0-15.747-7.05-15.747-15.747v-30.693c0-8.695,7.05-15.747,15.747-15.747h0.931
	l-0.173-28.115c0.104-0.672,0.173-1.351,0.173-2.05V331.63c0-7.392-5.992-13.386-13.386-13.386h-5.243l-61.404-103.053h-96.486
	c-7.393,0-13.386,5.993-13.386,13.386v227.277h45.054C350.157,450.442,349.076,444.597,349.076,438.498z"/>
<path style="fill:#97D3EE;" d="M445.072,318.244h33.286l-61.404-103.053h-61.315c-8.697,0-15.749,7.052-15.749,15.747v71.557
	c0,8.697,7.052,15.747,15.749,15.747h61.175"/>
<g>
	<circle style="fill:#5B5E5E;" cx="399.605" cy="438.502" r="50.52"/>
	<circle style="fill:#5B5E5E;" cx="94.625" cy="438.502" r="50.52"/>
</g>
<g>
	<path style="fill:#ED3A47;" d="M22.601,442.468V227.142c0-7.392,5.993-13.386,13.386-13.386H13.386
		C5.993,213.756,0,219.75,0,227.142v215.327c0,7.392,5.993,13.386,13.386,13.386h22.601
		C28.594,455.854,22.601,449.861,22.601,442.468z"/>
	<path style="fill:#ED3A47;" d="M343.068,215.192h-22.6c-7.393,0-13.386,5.993-13.386,13.386v227.277h22.6V228.577
		C329.682,221.185,335.676,215.192,343.068,215.192z"/>
</g>
<path style="fill:#49B5CE;" d="M362.489,302.496v-71.557c0-8.695,7.052-15.747,15.749-15.747h-22.6
	c-8.697,0-15.749,7.052-15.749,15.747v71.557c0,8.697,7.052,15.747,15.749,15.747h22.6
	C369.541,318.244,362.489,311.193,362.489,302.496z"/>
<g>
	<path style="fill:#464949;" d="M371.676,438.498c0-24.017,16.763-44.105,39.223-49.239c-3.635-0.831-7.413-1.284-11.301-1.284
		c-27.902,0-50.523,22.618-50.523,50.523c0,27.907,22.621,50.527,50.523,50.527c3.886,0,7.666-0.453,11.301-1.284
		C388.44,482.607,371.676,462.518,371.676,438.498z"/>
	<path style="fill:#464949;" d="M66.696,438.498c0-24.017,16.763-44.105,39.223-49.239c-3.635-0.831-7.413-1.284-11.301-1.284
		c-27.902,0-50.523,22.618-50.523,50.523c0,27.907,22.621,50.527,50.523,50.527c3.886,0,7.666-0.453,11.301-1.284
		C83.459,482.607,66.696,462.518,66.696,438.498z"/>
</g>
<g>
	<circle style="fill:#E6E9ED;" cx="399.594" cy="438.502" r="17.354"/>
	<circle style="fill:#E6E9ED;" cx="94.625" cy="438.502" r="17.354"/>
</g>
<g>
	<path style="fill:#CCD4DD;" d="M403.445,438.498c0-5.589,2.653-10.545,6.754-13.717c-2.933-2.27-6.604-3.634-10.599-3.634
		c-9.584,0-17.354,7.767-17.354,17.351s7.77,17.356,17.354,17.356c3.996,0,7.667-1.365,10.599-3.635
		C406.097,449.044,403.445,444.087,403.445,438.498z"/>
	<path style="fill:#CCD4DD;" d="M98.465,438.498c0-5.589,2.653-10.543,6.754-13.717c-2.934-2.27-6.605-3.634-10.6-3.634
		c-9.584,0-17.353,7.767-17.353,17.351s7.769,17.356,17.353,17.356c3.996,0,7.667-1.365,10.6-3.635
		C101.117,449.044,98.465,444.087,98.465,438.498z"/>
</g>
<path style="fill:#E23740;" d="M375.323,354.817h-30.183c-4.621,0-8.366-3.745-8.366-8.366c0-4.621,3.745-8.366,8.366-8.366h30.183
	c4.621,0,8.366,3.745,8.366,8.366C383.689,351.073,379.943,354.817,375.323,354.817z"/>
<path style="fill:#F7A539;" d="M512,440.107c0,8.697-7.051,15.747-15.747,15.747h-1.314c-8.697,0-15.747-7.05-15.747-15.747v-30.693
	c0-8.695,7.05-15.747,15.747-15.747h1.314c8.696,0,15.747,7.052,15.747,15.747V440.107z"/>
<path style="fill:#ED6529;" d="M495.596,440.107v-30.693c0-5.961,3.315-11.149,8.202-13.823c-2.241-1.226-4.811-1.925-7.545-1.925
	h-1.314c-8.697,0-15.747,7.052-15.747,15.747v30.693c0,8.697,7.05,15.747,15.747,15.747h1.314c2.734,0,5.304-0.698,7.545-1.925
	C498.911,451.256,495.596,446.069,495.596,440.107z"/>
<rect y="247.623" style="fill:#F7A539;" width="52.223" height="37.926"/>
<rect y="247.623" style="fill:#ED6529;" width="22.601" height="37.926"/>
<g>
</g>
<g>
</g>
<g>
</g>
<g>
</g>
<g>
</g>
<g>
</g>
<g>
</g>
<g>
</g>
<g>
</g>
<g>
</g>
<g>
</g>
<g>
</g>
<g>
</g>
<g>
</g>
<g>
</g>
</svg>
