<svg enable-background="new 0 0 520 520" height="512" viewBox="0 0 520 520" width="512" xmlns="http://www.w3.org/2000/svg"><g id="_x31_66_x2C__Flower_x2C__Garden_x2C__Nature"><g><g><path d="m237.012 365.52c-.047 0-.094 0-.141-.002-2.76-.076-4.936-2.377-4.859-5.137.714-25.717 6.239-76.314 35.213-126.241.575-.997 1.168-1.998 1.77-3.009 1.414-2.372 4.483-3.149 6.854-1.737 2.372 1.414 3.15 4.482 1.737 6.854-.578.97-1.146 1.929-1.704 2.897-27.872 48.026-33.186 96.745-33.874 121.512-.075 2.714-2.299 4.863-4.996 4.863z" fill="#545b66"/><path d="m200.43 305.521c-.557 0-1.123-.094-1.677-.291-2.602-.926-3.959-3.787-3.033-6.389.229-.645 22.687-65.618-2.416-135.45-.934-2.599.415-5.462 3.014-6.396 2.598-.936 5.462.415 6.396 3.014 26.353 73.311 3.415 139.411 2.426 142.188-.728 2.047-2.655 3.324-4.71 3.324z" fill="#545b66"/><path d="m338.62 185.17c-3.44-.93-6.92-1.52-10.39-1.79 6.689-15.35.129-33.37-15.061-40.74-4.41-2.14-9.08-3.15-13.67-3.15-11.23 0-22.04 6.06-27.65 16.53-4.729-5.11-10.479-9.46-17.129-12.68l-18.63 38.41c-8.61 17.75-1.2 39.12 16.55 47.73l10.19 4.94 8.72 4.23.69.34 10.189 4.94c17.75 8.61 39.12 1.2 47.73-16.55l18.63-38.41c-3.329-1.61-6.728-2.87-10.169-3.8z" fill="#f95948"/><path d="m313.17 142.64c15.189 7.37 21.75 25.39 15.061 40.74-14.86-1.18-29.641 3.51-41.101 12.92.31-14.83-5.17-29.33-15.28-40.28 5.61-10.47 16.42-16.53 27.65-16.53 4.59 0 9.26 1.01 13.67 3.15z" fill="#bf2b2b"/><path d="m237.56 121.99-9.18-35.07c-3.04.8-5.93 1.86-8.66 3.16s-5.3 2.84-7.7 4.59c-4.15-13.6-18.33-21.6-32.2-17.97-11.97 3.13-19.89 13.92-19.89 25.75 0 1.88.2 3.79.62 5.7-5.88-.69-11.98-.32-18.05 1.27l9.18 35.06c4.25 16.21 20.82 25.9 37.03 21.66l9.3-2.44 8.59-2.25 9.3-2.43c16.21-4.25 25.9-20.83 21.66-37.03z" fill="#f95948"/><path d="m179.82 76.7c13.87-3.63 28.05 4.37 32.2 17.97-10.23 7.45-17.18 18.62-19.37 31.03-7.99-9.74-19.53-16.08-32.1-17.55-.42-1.91-.62-3.82-.62-5.7 0-11.83 7.92-22.62 19.89-25.75z" fill="#bf2b2b"/><path d="m348.79 188.97-18.63 38.41c-8.61 17.75-29.98 25.16-47.73 16.55l-10.189-4.94 9.119-18.82c.07-.13.131-.26.19-.4 3.61-7.58 5.41-15.56 5.58-23.45 0-.01 0-.01 0-.02 11.46-9.41 26.24-14.1 41.101-12.92 3.47.27 6.949.86 10.39 1.79 3.44.93 6.839 2.19 10.169 3.8z" fill="#d83c39"/><path d="m237.56 121.99c4.24 16.2-5.45 32.78-21.66 37.03l-9.3 2.43-8.59 2.25-4.49-17.17c-.04-.12-.06-.25-.1-.37-1.75-6.91-1.94-13.85-.77-20.45v-.01c2.19-12.41 9.14-23.58 19.37-31.03 2.4-1.75 4.97-3.29 7.7-4.59s5.62-2.36 8.66-3.16z" fill="#d83c39"/><path d="m287.13 196.3v.02c-.17 7.89-1.97 15.87-5.58 23.45-.06.14-.12.27-.19.4l-9.119 18.82-.69-.34-8.72-4.23-10.19-4.94c-17.75-8.61-25.16-29.98-16.55-47.73l18.63-38.41c6.65 3.22 12.4 7.57 17.129 12.68 10.11 10.95 15.589 25.45 15.28 40.28z" fill="#f95948"/><path d="m192.65 125.71c-1.17 6.6-.98 13.54.77 20.45.04.12.06.25.1.37l4.49 17.17-9.3 2.44c-16.21 4.24-32.78-5.45-37.03-21.66l-9.18-35.06c6.07-1.59 12.17-1.96 18.05-1.27 12.57 1.47 24.11 7.81 32.1 17.55z" fill="#f95948"/><path d="m282.5 57.52c8.279 0 15 6.72 15 15s-6.721 15-15 15-15-6.72-15-15 6.721-15 15-15z" fill="#f0a65f"/><path d="m457.5 282.52c11.05 0 20 8.951 20 20 0 11.051-8.95 20-20 20s-20-8.949-20-20c0-11.049 8.95-20 20-20z" fill="#f0a65f"/><circle cx="82.5" cy="432.52" fill="#f0a65f" r="30"/><path d="m313.09 468.801-8.67 8.68c-.842-1.959-1.221-3.623-1.859-6.461-8.041-35.32-1.44-72.4 17.359-103.369 14.01-23.1 39.15-68.051 35.641-88.02-11.471-65.281 60.919-171.381 86.939-207.131l-35.48 245.74c-3.629 47.609-25.83 91.891-61.81 123.279z" fill="#aeef66"/><path d="m211.65 474.33c-.28 1.1-.64 2.15-1.07 3.15l-8.67-8.68-32.12-27.281c-35.98-31.389-58.18-75.67-61.81-123.279l-35.48-245.74c26.02 35.75 98.41 141.85 86.94 207.131-3.51 19.969 21.63 64.92 35.65 88.02 20.157 33.222 25.434 71.861 16.56 106.679z" fill="#aeef66"/><g fill="#feccc1"><circle cx="460" cy="215.02" r="7.5"/><path d="m420 417.52c4.141 0 7.5 3.361 7.5 7.5 0 4.141-3.359 7.5-7.5 7.5s-7.5-3.359-7.5-7.5c0-4.139 3.359-7.5 7.5-7.5z"/><circle cx="350" cy="90.02" r="7.5"/><path d="m315 282.52c4.141 0 7.5 3.361 7.5 7.5 0 4.141-3.359 7.5-7.5 7.5s-7.5-3.359-7.5-7.5c0-4.139 3.359-7.5 7.5-7.5z"/><path d="m255 387.52c4.141 0 7.5 3.361 7.5 7.5 0 4.141-3.359 7.5-7.5 7.5-4.14 0-7.5-3.359-7.5-7.5 0-4.139 3.36-7.5 7.5-7.5z"/><circle cx="175" cy="200.02" r="7.5"/><circle cx="140" cy="50.02" r="7.5"/><path d="m90 352.52c4.14 0 7.5 3.361 7.5 7.5 0 4.141-3.36 7.5-7.5 7.5s-7.5-3.359-7.5-7.5c0-4.139 3.36-7.5 7.5-7.5z"/><path d="m50 262.52c4.14 0 7.5 3.361 7.5 7.5 0 4.141-3.36 7.5-7.5 7.5s-7.5-3.359-7.5-7.5c0-4.139 3.36-7.5 7.5-7.5z"/></g></g></g></g></svg>