<svg height="512" viewBox="0 0 54 58" width="512" xmlns="http://www.w3.org/2000/svg"><g id="012---Water-Fountain" fill="none"><circle id="Oval" cx="30" cy="6" fill="#fdd7ad" r="6"/><path id="Shape" d="m54 21v14c0 .5522847-.4477153 1-1 1h-7.59c-.2621467-.0020603-.5132-.1060681-.7-.29l-10.59-10.59c-.9720046-.9542541-1.1660958-2.4491693-.47-3.62.521962-.9380849 1.5165717-1.5141136 2.59-1.5h16.76c.5522847 0 1 .4477153 1 1z" fill="#95a5a5"/><path id="Shape" d="m54 21v11c0 .5522847-.4477153 1-1 1h-7.59c-.2621467-.0020603-.5132-.1060681-.7-.29l-10.59-10.59c-.1853287-.183286-.3435869-.3920521-.47-.62.521962-.9380849 1.5165717-1.5141136 2.59-1.5h16.76c.5522847 0 1 .4477153 1 1z" fill="#bdc3c7"/><g fill="#2fa8cc"><circle id="Oval" cx="40" cy="17" r="1"/><circle id="Oval" cx="43" cy="15" r="1"/><circle id="Oval" cx="46" cy="14" r="1"/><circle id="Oval" cx="49" cy="15" r="1"/></g><path id="Shape" d="m31.17 28.17 1.39 1.47c.7574031.7591894 1.0522497 1.864779.7734739 2.900304-.2787757 1.035525-1.0888212 1.8436645-2.125 2.12-1.0361788.2763356-2.1410709-.0211146-2.8984739-.780304l-6.48-6.77c-.5310747-.5585505-.8280806-1.2992761-.83-2.07v-5.44c.0002969-.3594836-.1923817-.6914645-.5046664-.8695288-.3122846-.1780643-.696115-.174808-1.0053336.0085288l-11 6.516c-.30369945.1800643-.48993842.5069327-.49.86v27.7c.03608259 2.1026463-1.51427756 3.8963268-3.6 4.165-1.12480556.1130472-2.2449244-.2551382-3.08330021-1.0134872-.8383758-.758349-1.31671399-1.8360407-1.31669979-2.9665128v-33.09c.000408-2.0921595 1.09058516-4.033031 2.877-5.122l1.293-.788 12.74-7.73c1.1692985-.71198504 2.5737477-.92971479 3.9037348-.60519043 1.3299871.32452435 2.4763117 1.1646573 3.1862652 2.33519043l1.61 2.37c.9061919 1.3256677 1.3906956 2.8942048 1.39 4.5v7.492c-.0000926.2554643.0975886.5012774.273.687z" fill="#955ba5"/><path id="Shape" d="m10.04 24.33-1.55.92c-.3019431.1817848-.48756291.5075665-.49.86v27.7c.03590685 2.1035449-1.5137346 3.8985463-3.6 4.17-1.12480556.1130472-2.2449244-.2551382-3.08330021-1.0134872-.8383758-.758349-1.31671399-1.8360407-1.31669979-2.9665128v-33.09c.00174296-2.0920471 1.09304289-4.0321359 2.88-5.12l1.29-.79.4-.25z" fill="#35495e"/></g></svg>