<?xml version="1.0" encoding="iso-8859-1"?>
<!-- Generator: Adobe Illustrator 19.0.0, SVG Export Plug-In . SVG Version: 6.00 Build 0)  -->
<svg version="1.1" id="Layer_1" xmlns="http://www.w3.org/2000/svg" xmlns:xlink="http://www.w3.org/1999/xlink" x="0px" y="0px"
	 viewBox="0 0 512.001 512.001" style="enable-background:new 0 0 512.001 512.001;" xml:space="preserve">
<path style="fill:#7F8499;" d="M310.238,74.324L297.861,30.99c-2.194-7.666-9.29-13.026-17.272-13.026h-49.175
	c-7.982,0-15.079,5.359-17.272,13.03l-12.377,43.329l-17.281-4.93L196.86,26.06C201.247,10.715,215.457,0,231.413,0h49.175
	c15.956,0,30.166,10.715,34.552,26.057l12.377,43.338L310.238,74.324z"/>
<path style="fill:#AFB9D2;" d="M430.069,76.484c-2-7.997-9.185-13.607-17.428-13.607H99.361c-8.244,0-15.428,5.611-17.428,13.607
	l-5.58,22.322h8.982l16.844,387.417c0.627,14.413,12.495,25.777,26.921,25.777h253.8c14.427,0,26.295-11.363,26.921-25.777
	l16.844-387.417h8.982L430.069,76.484z"/>
<g>
	<path style="fill:#959CB5;" d="M256.001,478.314c-6.201,0-11.228-5.027-11.228-11.228V143.723c0-6.201,5.027-11.228,11.228-11.228
		s11.228,5.027,11.228,11.228v323.362C267.229,473.287,262.203,478.314,256.001,478.314z"/>
	<path style="fill:#959CB5;" d="M336.851,478.314c-0.106,0-0.211,0-0.324-0.004c-6.193-0.171-11.079-5.338-10.913-11.535
		l8.982-323.367c0.175-6.092,5.167-10.917,11.219-10.917c0.106,0,0.211,0,0.324,0.004c6.193,0.171,11.079,5.338,10.913,11.535
		l-8.982,323.367C347.895,473.489,342.904,478.314,336.851,478.314z"/>
	<path style="fill:#959CB5;" d="M444.631,89.824H67.37c-4.965,0-8.982,4.022-8.982,8.982c0,4.961,4.017,8.982,8.982,8.982h18.356
		l16.454,378.435C102.805,500.637,114.673,512,129.1,512h99.953c-9.112,0-16.607-11.363-17.003-25.777l-10.139-369.205
		c-0.139-5.056,3.922-9.229,8.979-9.229h233.74c4.965,0,8.982-4.022,8.982-8.982C453.614,93.845,449.596,89.824,444.631,89.824z"/>
</g>
<path style="fill:#AFB9D2;" d="M175.15,478.314c-6.053,0-11.044-4.825-11.219-10.917l-8.982-323.367
	c-0.166-6.198,4.719-11.364,10.913-11.535c0.115-0.004,0.219-0.004,0.324-0.004c6.053,0,11.044,4.825,11.219,10.917l8.982,323.367
	c0.166,6.198-4.719,11.364-10.913,11.535C175.361,478.314,175.255,478.314,175.15,478.314z"/>
<g>
</g>
<g>
</g>
<g>
</g>
<g>
</g>
<g>
</g>
<g>
</g>
<g>
</g>
<g>
</g>
<g>
</g>
<g>
</g>
<g>
</g>
<g>
</g>
<g>
</g>
<g>
</g>
<g>
</g>
</svg>
