<svg id="Capa_1" enable-background="new 0 0 512 512" height="512" viewBox="0 0 512 512" width="512" xmlns="http://www.w3.org/2000/svg"><g><path d="m439.97 98.963h-31.074c-8.32 0-15.127 6.807-15.127 15.127v27.373c0-8.32 6.807-15.127 15.127-15.127h31.074z" fill="#665e68"/><g><path d="m450.901 76.946c-19.383-24.593-17.126-21.421-23.742-30.237-7.94-10.582-12.732-16.968-24.833-20.566-4.09-1.215-6.42-5.517-5.204-9.608 1.216-4.09 5.516-6.42 9.608-5.204 16.993 5.053 24.313 14.808 32.789 26.104 6.446 8.592 4.513 5.836 23.497 29.919 2.649 3.346 2.085 8.205-1.261 10.854-3.345 2.647-8.205 2.082-10.854-1.262z" fill="#dfebfa"/></g><path d="m457.072 191.152c-4.267 0-7.726 3.459-7.726 7.726v221.153c0 15.821-12.872 28.692-28.693 28.692s-28.693-12.871-28.693-28.692v-4.856c0-24.341-19.803-44.145-44.145-44.145h-1.089-20.081c-4.267 0-7.726 3.459-7.726 7.726s3.459 7.726 7.726 7.726h20.081 1.089c15.821 0 28.692 12.871 28.692 28.692v4.856c0 24.341 19.803 44.145 44.145 44.145s44.145-19.804 44.145-44.145v-221.151c.001-4.268-3.458-7.727-7.725-7.727z" fill="#665e68"/><g><path d="m346.727 479.479v-466.529c0-7.122-5.827-12.95-12.95-12.95h-262.215c-7.122 0-12.95 5.827-12.95 12.95v466.53h288.115z" fill="#ff4756"/></g><path d="m107.619 0h-36.056c-7.122 0-12.95 5.827-12.95 12.95v466.53h36.056v-466.53c0-7.123 5.827-12.95 12.95-12.95z" fill="#fc2d39"/><path d="m314.353 154.709v-117.852c0-2.476-2.007-4.483-4.483-4.483h-214.4c-2.476 0-4.483 2.007-4.483 4.483v117.852z" fill="#665e68"/><path d="m127.688 32.374h-32.218c-2.476 0-4.483 2.007-4.483 4.483v117.852h32.218v-117.852c0-2.476 2.007-4.483 4.483-4.483z" fill="#554e56"/><path d="m240.538 321.05-34.914-46.813c-1.474-1.977-4.435-1.977-5.91 0l-34.914 46.813c-23.238 31.159-1.002 75.483 37.869 75.483 38.871 0 61.108-44.325 37.869-75.483z" fill="#ffd301"/><path d="m199.159 321.049 20.689-27.741-14.224-19.072c-1.474-1.977-4.436-1.977-5.91 0l-34.914 46.813c-23.238 31.158-1.002 75.483 37.869 75.483 6.187 0 11.951-1.127 17.179-3.141-27.615-10.64-40.228-46.143-20.689-72.342z" fill="#ffc20c"/><g><path d="m445.113 172.765c-1.397 0-2.81-.378-4.083-1.173l-17.211-9.455c-3.62-2.259-4.723-7.024-2.464-10.645 2.259-3.62 7.024-4.725 10.645-2.464l17.211 9.455c3.62 2.259 4.723 7.024 2.464 10.645-1.465 2.347-3.984 3.637-6.562 3.637z" fill="#dfebfa"/></g><path d="m439.97 188.232v-6.656h-31.073c-4.08 0-7.4-3.32-7.4-7.4v-60.086c0-4.08 3.32-7.4 7.4-7.4h31.073v-15.453h-31.073c-12.601 0-22.853 10.252-22.853 22.853v60.087c0 12.602 10.252 22.853 22.853 22.853h34.286c-2.002-2.388-3.213-5.457-3.213-8.798z" fill="#7b6c79"/><path d="m359.413 476.389h-313.487c-4.917 0-8.903 3.986-8.903 8.903v17.805c0 4.917 3.986 8.903 8.903 8.903h313.487c4.917 0 8.903-3.986 8.903-8.903v-17.805c.001-4.917-3.986-8.903-8.903-8.903z" fill="#dfebfa"/><path d="m73.079 503.097v-17.805c0-4.917 3.986-8.903 8.903-8.903h-36.056c-4.917 0-8.903 3.986-8.903 8.903v17.805c0 4.917 3.986 8.903 8.903 8.903h36.056c-4.917 0-8.903-3.986-8.903-8.903z" fill="#b1dbfc"/><path d="m280.372 59.895h-155.404c-2.795 0-5.061 2.266-5.061 5.061v55.11c0 2.795 2.266 5.061 5.061 5.061h155.404c2.795 0 5.061-2.266 5.061-5.061v-55.11c0-2.795-2.266-5.061-5.061-5.061z" fill="#23a8fe"/><path d="m155.423 120.066v-55.11c0-2.795 2.266-5.061 5.061-5.061h-35.517c-2.795 0-5.061 2.266-5.061 5.061v55.11c0 2.795 2.266 5.061 5.061 5.061h35.517c-2.795 0-5.061-2.266-5.061-5.061z" fill="#0193fa"/><path d="m461.241 69.61h-8.564c-7.555 0-13.737 6.182-13.737 13.737v104.885c0 7.555 6.182 13.737 13.737 13.737h8.564c7.555 0 13.737-6.182 13.737-13.737v-104.885c-.001-7.555-6.182-13.737-13.737-13.737z" fill="#ffd301"/><path d="m459.887 188.232v-104.885c0-5.329 3.082-9.963 7.545-12.238-1.865-.95-3.965-1.499-6.191-1.499h-8.564c-7.555 0-13.737 6.182-13.737 13.737v104.885c0 7.555 6.181 13.737 13.737 13.737h8.564c2.226 0 4.327-.548 6.191-1.499-4.464-2.275-7.545-6.909-7.545-12.238z" fill="#ffc20c"/><path d="m186.611 152.649v64.748h123.259c2.476 0 4.483-2.007 4.483-4.483v-60.265z" fill="#ffd301"/><path d="m186.611 152.649h35.517v64.748h-35.517z" fill="#ffc20c"/><path d="m123.205 152.649h32.218v32.374h-32.218z" fill="#b1dbfc"/><g fill="#dfebfa"><path d="m155.423 152.649h32.218v32.374h-32.218z"/><path d="m90.987 152.649h32.218v32.374h-32.218z"/><rect height="32.374" width="0" x="123.205" y="152.649"/></g><path d="m90.987 185.023v27.89c0 2.476 2.007 4.483 4.483 4.483h27.735v-32.374h-32.218z" fill="#b1dbfc"/><path d="m123.205 185.023v32.374h32.218v-32.374z" fill="#dfebfa"/><path d="m155.423 185.023h32.218v32.374h-32.218z" fill="#b1dbfc"/><rect fill="#dfebfa" height="0" width="32.218" x="90.987" y="185.023"/><rect fill="#dfebfa" height="0" width="0" x="123.205" y="185.023"/><g><path d="m279.368 192.75h-60.791c-4.267 0-7.726-3.459-7.726-7.726 0-4.268 3.459-7.726 7.726-7.726h60.791c4.267 0 7.726 3.459 7.726 7.726s-3.459 7.726-7.726 7.726z" fill="#dfebfa"/></g></g></svg>