<svg height="512pt" viewBox="-30 0 512 512.001" width="512pt" xmlns="http://www.w3.org/2000/svg"><path d="m168.550781 458.488281-11.765625-115.28125-72.925781.882813-11.867187 114.378906c-1.410157 13.648438 3.046874 27.316406 12.234374 37.503906 9.1875 10.183594 22.324219 16.027344 36.046876 16.027344 13.71875 0 26.855468-5.839844 36.042968-16.027344 9.1875-10.191406 13.644532-23.859375 12.234375-37.484375zm0 0" fill="#e33a53"/><path d="m168.550781 458.488281-11.765625-115.28125-36.21875.476563s-1.199218 168.316406-.292968 168.316406c13.71875 0 26.855468-5.84375 36.042968-16.027344 9.1875-10.191406 13.644532-23.859375 12.234375-37.484375zm0 0" fill="#ac2739"/><path d="m452.894531 29.941406v-29.941406h-100.871093c-41.785157 0-75.78125 33.996094-75.78125 75.78125v359.269531c0 41.785157 33.996093 75.777344 75.78125 75.777344v.175781h100.871093v-29.945312h-85.902343v-23.226563h85.902343v-29.941406h-85.902343v-23.230469h85.902343v-29.941406h-85.902343v-23.230469h85.902343v-29.941406h-85.902343v-23.230469h85.902343v-29.945312h-85.902343v-24.023438h85.902343v-29.9375h-85.902343v-23.230468h85.902343v-29.941407h-85.902343v-23.230469h85.902343v-29.941406h-85.902343v-23.230468h85.902343v-29.941407h-85.902343v-24.953125zm0 0" fill="#c4e83b"/><path d="m452.894531 29.941406v-29.941406h-98.863281v511.003906h98.863281v-29.945312h-85.902343v-23.226563h85.902343v-29.941406h-85.902343v-23.230469h85.902343v-29.941406h-85.902343v-23.230469h85.902343v-29.941406h-85.902343v-23.230469h85.902343v-29.941406h-85.902343v-24.023438h85.902343v-29.941406h-85.902343v-23.230468h85.902343v-29.941407h-85.902343v-23.230469h85.902343v-29.941406h-85.902343v-23.226562h85.902343v-29.945313h-85.902343v-24.953125zm0 0" fill="#90d961"/><path d="m198.589844 70.554688c-20.078125-30.699219-47.335938-47.605469-76.757813-47.605469s-56.679687 16.90625-76.757812 47.605469c-18.957031 28.988281-29.398438 67.277343-29.398438 107.8125 0 40.535156 10.441407 78.824218 29.398438 107.816406 20.078125 30.699218 47.335937 47.601562 76.757812 47.601562s56.679688-16.90625 76.757813-47.601562c18.957031-28.992188 29.398437-67.28125 29.398437-107.816406 0-40.535157-10.441406-78.824219-29.398437-107.8125zm0 0" fill="#e0f4fe"/><g fill="#bcdbfd"><path d="m94.726562 95.699219c7.832032 0 15.332032-6.882813 14.972657-14.96875-.363281-8.113281-6.578125-14.972657-14.972657-14.972657-7.832031 0-15.332031 6.886719-14.972656 14.972657.367188 8.109375 6.578125 14.96875 14.972656 14.96875zm0 0"/><path d="m94.726562 196.476562c7.832032 0 15.332032-6.886718 14.972657-14.972656-.363281-8.109375-6.578125-14.96875-14.972657-14.96875-7.832031 0-15.332031 6.886719-14.972656 14.96875.367188 8.113282 6.578125 14.972656 14.972656 14.972656zm0 0"/><path d="m94.726562 289.679688c7.832032 0 15.332032-6.886719 14.972657-14.972657-.363281-8.109375-6.578125-14.96875-14.972657-14.96875-7.832031 0-15.332031 6.882813-14.972656 14.96875.367188 8.113281 6.578125 14.972657 14.972656 14.972657zm0 0"/><path d="m120.46875 146.089844c7.832031 0 15.332031-6.886719 14.972656-14.972656-.363281-8.109376-6.578125-14.96875-14.972656-14.96875-7.832031 0-15.332031 6.882812-14.96875 14.96875.363281 8.113281 6.578125 14.972656 14.96875 14.972656zm0 0"/><path d="m66.554688 146.089844c7.832031 0 15.335937-6.886719 14.972656-14.972656-.363282-8.109376-6.578125-14.96875-14.972656-14.96875-7.828126 0-15.332032 6.882812-14.96875 14.96875.363281 8.113281 6.578124 14.972656 14.96875 14.972656zm0 0"/><path d="m120.46875 243.078125c7.832031 0 15.332031-6.886719 14.972656-14.972656-.363281-8.109375-6.578125-14.96875-14.972656-14.96875-7.832031 0-15.332031 6.882812-14.96875 14.96875.363281 8.113281 6.578125 14.972656 14.96875 14.972656zm0 0"/><path d="m66.554688 243.078125c7.832031 0 15.335937-6.886719 14.972656-14.972656-.363282-8.109375-6.578125-14.96875-14.972656-14.96875-7.828126 0-15.332032 6.882812-14.96875 14.96875.363281 8.113281 6.578124 14.972656 14.96875 14.972656zm0 0"/><path d="m198.589844 70.554688c-20.078125-30.699219-47.335938-47.605469-76.757813-47.605469-.453125 0-.90625.015625-1.363281.023437v310.789063c.457031.007812.910156.023437 1.363281.023437 29.421875 0 56.679688-16.90625 76.757813-47.601562 18.957031-28.992188 29.398437-67.28125 29.398437-107.816406 0-40.535157-10.441406-78.824219-29.398437-107.8125zm0 0"/></g><path d="m121.832031 356.734375c-33.765625 0-65.050781-19.402344-88.089843-54.632813-21.757813-33.269531-33.742188-77.210937-33.742188-123.734374 0-46.519532 11.984375-90.464844 33.742188-123.730469 23.039062-35.234375 54.324218-54.636719 88.089843-54.636719s65.050781 19.402344 88.09375 54.636719c21.757813 33.265625 33.738281 77.210937 33.738281 123.730469 0 46.523437-11.980468 90.464843-33.738281 123.734374-23.042969 35.230469-54.328125 54.632813-88.09375 54.632813zm0-326.792969c-23.320312 0-45.707031 14.589844-63.03125 41.082032-18.609375 28.453124-28.859375 66.578124-28.859375 107.34375 0 40.769531 10.25 78.890624 28.855469 107.347656 17.328125 26.488281 39.710937 41.078125 63.035156 41.078125 23.320313 0 45.707031-14.589844 63.03125-41.078125 18.609375-28.457032 28.859375-66.578125 28.859375-107.347656 0-40.765626-10.25-78.890626-28.859375-107.34375-17.324219-26.492188-39.707031-41.082032-63.03125-41.082032zm0 0" fill="#fc657d"/><path d="m209.921875 54.636719c-23.039063-35.234375-54.324219-54.636719-88.089844-54.636719-.453125 0-.90625.0195312-1.363281.0234375v29.9453125c.457031-.011719.910156-.027344 1.363281-.027344 23.324219 0 45.707031 14.589844 63.035157 41.082032 18.605468 28.453124 28.855468 66.574218 28.855468 107.34375 0 40.769531-10.25 78.890624-28.855468 107.347656-17.328126 26.488281-39.710938 41.078125-63.035157 41.078125-.453125 0-.90625-.015625-1.363281-.027344l.007812 29.960937c.453126.003907.902344.007813 1.355469.007813 33.765625 0 65.050781-19.402344 88.09375-54.632813 21.757813-33.269531 33.738281-77.214843 33.738281-123.734374 0-46.519532-11.984374-90.464844-33.742187-123.730469zm0 0" fill="#e33a53"/><path d="m135.441406 131.117188c-.363281-8.109376-6.578125-14.96875-14.972656-14.96875-.066406 0-.132812.007812-.195312.007812v29.921875c.066406 0 .128906.011719.195312.011719 7.832031 0 15.332031-6.886719 14.972656-14.972656zm0 0" fill="#9bbad9"/><path d="m120.46875 213.136719c-.066406 0-.132812.007812-.195312.011719v29.917968c.066406.003906.128906.011719.195312.011719 7.832031 0 15.332031-6.886719 14.972656-14.972656-.363281-8.109375-6.578125-14.96875-14.972656-14.96875zm0 0" fill="#9bbad9"/><path d="m145.726562 95.699219c7.832032 0 15.332032-6.882813 14.972657-14.96875-.363281-8.113281-6.578125-14.972657-14.972657-14.972657-7.832031 0-15.332031 6.886719-14.972656 14.972657.363282 8.109375 6.578125 14.96875 14.972656 14.96875zm0 0" fill="#9bbad9"/><path d="m145.726562 196.476562c7.832032 0 15.332032-6.886718 14.972657-14.972656-.363281-8.109375-6.578125-14.96875-14.972657-14.96875-7.832031 0-15.332031 6.886719-14.972656 14.96875.363282 8.113282 6.578125 14.972656 14.972656 14.972656zm0 0" fill="#9bbad9"/><path d="m145.726562 289.679688c7.832032 0 15.332032-6.886719 14.972657-14.972657-.363281-8.109375-6.578125-14.96875-14.972657-14.96875-7.832031 0-15.332031 6.882813-14.972656 14.96875.363282 8.113281 6.578125 14.972657 14.972656 14.972657zm0 0" fill="#9bbad9"/><path d="m173.410156 146.089844c7.832032 0 15.335938-6.886719 14.972656-14.972656-.363281-8.109376-6.578124-14.96875-14.972656-14.96875-7.828125 0-15.332031 6.882812-14.96875 14.96875.363282 8.113281 6.578125 14.972656 14.96875 14.972656zm0 0" fill="#9bbad9"/><path d="m173.410156 243.078125c7.832032 0 15.335938-6.886719 14.972656-14.972656-.363281-8.109375-6.578124-14.96875-14.972656-14.96875-7.828125 0-15.332031 6.882812-14.96875 14.96875.363282 8.113281 6.578125 14.972656 14.96875 14.972656zm0 0" fill="#9bbad9"/></svg>