<?xml version="1.0" encoding="iso-8859-1"?>
<!-- Generator: Adobe Illustrator 19.0.0, SVG Export Plug-In . SVG Version: 6.00 Build 0)  -->
<svg version="1.1" id="Layer_1" xmlns="http://www.w3.org/2000/svg" xmlns:xlink="http://www.w3.org/1999/xlink" x="0px" y="0px"
	 viewBox="0 0 512 512" style="enable-background:new 0 0 512 512;" xml:space="preserve">
<path style="fill:#E6E9ED;" d="M55.864,293.689v153.879v25.419l14.694,29.475c0,0,4.796,9.538,10.966,9.538
	c6.143,0,10.922-9.447,10.963-9.529l14.698-29.484v-25.419v-28.131v-59.04v-27.602v-39.107H55.864z"/>
<path style="fill:#CCD4DD;" d="M81.524,472.987v-25.419V293.689H55.864v153.879v25.419l14.694,29.475c0,0,4.796,9.538,10.966,9.538
	c6.143,0,10.922-9.447,10.963-9.529l1.868-3.748L81.524,472.987z"/>
<path style="fill:#5BC5EF;" d="M33.449,267.679v11.095c0,8.847,7.172,16.019,16.02,16.019h64.111c8.848,0,16.02-7.172,16.02-16.019
	v-11.095H33.449z"/>
<path style="fill:#2EA4BF;" d="M56.082,278.774v-11.095H33.449v11.095c0,8.847,7.172,16.019,16.02,16.019h22.633
	C63.254,294.793,56.082,287.621,56.082,278.774z"/>
<path style="fill:#D4D9DD;" d="M253.644,129.178c-1.951,0-3.905-0.686-5.475-2.07l-23.392-20.628
	c-5.994-5.285-9.569-12.587-10.069-20.564c-0.499-7.975,2.136-15.667,7.421-21.659c5.677-6.436,13.857-10.128,22.443-10.128
	c7.287,0,14.311,2.656,19.78,7.479l25.441,22.128c1.728,1.504,2.757,3.658,2.841,5.948c0.083,2.289-0.786,4.511-2.401,6.137
	l-30.714,30.914C257.907,128.358,255.779,129.178,253.644,129.178z M244.573,70.69c-3.835,0-7.489,1.647-10.023,4.521
	c-2.36,2.675-3.536,6.109-3.313,9.669c0.223,3.561,1.819,6.821,4.495,9.179l17.539,15.468l18.978-19.102l-18.807-16.358
	C250.958,71.877,247.824,70.69,244.573,70.69z"/>
<path style="fill:#45B9DD;" d="M362.284,68.466l-30.787-27.153c-8.813-7.774-22.26-6.93-30.034,1.882l-90.32,102.404
	c-7.771,8.813-6.93,22.26,1.885,30.034L384.44,326.817c8.815,7.774,22.26,6.93,30.034-1.885l90.32-102.404
	c7.774-8.813,6.93-22.259-1.882-30.033L383.365,87.058"/>
<path style="fill:#5BC5EF;" d="M502.911,192.497L383.365,87.06l-21.081-18.593l-30.787-27.153c-8.813-7.774-22.26-6.93-30.034,1.882
	l-40.675,46.118c23.38,85.449,101.564,148.252,194.43,148.252c13.621,0,26.921-1.359,39.784-3.934l9.791-11.101
	C512.567,213.716,511.724,200.271,502.911,192.497z"/>
<path style="fill:#CCD4DD;" d="M224.041,130.977L363.63,254.091c6.797,5.995,17.167,5.345,23.161-1.451l42.814-48.544
	c5.997-6.798,5.346-17.168-1.451-23.163L288.568,57.817L224.041,130.977z"/>
<path style="fill:#E6E9ED;" d="M428.154,180.931L288.568,57.817l-27.779,31.496c19.064,69.669,74.558,124.282,144.746,142.075
	l24.072-27.293C435.602,197.297,434.951,186.927,428.154,180.931z"/>
<rect x="283.792" y="127.755" transform="matrix(-0.6615 0.75 -0.75 -0.6615 673.7787 19.1545)" style="fill:#B3BDC6;" width="97.548" height="67.781"/>
<path style="fill:#D4D9DD;" d="M292.843,155.435c13.497,18.316,30.014,34.266,48.824,47.115l48.565-55.064L339.4,102.651
	L292.843,155.435z"/>
<path style="fill:#5B5E5E;" d="M114.299,102.016H48.745c-25.88,0-46.86,20.979-46.86,46.862v103.885
	c0,8.847,7.17,16.019,16.02,16.019h127.236c8.848,0,16.02-7.172,16.02-16.019V148.878
	C161.162,122.996,140.182,102.016,114.299,102.016z M104.735,170.682H58.309c-8.805,0-15.944-7.138-15.944-15.944
	c0-8.806,7.14-15.944,15.944-15.944h46.427c8.807,0,15.946,7.139,15.946,15.944C120.683,163.544,113.543,170.682,104.735,170.682z"
	/>
<path style="fill:#464949;" d="M24.519,252.763V148.878c0-25.882,20.979-46.862,46.86-46.862H48.745
	c-25.88,0-46.86,20.979-46.86,46.862v103.885c0,8.847,7.17,16.019,16.02,16.019h22.633C31.689,268.782,24.519,261.61,24.519,252.763
	z"/>
<g>
	<path style="fill:#6E7070;" d="M118.12,211.892H44.926c-4.573,0-8.28-3.706-8.28-8.28s3.707-8.28,8.28-8.28h73.194
		c4.573,0,8.28,3.706,8.28,8.28C126.4,208.185,122.693,211.892,118.12,211.892z"/>
	<path style="fill:#6E7070;" d="M118.12,243.485H44.926c-4.573,0-8.28-3.706-8.28-8.28s3.707-8.28,8.28-8.28h73.194
		c4.573,0,8.28,3.706,8.28,8.28S122.693,243.485,118.12,243.485z"/>
</g>
<path style="fill:#D4D9DD;" d="M197.713,92.878c-25.606,0-46.44-20.833-46.44-46.439C151.274,20.833,172.106,0,197.713,0
	c25.606,0,46.44,20.833,46.44,46.44C244.153,72.045,223.319,92.878,197.713,92.878z M197.713,16.561
	c-16.475,0-29.879,13.404-29.879,29.879s13.404,29.878,29.879,29.878c16.476,0,29.879-13.403,29.879-29.878
	S214.189,16.561,197.713,16.561z"/>
<path style="fill:#3CACC6;" d="M415.877,279.891c-1.946,0-3.9-0.681-5.474-2.07c-3.429-3.025-3.757-8.257-0.733-11.688
	l36.181-41.024c3.025-3.429,8.258-3.758,11.688-0.733c3.429,3.025,3.757,8.257,0.733,11.688l-36.181,41.024
	C420.454,278.943,418.171,279.891,415.877,279.891z"/>
<path style="fill:#45B9DD;" d="M457.539,224.377c-3.429-3.025-8.662-2.696-11.688,0.733l-10.152,11.512
	c6.423,0.617,12.933,0.943,19.52,0.943c0.585,0,1.166-0.018,1.75-0.022l1.304-1.478
	C461.296,232.634,460.968,227.402,457.539,224.377z"/>
<path style="fill:#E6E9ED;" d="M203.457,93.851c-0.007-0.211-0.019-0.424-0.025-0.636c-0.043-1.102-0.104-2.201-0.191-3.299
	c-0.029-0.365-0.066-0.728-0.099-1.091c-0.086-0.932-0.181-1.861-0.299-2.789c-0.07-0.547-0.151-1.09-0.231-1.635
	c-0.109-0.734-0.219-1.468-0.347-2.2c-0.127-0.736-0.274-1.47-0.422-2.201c-0.109-0.534-0.214-1.071-0.335-1.603
	c-0.204-0.917-0.431-1.828-0.667-2.738c-0.091-0.349-0.177-0.699-0.272-1.047c-0.291-1.067-0.608-2.126-0.943-3.182
	c-0.064-0.199-0.121-0.397-0.187-0.597c-0.38-1.168-0.787-2.325-1.219-3.477c-0.039-0.1-0.074-0.202-0.113-0.305
	c-0.456-1.202-0.943-2.396-1.455-3.579c-0.03-0.071-0.06-0.142-0.091-0.212c-0.507-1.159-1.041-2.309-1.602-3.448
	c-0.061-0.123-0.117-0.246-0.178-0.369c-0.51-1.025-1.047-2.038-1.6-3.045c-0.096-0.176-0.181-0.353-0.278-0.529
	c-0.052-0.093-0.109-0.18-0.16-0.273c-0.446-0.789-0.911-1.569-1.383-2.346c-0.301-0.499-0.603-1.001-0.913-1.494
	c-0.32-0.501-0.652-0.998-0.984-1.495c-0.496-0.749-0.997-1.492-1.514-2.22c-0.065-0.089-0.12-0.182-0.185-0.272
	c-0.12-0.168-0.253-0.327-0.374-0.495c-0.668-0.92-1.351-1.827-2.052-2.716c-0.092-0.116-0.187-0.231-0.278-0.346
	c-0.786-0.986-1.591-1.951-2.418-2.895c-0.056-0.065-0.115-0.126-0.17-0.191c-0.848-0.963-1.715-1.905-2.603-2.824
	c-0.081-0.084-0.162-0.165-0.244-0.248c-0.852-0.874-1.722-1.732-2.611-2.566c-0.158-0.149-0.318-0.294-0.478-0.441
	c-0.806-0.746-1.625-1.478-2.461-2.189c-0.279-0.24-0.565-0.471-0.848-0.707c-0.717-0.596-1.441-1.186-2.178-1.755
	c-0.437-0.341-0.881-0.668-1.323-0.997c-0.596-0.442-1.191-0.883-1.799-1.309c-0.613-0.433-1.234-0.848-1.859-1.261
	c-0.454-0.3-0.905-0.605-1.366-0.896c-0.794-0.505-1.6-0.989-2.411-1.466c-0.31-0.183-0.617-0.369-0.93-0.547
	c-0.961-0.549-1.934-1.074-2.918-1.585c-0.185-0.096-0.368-0.194-0.554-0.289c-1.094-0.559-2.204-1.09-3.325-1.6
	c-0.096-0.044-0.19-0.089-0.287-0.132c-1.177-0.529-2.368-1.032-3.571-1.506c-0.068-0.028-0.135-0.056-0.203-0.083
	c-1.184-0.465-2.378-0.9-3.586-1.313c-0.124-0.041-0.246-0.085-0.37-0.127c-1.092-0.365-2.194-0.705-3.303-1.027
	c-0.188-0.056-0.37-0.12-0.558-0.174c-0.099-0.028-0.201-0.05-0.299-0.077c-0.88-0.245-1.768-0.47-2.657-0.687
	c-0.56-0.138-1.121-0.277-1.68-0.404c-0.588-0.13-1.182-0.248-1.776-0.368c-0.869-0.176-1.738-0.347-2.61-0.495
	c-0.113-0.018-0.223-0.044-0.337-0.063c-0.212-0.034-0.426-0.056-0.637-0.088c-0.572-0.091-1.143-0.16-1.715-0.24
	c-0.399-0.055-0.798-0.126-1.198-0.176c-0.115-0.014-0.23-0.025-0.344-0.039c-0.03-0.003-0.059-0.009-0.088-0.012
	c-0.151-0.018-0.304-0.031-0.455-0.047c-0.291-0.032-0.582-0.049-0.873-0.078c-0.742-0.076-1.484-0.161-2.228-0.216
	c-0.217-0.017-0.436-0.026-0.656-0.042c-0.014-0.001-0.028-0.001-0.042-0.002c-0.07-0.004-0.14-0.008-0.21-0.012
	c-0.093-0.007-0.184-0.006-0.277-0.011c-0.916-0.056-1.834-0.108-2.751-0.131c-0.259-0.008-0.521-0.009-0.779-0.012
	c-0.009,0-0.015-0.001-0.023-0.001c-0.02,0-0.041,0-0.061,0c-0.085-0.001-0.17-0.003-0.256-0.004
	c-0.926-0.011-1.852-0.015-2.777,0.004c-0.274,0.006-0.548,0.019-0.821,0.028c-0.03,0.001-0.063,0-0.093,0.001
	c-0.12,0.003-0.242,0.01-0.362,0.015c-0.138,0.006-0.276,0.009-0.413,0.014c-0.728,0.03-1.454,0.062-2.182,0.11
	c-0.265,0.018-0.529,0.045-0.792,0.067c-0.063,0.004-0.125,0.007-0.188,0.011c-0.252,0.019-0.502,0.044-0.753,0.07
	c-0.185,0.017-0.372,0.029-0.558,0.046c-0.524,0.05-1.048,0.097-1.571,0.157c-0.231,0.026-0.459,0.064-0.688,0.092
	c-0.103,0.013-0.205,0.021-0.306,0.033c-0.384,0.049-0.765,0.106-1.148,0.161c-0.238,0.034-0.478,0.061-0.714,0.096
	c-0.335,0.05-0.669,0.096-1.004,0.15c-0.191,0.031-0.38,0.072-0.571,0.105c-0.131,0.023-0.263,0.04-0.394,0.063
	c-0.474,0.083-0.943,0.179-1.414,0.272c-0.317,0.062-0.636,0.112-0.953,0.176c-0.181,0.036-0.362,0.07-0.542,0.109
	c-0.167,0.034-0.331,0.081-0.497,0.117c-0.131,0.028-0.263,0.054-0.394,0.083c-0.475,0.106-0.946,0.23-1.418,0.346
	c-0.449,0.109-0.902,0.202-1.35,0.318c-0.079,0.02-0.161,0.039-0.241,0.061c-0.14,0.036-0.279,0.083-0.42,0.12
	c-0.119,0.031-0.238,0.061-0.355,0.093c-0.406,0.11-0.807,0.242-1.213,0.359c-0.597,0.173-1.199,0.331-1.794,0.517
	c-0.052,0.017-0.104,0.031-0.156,0.047c-0.144,0.045-0.285,0.099-0.427,0.146c-0.063,0.02-0.125,0.039-0.188,0.06
	c-0.215,0.07-0.427,0.153-0.643,0.224c-0.8,0.267-1.601,0.529-2.396,0.819c-0.112,0.041-0.224,0.079-0.336,0.12
	c-1.083,0.403-2.16,0.835-3.23,1.284c-0.178,0.074-0.359,0.137-0.538,0.213c-0.095,0.04-0.185,0.087-0.28,0.128
	c-0.838,0.361-1.667,0.744-2.495,1.134c-0.527,0.246-1.052,0.491-1.572,0.747c-0.533,0.265-1.063,0.543-1.592,0.82
	c-0.797,0.415-1.588,0.835-2.369,1.272c-0.095,0.054-0.193,0.102-0.288,0.156c-0.179,0.102-0.35,0.214-0.528,0.317
	c-0.988,0.57-1.962,1.153-2.921,1.758c-0.125,0.079-0.248,0.161-0.373,0.242c-1.061,0.677-2.104,1.375-3.129,2.097
	c-0.073,0.052-0.146,0.106-0.219,0.158c-1.042,0.74-2.067,1.499-3.071,2.283c-0.095,0.074-0.188,0.151-0.283,0.225
	c-0.955,0.754-1.896,1.524-2.816,2.317c-0.168,0.145-0.332,0.294-0.5,0.439c-0.821,0.72-1.633,1.451-2.423,2.203
	c-0.273,0.257-0.538,0.522-0.806,0.783c-0.665,0.647-1.322,1.299-1.962,1.967c-0.386,0.402-0.762,0.813-1.139,1.222
	c-0.499,0.542-0.997,1.084-1.483,1.64c-0.496,0.567-0.977,1.145-1.456,1.725c-0.346,0.417-0.691,0.834-1.03,1.258
	c-0.586,0.739-1.154,1.49-1.717,2.248c-0.211,0.287-0.427,0.572-0.636,0.862c-0.649,0.899-1.274,1.814-1.887,2.738
	c-0.115,0.172-0.231,0.343-0.343,0.516c-0.67,1.031-1.316,2.078-1.942,3.139c-0.054,0.092-0.109,0.182-0.162,0.273
	c-0.649,1.113-1.272,2.24-1.87,3.384c-0.035,0.07-0.073,0.137-0.109,0.206c-0.583,1.122-1.138,2.258-1.673,3.409
	c-0.059,0.125-0.119,0.251-0.177,0.375c-0.475,1.038-0.925,2.09-1.359,3.151c-0.076,0.188-0.163,0.368-0.24,0.555
	c-0.04,0.1-0.073,0.202-0.114,0.3c-0.33,0.835-0.641,1.679-0.946,2.527c-0.203,0.561-0.407,1.12-0.597,1.683
	c-0.185,0.549-0.358,1.104-0.531,1.659c-0.276,0.873-0.544,1.747-0.791,2.625c-0.028,0.098-0.062,0.195-0.088,0.294
	c-0.052,0.185-0.089,0.373-0.139,0.56c-0.301,1.12-0.583,2.241-0.838,3.368c-0.028,0.123-0.053,0.247-0.079,0.371
	c-0.276,1.25-0.526,2.502-0.743,3.758c-0.012,0.067-0.021,0.134-0.033,0.2c-0.217,1.282-0.407,2.565-0.566,3.851
	c-0.012,0.099-0.023,0.199-0.033,0.296c-0.147,1.229-0.268,2.46-0.36,3.691c-0.015,0.202-0.024,0.404-0.039,0.606
	c-0.074,1.111-0.129,2.221-0.16,3.333c-0.009,0.354-0.011,0.709-0.015,1.063c-0.013,0.945-0.017,1.891,0.004,2.836
	c0.01,0.54,0.034,1.079,0.055,1.617c0.031,0.754,0.064,1.506,0.115,2.259c0.049,0.735,0.116,1.468,0.185,2.203
	c0.053,0.553,0.103,1.107,0.166,1.659c0.105,0.925,0.234,1.846,0.37,2.767c0.055,0.364,0.106,0.731,0.165,1.095
	c0.176,1.083,0.379,2.162,0.596,3.238c0.043,0.212,0.084,0.426,0.129,0.638c0.252,1.193,0.532,2.379,0.839,3.562
	c0.028,0.114,0.056,0.225,0.085,0.339c0.325,1.238,0.68,2.468,1.064,3.693c0.024,0.079,0.047,0.161,0.073,0.241
	c0.38,1.202,0.789,2.395,1.224,3.583c0.047,0.132,0.094,0.265,0.142,0.397c0.399,1.07,0.824,2.132,1.267,3.187
	c0.077,0.187,0.142,0.375,0.222,0.561c0.042,0.098,0.091,0.193,0.132,0.291c0.359,0.829,0.738,1.651,1.125,2.471
	c0.248,0.531,0.496,1.064,0.755,1.589c0.264,0.53,0.541,1.055,0.815,1.582c0.416,0.8,0.837,1.593,1.276,2.375
	c0.054,0.096,0.1,0.193,0.155,0.288c0.103,0.179,0.214,0.349,0.317,0.527c0.57,0.989,1.154,1.966,1.761,2.927
	c0.076,0.121,0.157,0.241,0.233,0.361c0.68,1.065,1.381,2.113,2.105,3.142c0.049,0.067,0.098,0.135,0.146,0.203
	c0.744,1.049,1.508,2.079,2.298,3.09c0.068,0.086,0.138,0.172,0.206,0.258c0.76,0.965,1.538,1.912,2.337,2.841
	c0.137,0.16,0.278,0.315,0.416,0.474c0.728,0.831,1.468,1.651,2.228,2.452c0.251,0.263,0.506,0.52,0.758,0.781
	c0.655,0.671,1.314,1.337,1.992,1.986c0.395,0.38,0.8,0.75,1.202,1.122c0.548,0.505,1.096,1.008,1.657,1.498
	c0.563,0.491,1.135,0.968,1.71,1.444c0.423,0.348,0.842,0.7,1.271,1.039c0.734,0.584,1.482,1.149,2.235,1.708
	c0.291,0.215,0.58,0.435,0.874,0.646c0.898,0.647,1.811,1.271,2.734,1.882c0.172,0.115,0.343,0.232,0.519,0.346
	c1.029,0.669,2.075,1.314,3.134,1.939c0.093,0.055,0.185,0.113,0.278,0.166c1.111,0.649,2.238,1.271,3.382,1.869h24.008
	c4.944,0,9.346-2.259,12.266-5.791c-1.132-0.807-2.479-1.345-3.961-1.495c-1.362-0.138-2.754-0.323-4.134-0.549
	c-2.016-0.331-4-0.761-5.956-1.262c-0.407-0.106-0.816-0.214-1.223-0.328c-0.257-0.072-0.514-0.152-0.771-0.226
	c-0.895-0.261-1.783-0.532-2.661-0.828c-0.095-0.032-0.19-0.065-0.285-0.099c-0.973-0.332-1.938-0.681-2.889-1.054
	c-0.05-0.021-0.097-0.041-0.147-0.061c-0.973-0.384-1.932-0.789-2.882-1.217c-0.07-0.032-0.141-0.066-0.211-0.098
	c-0.906-0.411-1.802-0.842-2.686-1.292c-0.142-0.073-0.283-0.148-0.425-0.222c-0.796-0.412-1.583-0.838-2.359-1.281
	c-0.244-0.14-0.485-0.286-0.729-0.428c-0.657-0.386-1.307-0.779-1.95-1.186c-0.364-0.232-0.722-0.471-1.081-0.71
	c-0.506-0.335-1.009-0.672-1.505-1.021c-0.482-0.34-0.958-0.689-1.433-1.041c-0.358-0.266-0.715-0.532-1.068-0.805
	c-0.588-0.457-1.169-0.927-1.742-1.403c-0.229-0.19-0.459-0.379-0.686-0.572c-0.668-0.572-1.325-1.158-1.972-1.757
	c-0.127-0.118-0.255-0.234-0.383-0.352c-0.712-0.67-1.412-1.358-2.097-2.061c-0.064-0.065-0.128-0.129-0.191-0.194
	c-0.713-0.739-1.41-1.495-2.092-2.269c-0.045-0.051-0.091-0.1-0.135-0.151c-0.666-0.757-1.312-1.538-1.945-2.328
	c-0.072-0.088-0.146-0.177-0.216-0.266c-0.565-0.714-1.113-1.449-1.654-2.189c-0.147-0.201-0.297-0.401-0.442-0.606
	c-0.421-0.591-0.821-1.19-1.22-1.791c-0.262-0.394-0.526-0.786-0.781-1.186c-0.254-0.402-0.496-0.808-0.743-1.214
	c-0.373-0.618-0.745-1.234-1.099-1.864c-0.125-0.221-0.243-0.444-0.364-0.667c-0.437-0.8-0.866-1.605-1.27-2.417
	c-0.054-0.109-0.105-0.216-0.158-0.326c-0.444-0.904-0.869-1.816-1.27-2.735c-0.03-0.068-0.059-0.137-0.088-0.206
	c-0.405-0.938-0.792-1.884-1.152-2.835c-0.036-0.094-0.07-0.189-0.106-0.284c-0.341-0.91-0.662-1.826-0.962-2.747
	c-0.056-0.174-0.11-0.35-0.165-0.524c-0.263-0.832-0.512-1.668-0.742-2.507c-0.081-0.294-0.155-0.588-0.231-0.884
	c-0.184-0.714-0.361-1.433-0.523-2.152c-0.099-0.441-0.188-0.887-0.277-1.329c-0.115-0.573-0.23-1.146-0.33-1.721
	c-0.105-0.603-0.198-1.208-0.286-1.813c-0.062-0.423-0.124-0.845-0.179-1.265c-0.095-0.76-0.174-1.52-0.244-2.283
	c-0.025-0.276-0.054-0.551-0.075-0.828c-0.071-0.896-0.121-1.794-0.156-2.694c-0.007-0.155-0.015-0.308-0.02-0.463
	c-0.031-0.996-0.04-1.995-0.025-2.995c0-0.073,0-0.147,0.002-0.221c0.018-1.043,0.061-2.089,0.127-3.137
	c0.002-0.049,0.004-0.097,0.009-0.146c0.067-1.026,0.161-2.051,0.276-3.078c0.011-0.095,0.02-0.191,0.03-0.286
	c0.107-0.924,0.241-1.847,0.386-2.771c0.036-0.23,0.07-0.458,0.107-0.689c0.121-0.728,0.266-1.449,0.411-2.169
	c0.093-0.454,0.18-0.909,0.283-1.361c0.104-0.468,0.221-0.932,0.335-1.396c0.172-0.7,0.347-1.399,0.541-2.094
	c0.066-0.238,0.14-0.475,0.209-0.713c0.258-0.884,0.527-1.763,0.818-2.631c0.034-0.103,0.07-0.204,0.107-0.305
	c0.33-0.968,0.677-1.927,1.05-2.873c0.02-0.053,0.042-0.106,0.063-0.159c0.384-0.969,0.787-1.927,1.213-2.874
	c0.032-0.071,0.065-0.142,0.098-0.213c0.412-0.906,0.844-1.804,1.294-2.687c0.071-0.141,0.146-0.279,0.217-0.418
	c0.414-0.798,0.841-1.587,1.285-2.366c0.138-0.243,0.283-0.482,0.424-0.722c0.388-0.659,0.783-1.312,1.191-1.955
	c0.23-0.362,0.467-0.718,0.703-1.074c0.338-0.509,0.677-1.016,1.027-1.515c0.338-0.478,0.685-0.948,1.033-1.419
	c0.269-0.362,0.54-0.725,0.817-1.083c0.453-0.582,0.917-1.157,1.39-1.726c0.195-0.234,0.388-0.47,0.585-0.703
	c0.565-0.66,1.145-1.308,1.738-1.951c0.125-0.135,0.248-0.272,0.373-0.405c0.662-0.704,1.341-1.394,2.036-2.071
	c0.074-0.073,0.149-0.148,0.224-0.22c0.726-0.703,1.473-1.39,2.236-2.061c0.062-0.055,0.121-0.11,0.184-0.165
	c0.746-0.654,1.511-1.29,2.29-1.911c0.104-0.084,0.205-0.168,0.309-0.252c0.698-0.552,1.414-1.087,2.139-1.615
	c0.22-0.161,0.437-0.326,0.662-0.484c0.572-0.405,1.152-0.794,1.733-1.181c0.414-0.274,0.824-0.552,1.244-0.818
	c0.382-0.242,0.767-0.47,1.152-0.704c0.638-0.386,1.276-0.771,1.93-1.136c0.198-0.113,0.396-0.217,0.595-0.327
	c0.824-0.453,1.652-0.894,2.49-1.308c0.083-0.042,0.166-0.081,0.25-0.12c0.93-0.457,1.867-0.895,2.812-1.308
	c0.041-0.018,0.083-0.034,0.125-0.052c0.966-0.42,1.938-0.815,2.918-1.185c0.067-0.027,0.134-0.05,0.2-0.075
	c0.94-0.351,1.884-0.682,2.833-0.991c0.145-0.046,0.29-0.089,0.435-0.136c0.688-0.219,1.381-0.418,2.075-0.615
	c0.226-0.064,0.453-0.134,0.679-0.195c0.212-0.056,0.425-0.112,0.636-0.166c0.518-0.135,1.038-0.255,1.558-0.379
	c0.291-0.07,0.581-0.141,0.873-0.206c0.348-0.075,0.698-0.148,1.047-0.219c0.322-0.066,0.646-0.124,0.968-0.185
	c0.363-0.07,0.725-0.138,1.089-0.201c0.489-0.082,0.982-0.16,1.473-0.231c0.247-0.036,0.494-0.07,0.741-0.105
	c0.273-0.038,0.547-0.075,0.82-0.11c0.658-0.081,1.317-0.152,1.978-0.212c0.202-0.019,0.403-0.036,0.605-0.054
	c0.14-0.013,0.279-0.023,0.418-0.035c0.829-0.064,1.659-0.113,2.492-0.145c0.094-0.003,0.188-0.008,0.282-0.012
	c0.129-0.006,0.259-0.009,0.391-0.013c0.926-0.028,1.854-0.035,2.783-0.025c0.072,0.001,0.145,0.001,0.217,0.002
	c0.059,0.001,0.115,0.002,0.173,0.003c0.816,0.014,1.635,0.054,2.453,0.098c0.234,0.013,0.467,0.018,0.7,0.033
	c0.054,0.003,0.107,0.007,0.161,0.011c0.602,0.039,1.203,0.103,1.805,0.161c0.491,0.047,0.984,0.085,1.475,0.144
	c0.064,0.007,0.126,0.014,0.19,0.021c0.231,0.028,0.463,0.066,0.694,0.097c0.814,0.108,1.628,0.221,2.44,0.358
	c0.094,0.017,0.187,0.03,0.28,0.046c0.965,0.167,1.929,0.361,2.892,0.571c0.141,0.031,0.283,0.061,0.424,0.092
	c0.86,0.194,1.719,0.413,2.575,0.64c0.271,0.073,0.541,0.14,0.81,0.216c0.671,0.188,1.335,0.394,1.998,0.602
	c0.476,0.15,0.953,0.296,1.426,0.456c0.428,0.144,0.849,0.3,1.272,0.452c0.699,0.252,1.398,0.507,2.092,0.784
	c0.214,0.085,0.427,0.177,0.641,0.264c0.863,0.354,1.722,0.719,2.566,1.106c0.091,0.042,0.179,0.085,0.268,0.127
	c0.934,0.433,1.857,0.883,2.765,1.356c0.047,0.024,0.095,0.051,0.144,0.076c0.924,0.484,1.835,0.986,2.733,1.509
	c0.07,0.041,0.138,0.083,0.208,0.124c0.856,0.503,1.698,1.026,2.527,1.563c0.137,0.089,0.273,0.182,0.41,0.273
	c0.744,0.491,1.477,0.995,2.198,1.514c0.233,0.168,0.464,0.342,0.694,0.513c0.608,0.449,1.209,0.905,1.8,1.375
	c0.342,0.273,0.678,0.552,1.016,0.831c0.463,0.382,0.922,0.765,1.372,1.16c0.45,0.394,0.893,0.796,1.331,1.202
	c0.322,0.298,0.646,0.595,0.963,0.898c0.542,0.522,1.074,1.055,1.6,1.595c0.202,0.208,0.405,0.414,0.605,0.623
	c0.609,0.645,1.207,1.303,1.791,1.972c0.11,0.125,0.22,0.248,0.329,0.374c0.643,0.746,1.269,1.508,1.881,2.285
	c0.052,0.066,0.106,0.132,0.159,0.2c0.635,0.814,1.252,1.644,1.852,2.49c0.034,0.05,0.072,0.1,0.108,0.151
	c0.584,0.828,1.149,1.676,1.698,2.534c0.06,0.092,0.118,0.182,0.178,0.275c0.489,0.773,0.959,1.564,1.421,2.363
	c0.123,0.213,0.25,0.424,0.369,0.638c0.359,0.636,0.697,1.278,1.033,1.921c0.215,0.416,0.436,0.83,0.645,1.251
	c0.212,0.429,0.412,0.862,0.616,1.296c0.304,0.649,0.607,1.298,0.892,1.96c0.102,0.235,0.197,0.471,0.295,0.707
	c0.351,0.842,0.692,1.686,1.008,2.537c0.041,0.11,0.08,0.222,0.12,0.333c0.347,0.949,0.675,1.904,0.979,2.864
	c0.02,0.065,0.039,0.13,0.06,0.195c0.307,0.984,0.592,1.972,0.852,2.964c0.023,0.087,0.044,0.176,0.067,0.263
	c0.247,0.952,0.473,1.909,0.676,2.867c0.034,0.166,0.066,0.332,0.1,0.498c0.177,0.869,0.339,1.74,0.481,2.613
	c0.046,0.286,0.086,0.574,0.129,0.86c0.113,0.745,0.213,1.493,0.299,2.239c0.05,0.435,0.091,0.87,0.13,1.305
	c0.057,0.598,0.11,1.196,0.151,1.794c0.04,0.594,0.067,1.189,0.091,1.784c0.019,0.442,0.035,0.884,0.045,1.326
	c0.015,0.747,0.014,1.496,0.003,2.245c-0.004,0.296-0.006,0.588-0.013,0.883c-0.025,0.881-0.068,1.763-0.127,2.645
	c-0.011,0.17-0.02,0.342-0.032,0.512c-0.073,0.976-0.168,1.952-0.285,2.926c-0.011,0.093-0.02,0.184-0.032,0.276
	c-0.125,1.017-0.275,2.034-0.448,3.048c-0.011,0.068-0.022,0.136-0.032,0.204c-0.172,0.99-0.37,1.981-0.586,2.969
	c-0.025,0.115-0.049,0.23-0.074,0.346c-0.2,0.887-0.425,1.771-0.66,2.652c-0.072,0.266-0.139,0.533-0.213,0.799
	c-0.128,0.459-0.265,0.915-0.403,1.371c-0.194,0.635-0.395,1.27-0.609,1.903c-0.084,0.25-0.163,0.5-0.251,0.75
	c-0.346,0.988-0.712,1.971-1.105,2.949c-0.001,0.002-0.002,0.007-0.003,0.01c-1.825,4.531-4.117,8.814-6.828,12.789
	c-0.05,0.072-0.1,0.141-0.149,0.213c-0.394,0.572-0.796,1.142-1.208,1.701c-0.129,0.176-0.263,0.348-0.394,0.522
	c-0.338,0.45-0.677,0.899-1.026,1.341c-0.223,0.282-0.454,0.56-0.682,0.838c-0.265,0.325-0.529,0.65-0.799,0.969
	c-0.329,0.388-0.668,0.768-1.006,1.148c-0.181,0.204-0.359,0.411-0.543,0.613c-0.438,0.481-0.888,0.955-1.341,1.424
	c-0.092,0.095-0.181,0.191-0.273,0.286c-0.55,0.562-1.11,1.115-1.68,1.658l-0.002,0.002c-0.586,0.559-1.185,1.107-1.794,1.646
	c-0.009,0.009-0.018,0.019-0.027,0.026c-1.009,0.893-2.05,1.752-3.113,2.587v17.006c2.198,0.501,4.59,0.117,6.584-1.274
	c2.125-1.484,4.147-3.088,6.11-4.752c0.321-0.208,0.636-0.433,0.934-0.691c2.427-2.109,4.714-4.349,6.865-6.702l0.001-0.001
	c0.001-0.002,0.003-0.003,0.004-0.006c0.673-0.738,1.333-1.484,1.978-2.242c0.053-0.064,0.104-0.127,0.158-0.19
	c0.586-0.694,1.164-1.396,1.726-2.108c0.125-0.158,0.244-0.319,0.368-0.478c0.481-0.617,0.957-1.238,1.42-1.867
	c0.205-0.277,0.4-0.561,0.601-0.84c0.37-0.518,0.74-1.031,1.097-1.557c0.282-0.413,0.552-0.834,0.826-1.252
	c0.261-0.397,0.527-0.793,0.779-1.196c0.353-0.56,0.694-1.127,1.036-1.694c0.161-0.27,0.327-0.535,0.484-0.807
	c0.412-0.706,0.808-1.417,1.198-2.133c0.077-0.144,0.159-0.284,0.236-0.426c0.448-0.836,0.882-1.679,1.302-2.531
	c0.015-0.029,0.031-0.06,0.046-0.091c2.206-4.478,4.009-9.155,5.387-13.985c0.013-0.044,0.028-0.088,0.041-0.131
	c0.002-0.008,0.003-0.017,0.006-0.024c0.353-1.245,0.678-2.502,0.975-3.766c0.077-0.335,0.146-0.668,0.22-1.001
	c0.177-0.797,0.343-1.595,0.497-2.399c0.114-0.591,0.223-1.184,0.324-1.775c0.023-0.132,0.051-0.262,0.072-0.395
	c0.032-0.2,0.052-0.397,0.083-0.597c0.18-1.131,0.341-2.264,0.474-3.398c0.017-0.138,0.029-0.277,0.044-0.416
	c0.141-1.259,0.256-2.516,0.34-3.777c0.004-0.081,0.009-0.161,0.013-0.242c0.082-1.284,0.135-2.568,0.157-3.851
	c0.002-0.112,0.001-0.223,0.003-0.335C203.505,96.301,203.496,95.074,203.457,93.851z"/>
<path style="fill:#D4D9DD;" d="M167.835,46.44c0-12.214,7.373-22.736,17.898-27.363v-1.224c0-5.951-3.923-10.983-9.323-12.657
	c-14.915,7.736-25.136,23.313-25.136,41.243c0,3.925,0.495,7.736,1.415,11.378h17.403C168.641,54.308,167.835,50.467,167.835,46.44z
	"/>
<g>
</g>
<g>
</g>
<g>
</g>
<g>
</g>
<g>
</g>
<g>
</g>
<g>
</g>
<g>
</g>
<g>
</g>
<g>
</g>
<g>
</g>
<g>
</g>
<g>
</g>
<g>
</g>
<g>
</g>
</svg>
