<svg id="Layer_1" enable-background="new 0 0 512 512" height="512" viewBox="0 0 512 512" width="512" xmlns="http://www.w3.org/2000/svg"><path id="XMLID_1835_" d="m24.743 371.815h104.74v32.843h-104.74z" fill="#64e1c5"/><path id="XMLID_1836_" d="m24.743 371.815h25.895v32.843h-25.895z" fill="#00d2b4"/><path id="XMLID_1837_" d="m108.888 371.815h20.595v32.843h-20.595z" fill="#00d2b4"/><path id="XMLID_1839_" d="m24.743 292.825h104.74v32.843h-104.74z" fill="#64e1c5"/><path id="XMLID_1840_" d="m24.743 292.825h25.895v32.843h-25.895z" fill="#00d2b4"/><path id="XMLID_1841_" d="m108.888 292.825h20.595v32.843h-20.595z" fill="#00d2b4"/><path id="XMLID_1843_" d="m24.743 213.835h104.74v32.843h-104.74z" fill="#64e1c5"/><path id="XMLID_1844_" d="m24.743 213.835h25.895v32.843h-25.895z" fill="#00d2b4"/><path id="XMLID_1845_" d="m108.888 213.835h20.595v32.843h-20.595z" fill="#00d2b4"/><path id="XMLID_1847_" d="m24.743 134.844h104.74v32.853h-104.74z" fill="#64e1c5"/><g fill="#00d2b4"><path id="XMLID_1848_" d="m24.743 134.844h28.01c-1.359 2.987-2.116 6.295-2.116 9.79v23.063h-25.894z"/><path id="XMLID_1849_" d="m109.427 134.844h20.056v32.853h-20.595v-23.063c0-3.308.176-6.575.539-9.79z"/><path id="XMLID_1852_" d="m378.027 371.815h104.74v32.843h-104.74z"/></g><path id="XMLID_1853_" d="m378.027 371.815h25.086v32.843h-25.086z" fill="#00b7a0"/><path id="XMLID_1854_" d="m461.362 371.815h21.404v32.843h-21.404z" fill="#00b7a0"/><path id="XMLID_1856_" d="m378.027 292.825h104.74v32.843h-104.74z" fill="#00d2b4"/><path id="XMLID_1857_" d="m461.362 292.825h21.404v32.843h-21.404z" fill="#00b7a0"/><path id="XMLID_1858_" d="m378.027 292.825h25.086v32.843h-25.086z" fill="#00b7a0"/><path id="XMLID_1860_" d="m378.027 213.835h104.74v32.843h-104.74z" fill="#00d2b4"/><path id="XMLID_1861_" d="m378.027 213.835h25.086v32.843h-25.086z" fill="#00b7a0"/><path id="XMLID_1862_" d="m461.362 213.835h21.404v32.843h-21.404z" fill="#00b7a0"/><path id="XMLID_1864_" d="m378.027 134.844h104.74v32.853h-104.74z" fill="#00d2b4"/><path id="XMLID_1865_" d="m402.573 134.844c.363 3.215.539 6.481.539 9.79v23.063h-25.086v-32.853z" fill="#00b7a0"/><path id="XMLID_1866_" d="m482.767 134.844v32.853h-21.404v-23.063c0-3.495-.757-6.803-2.116-9.79z" fill="#00b7a0"/><path id="XMLID_1869_" d="m387.557 144.634v286.868c0 5.69-4.612 10.302-10.302 10.302h-14.479c-5.69 0-10.302-4.612-10.302-10.302v-286.868c0-8.95-2.987-17.194-8.037-23.8-7.187-9.447-18.552-15.555-31.308-15.555h-238.691c-21.735 0-39.355 17.62-39.355 39.355v286.868c0 5.69-4.612 10.302-10.302 10.302h-14.479c-5.69 0-10.302-4.612-10.302-10.302v-286.868c0-41.111 33.327-74.438 74.438-74.438h238.692c32.718 0 60.583 21.228 70.528 50.638 2.53 7.477 3.899 15.483 3.899 23.8z" fill="#ff4a59"/><path id="XMLID_1872_" d="m383.658 120.834h-39.22c-7.187-9.447-18.552-15.555-31.308-15.555h-195.168c6.917-14.176 17.453-26.268 30.406-35.083h164.762c32.718 0 60.583 21.228 70.528 50.638z" fill="#e32334"/><path id="XMLID_1875_" d="m512 144.624v286.878c0 5.69-4.612 10.302-10.302 10.302h-14.479c-5.69 0-10.302-4.612-10.302-10.302v-286.868c0-21.705-17.65-39.355-39.345-39.355h-238.691c-21.735 0-39.355 17.62-39.355 39.355v286.868c0 5.69-4.612 10.302-10.302 10.302h-14.479c-5.69 0-10.302-4.612-10.302-10.302v-286.868c0-41.111 33.327-74.438 74.438-74.438h238.692c41.105 0 74.427 33.322 74.427 74.428z" fill="#ff6c7e"/></svg>