<svg id="Layer_1" enable-background="new 0 0 470.004 470.004" height="512" viewBox="0 0 470.004 470.004" width="512" xmlns="http://www.w3.org/2000/svg"><path d="m263.717 64.089c-7.851-4.057-10.927-13.709-6.871-21.56l17.5-33.87c4.056-7.851 13.708-10.927 21.559-6.87s10.927 13.709 6.871 21.56l-17.5 33.87c-4.06 7.859-13.72 10.921-21.559 6.87z" fill="#999"/><path d="m417.162 287.904c0 100.57-81.53 182.1-182.1 182.1s-182.1-81.53-182.1-182.1c0-74.41 44.63-138.4 108.59-166.65-9.815-46.649 25.867-90.56 73.51-90.56 47.362 0 83.143 43.474 73.58 90.24l-.13.3c63.99 28.23 108.65 92.239 108.65 166.67z" fill="#fe4f60"/><path d="m308.642 120.934c-.526 1.215-66.906-35.099-147.09.32-9.817-46.652 25.871-90.56 73.51-90.56 47.359 0 83.144 43.472 73.58 90.24z" fill="#42434d"/><path d="m219.062 106.504v25.49c-91 32.525-141.61 132.359-111.945 226.268 6.686 21.166-23.365 33.399-33.628 13.717-59.644-114.388 16.264-254.27 145.573-265.475z" fill="#ff6d7a"/><path d="m184.847 57.218-17.5-33.87c-4.056-7.851-.98-17.503 6.871-21.56 7.85-4.056 17.503-.979 21.559 6.87l17.5 33.87c4.056 7.851.98 17.503-6.871 21.56-7.851 4.056-17.503.981-21.559-6.87z" fill="#999"/><path d="m251.062 106.504v311.03c0 8.84-7.16 16-16 16s-16-7.16-16-16v-311.03c10.343-.923 21.184-.944 32 0z" fill="#e84857"/><g fill="#fff"><path d="m197.562 216.914c0 11.66-9.48 21.14-21.14 21.14s-21.15-9.48-21.15-21.14 9.49-21.15 21.15-21.15c11.66-.001 21.14 9.49 21.14 21.15z"/><path d="m185.222 308.473c0 24.71-20.1 44.81-44.81 44.81s-44.81-20.1-44.81-44.81c0-24.7 20.1-44.8 44.81-44.8 24.71.001 44.81 20.101 44.81 44.8z"/><path d="m336.452 367.124c0 16.19-13.18 29.37-29.37 29.37-16.2 0-29.38-13.18-29.38-29.37 0-16.2 13.18-29.38 29.38-29.38 16.19 0 29.37 13.18 29.37 29.38z"/><path d="m370.402 246.754c0 24.7-20.1 44.8-44.8 44.8-24.71 0-44.81-20.1-44.81-44.8 0-24.71 20.1-44.81 44.81-44.81 24.7 0 44.8 20.1 44.8 44.81z"/></g><path d="m234.569 58.077c-21.35 7.817-41.214 24.726-47.618 54.156-8.75 2.38-17.23 5.41-25.4 9.02-9.301-44.203 22.332-86.395 66.934-90.278 16.314-1.42 21.461 21.472 6.084 27.102z" fill="#4d4e59"/><path d="m379.461 398.974c-14.52 18.736-43.202-1.728-30.079-21.467 20.235-30.436 30.721-66.012 30.266-102.875-.293-23.675 34.957-25.442 36.896-1.845 3.637 44.279-8.445 89.233-37.083 126.187z" fill="#e84857"/></svg>