<svg height="512pt" viewBox="0 0 512 512" width="512pt" xmlns="http://www.w3.org/2000/svg"><g fill="#ebebeb"><path d="m256 384-64 64-128-128 64-64 68.828125-72.457031 59.171875 72.457031 64 68.335938zm0 0"/><path d="m512 384-64 64-64-64-64-59.664062 64-68.335938 64-72.457031 64 72.457031zm0 0"/><path d="m256 128-59.171875 55.542969-68.828125-55.542969-54.34375-64 54.34375-64h128l64 64zm0 0"/><path d="m461.042969 0h-77.042969l-64 64 64 64 64 55.542969 64-55.542969v-77.042969c0-28.144531-22.8125-50.957031-50.957031-50.957031zm0 0"/></g><path d="m50.957031 0c-28.144531 0-50.957031 22.8125-50.957031 50.957031v77.042969l64 55.542969 64-55.542969v-128zm0 0" fill="#ff6f7f"/><path d="m30.90625 128v-77.042969c0-28.144531 22.8125-50.957031 50.953125-50.957031h-30.902344c-28.144531 0-50.957031 22.8125-50.957031 50.957031v77.042969l64 55.542969 15.453125-13.410157zm0 0" fill="#f8485e"/><path d="m384 128-64 55.542969-64-55.542969v-128h128zm0 0" fill="#ff6f7f"/><path d="m128 384-64 64-64-64v-128l64-75.890625 64 75.890625zm0 0" fill="#ff6f7f"/><path d="m30.90625 384v-128l48.546875-57.566406-15.453125-18.324219-64 75.890625v128l64 64 15.453125-15.453125zm0 0" fill="#f8485e"/><path d="m384 384-64 64-64-64v-128l64-72.457031 64 72.457031zm0 0" fill="#ff6f7f"/><path d="m256 256h-128l-64-72.457031 64-55.542969h128l64 55.542969zm0 0" fill="#ff6f7f"/><path d="m0 128h128v128h-128zm0 0" fill="#ebebeb"/><path d="m0 128h30.90625v128h-30.90625zm0 0" fill="#c7c5cb"/><path d="m512 256h-128l-64-72.457031 64-55.542969h128zm0 0" fill="#ff6f7f"/><path d="m256 128h128v128h-128zm0 0" fill="#ebebeb"/><path d="m256 512h-128l-64-64 64-64h128l64 64zm0 0" fill="#ff6f7f"/><path d="m384 384-64 64 64 64h77.042969c28.144531 0 50.957031-22.8125 50.957031-50.957031v-77.042969zm0 0" fill="#ff6f7f"/><path d="m0 384v77.042969c0 28.144531 22.8125 50.957031 50.957031 50.957031h77.042969v-128zm0 0" fill="#ebebeb"/><path d="m30.90625 461.042969v-77.042969h-30.90625v77.042969c0 28.144531 22.8125 50.957031 50.957031 50.957031h30.902344c-28.140625 0-50.953125-22.8125-50.953125-50.957031zm0 0" fill="#c7c5cb"/><path d="m256 384h128v128h-128zm0 0" fill="#ebebeb"/></svg>