<?xml version="1.0" encoding="iso-8859-1"?>
<!-- Generator: Adobe Illustrator 19.0.0, SVG Export Plug-In . SVG Version: 6.00 Build 0)  -->
<svg version="1.1" id="Capa_1" xmlns="http://www.w3.org/2000/svg" xmlns:xlink="http://www.w3.org/1999/xlink" x="0px" y="0px"
	 viewBox="0 0 512 512" style="enable-background:new 0 0 512 512;" xml:space="preserve">
<path style="fill:#91CDFF;" d="M512,256c0,141.385-114.615,256-256,256S0,397.385,0,256S114.615,0,256,0S512,114.615,512,256z"/>
<path style="fill:#ABDCFF;" d="M240,35c0,8.284-6.716,15-15,15H105c-0.313,0-0.619-0.028-0.928-0.047
	C120.246,38.007,137.87,27.913,156.641,20H225C233.284,20,240,26.716,240,35z M159.315,140c8.525,0,15.389-7.111,14.983-15.725
	c-0.38-8.068-7.33-14.275-15.406-14.275h-39.576c-8.284,0-15-6.716-15-15s-6.716-15-15-15H70.108
	c-15.921,16.81-29.576,35.781-40.502,56.423c2.617,2.227,6.003,3.577,9.709,3.577H159.315z M35,300H3.78
	c1.771,10.221,4.151,20.232,7.096,30H35c8.284,0,15-6.716,15-15S43.284,300,35,300z M415.462,55.738
	C403.273,46.019,390.179,37.392,376.323,30H315c-8.284,0-15,6.716-15,15s6.716,15,15,15h90
	C409.072,60,412.759,58.372,415.462,55.738z M165,240H25c-8.284,0-15,6.716-15,15s6.716,15,15,15h140c8.284,0,15-6.716,15-15
	S173.284,240,165,240z M511.227,236H477c-8.284,0-15,6.716-15,15s6.716,15,15,15h34.787c0.128-3.319,0.213-6.649,0.213-10
	C512,249.269,511.737,242.6,511.227,236z M465,310h-60c-8.284,0-15,6.716-15,15s6.716,15,15,15h60c8.284,0,15-6.716,15-15
	S473.284,310,465,310z M472.906,120c-6.624-10.542-13.992-20.566-22.036-30H385c-8.284,0-15,6.716-15,15s6.716,15,15,15H472.906z
	 M507.871,210c-1.855-10.224-4.312-20.238-7.342-30H395c-8.284,0-15,6.716-15,15s6.716,15,15,15H507.871z"/>
<path style="fill:#FFFAD2;" d="M447.745,430H64.255V174.34L256,57.163L447.745,174.34V430z"/>
<path style="fill:#FFF5AF;" d="M302.871,227.603h106.525V430H302.871V227.603z M106.865,344.78h159.787V227.603H106.865V344.78z
	 M256,72.277L86.51,175.987v-1.646H64.255v15.264v35.358V430H86.51V211.362L256,107.785l191.745,117.177v-35.358L256,72.277z"/>
<path style="fill:#EDC85F;" d="M313.523,238.255h85.22V430h-85.22V238.255z"/>
<path style="fill:#C99C47;" d="M372.112,323.475h26.631v10.652h-26.631c-2.942,0-5.326-2.385-5.326-5.326l0,0
	C366.786,325.86,369.171,323.475,372.112,323.475z"/>
<path style="fill:#5F6E9B;" d="M256,280.865v53.262H117.518v-53.262H256z M256,270.213v-31.957H117.518v31.957H256z"/>
<path style="fill:#7382AF;" d="M151.554,270.213L165,238.255h13.854l-13.446,31.957h-13.854V270.213z M235.409,270.213
	l13.446-31.957h-53.518l-13.446,31.957H235.409z M147.073,280.865l-22.409,53.262h13.854l22.409-53.262H147.073z M177.409,280.865
	L155,334.128h53.518l22.409-53.262h-53.518V280.865z"/>
<path style="fill:#FF5A5F;" d="M477.778,184.489l-19.504,19.086c-1.636,1.601-4.151,1.887-6.104,0.693L256,84.386L59.83,204.268
	c-1.953,1.194-4.468,0.908-6.104-0.693l-19.504-19.086c-2.328-2.278-1.891-6.138,0.887-7.839L256,41.488l94,57.518V50
	c-2.761,0-5-2.239-5-5V35c0-2.761,2.239-5,5-5h50c2.761,0,5,2.239,5,5v10c0,2.761-2.239,5-5,5v79.601l76.891,47.049
	C479.669,178.35,480.106,182.211,477.778,184.489z"/>
<path style="fill:#D74646;" d="M75.072,194.953l-15.242,9.315c-1.953,1.194-4.468,0.908-6.104-0.693l-19.504-19.086
	c-2.328-2.278-1.891-6.138,0.887-7.839l17.282-10c-2.778,1.7-3.215,5.56-0.887,7.839l19.504,19.086
	C72.11,194.654,73.611,195.12,75.072,194.953z M380,88v-6c0-1.105-0.895-2-2-2h-13V60h13c1.105,0,2-0.895,2-2v-6
	c0-1.105-0.895-2-2-2h-13c-2.761,0-5-2.239-5-5V35c0-2.761,2.239-5,5-5h-15c-2.761,0-5,2.239-5,5v10c0,2.761,2.239,5,5,5v49.006
	l15,9.178V90h13C379.105,90,380,89.105,380,88z M391.333,110h-16c-1.105,0-2,0.895-2,2v1.284L384.309,120h7.024c1.105,0,2-0.895,2-2
	v-6C393.333,110.895,392.438,110,391.333,110z M391.333,65h-16c-1.105,0-2,0.895-2,2v6c0,1.105,0.895,2,2,2h16c1.105,0,2-0.895,2-2
	v-6C393.333,65.895,392.438,65,391.333,65z"/>
<path style="fill:#6EA550;" d="M459.974,410.692C413.221,472.245,339.258,512,256,512S98.779,472.245,52.026,410.692h92.367
	l-12.406-28.676c-0.402-0.928,0.671-1.798,1.496-1.213l37.914,26.894l22.033-15.629c0.825-0.585,1.898,0.284,1.496,1.213
	l-7.532,17.411L459.974,410.692L459.974,410.692z"/>
<path style="fill:#82CD64;" d="M398.743,410.692V458v5.016v5.519C357.961,495.979,308.853,512,256,512
	c-59.292,0-113.87-20.165-157.267-54h184.79c16.569,0,30-13.431,30-30v-17.308H398.743z"/>
<g>
</g>
<g>
</g>
<g>
</g>
<g>
</g>
<g>
</g>
<g>
</g>
<g>
</g>
<g>
</g>
<g>
</g>
<g>
</g>
<g>
</g>
<g>
</g>
<g>
</g>
<g>
</g>
<g>
</g>
</svg>
