<svg height="512pt" viewBox="0 0 512 512" width="512pt" xmlns="http://www.w3.org/2000/svg"><path d="m512 256c0 2.851562-.042969 5.683594-.144531 8.515625-.429688 13.238281-1.863281 26.226563-4.234375 38.882813-3.039063 16.246093-7.617188 31.949218-13.574219 46.964843-2.296875 5.789063-4.792969 11.464844-7.488281 17.035157-41.421875 85.574218-129.097656 144.601562-230.558594 144.601562s-189.136719-59.027344-230.558594-144.601562c-.960937-1.976563-1.890625-3.972657-2.789062-5.980469-8.296875-18.292969-14.480469-37.738281-18.273438-58.019531-2.875-15.363282-4.378906-31.203126-4.378906-47.398438 0-52.308594 15.683594-100.957031 42.621094-141.488281 45.859375-69.015625 124.300781-114.511719 213.378906-114.511719 81.074219 0 153.339844 37.691406 200.246094 96.496094 20.570312 25.789062 36.277344 55.652344 45.691406 88.191406 6.550781 22.628906 10.0625 46.570312 10.0625 71.3125zm0 0" fill="#96d6d4"/><path d="m511.855469 264.515625c-.429688 13.238281-1.863281 26.226563-4.234375 38.882813-3.039063 16.246093-7.617188 31.949218-13.574219 46.964843l-471.394531 11.054688c-7.636719-16.832031-13.476563-34.648438-17.3125-53.183594-.34375-1.609375-.660156-3.21875-.960938-4.835937-2.875-15.363282-4.378906-31.203126-4.378906-47.398438v-73.851562c0-16.019532 6.363281-31.378907 17.691406-42.707032l46.226563-46.226562c1.378906-1.378906 3.007812-2.371094 4.761719-2.96875 3.597656-1.230469 7.660156-.78125 10.984374 1.464844l37.84375 25.632812c4.921876 3.332031 11.535157 2.703125 15.746094-1.507812l11.863282-11.867188c1.722656-1.726562 3.84375-2.84375 6.089843-3.335938l.011719-.007812c3.332031-.742188 6.9375-.09375 9.894531 2.003906l82.265625 58.609375c6.695313 4.773438 16.101563 1.839844 18.890625-5.902343l27.105469-75.308594c2.289062-6.339844 9.214844-9.707032 15.621094-7.574219l26.140625 8.714844c2.019531.679687 4.140625.804687 6.15625.4375.574219-.101563 1.140625-.25 1.691406-.4375 1.796875-.585938 3.46875-1.597657 4.859375-3l27.617188-27.617188c2.089843-2.078125 4.710937-3.257812 7.410156-3.5625 4.085937-.449219 8.328125 1.117188 11.105468 4.621094l40.542969 51.042969c1.871094 2.359375 4.398438 3.832031 7.09375 4.417968l.019531.011719c3.960938.835938 8.277344-.25 11.402344-3.375l20.132813-20.136719c3.847656-3.84375 9.175781-4.480468 13.53125-2.695312v.011719c3.710937 1.515625 6.71875 4.804687 7.492187 9.382812l11.746094 94.417969zm0 0" fill="#757177"/><path d="m369.183594 250.867188-95.921875-68.332032c-8.640625-6.160156-12.929688-16.769531-10.992188-27.199218l27.105469-75.308594c2.289062-6.339844 9.214844-9.707032 15.621094-7.574219l31.898437 70.992187c2.9375 6.539063 1.527344 14.207032-3.53125 19.265626-3.414062 3.417968-5.054687 7.816406-5.054687 12.183593 0 5.777344 2.871094 11.503907 8.335937 14.796875l35.746094 21.554688c4.523437 2.726562 7.554687 7.386718 8.203125 12.632812l2.347656 18.78125c.945313 7.554688-7.550781 12.625-13.757812 8.207032zm0 0" fill="#37323a"/><path d="m185.523438 312.589844-180.183594-4.355469c-.34375-1.609375-.660156-3.21875-.960938-4.835937-2.875-15.363282-4.378906-31.203126-4.378906-47.398438v-73.851562c0-16.019532 6.363281-31.378907 17.691406-42.707032l46.226563-46.226562c1.378906-1.378906 3.007812-2.371094 4.761719-2.96875 3.597656-1.230469 7.660156-.78125 10.984374 1.464844l37.992188 100.90625c3.125 8.273437 12.183594 12.652343 20.605469 9.9375 1.691406-.542969 3.40625-.804688 5.097656-.804688 7.304687 0 14.035156 4.867188 16.007813 12.328125zm0 0" fill="#37323a"/><path d="m507.621094 303.398438c-4.210938 22.503906-11.367188 43.976562-21.0625 64h-461.117188c-9.695312-20.023438-16.851562-41.496094-21.0625-64zm0 0" fill="#17aa3d"/><path d="m466.078125 284.585938c-2.625-17.734376-17.902344-31.339844-36.363281-31.339844-18.460938 0-33.742188 13.605468-36.363282 31.339844-19.859374.511718-35.804687 16.757812-35.804687 36.742187 0 20.304687 16.457031 36.761719 36.761719 36.761719 16.871094 0 31.078125 3.691406 35.40625-11.796875 4.324218 15.488281 18.53125 11.796875 35.402344 11.796875 20.304687 0 36.765624-16.457032 36.765624-36.761719 0-19.984375-15.945312-36.230469-35.804687-36.742187zm0 0" fill="#2cce5a"/><path d="m454.332031 262.730469c-15.464843-10.011719-41.398437 11.191406-30.519531 35.222656 0 0-29.304688 7.183594-17.703125 36.320313 9.53125 23.933593-15.527344 16.125-37.40625 13.429687-6.886719-6.679687-11.160156-16.03125-11.160156-26.375 0-19.976563 15.945312-36.226563 35.808593-36.738281 2.625-17.730469 17.902344-31.347656 36.363282-31.347656 9.476562 0 18.109375 3.585937 24.617187 9.488281zm0 0" fill="#21bf4a"/><path d="m497.863281 340.09375c-.503906 1.429688-1.015625 2.863281-1.535156 4.285156-.753906 2.058594-1.539063 4.105469-2.34375 6.140625-1.253906 3.136719-2.558594 6.25-3.925781 9.324219-.492188 1.105469-.992188 2.214844-1.507813 3.320312-.46875 1.023438-.960937 2.046876-1.449219 3.0625-.410156.867188-.816406 1.714844-1.246093 2.570313-.113281.238281-.230469.492187-.355469.730469-2.140625 4.328125-4.398438 8.570312-6.769531 12.75 0 0 0 .007812-.011719.007812-.8125 1.441406-1.648438 2.863282-2.496094 4.285156-.617187 1.054688-1.253906 2.101563-1.890625 3.144532-.585937.953125-1.179687 1.902344-1.789062 2.851562-2.453125 3.890625-5.015625 7.714844-7.667969 11.453125-1.640625 2.332031-3.324219 4.621094-5.046875 6.886719-3.550781 4.671875-7.261719 9.207031-11.128906 13.613281-46.914063 53.625-115.859375 87.480469-192.699219 87.480469-48.554688 0-93.945312-13.511719-132.628906-37-13.78125-8.359375-26.707032-17.984375-38.621094-28.722656-1.023438-.929688-2.046875-1.863282-3.058594-2.8125l-.011718-.011719c-1.128907-1.042969-2.257813-2.109375-3.363282-3.183594-2.769531-2.65625-5.464844-5.382812-8.097656-8.171875-2.375-2.476562-4.671875-5.007812-6.917969-7.578125-3.867187-4.40625-7.578125-8.941406-11.128906-13.613281-11.941406-15.703125-22.121094-32.820312-30.230469-51.0625-2.863281-6.449219-5.472656-13.03125-7.804687-19.75zm0 0" fill="#757177"/><path d="m89.328125 410.90625v13.613281h-26.027344c-3.867187-4.40625-7.578125-8.941406-11.128906-13.613281zm0 0" fill="#f1eee9"/><path d="m313.269531 410.90625h92.714844v13.613281h-92.714844zm0 0" fill="#f1eee9"/><path d="m459.828125 410.90625c-3.550781 4.671875-7.261719 9.207031-11.128906 13.613281h-4.585938v-13.613281zm0 0" fill="#f1eee9"/><path d="m497.863281 340.09375c-2.332031 6.71875-4.941406 13.300781-7.804687 19.75h-468.117188c-2.863281-6.449219-5.472656-13.03125-7.804687-19.75zm0 0" fill="#37323a"/><path d="m55.457031 293.96875h15.09375v41.6875h-15.09375zm0 0" fill="#ab5816"/><path d="m86.761719 310.777344c46.023437-8.90625-2.972657-172.226563-23.757813-172.226563s-69.78125 163.320313-23.753906 172.226563zm0 0" fill="#2cce5a"/><path d="m52.191406 310.78125h-12.941406c-46.03125-8.90625 2.960938-172.226562 23.753906-172.226562-9.457031 0-31.753906 163.320312-10.8125 172.226562zm0 0" fill="#21bf4a"/><path d="m311.511719 291.421875h6.769531v18.699219h-6.769531zm0 0" fill="#ab5816"/><path d="m325.550781 298.964844c20.648438-4-1.332031-77.265625-10.65625-77.265625s-31.304687 73.265625-10.65625 77.265625zm0 0" fill="#2cce5a"/><path d="m310.046875 298.964844h-5.808594c-20.648437-3.996094 1.328125-77.265625 10.65625-77.265625-4.242187 0-14.242187 73.269531-4.847656 77.265625zm0 0" fill="#21bf4a"/><path d="m170.113281 163.066406-52.605469-45.722656c4.921876 3.332031 11.535157 2.703125 15.746094-1.507812l11.863282-11.867188c1.722656-1.726562 3.84375-2.84375 6.089843-3.335938l.011719-.007812 29.402344 53.996094c3.648437 6.707031-4.75 13.453125-10.507813 8.445312zm0 0" fill="#37323a"/><path d="m387.429688 112-9.96875-18.011719c-4.378907-7.910156-12.710938-12.820312-21.753907-12.820312h-16.722656c1.796875-.585938 3.46875-1.597657 4.859375-3l27.617188-27.617188c2.089843-2.078125 4.710937-3.257812 7.410156-3.5625l16.394531 61.863281c1.285156 4.84375-5.40625 7.535157-7.835937 3.148438zm0 0" fill="#37323a"/><path d="m482.699219 80.875v.011719l-35.832031 105.464843c-1.164063 3.425782-4.382813 5.730469-8 5.730469h-17.5c-6.167969 0-10.257813-6.394531-7.667969-11.996093l35.335937-76.378907 20.132813-20.136719c3.847656-3.84375 9.175781-4.480468 13.53125-2.695312zm0 0" fill="#37323a"/><path d="m255.746094 249.925781 19.640625 16.367188c7.605469 6.339843 3.125 18.726562-6.78125 18.726562h-23.640625c-6.867188 0-11.917969-6.4375-10.285156-13.105469l4-16.367187c1.859374-7.609375 11.050781-10.636719 17.066406-5.621094zm0 0" fill="#37323a"/><path d="m294.203125 385.773438v41.351562c0 4.851562-3.929687 8.78125-8.777344 8.78125h-177.339843c-4.90625 0-8.882813-3.976562-8.882813-8.882812v-51.402344c0-4.902344 3.972656-8.875 8.871094-8.875h20.253906l9.105469-48.007813c1.039062-5.464843 5.816406-9.421875 11.378906-9.421875h72.828125c8.363281 0 15.703125 5.539063 18.003906 13.570313l12.554688 43.859375 31.472656 6.214844c6.121094 1.207031 10.53125 6.582031 10.53125 12.8125zm0 0" fill="#f73e3e"/><g fill="#d81d1d"><path d="m121.019531 435.910156h-12.933593c-4.902344 0-8.882813-3.980468-8.882813-8.882812v-51.40625c0-4.902344 3.972656-8.871094 8.871094-8.871094h12.9375c-4.902344 0-8.871094 3.96875-8.871094 8.871094v51.40625c0 4.902344 3.980469 8.882812 8.878906 8.882812zm0 0"/><path d="m161.75 309.3125c-5.558594 0-10.34375 3.957031-11.378906 9.421875l-9.101563 48.015625h-12.933593l9.101562-48.015625c1.035156-5.464844 5.820312-9.421875 11.378906-9.421875zm0 0"/><path d="m294.207031 413.640625v13.488281c0 4.847656-3.929687 8.777344-8.777343 8.777344h-177.34375c-4.90625 0-8.878907-3.976562-8.878907-8.878906v-13.480469c0 4.902344 3.972657 8.878906 8.878907 8.878906h177.34375c4.847656 0 8.777343-3.933593 8.777343-8.785156zm0 0"/><path d="m285.09375 435.90625h-77.320312c0-21.351562 17.3125-38.664062 38.664062-38.664062s38.65625 17.3125 38.65625 38.664062zm0 0"/><path d="m184.484375 435.90625h-77.320313c0-21.351562 17.3125-38.664062 38.664063-38.664062 21.347656 0 38.65625 17.3125 38.65625 38.664062zm0 0"/></g><path d="m278.640625 435.90625c0 17.785156-14.417969 32.203125-32.203125 32.203125-17.789062 0-32.207031-14.417969-32.207031-32.203125 0-17.789062 14.417969-32.207031 32.207031-32.207031 17.785156 0 32.203125 14.417969 32.203125 32.207031zm0 0" fill="#37323a"/><path d="m262.5625 435.90625c0 8.90625-7.222656 16.125-16.125 16.125-8.90625 0-16.125-7.21875-16.125-16.125s7.21875-16.125 16.125-16.125c8.902344 0 16.125 7.21875 16.125 16.125zm0 0" fill="#e6e6e6"/><path d="m246.4375 455.015625c-10.539062 0-19.113281-8.574219-19.113281-19.109375 0-10.539062 8.574219-19.109375 19.113281-19.109375 10.535156 0 19.109375 8.570313 19.109375 19.109375 0 10.535156-8.574219 19.109375-19.109375 19.109375zm0-32.25c-7.246094 0-13.140625 5.894531-13.140625 13.140625s5.894531 13.140625 13.140625 13.140625c7.242188 0 13.140625-5.894531 13.140625-13.140625s-5.898437-13.140625-13.140625-13.140625zm0 0" fill="#5b565e"/><path d="m178.03125 435.90625c0 17.785156-14.421875 32.203125-32.207031 32.203125-17.785157 0-32.203125-14.417969-32.203125-32.203125 0-17.789062 14.417968-32.207031 32.203125-32.207031 17.785156 0 32.207031 14.417969 32.207031 32.207031zm0 0" fill="#37323a"/><path d="m161.949219 435.90625c0 8.90625-7.21875 16.125-16.125 16.125s-16.125-7.21875-16.125-16.125 7.21875-16.125 16.125-16.125 16.125 7.21875 16.125 16.125zm0 0" fill="#e6e6e6"/><path d="m145.824219 455.015625c-10.535157 0-19.109375-8.574219-19.109375-19.109375 0-10.539062 8.574218-19.109375 19.109375-19.109375 10.539062 0 19.109375 8.570313 19.109375 19.109375 0 10.535156-8.570313 19.109375-19.109375 19.109375zm0-32.25c-7.246094 0-13.140625 5.894531-13.140625 13.140625s5.894531 13.140625 13.140625 13.140625c7.246093 0 13.140625-5.894531 13.140625-13.140625s-5.894532-13.140625-13.140625-13.140625zm0 0" fill="#5b565e"/><path d="m294.203125 386.816406v18.621094c-1.917969 2.855469-4.957031 4.914062-8.554687 5.550781-.675782.128907-1.480469.203125-2.289063.203125h-3.492187c-7.210938 0-13.074219-5.863281-13.074219-13.074218v-3.96875c0-7.210938 5.863281-13.082032 13.074219-13.082032h3.492187c.808594 0 1.613281.074219 2.371094.222656 3.554687.617188 6.5625 2.675782 8.472656 5.527344zm0 0" fill="#d81d1d"/><path d="m290.898438 394.148438v3.96875c0 3.710937-2.683594 6.796874-6.210938 7.414062-.433594.082031-.878906.121094-1.328125.121094h-3.492187c-4.164063 0-7.535157-3.371094-7.535157-7.535156v-3.96875c0-4.164063 3.371094-7.542969 7.535157-7.542969h3.492187c.449219 0 .894531.035156 1.328125.121093 3.527344.617188 6.210938 3.710938 6.210938 7.421876zm0 0" fill="#ff931f"/><path d="m290.898438 394.148438v3.96875c0 3.710937-2.683594 6.796874-6.210938 7.414062-3.535156-.617188-6.222656-3.703125-6.222656-7.414062v-3.96875c0-3.710938 2.6875-6.804688 6.222656-7.421876 3.527344.617188 6.210938 3.710938 6.210938 7.421876zm0 0" fill="#ffbb16"/><path d="m228.296875 366.746094h-69.789063c-4.78125 0-8.65625-3.875-8.65625-8.65625v-28.1875c0-4.777344 3.875-8.652344 8.65625-8.652344h63.132813c3.011719 0 5.695313 2.027344 6.523437 4.917969l8.453126 29.542969c1.585937 5.527343-2.566407 11.035156-8.320313 11.035156zm0 0" fill="#96d6d4"/><path d="m228.296875 369.730469h-69.789063c-6.417968 0-11.640624-5.222657-11.640624-11.640625v-28.1875c0-6.417969 5.222656-11.636719 11.640624-11.636719h63.132813c4.339844 0 8.199219 2.910156 9.394531 7.082031l8.453125 29.539063c1.015625 3.546875.324219 7.265625-1.894531 10.210937-2.222656 2.945313-5.609375 4.632813-9.296875 4.632813zm-69.789063-45.496094c-3.125 0-5.667968 2.542969-5.667968 5.667969v28.1875c0 3.128906 2.542968 5.671875 5.667968 5.671875h69.792969c1.796875 0 3.445313-.824219 4.527344-2.257813 1.078125-1.433594 1.417969-3.246094.921875-4.972656l-8.453125-29.539062c-.464844-1.625-1.96875-2.757813-3.652344-2.757813zm0 0" fill="#d81d1d"/><path d="m191.199219 320.875h6.351562v45.84375h-6.351562zm0 0" fill="#d81d1d"/><path d="m198.378906 377.648438v4.589843c0 3.765625 3.054688 6.820313 6.820313 6.820313h13.328125c3.765625 0 6.820312-3.054688 6.820312-6.820313v-4.589843h-18.152344" fill="#d81d1d"/><path d="m147.523438 377.648438v4.589843c0 3.765625 3.054687 6.820313 6.820312 6.820313h13.328125c3.765625 0 6.820313-3.054688 6.820313-6.820313v-4.589843h-18.152344" fill="#d81d1d"/></svg>