<svg height="512pt" viewBox="-7 0 512 512.00225" width="512pt" xmlns="http://www.w3.org/2000/svg"><path d="m484.367188 40.921875h-20.960938c.117188.753906.183594 1.523437.183594 2.304687v383.4375c0 4.359376-4.652344 7.140626-8.480469 5.058594-27.757813-15.101562-116.203125-56.691406-189.144531-3.253906-4.878906 3.574219-10.730469 5.585938-16.777344 5.585938h-.253906c-6.046875 0-11.894532-2.011719-16.773438-5.585938-72.945312-53.4375-161.386718-11.851562-189.144531 3.25-3.828125 2.085938-8.484375-.695312-8.484375-5.054688v-383.4375c0-.78125.066406-1.546874.183594-2.304687h-20.960938c-7.566406 0-13.753906 6.1875-13.753906 13.753906v403c0 7.566407 6.1875 13.753907 13.753906 13.753907h178.699219c4.367187 0 8.199219 2.8125 9.609375 6.941406 6.664062 19.558594 25.183594 33.632812 47 33.632812s40.332031-14.074218 47-33.628906c1.40625-4.132812 5.238281-6.945312 9.605469-6.945312h178.699219c7.566406 0 13.753906-6.1875 13.753906-13.75v-403.007813c0-7.5625-6.1875-13.75-13.753906-13.75zm0 0" fill="#ff656f"/><path d="m34.769531 457.675781v-29.367187c-.152343-.515625-.238281-1.0625-.238281-1.640625v-383.441407c0-.78125.066406-1.550781.183594-2.304687h-20.960938c-7.566406 0-13.753906 6.1875-13.753906 13.753906v403c0 7.566407 6.1875 13.753907 13.753906 13.753907h34.765625c-7.5625 0-13.75-6.1875-13.75-13.753907zm0 0" fill="#ff4756"/><path d="m236.832031 478.371094c-1.410156-4.132813-5.242187-6.945313-9.609375-6.945313h-34.765625c4.363281 0 8.195313 2.8125 9.605469 6.945313 6.664062 19.558594 25.183594 33.628906 47 33.628906 6.117188 0 11.976562-1.105469 17.382812-3.128906-13.882812-5.195313-24.816406-16.425782-29.613281-30.5zm0 0" fill="#ff4756"/><path d="m457.859375 30.085938c-29.003906-15.917969-132.921875-64.339844-208.667969 10.710937-2.46875-2.226563-4.894531-4.394531-5.824218-5.230469v400.984375c1.820312.375 3.683593.59375 5.566406.59375h.253906c6.046875 0 11.898438-2.011719 16.777344-5.585937 72.941406-53.433594 163.449218-11.847656 191.203125 3.253906 3.828125 2.082031 8.484375-.695312 8.484375-5.054688v-386.53125c0-5.476562-2.992188-10.507812-7.792969-13.140624zm0 0" fill="#8cc9f9"/><path d="m279.964844 17.445312c-10.582032 5.925782-20.917969 13.585938-30.773438 23.351563-2.46875-2.226563-4.898437-4.394531-5.828125-5.230469v400.984375c1.824219.375 3.6875.59375 5.570313.59375h.253906c6.046875 0 11.898438-2.011719 16.777344-5.585937 4.601562-3.371094 9.277344-6.363282 14-9.011719zm0 0" fill="#60b8fe"/><path d="m40.265625 30.085938c-4.804687 2.632812-7.792969 7.664062-7.792969 13.140624v386.53125c0 4.359376 4.65625 7.136719 8.484375 5.054688 27.753907-15.101562 118.257813-56.6875 191.203125-3.253906 4.878906 3.574218 10.726563 5.585937 16.773438 5.585937h.128906v-396.222656c-75.761719-75.234375-179.78125-26.761719-208.796875-10.835937zm0 0" fill="#b1dbfc"/><path d="m62.597656 19.246094c-9.464844 4.058594-17.117187 7.976562-22.332031 10.839844-4.804687 2.632812-7.792969 7.664062-7.792969 13.140624v386.53125c0 4.359376 4.65625 7.136719 8.484375 5.054688 5.191407-2.828125 12.582031-6.578125 21.640625-10.464844zm0 0" fill="#8cc9f9"/><g fill="#60b8fe"><path d="m429.039062 74.527344c-37.648437-15.515625-92.96875-28.484375-142.691406-2.148438-3.773437 1.996094-8.449218.558594-10.445312-3.214844-1.996094-3.769531-.558594-8.445312 3.210937-10.441406 55.027344-29.140625 115.105469-15.257812 155.8125 1.515625 3.945313 1.625 5.828125 6.144531 4.199219 10.085938-1.621094 3.941406-6.132812 5.828125-10.085938 4.203125zm0 0"/><path d="m429.039062 113.257812c-37.648437-15.515624-92.964843-28.484374-142.691406-2.148437-3.773437 1.996094-8.449218.558594-10.445312-3.214844-1.996094-3.769531-.558594-8.445312 3.210937-10.441406 55.027344-29.140625 115.105469-15.257813 155.8125 1.515625 3.945313 1.625 5.828125 6.140625 4.199219 10.085938-1.621094 3.941406-6.132812 5.828124-10.085938 4.203124zm0 0"/><path d="m429.039062 151.988281c-37.648437-15.515625-92.96875-28.484375-142.691406-2.148437-3.773437 1.996094-8.449218.558594-10.445312-3.210938-1.996094-3.773437-.558594-8.449218 3.210937-10.445312 55.027344-29.140625 115.105469-15.257813 155.8125 1.515625 3.945313 1.625 5.828125 6.144531 4.199219 10.085937-1.621094 3.941406-6.132812 5.828125-10.085938 4.203125zm0 0"/><path d="m429.039062 190.71875c-37.648437-15.515625-92.96875-28.484375-142.691406-2.148438-3.773437 1.996094-8.449218.558594-10.445312-3.210937-1.996094-3.773437-.558594-8.449219 3.210937-10.445313 55.027344-29.140624 115.105469-15.257812 155.8125 1.515626 3.945313 1.628906 5.828125 6.144531 4.199219 10.089843-1.621094 3.941407-6.132812 5.824219-10.085938 4.199219zm0 0"/><path d="m429.039062 229.449219c-37.648437-15.515625-92.964843-28.480469-142.691406-2.148438-3.773437 2-8.449218.558594-10.445312-3.210937-1.996094-3.773438-.558594-8.449219 3.210937-10.445313 55.027344-29.136719 115.105469-15.257812 155.8125 1.515625 3.945313 1.628906 5.828125 6.144532 4.199219 10.089844-1.621094 3.9375-6.132812 5.824219-10.085938 4.199219zm0 0"/><path d="m429.039062 268.179688c-37.648437-15.515626-92.96875-28.484376-142.691406-2.148438-3.773437 1.996094-8.449218.558594-10.445312-3.210938-1.996094-3.773437-.558594-8.449218 3.210937-10.445312 55.027344-29.140625 115.105469-15.257812 155.8125 1.515625 3.945313 1.628906 5.828125 6.144531 4.199219 10.089844-1.621094 3.941406-6.132812 5.824219-10.085938 4.199219zm0 0"/><path d="m429.039062 306.910156c-37.648437-15.515625-92.964843-28.480468-142.691406-2.148437-3.773437 2-8.449218.558593-10.445312-3.210938-1.996094-3.773437-.558594-8.449219 3.210937-10.445312 55.027344-29.136719 115.105469-15.257813 155.8125 1.515625 3.945313 1.628906 5.828125 6.144531 4.199219 10.089844-1.621094 3.9375-6.132812 5.828124-10.085938 4.199218zm0 0"/><path d="m429.039062 345.640625c-37.648437-15.511719-92.96875-28.480469-142.691406-2.144531-3.773437 1.996094-8.449218.558594-10.445312-3.214844-1.996094-3.769531-.558594-8.445312 3.210937-10.441406 55.027344-29.140625 115.105469-15.257813 155.8125 1.515625 3.945313 1.625 5.828125 6.140625 4.199219 10.085937-1.621094 3.941406-6.132812 5.828125-10.085938 4.199219zm0 0"/><path d="m429.039062 384.375c-37.648437-15.515625-92.96875-28.484375-142.691406-2.152344-3.773437 2-8.449218.5625-10.445312-3.210937-1.996094-3.769531-.558594-8.445313 3.210937-10.445313 55.027344-29.136718 115.105469-15.253906 155.8125 1.519532 3.945313 1.625 5.828125 6.140624 4.199219 10.085937-1.621094 3.941406-6.132812 5.828125-10.085938 4.203125zm0 0"/><path d="m58.996094 70.328125c-1.625-3.945313.253906-8.464844 4.199218-10.089844 40.710938-16.773437 100.785157-30.65625 155.8125-1.515625 3.773438 1.996094 5.210938 6.671875 3.214844 10.445313-2 3.769531-6.675781 5.207031-10.445312 3.210937-49.726563-26.332031-105.042969-13.367187-142.691406 2.148438-3.953126 1.625-8.464844-.257813-10.089844-4.199219zm0 0"/><path d="m58.996094 109.054688c-1.625-3.945313.253906-8.460938 4.199218-10.085938 40.710938-16.773438 100.785157-30.65625 155.8125-1.515625 3.773438 1.996094 5.210938 6.671875 3.214844 10.445313-2 3.769531-6.675781 5.207031-10.445312 3.210937-49.726563-26.335937-105.042969-13.367187-142.691406 2.148437-3.953126 1.625-8.464844-.257812-10.089844-4.203124zm0 0"/><path d="m58.996094 147.789062c-1.625-3.945312.253906-8.464843 4.199218-10.089843 40.710938-16.773438 100.785157-30.65625 155.8125-1.515625 3.773438 1.996094 5.210938 6.671875 3.214844 10.445312-2 3.773438-6.675781 5.207032-10.445312 3.210938-49.726563-26.335938-105.042969-13.367188-142.691406 2.148437-3.953126 1.625-8.464844-.257812-10.089844-4.199219zm0 0"/><path d="m58.996094 186.519531c-1.625-3.945312.253906-8.464843 4.199218-10.089843 40.710938-16.773438 100.785157-30.65625 155.8125-1.515626 3.773438 1.996094 5.210938 6.671876 3.214844 10.445313-2 3.769531-6.675781 5.207031-10.445312 3.210937-49.726563-26.332031-105.042969-13.363281-142.691406 2.148438-3.953126 1.625-8.464844-.257812-10.089844-4.199219zm0 0"/><path d="m58.996094 225.25c-1.625-3.945312.253906-8.460938 4.199218-10.085938 40.710938-16.777343 100.785157-30.65625 155.8125-1.519531 3.773438 2 5.210938 6.675781 3.214844 10.445313-2 3.773437-6.675781 5.210937-10.445312 3.210937-49.726563-26.335937-105.042969-13.367187-142.691406 2.148438-3.953126 1.625-8.464844-.257813-10.089844-4.199219zm0 0"/><path d="m58.996094 263.980469c-1.625-3.945313.253906-8.460938 4.199218-10.085938 40.710938-16.777343 100.785157-30.660156 155.8125-1.519531 3.773438 2 5.210938 6.675781 3.214844 10.445312-2 3.773438-6.675781 5.207032-10.445312 3.210938-49.726563-26.332031-105.042969-13.363281-142.691406 2.148438-3.953126 1.625-8.464844-.257813-10.089844-4.199219zm0 0"/><path d="m58.996094 302.710938c-1.625-3.945313.253906-8.460938 4.199218-10.085938 40.710938-16.777344 100.785157-30.65625 155.8125-1.519531 3.773438 2 5.210938 6.675781 3.214844 10.445312-2 3.773438-6.675781 5.210938-10.445312 3.210938-49.726563-26.332031-105.042969-13.367188-142.691406 2.148437-3.953126 1.625-8.464844-.257812-10.089844-4.199218zm0 0"/><path d="m58.996094 341.441406c-1.625-3.945312.253906-8.460937 4.199218-10.085937 40.710938-16.777344 100.785157-30.660157 155.8125-1.515625 3.773438 1.996094 5.210938 6.671875 3.214844 10.441406-2 3.773438-6.675781 5.210938-10.445312 3.214844-49.726563-26.335938-105.042969-13.371094-142.691406 2.144531-3.953126 1.625-8.464844-.257813-10.089844-4.199219zm0 0"/><path d="m58.996094 380.171875c-1.625-3.945313.253906-8.460937 4.199218-10.085937 40.710938-16.777344 100.785157-30.660157 155.8125-1.515626 3.773438 1.996094 5.210938 6.671876 3.214844 10.441407-2 3.773437-6.675781 5.210937-10.445312 3.214843-49.726563-26.335937-105.042969-13.367187-142.691406 2.148438-3.953126 1.625-8.464844-.257812-10.089844-4.203125zm0 0"/></g></svg>