<svg height="512" viewBox="0 0 59 58" width="512" xmlns="http://www.w3.org/2000/svg"><g id="Page-1" fill="none" fill-rule="evenodd"><g id="023---Garden-Path" fill-rule="nonzero"><path id="Shape" d="m49 31c-.9508752-1.5630802-1.3847731-3.3861513-1.24-5.21h-3.52c.1447731 1.8238487-.2891248 3.6469198-1.24 5.21z" fill="#a56a43"/><path id="Shape" d="m11 44c-.9552439-1.5436989-1.43195282-3.335707-1.37-5.15h-3.26c.06195282 1.814293-.41475614 3.6063011-1.37 5.15z" fill="#a56a43"/><path id="Shape" d="m30.01 21.01c-4.36 2-10.01 5.31-10.01 8.99 0 6 17 9 12 12-4.772 2.863-19.562 3.905-26.987 14.424-.21600395.3065199-.24237117.7081233-.06829773 1.0402538.17407343.3321304.51932861.5389621.89429773.5357462h23.4c.4888086-.0022423.9599787-.1828872 1.325-.508 3.1774719-2.6143062 6.6865203-4.797206 10.436-6.492 23-11 1-17-7-20-6.07-2.28-1.78-7.43.64-9.78" fill="#f3d55b"/><path id="Shape" d="m23.43 21.22c-.2881498-.7044564-.434281-1.4589016-.43-2.22 0-3.3137085 2.6862915-6 6-6s6 2.6862915 6 6c.0023349.7609159-.1437237 1.5149863-.43 2.22z" fill="#f0c419"/><path id="Shape" d="m58 26.69c-.0367476-.0000325-.0734669-.0020354-.11-.006-3.3981118-.4285217-6.7603888-1.1046535-10.06-2.023-.5348878-.1380712-.8565711-.6836122-.7185-1.2185.1380712-.5348878.6836122-.8565712 1.2185-.7185 3.2075521.8944512 6.4758092 1.5548538 9.779 1.976.5148599.0717737.8888651.526054.8604342 1.0451145-.028431.5190605-.4498153.9297743-.9694342.9448855z" fill="#a56a43"/><path id="Shape" d="m15.122 23.5c-.505131-.0015459-.9297935-.3795575-.9898473-.8811083-.0600538-.5015509.2633604-.9691343.7538473-1.0898917 4.6277497-1.0654126 9.3654523-1.5786581 14.114-1.529.35 0 .7 0 1.04.01 1.6.02 3.182.092 4.681.214 2.5622101.2035347 5.1087552.5709533 7.624 1.1.3573141.0640376.6518645.3166812.769566.6600768s.0400675.7236082-.2028329.9933741c-.2429004.2697658-.6129162.3867143-.9667331.3055491-2.4343943-.5133093-4.899072-.8707025-7.379-1.07-1.456-.118-2.991-.188-4.564-.207-.337-.01-.667 0-1-.01-4.5892784-.0484346-9.1681512.4466785-13.641 1.475-.0781552.0195439-.1584388.0292854-.239.029z" fill="#a56a43"/><g fill="#f0c419"><circle id="Oval" cx="27" cy="54" r="1"/><circle id="Oval" cx="27" cy="48" r="1"/><circle id="Oval" cx="46" cy="40" r="1"/><circle id="Oval" cx="41" cy="38" r="1"/><circle id="Oval" cx="24" cy="30" r="1"/><circle id="Oval" cx="42" cy="41" r="1"/></g><path id="Shape" d="m29 10c-.5522847 0-1-.44771525-1-1v-2c0-.55228475.4477153-1 1-1s1 .44771525 1 1v2c0 .55228475-.4477153 1-1 1z" fill="#f29c1f"/><path id="Shape" d="m24 11.34c-.3576137.0003484-.6881932-.1902972-.867-.5l-1-1.732c-.2716903-.47785996-.1067416-1.08542045.3693057-1.36027453s1.0846885-.11393908 1.3626943.36027453l1 1.732c.1785415.3092425.1786393.6902222.0002566.9995563s-.5081742.5000777-.8652566.5004437z" fill="#f29c1f"/><path id="Shape" d="m34 11.34c-.3570824-.000366-.6868739-.1911096-.8652566-.5004437s-.1782849-.6903138.0002566-.9995563l1-1.732c.1773616-.31195078.5082732-.50495322.8671183-.5057421.3588451-.00078889.6906021.19075673.8693336.50192468.1787314.31116795.1770325.694247-.0044519 1.00381742l-1 1.732c-.1788068.3097028-.5093863.5003484-.867.5z" fill="#f29c1f"/><path id="Shape" d="m53 18c0 5.247-3.134 8-7 8s-7-2.753-7-8c0-3.512 3.136-12.728 5.21-16.89.338327-.67882903 1.0315318-1.10786772 1.79-1.10786772s1.451673.42903869 1.79 1.10786772c2.074 4.162 5.21 13.378 5.21 16.89z" fill="#4fba6f"/><path id="Shape" d="m15.34 25.2h.01c2.18-1.17 3.65-3.6 3.65-7.2 0-3.51-3.14-12.73-5.21-16.89-.338327-.67882903-1.0315318-1.10786772-1.79-1.10786772s-1.451673.42903869-1.79 1.10786772c-1.24122733 2.63336134-2.30688744 5.34595071-3.19 8.12z" fill="#24ae5f"/><path id="Shape" d="m16 29.769c0 6.054-3.582 9.231-8 9.231s-8-3.177-8-9.231c0-4.052 3.584-14.685 5.955-19.488.38008822-.78337368 1.17428685-1.28077825 2.045-1.28077825s1.66491178.49740457 2.045 1.28077825c2.371 4.803 5.955 15.436 5.955 19.488z" fill="#4fba6f"/><path id="Shape" d="m46 23c-2.542 0-4-1.822-4-5 0-.5522847.4477153-1 1-1s1 .4477153 1 1c0 3 1.453 3 2 3 .5522847 0 1 .4477153 1 1s-.4477153 1-1 1z" fill="#7ed09e"/><path id="Shape" d="m8 36c-3.131 0-5-2.329-5-6.231 0-.5522847.44771525-1 1-1s1 .4477153 1 1c0 2.808 1.009 4.231 3 4.231.55228475 0 1 .4477153 1 1s-.44771525 1-1 1z" fill="#7ed09e"/></g></g></svg>