<svg height="512" viewBox="0 0 58 58" width="512" xmlns="http://www.w3.org/2000/svg"><g id="Page-1" fill="none" fill-rule="evenodd"><g id="009---Pencil"><path id="Shape" d="m53.634 21.336-9.634-7.336-7.336-9.634 3.194-3.194c.7501514-.75019009 1.7675983-1.17164575 2.8285-1.17164575s2.0783486.42145566 2.8285 1.17164575l11.313 11.313c.7501901.7501514 1.1716458 1.7675983 1.1716458 2.8285s-.4214557 2.0783486-1.1716458 2.8285z" fill="#fb7b76" fill-rule="nonzero"/><path id="Shape" d="m15.45 48.21-.01.01" stroke="#000" stroke-linejoin="round" stroke-width="2"/><path id="Shape" d="m9.79 42.55-.01.01" stroke="#000" stroke-linejoin="round" stroke-width="2"/><g fill-rule="nonzero"><path id="Shape" d="m31.74 9.29-27.61 27.61 5.87 11.1 11.1 5.87 27.61-27.61-6.71-10.26z" fill="#2980ba"/><path id="Rectangle-path" d="m6.904 27.583h39.036v7.99h-39.036z" fill="#3b97d3" transform="matrix(.707 -.707 .707 .707 -14.59 27.932)"/><path id="Shape" d="m21.1 53.87-.01.01-.49.49c-.5985762.5991856-1.3728476.9915765-2.21 1.12l-10.61 1.64c-2.12500003-2.475018-4.43498202-4.785-6.91-6.91l1.64-10.61c.12842355-.8371524.52081445-1.6114238 1.12-2.21l.49-.49.01-.01c1.63137157-.8303167 3.60850576-.5461537 4.94.71 1.2569804 1.3304349 1.5449356 3.3061279.72 4.94 1.6338721-.8249356 3.6095651-.5369804 4.94.72 1.2569804 1.3304349 1.5449356 3.3061279.72 4.94 1.624007-.8806371 3.6338687-.5877637 4.9390287.7197063s1.5944788 3.3178465.7109713 4.9402937z" fill="#fdd7ad"/><rect id="Rectangle-path" fill="#95a5a5" height="6.968" rx="1" transform="matrix(.707 .707 -.707 .707 23.331 -25.697)" width="28" x="28.685" y="11.83"/><path id="Shape" d="m7.78 57.13-5.44.84c-.64013418.1100714-1.29385453-.0975732-1.75314065-.5568594-.45928612-.4592861-.66693078-1.1130064-.55685935-1.7531406l.84-5.44c1.77164902.1742511 3.42518976.9673841 4.67 2.24 1.27261587 1.2448102 2.06574891 2.898351 2.24 4.67z" fill="#35495e"/></g></g></g></svg>