<svg height="512" viewBox="0 0 58 58" width="512" xmlns="http://www.w3.org/2000/svg"><g id="001---Bench" fill="none"><path id="Rectangle-path" d="m14 4h7v18h-7z" fill="#2fa8cc"/><path id="Shape" d="m21 3v3h-7v-3c0-1.65685425 1.3431458-3 3-3h1c1.6568542 0 3 1.34314575 3 3z" fill="#285680"/><path id="Shape" d="m57 37h-8c-.5522847 0-1 .4477153-1 1v3h-5.5l-6.5-13h12c.5522847 0 1-.4477153 1-1v-5h-40v5c0 .5522847.44771525 1 1 1h12l-6.5 13h-5.5v-3c0-.5522847-.44771525-1-1-1h-8c-.55228475 0-1 .4477153-1 1v3l1.72 3.45c.17106553.3395038.51984313.5526457.9.55h10.88l-5.78 11.55c-.15677968.3111094-.14034678.6813893.0433761.9773872.18372288.295998.508252.4750458.8566239.4726128h4.76c.3801569.0026457.7289345-.2104962.9-.55l6.22-12.45h17l6.22 12.45c.1710655.3395038.5198431.5526457.9.55h4.76c.3483719.002433.672901-.1766148.8566239-.4726128.1837229-.2959979.2001558-.6662778.0433761-.9773872l-5.78-11.55h10.88c.3801569.0026457.7289345-.2104962.9-.55l1.72-3.45v-3c0-.5522847-.4477153-1-1-1zm-34.5 4 6.5-13 6.5 13z" fill="#603e26"/><path id="Shape" d="m9 22h40v5c0 .5522847-.4477153 1-1 1h-38c-.55228475 0-1-.4477153-1-1z" fill="#805333"/><path id="Shape" d="m55.38 45h-52.76c-.38015687.0026457-.72893447-.2104962-.9-.55l-1.72-3.45h58l-1.72 3.45c-.1710655.3395038-.5198431.5526457-.9.55z" fill="#805333"/><path id="Shape" d="m1 37h8c.55228475 0 1 .4477153 1 1v3h-10v-3c0-.5522847.44771525-1 1-1z" fill="#a56a43"/><path id="Shape" d="m49 37h8c.5522847 0 1 .4477153 1 1v3h-10v-3c0-.5522847.4477153-1 1-1z" fill="#a56a43"/><path id="Shape" d="m49 21v3h-40v-3c0-.5522847.44771525-1 1-1h38c.5522847 0 1 .4477153 1 1z" fill="#cb8252"/><path id="Rectangle-path" d="m17 20h8v4h-8z" fill="#cf976a"/><path id="Rectangle-path" d="m33 20h8v4h-8z" fill="#cf976a"/><g fill="#e64c3c"><path id="Shape" d="m32.1 20h-5.2l-.9-6.88c-.034494-.2853097.0554286-.5716689.2468331-.7860419s.4657871-.3360357.7531669-.3339581h5c.2873798-.0020776.5617624.1195851.7531669.3339581s.2813271.5007322.2468331.7860419z"/><path id="Shape" d="m42.1 20h-5.2l-.9-6.88c-.034494-.2853097.0554286-.5716689.2468331-.7860419s.4657871-.3360357.7531669-.3339581h5c.2873798-.0020776.5617624.1195851.7531669.3339581s.2813271.5007322.2468331.7860419z"/></g></g></svg>