<svg id="Layer_1" enable-background="new 0 0 512.003 512.003" height="512" viewBox="0 0 512.003 512.003" width="512" xmlns="http://www.w3.org/2000/svg"><path d="m280 510.536c-8.837 0-16-7.164-16-16v-88c0-8.836 7.163-16 16-16s16 7.164 16 16v88c0 8.837-7.163 16-16 16z" fill="#e0b7a3"/><path d="m344 510.536c-8.837 0-16-7.164-16-16v-96c0-8.836 7.163-16 16-16s16 7.164 16 16v96c0 8.837-7.163 16-16 16z" fill="#e0b7a3"/><path d="m443.733 95.336c37.598 0 68.267 30.46 68.267 68.267 0 .1 1.529 0-68.267 0z" fill="#ffaa64"/><path d="m443.733 86.803v179.2c0 84.832-68.768 153.6-153.6 153.6h-290.133c19.277-16.264 243.532-205.48 273.067-230.4v-102.4c0-47.125 38.208-85.333 85.333-85.333 47.123 0 85.333 38.206 85.333 85.333z" fill="#b2b2b2"/><path d="m443.733 86.803v145.067c0 84.832-68.768 153.6-153.6 153.6h-249.674c60.152-50.761 4.412-3.729 232.608-196.267v-102.4c0-76.077 92.286-113.693 145.675-60.341 15.434 15.445 24.991 36.778 24.991 60.341z" fill="#c1bfbf"/><path d="m401.067 99.603c0 11.765-9.568 21.333-21.333 21.333s-21.333-9.568-21.333-21.333 9.568-21.333 21.333-21.333 21.333 9.568 21.333 21.333z" fill="#999"/><path d="m341.333 270.27c0 44.77-36.308 81.067-81.067 81.067h-243.2c64.173-55.417 30.328-26.189 145.76-125.877 27.072-23.392 61.664-36.256 97.44-36.256 44.83-.001 81.067 36.368 81.067 81.066z" fill="#d6cece"/><path d="m338.496 248.936c-9.4 34.484-40.901 59.733-78.229 59.733h-193.792l96.352-83.211c27.072-23.392 61.664-36.256 97.44-36.256 37.311.001 68.825 25.234 78.229 59.734z" fill="#ece2e2"/></svg>