<svg id="Capa_1" enable-background="new 0 0 503.741 503.741" height="512" viewBox="0 0 503.741 503.741" width="512" xmlns="http://www.w3.org/2000/svg"><g><path d="m446.492 259.1c5.494-6.93 8.784-15.688 8.784-25.219 0-22.443-18.194-40.637-40.637-40.637-9.747 0-18.689 3.434-25.69 9.155-91.112-26.673-182.483-26.738-274.115.03-7.007-5.739-15.965-9.185-25.729-9.185-22.443 0-40.637 18.194-40.637 40.637 0 9.507 3.273 18.244 8.743 25.166-16.483 56.27-16.649 112.344-.157 168.221-5.375 6.89-8.586 15.55-8.586 24.966 0 22.443 18.194 40.637 40.637 40.637 9.738 0 18.673-3.429 25.672-9.14 91.242 26.739 182.614 26.643 274.116-.059 7.01 5.748 15.975 9.199 25.747 9.199 22.443 0 40.637-18.194 40.637-40.637 0-9.394-3.196-18.036-8.548-24.918 16.405-55.482 16.328-111.554-.237-168.216z" fill="#d4f2f6"/><path d="m121.027 327.935-.001-127.274c-2.064.576-4.128 1.165-6.193 1.768-7.684-6.294-17.714-9.83-28.581-9.087-19.944 1.362-36.133 17.408-37.662 37.34-.824 10.74 2.542 20.673 8.62 28.365-16.483 56.27-16.649 112.344-.157 168.221-5.707 7.316-8.974 16.627-8.549 26.72.865 20.505 17.253 37.375 37.728 38.784 10.848.746 20.862-2.773 28.543-9.041 91.242 26.739 182.614 26.643 274.116-.059 7.01 5.748 15.975 9.199 25.747 9.199 21.067 0 38.388-16.031 40.433-36.56h-205.67c-70.898 0-128.374-57.476-128.374-128.376z" fill="#a6e7f0"/><path d="m244.525 383.621c-39.296-1.949-71.06-33.875-72.77-73.182-.592-13.597 2.361-26.452 8.009-37.724 3.169-6.325-2.602-13.48-9.479-11.817-40.09 9.696-69.431 46.926-66.879 90.549 2.647 45.241 40.019 81.292 85.322 82.43 30.628.769 57.814-14.164 74.086-37.322 4.066-5.786-.476-13.783-7.519-13.148-3.525.317-7.121.395-10.77.214z" fill="#fee45a"/><path d="m174.766 432.396c-32.515-23.291-53.739-61.415-53.739-104.461v-34.714c-12.134 16.007-18.904 36.313-17.621 58.226 2.369 40.481 32.581 73.613 71.36 80.949z" fill="#fedf30"/><g><path d="m439.164 85.529h-52.334c-4.422 0-8.373-2.64-10.065-6.726-1.692-4.085-.766-8.746 2.361-11.873l51.932-51.93h-45.958c-4.143 0-7.5-3.357-7.5-7.5s3.357-7.5 7.5-7.5h55.868c4.422 0 8.373 2.64 10.065 6.726s.766 8.746-2.361 11.874l-51.931 51.93h42.423c4.143 0 7.5 3.357 7.5 7.5s-3.357 7.499-7.5 7.499zm1.804-70.529h.01z" fill="#fee45a"/></g><g><path d="m350.951 161.841h-32.12c-3.889 0-7.363-2.321-8.853-5.914-1.489-3.594-.675-7.693 2.074-10.445l26.93-26.929h-21.212c-4.143 0-7.5-3.357-7.5-7.5s3.357-7.5 7.5-7.5h34.289c3.891 0 7.365 2.322 8.854 5.916 1.488 3.594.673 7.693-2.077 10.444l-26.929 26.928h19.044c4.143 0 7.5 3.357 7.5 7.5s-3.357 7.5-7.5 7.5zm1.108-43.288h.01z" fill="#fee45a"/></g><g><path d="m285.255 254.821h-23.354c-3.658 0-6.927-2.184-8.328-5.563-1.4-3.38-.635-7.236 1.951-9.825l16.087-16.087h-10.482c-4.143 0-7.5-3.357-7.5-7.5s3.357-7.5 7.5-7.5h24.932c3.658 0 6.927 2.184 8.328 5.563 1.4 3.38.635 7.236-1.951 9.825l-16.087 16.087h8.904c4.143 0 7.5 3.357 7.5 7.5s-3.357 7.5-7.5 7.5zm.806-31.474h.01z" fill="#fee45a"/></g></g></svg>