<?xml version="1.0" encoding="iso-8859-1"?>
<!-- Generator: Adobe Illustrator 19.0.0, SVG Export Plug-In . SVG Version: 6.00 Build 0)  -->
<svg version="1.1" id="Capa_1" xmlns="http://www.w3.org/2000/svg" xmlns:xlink="http://www.w3.org/1999/xlink" x="0px" y="0px"
	 viewBox="0 0 512 512" style="enable-background:new 0 0 512 512;" xml:space="preserve">
<circle style="fill:#00BB64;" cx="256" cy="256" r="256"/>
<path style="fill:#008C49;" d="M512,256c0-1.395-0.03-2.783-0.053-4.172L389.486,129.367C355.957,94.035,308.553,72,256,72
	C154.38,72,72,154.38,72,256c0,39.478,12.438,76.049,33.602,106.018l-51.449,51.449c0.05,0.064,0.098,0.13,0.149,0.194
	c0.45,0.576,0.911,1.143,1.366,1.715c0.728,0.914,1.459,1.827,2.199,2.731c0.495,0.605,0.996,1.205,1.497,1.805
	c0.71,0.851,1.426,1.697,2.147,2.539c0.523,0.61,1.046,1.221,1.575,1.826c0.745,0.854,1.5,1.699,2.256,2.543
	c0.501,0.558,0.997,1.121,1.502,1.674c0.207,0.227,0.419,0.448,0.627,0.674c1.55,1.686,3.123,3.35,4.717,4.992
	c0.336,0.346,0.673,0.691,1.011,1.036c1.696,1.727,3.41,3.435,5.152,5.116C124.389,484.694,187.002,512,256,512
	C397.385,512,512,397.385,512,256z"/>
<circle style="fill:#FFF5CB;" cx="256" cy="256" r="184"/>
<path style="fill:#FFE670;" d="M440,256c0,101.624-82.376,184-184,184V72C357.624,72,440,154.376,440,256z"/>
<circle style="fill:#FEC000;" cx="256" cy="256" r="124.39"/>
<path style="fill:#ECB300;" d="M380.386,256c0,68.7-55.686,124.386-124.386,124.386V131.614
	C324.7,131.614,380.386,187.3,380.386,256z"/>
<circle style="fill:#FFE670;" cx="256" cy="256" r="100.96"/>
<path style="fill:#FFD400;" d="M356.962,256c0,55.758-45.204,100.962-100.962,100.962V155.038
	C311.758,155.038,356.962,200.242,356.962,256z"/>
<rect x="136.536" y="337.299" transform="matrix(-0.7071 -0.7071 0.7071 -0.7071 -0.3518 701.1921)" style="fill:#78777F;" width="17.02" height="26.741"/>
<rect x="134.679" y="349.422" transform="matrix(-0.7071 0.7071 -0.7071 -0.7071 502.8246 499.0753)" style="fill:#57555C;" width="26.743" height="8.509"/>
<path style="fill:#E02424;" d="M145.62,374.98c-0.05,0.23-0.11,0.47-0.18,0.7c-0.17,0.58-0.37,1.15-0.61,1.71
	c-0.06,0.15-0.13,0.31-0.2,0.46c-0.18,0.4-0.39,0.8-0.61,1.18c-0.08,0.15-0.17,0.3-0.26,0.44c-0.56,0.91-1.23,1.77-2,2.56
	l-60.78,60.79h-0.01c-4.83-4.53-9.48-9.24-13.95-14.13c-4.48-4.9-8.78-9.98-12.87-15.22l59.35-59.35c5.94-5.94,15.66-5.94,21.6,0
	l3.25,3.25l3.24,3.24C145.47,364.49,146.81,369.98,145.62,374.98z"/>
<path style="fill:#C2001B;" d="M145.62,374.98c-0.05,0.23-0.11,0.47-0.18,0.7c-0.17,0.58-0.37,1.15-0.61,1.71
	c-0.06,0.15-0.13,0.31-0.2,0.46c-0.18,0.4-0.39,0.8-0.61,1.18c-0.08,0.15-0.17,0.3-0.26,0.44c-0.56,0.91-1.23,1.77-2,2.56
	l-60.78,60.79h-0.01c-4.83-4.53-9.48-9.24-13.95-14.13l71.33-71.32l3.24,3.24C145.47,364.49,146.81,369.98,145.62,374.98z"/>
<path style="fill:#AEADB3;" d="M237.594,286.367l-50.856,50.856l-9.033-9.033l52.933-52.933l-10.184-10.184l-52.933,52.933
	l-9.033-9.033l50.856-50.856c-9.61-3.172-20.648-0.96-28.257,6.65l-36.422,36.422c-10.742,10.742-10.742,28.319,0,39.06
	l10.797,10.797c10.742,10.741,28.319,10.742,39.06,0l36.422-36.422C238.553,307.015,240.765,295.977,237.594,286.367z"/>
<path style="fill:#8B8992;" d="M237.594,286.367l-50.856,50.856l-9.033-9.033l52.933-52.933l-5.092-5.092l-75.482,75.482
	l5.398,5.398c10.742,10.742,28.319,10.742,39.06,0l36.422-36.422C238.553,307.015,240.765,295.977,237.594,286.367z"/>
<g>
</g>
<g>
</g>
<g>
</g>
<g>
</g>
<g>
</g>
<g>
</g>
<g>
</g>
<g>
</g>
<g>
</g>
<g>
</g>
<g>
</g>
<g>
</g>
<g>
</g>
<g>
</g>
<g>
</g>
</svg>
