<svg id="Layer_2" enable-background="new 0 0 512 512" height="512" viewBox="0 0 512 512" width="512" xmlns="http://www.w3.org/2000/svg"><g><g><path d="m363.931 319.772-35.931 11.228v-110h64v60.592c0 17.496-11.37 32.961-28.069 38.18z" fill="#466089"/></g><g><path d="m148.069 319.772 35.931 11.228v-110h-64v60.592c0 17.496 11.37 32.961 28.069 38.18z" fill="#466089"/></g><g><path d="m311 381h-110c-11.046 0-20-8.954-20-20v-60h150v60c0 11.046-8.954 20-20 20z" fill="#d3d3d3"/></g><g><path d="m331 301h-150c-11.046 0-20-8.954-20-20v-60h190v60c0 11.046-8.954 20-20 20z" fill="#d3d3d3"/></g><g><path d="m192.36 382.388-77.601-38.024c-15.648-7.668-25.759-23.882-25.759-41.308v-36.056c0-25.365 20.636-46 46-46h60v12h-60c-18.748 0-34 15.252-34 34v36.056c0 12.88 7.474 24.864 19.04 30.531l77.601 38.024z" fill="#6e83b7"/></g><g><path d="m184 221h20v198h-20z" fill="#edeff1" transform="matrix(-1 0 0 -1 388 640)"/></g><g><path d="m204 389h12v30h-12z" fill="#edeff1" transform="matrix(-1 0 0 -1 420 808)"/></g><g><path d="m172 394h12v20h-12z" fill="#6e83b7"/></g><g><path d="m319.64 382.388-5.28-10.776 77.601-38.024c11.566-5.667 19.04-17.652 19.04-30.531v-36.057c0-18.748-15.252-34-34-34h-60v-12h60c25.364 0 46 20.635 46 46v36.056c0 17.426-10.111 33.64-25.759 41.307z" fill="#6e83b7"/></g><g><path d="m308 221h20v198h-20z" fill="#edeff1"/></g><g><path d="m129.5 126.237h14v32.527h-14z" fill="#d3d3d3" transform="matrix(.707 -.707 .707 .707 -60.783 138.257)"/></g><g><circle cx="109" cy="127" fill="#edeff1" r="24"/></g><g><path d="m359.237 135.5h32.527v14h-32.527z" fill="#d3d3d3" transform="matrix(.707 -.707 .707 .707 9.219 307.256)"/></g><g><path d="m256 252h36l31-31h74v-44l-54-42h-87-87l-54 42v44h74l31 31z" fill="#edeff1"/></g><g><circle cx="255" cy="192" fill="#ffe352" r="40"/></g><g><circle cx="336" cy="192" fill="#ffb0aa" r="20"/></g><g><circle cx="176" cy="192" fill="#80d6fb" r="20"/></g><g><path d="m256 10c-48.049 0-87 38.951-87 87v38h174v-38c0-48.049-38.951-87-87-87z" fill="#80d6fb"/></g><g><path d="m256 135s24.413-3.938 24.413-23.625c0-3.938-3.938-8.662-3.938-14.963 0-2.917 1.546-9.596 7.087-13.387l-4.725-8.662c-12.6 4.725-22.837-2.363-22.837-2.363s-10.238 7.088-22.837 2.363l-4.725 8.662c5.542 3.792 7.087 10.471 7.087 13.387 0 6.3-3.938 11.025-3.938 14.963 0 19.688 24.413 23.625 24.413 23.625z" fill="#ffe352"/></g><g><circle cx="403" cy="127" fill="#edeff1" r="24"/></g><g><path d="m301 362h-90v-41c0-24.853 20.147-45 45-45 24.853 0 45 20.147 45 45z" fill="#6e83b7"/></g><g><path d="m256 502c-22.091 0-40-17.909-40-40v-100h80v100c0 22.091-17.909 40-40 40z" fill="#466089"/></g><g><path d="m296 389h12v30h-12z" fill="#edeff1"/></g><g><path d="m328 394h12v20h-12z" fill="#6e83b7"/></g><g><path d="m328 265h20v12h-20z" fill="#6e83b7"/></g><g><circle cx="348" cy="271" fill="#ffe352" r="15"/></g><g><path d="m164 265h20v12h-20z" fill="#6e83b7"/></g><g><circle cx="164" cy="271" fill="#ffe352" r="15"/></g></g></svg>