<svg id="Capa_1" enable-background="new 0 0 512 512" height="512" viewBox="0 0 512 512" width="512" xmlns="http://www.w3.org/2000/svg"><g fill="#c6865c"><path d="m227.779 373.824h278.666v79.618h-278.666z" transform="matrix(.966 -.259 .259 .966 -94.54 109.098)"/><path d="m-40.965 105.08h278.666v79.618h-278.666z" transform="matrix(.259 -.966 .966 .259 -67.042 202.408)"/><path d="m129.33 203.532h278.659v79.617h-278.659z" transform="matrix(.707 -.707 .707 .707 -93.379 261.244)"/></g><path d="m459.563 512h39.809c0-67.361-13.22-132.772-39.292-194.415-25.157-59.479-61.148-112.871-106.971-158.694-45.822-45.823-99.214-81.813-158.694-106.971-61.643-26.072-127.054-39.291-194.415-39.291v39.809c62.005 0 122.198 12.162 178.907 36.147 54.734 23.151 103.873 56.276 146.052 98.456 42.18 42.179 75.305 91.318 98.456 146.052 23.986 56.709 36.148 116.902 36.148 178.907z" fill="#b9c1cb"/><path d="m260.519 512h39.809c0-80.22-31.24-155.639-87.964-212.364-56.725-56.724-132.144-87.963-212.364-87.963v39.809c69.587 0 135.009 27.098 184.215 76.304 49.205 49.205 76.304 114.627 76.304 184.214z" fill="#b9c1cb"/></svg>