<?xml version="1.0" encoding="iso-8859-1"?>
<!-- Generator: Adobe Illustrator 19.0.0, SVG Export Plug-In . SVG Version: 6.00 Build 0)  -->
<svg version="1.1" id="Layer_1" xmlns="http://www.w3.org/2000/svg" xmlns:xlink="http://www.w3.org/1999/xlink" x="0px" y="0px"
	 viewBox="0 0 511.999 511.999" style="enable-background:new 0 0 511.999 511.999;" xml:space="preserve">
<path style="fill:#FF5357;" d="M422.282,213.134H402.46h-27.056c-32.384-52.538-90.433-87.57-156.68-87.57
	c-0.761,0-1.517,0.021-2.276,0.029c-1.344-0.027-2.693-0.05-4.043-0.05c-95.839,0-175.098,70.943-188.152,163.178
	c5.688,1.801,9.816,7.122,9.816,13.409v36.401c0,4.7-2.313,8.849-5.854,11.403c2.307,1.667,5.132,2.661,8.198,2.661h3.105h17.066
	c-2.862-6.609-4.456-13.895-4.456-21.555c0-29.992,24.313-54.305,54.301-54.305c29.993,0,54.306,24.313,54.306,54.305
	c0,7.66-1.596,14.946-4.456,21.555h196.335c-2.862-6.609-4.456-13.895-4.456-21.555c0-29.264,23.152-53.111,52.134-54.251
	c0.72-0.032,1.44-0.055,2.168-0.055c29.991,0,54.303,24.313,54.303,54.305c0,0.954-0.026,1.902-0.074,2.844
	c-0.004,0.074-0.013,0.143-0.016,0.214c-0.365,6.543-1.889,12.773-4.366,18.496h45.629c7.768,0,14.065-6.297,14.065-14.064v-35.677
	C512,253.304,471.831,213.134,422.282,213.134z"/>
<path style="fill:#F7A539;" d="M471.25,227.692c-8.745,5.944-14.488,15.969-14.488,27.339c0,18.245,14.79,33.034,33.034,33.034
	c7.359,0,14.154-2.407,19.646-6.476C503.979,259.121,490.065,239.976,471.25,227.692z"/>
<path style="fill:#F48F2A;" d="M479.034,255.03c0-6.349,1.794-12.277,4.898-17.311c-3.913-3.705-8.151-7.07-12.682-10.027
	c-8.745,5.944-14.488,15.969-14.488,27.339c0,18.245,14.79,33.034,33.034,33.034c3.903,0,7.637-0.694,11.112-1.936
	C488.157,281.552,479.034,269.359,479.034,255.03z"/>
<path style="fill:#97D3EE;" d="M325.703,201.452c-28.405-28.837-66.378-44.712-106.979-44.712
	c-40.752,0-78.858,15.995-107.298,45.037c-1.883,1.922-2.429,4.785-1.385,7.264c1.042,2.48,3.469,4.092,6.159,4.092h17.674h13.793
	h42.137h28.931H321.25c0.008-0.001,0.016-0.001,0.023,0c3.689,0,6.681-2.992,6.681-6.681
	C327.953,204.462,327.083,202.677,325.703,201.452z"/>
<path style="fill:#E23740;" d="M292.064,312.388H157.445c2.127,5.816,3.289,12.099,3.289,18.652c0,7.839-1.676,15.282-4.665,22.015
	h196.75c-2.989-6.732-4.664-14.174-4.664-22.015c0-6.553,1.161-12.836,3.288-18.652h-30.607"/>
<path style="fill:#CE2939;" d="M352.82,353.055c-2.802-6.312-4.43-13.252-4.623-20.554h-32.752H160.696
	c-0.195,7.302-1.824,14.242-4.625,20.554H352.82z"/>
<path style="fill:#5BC5EF;" d="M218.724,156.74c-1.401,0-2.798,0.023-4.19,0.061c-0.361,0.01-0.72,0.027-1.082,0.04
	c-1.066,0.036-2.129,0.079-3.188,0.138c-0.337,0.019-0.673,0.041-1.008,0.062c-1.147,0.071-2.289,0.153-3.429,0.249
	c-0.2,0.017-0.398,0.033-0.598,0.051c-36.736,3.27-69.66,19.764-94.008,44.678c-1.705,1.915-2.183,4.642-1.181,7.023
	c1.042,2.48,3.469,4.092,6.159,4.092h17.674h13.793h6.681h28.774h6.681h28.921V156.74L218.724,156.74z"/>
<path style="fill:#E6E9ED;" d="M35.182,338.531c0,7.767-6.295,14.064-14.064,14.064h-7.053C6.296,352.595,0,346.297,0,338.531
	V302.13c0-7.768,6.296-14.065,14.065-14.065h7.053c7.769,0,14.064,6.297,14.064,14.065C35.182,302.13,35.182,338.531,35.182,338.531
	z"/>
<path style="fill:#CCD4DD;" d="M17.592,338.531V302.13c0-5.903,3.64-10.948,8.795-13.035c-1.628-0.659-3.404-1.03-5.268-1.03h-7.053
	C6.296,288.065,0,294.363,0,302.13v36.401c0,7.767,6.296,14.064,14.065,14.064h7.053c1.865,0,3.641-0.371,5.268-1.03
	C21.231,349.478,17.592,344.433,17.592,338.531z"/>
<path style="fill:#ED3A47;" d="M50.28,352.272c1.803-1.32,3.282-3.064,4.304-5.084c-1.59-5.101-2.456-10.522-2.456-16.147
	c0-7.247,1.431-14.155,4.008-20.477v-6.83c0-0.764-0.063-1.513-0.177-2.246c0,0-0.478-10.855-8.69-17.411
	c14.395-83.952,82.206-149.272,166.586-158.515c-0.483-0.006-0.965-0.019-1.45-0.019c-95.839,0-175.098,70.943-188.152,163.178
	c5.688,1.801,9.816,7.122,9.816,13.409v36.401c0,4.7-2.313,8.849-5.854,11.403c2.307,1.667,5.132,2.661,8.198,2.661h3.105h11.239
	C50.597,352.488,50.435,352.386,50.28,352.272z"/>
<path style="fill:#5B5E5E;" d="M161.848,331.04c0,30.605-24.812,55.417-55.42,55.417c-30.602,0-55.414-24.812-55.414-55.417
	c0-30.607,24.812-55.419,55.414-55.419C137.036,275.622,161.848,300.433,161.848,331.04z"/>
<g>
	<circle style="fill:#E6E9ED;" cx="106.433" cy="331.046" r="19.03"/>
	<circle style="fill:#E6E9ED;" cx="106.433" cy="331.046" r="19.03"/>
</g>
<path style="fill:#464949;" d="M73.742,331.04c0-26.711,18.9-49.004,44.051-54.247c-3.669-0.765-7.469-1.17-11.365-1.17
	c-30.602,0-55.414,24.812-55.414,55.419c0,30.605,24.812,55.417,55.414,55.417c3.896,0,7.696-0.406,11.365-1.17
	C92.641,380.042,73.742,357.75,73.742,331.04z"/>
<path style="fill:#CCD4DD;" d="M110.126,331.04c0-6.247,3.022-11.773,7.669-15.243c-3.175-2.371-7.099-3.79-11.365-3.79
	c-10.512,0-19.032,8.522-19.032,19.034s8.521,19.034,19.032,19.034c4.266,0,8.19-1.421,11.365-3.79
	C113.147,342.813,110.126,337.286,110.126,331.04z"/>
<circle style="fill:#5B5E5E;" cx="402.457" cy="331.046" r="55.042"/>
<circle style="fill:#E6E9ED;" cx="402.457" cy="331.046" r="18.907"/>
<path style="fill:#464949;" d="M369.99,331.04c0-26.531,18.773-48.676,43.757-53.884c-3.645-0.759-7.418-1.163-11.289-1.163
	c-30.398,0-55.043,24.645-55.043,55.047c0,30.4,24.645,55.045,55.043,55.045c3.871,0,7.644-0.403,11.289-1.163
	C388.763,379.714,369.99,357.57,369.99,331.04z"/>
<circle style="fill:#E6E9ED;" cx="402.457" cy="331.046" r="18.907"/>
<path style="fill:#CCD4DD;" d="M406.128,331.04c0-6.205,3.001-11.694,7.618-15.141c-3.154-2.355-7.051-3.766-11.289-3.766
	c-10.441,0-18.905,8.465-18.905,18.907c0,10.441,8.463,18.906,18.905,18.906c4.237,0,8.136-1.411,11.289-3.766
	C409.13,342.733,406.128,337.244,406.128,331.04z"/>
<g>
</g>
<g>
</g>
<g>
</g>
<g>
</g>
<g>
</g>
<g>
</g>
<g>
</g>
<g>
</g>
<g>
</g>
<g>
</g>
<g>
</g>
<g>
</g>
<g>
</g>
<g>
</g>
<g>
</g>
</svg>
