<?xml version="1.0" encoding="iso-8859-1"?>
<!-- Generator: Adobe Illustrator 19.0.0, SVG Export Plug-In . SVG Version: 6.00 Build 0)  -->
<svg version="1.1" id="Layer_1" xmlns="http://www.w3.org/2000/svg" xmlns:xlink="http://www.w3.org/1999/xlink" x="0px" y="0px"
	 viewBox="0 0 512 512" style="enable-background:new 0 0 512 512;" xml:space="preserve">
<path style="fill:#5B5E5E;" d="M425.249,296.192L306.186,0h-100.37L2.629,505.46c2.433,3.961,6.327,6.54,10.729,6.54h113.469h29.496
	h342.322c4.402,0,8.293-2.579,10.726-6.539l-74.002-184.094"/>
<path style="fill:#6E7070;" d="M509.371,505.461l-74.002-184.094l-10.12-25.174L306.186,0H256c-6.468,0-171.176,491.089,92.317,512
	h150.328C503.047,512,506.938,509.421,509.371,505.461z"/>
<g>
	<path style="fill:#464949;" d="M195.466,88.696L226.882,0h-22.178L1.516,505.46c2.433,3.961,6.327,6.54,10.729,6.54h33.293
		l140.405-396.415"/>
	<path style="fill:#464949;" d="M510.484,505.46c-2.433,3.961-6.327,6.54-10.729,6.54h-33.293L285.121,0h22.178"/>
</g>
<g>
	<path style="fill:#E6E9ED;" d="M251.451,65.603c-4.61,0-8.348-3.736-8.348-8.348V43.39c0-4.61,3.738-8.348,8.348-8.348
		c4.61,0,8.348,3.738,8.348,8.348v13.865C259.799,61.866,256.061,65.603,251.451,65.603z"/>
	<path style="fill:#E6E9ED;" d="M251.451,157.302c-4.61,0-8.348-3.736-8.348-8.348v-27.286c0-4.611,3.738-8.348,8.348-8.348
		c4.61,0,8.348,3.736,8.348,8.348v27.286C259.799,153.565,256.061,157.302,251.451,157.302z"/>
	<path style="fill:#E6E9ED;" d="M251.451,283.806c-4.61,0-8.348-3.736-8.348-8.348v-52.697c0-4.611,3.738-8.348,8.348-8.348
		c4.61,0,8.348,3.736,8.348,8.348v52.697C259.799,280.068,256.061,283.806,251.451,283.806z"/>
	<path style="fill:#E6E9ED;" d="M251.451,428.373c-4.61,0-8.348-3.738-8.348-8.348v-73.807c0-4.611,3.738-8.348,8.348-8.348
		c4.61,0,8.348,3.736,8.348,8.348v73.807C259.799,424.636,256.061,428.373,251.451,428.373z"/>
</g>
<g>
</g>
<g>
</g>
<g>
</g>
<g>
</g>
<g>
</g>
<g>
</g>
<g>
</g>
<g>
</g>
<g>
</g>
<g>
</g>
<g>
</g>
<g>
</g>
<g>
</g>
<g>
</g>
<g>
</g>
</svg>
