<svg height="512" viewBox="0 0 58 58" width="512" xmlns="http://www.w3.org/2000/svg"><g id="Page-1" fill="none" fill-rule="evenodd"><g id="015---Road-Sign" fill-rule="nonzero"><path id="Shape" d="m13 36v21c0 .5522847-.4477153 1-1 1h-4c-.55228475 0-1-.4477153-1-1v-21z" fill="#a56a43"/><path id="Shape" d="m51 36v21c0 .5522847-.4477153 1-1 1h-4c-.5522847 0-1-.4477153-1-1v-21z" fill="#a56a43"/><path id="Rectangle-path" d="m7 36h6v5h-6z" fill="#805333"/><path id="Rectangle-path" d="m45 36h6v5h-6z" fill="#805333"/><rect id="Rectangle-path" fill="#4fba6f" height="38" rx="4" width="58"/><g fill="#ecf0f1"><path id="Shape" d="m50 23h-4c-.5522847 0-1 .4477153-1 1s.4477153 1 1 1h1.59l-4.3 4.29c-.1893127.1877666-.2957983.4433625-.2957983.71s.1064856.5222334.2957983.71c.1877666.1893127.4433625.2957983.71.2957983s.5222334-.1064856.71-.2957983l4.29-4.3v1.59c0 .5522847.4477153 1 1 1s1-.4477153 1-1v-4c0-.5522847-.4477153-1-1-1z"/><path id="Shape" d="m10.41 25h1.59c.5522847 0 1-.4477153 1-1s-.4477153-1-1-1h-4c-.55228475 0-1 .4477153-1 1v4c0 .5522847.44771525 1 1 1s1-.4477153 1-1v-1.59l4.29 4.3c.1877666.1893127.4433625.2957983.71.2957983s.5222334-.1064856.71-.2957983c.1893127-.1877666.2957983-.4433625.2957983-.71s-.1064856-.5222334-.2957983-.71z"/><path id="Shape" d="m35 23h-4c-.5522847 0-1 .4477153-1 1s.4477153 1 1 1h1.59l-3.59 3.59-3.59-3.59h1.59c.5522847 0 1-.4477153 1-1s-.4477153-1-1-1h-4c-.5522847 0-1 .4477153-1 1v4c0 .5522847.4477153 1 1 1s1-.4477153 1-1v-1.59l4.29 4.3c.1877666.1893127.4433625.2957983.71.2957983s.5222334-.1064856.71-.2957983l4.29-4.3v1.59c0 .5522847.4477153 1 1 1s1-.4477153 1-1v-4c0-.5522847-.4477153-1-1-1z"/><path id="Shape" d="m52 3h-46c-1.65685425 0-3 1.34314575-3 3v26c0 1.6568542 1.34314575 3 3 3h46c1.6568542 0 3-1.3431458 3-3v-26c0-1.65685425-1.3431458-3-3-3zm1 29c0 .5522847-.4477153 1-1 1h-46c-.55228475 0-1-.4477153-1-1v-26c0-.55228475.44771525-1 1-1h22v13c0 .5522847.4477153 1 1 1s1-.4477153 1-1v-13h22c.5522847 0 1 .44771525 1 1z"/><path id="Shape" d="m22 12h-2c-.5522847 0-1-.4477153-1-1s.4477153-1 1-1h2c.5522847 0 1 .4477153 1 1s-.4477153 1-1 1z"/><path id="Shape" d="m16 12h-7c-.55228475 0-1-.4477153-1-1s.44771525-1 1-1h7c.5522847 0 1 .4477153 1 1s-.4477153 1-1 1z"/><path id="Shape" d="m21 16h-12c-.55228475 0-1-.4477153-1-1s.44771525-1 1-1h12c.5522847 0 1 .4477153 1 1s-.4477153 1-1 1z"/><path id="Shape" d="m48 12h-2c-.5522847 0-1-.4477153-1-1s.4477153-1 1-1h2c.5522847 0 1 .4477153 1 1s-.4477153 1-1 1z"/><path id="Shape" d="m42 12h-7c-.5522847 0-1-.4477153-1-1s.4477153-1 1-1h7c.5522847 0 1 .4477153 1 1s-.4477153 1-1 1z"/><path id="Shape" d="m47 16h-12c-.5522847 0-1-.4477153-1-1s.4477153-1 1-1h12c.5522847 0 1 .4477153 1 1s-.4477153 1-1 1z"/></g></g></g></svg>