<?xml version="1.0" encoding="iso-8859-1"?>
<!-- Generator: Adobe Illustrator 19.0.0, SVG Export Plug-In . SVG Version: 6.00 Build 0)  -->
<svg version="1.1" id="Layer_1" xmlns="http://www.w3.org/2000/svg" xmlns:xlink="http://www.w3.org/1999/xlink" x="0px" y="0px"
	 viewBox="0 0 512.003 512.003" style="enable-background:new 0 0 512.003 512.003;" xml:space="preserve">
<circle style="fill:#5B5E5E;" cx="59.385" cy="454.457" r="57.545"/>
<circle style="fill:#E6E9ED;" cx="59.385" cy="454.457" r="19.765"/>
<path style="fill:#5BC5EF;" d="M343.614,435.548h-29.109h-65.759H171.89c-6.71-52.437-51.621-93.092-105.852-93.092
	c-7.527,0-13.627,6.098-13.627,13.626c0,7.525,6.1,13.625,13.627,13.625c43.817,0,79.466,35.649,79.466,79.466
	c0,7.525,6.1,13.627,13.625,13.627h41.726h28.869h19.021h65.759h41.869c7.525,0,13.627-6.102,13.627-13.627
	c0-38.515,27.546-70.708,63.967-77.937v-27.647C386.883,350.469,349.676,388.201,343.614,435.548z"/>
<circle style="fill:#5B5E5E;" cx="452.619" cy="454.457" r="57.546"/>
<g>
	<path style="fill:#464949;" d="M24.045,454.452c0-27.984,19.975-51.289,46.442-56.466c-3.594-0.703-7.305-1.081-11.104-1.081
		c-31.781,0-57.544,25.763-57.544,57.546c0,31.781,25.763,57.548,57.544,57.548c3.8,0,7.51-0.379,11.104-1.081
		C44.021,505.743,24.045,482.433,24.045,454.452z"/>
	<path style="fill:#464949;" d="M417.283,454.452c0-27.984,19.975-51.29,46.443-56.466c-3.594-0.703-7.304-1.081-11.103-1.081
		c-31.783,0-57.546,25.763-57.546,57.546c0,31.781,25.763,57.548,57.546,57.548c3.8,0,7.509-0.379,11.103-1.081
		C437.259,505.743,417.283,482.433,417.283,454.452z"/>
</g>
<circle style="fill:#E6E9ED;" cx="452.619" cy="454.457" r="19.765"/>
<g>
	<path style="fill:#C8CACC;" d="M62.197,454.452c0-6.715,3.355-12.64,8.476-16.212c-3.202-2.234-7.088-3.553-11.288-3.553
		c-10.917,0-19.766,8.85-19.766,19.765s8.849,19.765,19.766,19.765c4.199,0,8.085-1.319,11.288-3.553
		C65.553,467.092,62.197,461.167,62.197,454.452z"/>
	<path style="fill:#C8CACC;" d="M455.435,454.452c0-6.715,3.355-12.64,8.477-16.212c-3.202-2.234-7.089-3.553-11.289-3.553
		c-10.917,0-19.765,8.85-19.765,19.765s8.848,19.765,19.765,19.765c4.199,0,8.087-1.319,11.289-3.553
		C458.791,467.092,455.435,461.167,455.435,454.452z"/>
</g>
<path style="fill:#E6E9ED;" d="M452.624,58.946c-7.245,0-14.016-2.706-19.765-7.377v43.517v223.525v12.528v11.682v57.567
	c6.166-2.251,12.819-3.483,19.765-3.483c6.944,0,13.604,1.231,19.765,3.483V342.82v-11.682v-12.528V155.353v-36.415v-23.85V51.569
	C466.64,56.24,459.869,58.946,452.624,58.946z"/>
<path style="fill:#CCD4DD;" d="M452.624,342.822V331.14v-12.528V95.087V58.946c-7.245,0-14.016-2.706-19.765-7.377v43.517v223.525
	v12.528v11.682v57.567c6.166-2.251,12.819-3.483,19.765-3.483V342.822z"/>
<path style="fill:#5B5E5E;" d="M452.624,75.314c-20.764,0-37.656-16.894-37.656-37.656C414.967,16.894,431.859,0,452.624,0
	c20.763,0,37.658,16.894,37.658,37.658C490.282,58.42,473.387,75.314,452.624,75.314z"/>
<path style="fill:#464949;" d="M434.731,37.658c0-17.344,11.789-31.981,27.774-36.333C459.354,0.466,456.043,0,452.624,0
	c-20.764,0-37.656,16.894-37.656,37.658c0,20.762,16.891,37.656,37.656,37.656c3.419,0,6.73-0.466,9.881-1.325
	C446.521,69.636,434.731,55.001,434.731,37.658z"/>
<path style="fill:#E6E9ED;" d="M452.624,26.348c-6.234,0-11.308,5.074-11.308,11.31c0,6.234,5.072,11.31,11.308,11.31
	s11.309-5.074,11.309-11.31C463.933,31.423,458.86,26.348,452.624,26.348z"/>
<path style="fill:#5BC5EF;" d="M483.025,304.985c0,7.527-6.1,13.627-13.625,13.627h-33.551c-7.525,0-13.627-6.1-13.627-13.627l0,0
	c0-7.525,6.102-13.625,13.627-13.625H469.4C476.925,291.359,483.025,297.459,483.025,304.985L483.025,304.985z"/>
<path style="fill:#3AABCE;" d="M449.366,304.985c0-7.525,6.102-13.625,13.627-13.625h-27.144c-7.525,0-13.627,6.1-13.627,13.625
	c0,7.527,6.102,13.627,13.627,13.627h27.144C455.469,318.612,449.366,312.512,449.366,304.985z"/>
<g>
</g>
<g>
</g>
<g>
</g>
<g>
</g>
<g>
</g>
<g>
</g>
<g>
</g>
<g>
</g>
<g>
</g>
<g>
</g>
<g>
</g>
<g>
</g>
<g>
</g>
<g>
</g>
<g>
</g>
</svg>
