<?xml version="1.0" encoding="iso-8859-1"?>
<!-- Generator: Adobe Illustrator 19.0.0, SVG Export Plug-In . SVG Version: 6.00 Build 0)  -->
<svg version="1.1" id="Capa_1" xmlns="http://www.w3.org/2000/svg" xmlns:xlink="http://www.w3.org/1999/xlink" x="0px" y="0px"
	 viewBox="0 0 512 512" style="enable-background:new 0 0 512 512;" xml:space="preserve">
<g>
	<path style="fill:#547580;" d="M17.655,0h476.69C504.095,0,512,7.904,512,17.655v476.69c0,9.751-7.905,17.655-17.655,17.655H17.655
		C7.904,512,0,504.095,0,494.345V17.655C0,7.904,7.904,0,17.655,0z"/>
	<rect x="105.931" style="fill:#5E5F62;" width="300.138" height="512"/>
	<g>
		<rect x="70.621" style="fill:#A5A5A4;" width="35.31" height="512"/>
		<rect x="406.069" style="fill:#A5A5A4;" width="35.31" height="512"/>
	</g>
	<g>
		<path style="fill:#FFFFFF;" d="M264.828,0v35.31c0,4.875-3.952,8.828-8.828,8.828s-8.828-3.952-8.828-8.828V0H264.828z"/>
		<path style="fill:#FFFFFF;" d="M264.828,476.69V512h-17.655v-35.31c0-4.875,3.952-8.828,8.828-8.828
			S264.828,471.814,264.828,476.69z"/>
		<path style="fill:#FFFFFF;" d="M256,441.379c-2.341,0.001-4.587-0.929-6.243-2.585c-1.656-1.656-2.585-3.901-2.585-6.243v-35.31
			c0-4.875,3.952-8.828,8.828-8.828s8.828,3.952,8.828,8.828v35.31c0.001,2.341-0.929,4.587-2.585,6.243
			C260.587,440.45,258.341,441.38,256,441.379L256,441.379z"/>
		<path style="fill:#FFFFFF;" d="M256,123.586c-2.341,0.001-4.587-0.929-6.243-2.585c-1.656-1.656-2.585-3.901-2.585-6.243v-35.31
			c0-4.875,3.952-8.828,8.828-8.828s8.828,3.952,8.828,8.828v35.31c0.001,2.341-0.929,4.587-2.585,6.243
			C260.587,122.657,258.341,123.587,256,123.586z"/>
		<path style="fill:#FFFFFF;" d="M150.069,335.448c-2.341,0.001-4.587-0.929-6.243-2.585c-1.656-1.656-2.585-3.901-2.585-6.243
			V185.379c0-4.875,3.952-8.828,8.828-8.828s8.828,3.952,8.828,8.828v141.241c0.001,2.341-0.929,4.587-2.585,6.243
			C154.656,334.519,152.41,335.449,150.069,335.448L150.069,335.448z"/>
		<path style="fill:#FFFFFF;" d="M194.207,335.448c-2.341,0.001-4.587-0.929-6.243-2.585c-1.656-1.656-2.585-3.901-2.585-6.243
			V185.379c0-4.875,3.952-8.828,8.828-8.828s8.828,3.952,8.828,8.828v141.241c0.001,2.341-0.929,4.587-2.585,6.243
			C198.794,334.519,196.548,335.449,194.207,335.448L194.207,335.448z"/>
		<path style="fill:#FFFFFF;" d="M238.345,335.448c-2.341,0.001-4.587-0.929-6.243-2.585c-1.656-1.656-2.585-3.901-2.585-6.243
			V185.379c0-4.875,3.952-8.828,8.828-8.828c4.875,0,8.828,3.952,8.828,8.828v141.241c0.001,2.341-0.929,4.587-2.585,6.243
			C242.932,334.519,240.686,335.449,238.345,335.448L238.345,335.448z"/>
		<path style="fill:#FFFFFF;" d="M282.483,335.448c-2.341,0.001-4.587-0.929-6.243-2.585c-1.656-1.656-2.585-3.901-2.585-6.243
			V185.379c0-4.875,3.952-8.828,8.828-8.828s8.828,3.952,8.828,8.828v141.241c0.001,2.341-0.929,4.587-2.585,6.243
			C287.07,334.519,284.824,335.449,282.483,335.448L282.483,335.448z"/>
		<path style="fill:#FFFFFF;" d="M326.621,335.448c-2.341,0.001-4.587-0.929-6.243-2.585c-1.656-1.656-2.585-3.901-2.585-6.243
			V185.379c0-4.875,3.952-8.828,8.828-8.828s8.828,3.952,8.828,8.828v141.241c0.001,2.341-0.929,4.587-2.585,6.243
			C331.208,334.519,328.962,335.449,326.621,335.448L326.621,335.448z"/>
		<path style="fill:#FFFFFF;" d="M370.759,335.448c-2.341,0.001-4.587-0.929-6.243-2.585c-1.656-1.656-2.585-3.901-2.585-6.243
			V185.379c0-4.875,3.952-8.828,8.828-8.828s8.828,3.952,8.828,8.828v141.241c0.001,2.341-0.929,4.587-2.585,6.243
			C375.346,334.519,373.1,335.449,370.759,335.448L370.759,335.448z"/>
	</g>
</g>
<g>
</g>
<g>
</g>
<g>
</g>
<g>
</g>
<g>
</g>
<g>
</g>
<g>
</g>
<g>
</g>
<g>
</g>
<g>
</g>
<g>
</g>
<g>
</g>
<g>
</g>
<g>
</g>
<g>
</g>
</svg>
