<svg height="512" viewBox="0 0 60 44" width="512" xmlns="http://www.w3.org/2000/svg"><g id="080---Trainset" fill="none"><path id="Shape" d="m49.96 3.46-.14.54-2.57 10-3.167 1-3.333-1-2.57-10-.14-.54c-.1344656-.86656971.1169667-1.74858886.6881468-2.41400405s1.4049145-1.04759701 2.2818532-1.04599595h5.99c.8751922.00131951 1.7061712.38475505 2.275106 1.04979369.5689348.66503865.8190913 1.54536281.684894 2.41020631z" fill="#2c2f38"/><path id="Shape" d="m49.82 4-2.57 10h-6.5l-2.57-10z" fill="#393f4a"/><path id="Shape" d="m56 32-9.5 1.5c-1.1939625-.0015951-2.3394822.4719984-3.1837419 1.3162581s-1.3178532 1.9897794-1.3162581 3.1837419c.0015951-1.1939625-.4719984-2.3394822-1.3162581-3.1837419s-1.9897794-1.3178532-3.1837419-1.3162581c-2.49 0-3.062.51-3.062 3 0 .53-1.348 1.03-1.178 1.5h-4.07c.52-.88-.19-1.9-.19-3 0-3.31-1.69-4.5-5-4.5-2.5419973-.0028032-4.8080521 1.6014834-5.65 4h-.7c-.8419479-2.3985166-3.1080027-4.0028032-5.65-4-2.22 0-4.16.71-5.19 2.5l-5.81-1c.1013664-1.2791476.85823543-2.4144512 2-3v-20c-1.10320187-.0032948-1.9967052-.89679813-2-2-.00282307-.53059053.2101411-1.0395388.59-1.41.3704612-.3798589.87940947-.59282307 1.41-.59h22c1.1032019.0032948 1.9967052.89679813 2 2-.0081672 1.10116878-.8988312 1.99183278-2 2v8h3c.0081672-1.1011688.8988312-1.9918328 2-2h2c1.1032019.0032948 1.9967052.8967981 2 2h3s0-2.55 3.75-3h6.5c3.75.45 3.75 3 3.75 3s3 2 3 4v8c1.1417646.5855488 1.8986336 1.7208524 2 3z" fill="#7f8c8d"/><path id="Shape" d="m30 35c.0050382 1.0546903-.2748116 2.0911709-.81 3-1.1681906 2.0277253-3.4102631 3.1894759-5.7405265 2.974507-2.3302633-.2149689-4.3219604-1.7672888-5.0994735-3.974507h5.65c1.1011688-.0081672 1.9918328-.8988312 2-2-.0032948-1.1032019-.8967981-1.9967052-2-2h-5.65c.9809071-2.7447334 3.792502-4.3874666 6.6652224-3.8942957 2.8727205.4931709 4.9754523 2.9795653 4.9847776 5.8942957z" fill="#c03a2b"/><path id="Shape" d="m12 37h5.65c-.9087238 2.5765768-3.4452969 4.2121912-6.1672601 3.9767272-2.7219633-.2354639-4.9399788-2.2823748-5.3927399-4.9767272-.06059363-.3298693-.09072051-.6646124-.09-1-.00503816-1.0546903.2748116-2.0911709.81-3 1.16819055-2.0277253 3.4102631-3.1894759 5.7405265-2.974507 2.3302633.2149689 4.3219604 1.7672888 5.0994735 3.974507h-5.65c-1.1011688.0081672-1.9918328.8988312-2 2 .0032948 1.1032019.8967981 1.9967052 2 2z" fill="#c03a2b"/><path id="Shape" d="m37.5 32c-1.1939625-.0015951-2.3394822.4719984-3.1837419 1.3162581s-1.3178532 1.9897794-1.3162581 3.1837419c-.0015776.5113454.0864185 1.0190155.26 1.5.7629343 2.1579027 3.0240986 3.3993633 5.25431 2.8848053s3.7188983-2.6211904 3.4592896-4.8952212c-.2596086-2.2740308-2.1847984-3.9909271-4.4735996-3.9895841zm0 6c-.8284271 0-1.5-.6715729-1.5-1.5s.6715729-1.5 1.5-1.5 1.5.6715729 1.5 1.5-.6715729 1.5-1.5 1.5z" fill="#c03a2b"/><path id="Rectangle-path" d="m3 21h51v4h-51z" fill="#e64c3c"/><path id="Rectangle-path" d="m21 9h4v12h-4z" fill="#c03a2b"/><path id="Rectangle-path" d="m3 9h4v12h-4z" fill="#c03a2b"/><path id="Shape" d="m56 32h-9.5c-1.1939625-.0015951-2.3394822.4719984-3.1837419 1.3162581s-1.3178532 1.9897794-1.3162581 3.1837419c-.0000001-2.4852813-2.0147187-4.4999999-4.5-4.4999999s-4.4999999 2.0147186-4.5 4.4999999c-.0015776.5113454.0864185 1.0190155.26 1.5h-4.07c.5351884-.9088291.8150382-1.9453097.81-3-.0093253-2.9147304-2.1120571-5.4011248-4.9847776-5.8942957-2.8727204-.4931709-5.6843153 1.1495623-6.6652224 3.8942957h-.7c-.7775131-2.2072182-2.7692102-3.7595381-5.0994735-3.974507-2.3302634-.2149689-4.57233595.9467817-5.7405265 2.974507h-5.81c.1013664-1.2791476.85823543-2.4144512 2-3v-4h51v4c1.1417646.5855488 1.8986336 1.7208524 2 3z" fill="#393f4a"/><path id="Shape" d="m46.5 32c-2.2888012-.001343-4.213991 1.7155533-4.4735996 3.9895841-.2596087 2.2740308 1.2290782 4.3806632 3.4592896 4.8952212s4.4913757-.7269026 5.25431-2.8848053c.1735815-.4809845.2615776-.9886546.26-1.5.0015951-1.1939625-.4719984-2.3394822-1.3162581-3.1837419s-1.9897794-1.3178532-3.1837419-1.3162581zm0 6c-.8284271 0-1.5-.6715729-1.5-1.5s.6715729-1.5 1.5-1.5 1.5.6715729 1.5 1.5-.6715729 1.5-1.5 1.5z" fill="#c03a2b"/><path id="Shape" d="m58.13 38h-7.39c.1735815-.4809845.2615776-.9886546.26-1.5.0015951-1.1939625-.4719984-2.3394822-1.3162581-3.1837419s-1.9897794-1.3178532-3.1837419-1.3162621l9.5.000004 2.96 4.45c.2062271.3055996.2263714.7002395.0523337 1.0252497-.1740377.3250101-.5136663.5269974-.8823337.5247503z" fill="#e64c3c"/><path id="Shape" d="m6 35c-.00072051.3353876.02940637.6701307.09 1h-3.09c-1.10320187-.0032948-1.9967052-.8967981-2-2v-2h5.81c-.5351884.9088291-.81503816 1.9453097-.81 3z" fill="#e64c3c"/><path id="Rectangle-path" d="m7 9h8v12h-8z" fill="#3b97d3"/><path id="Rectangle-path" d="m15 9h6v12h-6z" fill="#2980ba"/><circle id="Oval" cx="37.5" cy="36.5" fill="#bdc3c7" r="1.5"/><circle id="Oval" cx="46.5" cy="36.5" fill="#bdc3c7" r="1.5"/><path id="Shape" d="m54 44h-48c-.55228475 0-1-.4477153-1-1s.44771525-1 1-1h48c.5522847 0 1 .4477153 1 1s-.4477153 1-1 1z" fill="#393f4a"/><path id="Shape" d="m2 44h-1c-.55228475 0-1-.4477153-1-1s.44771525-1 1-1h1c.55228475 0 1 .4477153 1 1s-.44771525 1-1 1z" fill="#393f4a"/><path id="Shape" d="m59 44h-1c-.5522847 0-1-.4477153-1-1s.4477153-1 1-1h1c.5522847 0 1 .4477153 1 1s-.4477153 1-1 1z" fill="#393f4a"/><g fill="#2c2f38"><path id="Shape" d="m24 42c-2.9681641.003543-5.6138358-1.8706918-6.595-4.672-.1693705-.5181636.1074829-1.0765125.622456-1.2553492.5149732-.1788366 1.0783013.0877394 1.266544.5993492.6493969 1.8374033 2.3088339 3.1287819 4.2494592 3.3069412 1.9406252.1781593 3.8074526-.7894903 4.7805408-2.4779412.4479926-.7569271.6816668-1.6214525.676-2.501-.0083345-2.4274149-1.7589555-4.4981658-4.15115-4.9102562-2.3921944-.4120904-4.7347831.9535455-5.55485 3.2382562-.1882427.5116098-.7515708.7781858-1.266544.5993492-.5149731-.1788367-.7918265-.7371856-.622456-1.2553492 1.1407442-3.2062703 4.4221719-5.1275534 7.7765031-4.5531597 3.3543313.5743938 5.809545 3.4780161 5.8184969 6.8811597.0029066 1.2333208-.324425 2.444931-.948 3.509-1.2508924 2.1591981-3.5566313 3.4892269-6.052 3.491z"/><path id="Shape" d="m12 42c-3.42225043.0153336-6.34784673-2.4595513-6.9-5.837-.06890793-.3837824-.10238217-.7730878-.1-1.163-.00290657-1.2333208.32442499-2.444931.948-3.509 1.36563789-2.3661923 3.98449298-3.7200837 6.7046695-3.466169 2.7201765.2539146 5.0432137 2.0691066 5.9473305 4.647169.1693705.5181636-.1074829 1.0765125-.622456 1.2553492-.5149732.1788366-1.0783013-.0877394-1.266544-.5993492-.6493969-1.8374033-2.3088339-3.1287819-4.2494592-3.3069412-1.9406252-.1781593-3.80745257.7894903-4.7805408 2.4779412-.44974293.7564251-.68515429 1.6209828-.681 2.501-.00100881.2740059.02342944.5475135.073.817.36894601 2.2491999 2.2144894 3.9628831 4.4848232 4.164392s4.3888529-1.1603344 5.1481768-3.309392c.1882427-.5116098.7515708-.7781858 1.266544-.5993492.5149731.1788367.7918265.7371856.622456 1.2553492-.9811642 2.8013082-3.6268359 4.675543-6.595 4.672z"/><path id="Shape" d="m37.5 42c-3.0375661 0-5.5-2.4624339-5.5-5.5s2.4624339-5.5 5.5-5.5 5.5 2.4624339 5.5 5.5c-.0038566 3.0359672-2.4640328 5.4961434-5.5 5.5zm0-9c-1.9329966 0-3.5 1.5670034-3.5 3.5s1.5670034 3.5 3.5 3.5 3.5-1.5670034 3.5-3.5-1.5670034-3.5-3.5-3.5z"/><path id="Shape" d="m46.5 42c-3.0375661 0-5.5-2.4624339-5.5-5.5s2.4624339-5.5 5.5-5.5 5.5 2.4624339 5.5 5.5c-.0038566 3.0359672-2.4640328 5.4961434-5.5 5.5zm0-9c-1.9329966 0-3.5 1.5670034-3.5 3.5s1.5670034 3.5 3.5 3.5 3.5-1.5670034 3.5-3.5-1.5670034-3.5-3.5-3.5z"/></g><path id="Shape" d="m26 35c-.0081672 1.1011688-.8988312 1.9918328-2 2h-12c-1.1032019-.0032948-1.9967052-.8967981-2-2 .0081672-1.1011688.8988312-1.9918328 2-2h12c1.1032019.0032948 1.9967052.8967981 2 2z" fill="#e4c05c"/></g></svg>