<svg id="Layer_1" enable-background="new 0 0 512 512" height="512" viewBox="0 0 512 512" width="512" xmlns="http://www.w3.org/2000/svg"><path id="XMLID_2948_" d="m151.777 169.672 15.051-51.859c1.854-6.418.082-13.341-4.646-18.059l-31.966-31.977c-7.16-7.16-18.77-7.16-25.93 0l-80.787 80.787c-7.16 7.16-7.16 18.77 0 25.93l31.967 31.966c4.728 4.729 11.651 6.511 18.069 4.646l51.859-15.051 26.836 26.836 57.845 57.845 26.383-26.383zm-35.521-9.138-42.526 12.342-11.353-11.342 54.867-54.867 11.353 11.342z" fill="#00d2b4"/><path id="XMLID_2278_" d="m236.457 254.353-26.383 26.383-57.844-57.845h35.315l8.725-8.725z" fill="#00b7a0"/><path id="XMLID_2284_" d="m467.723 324.096-423.446-1.741 20.284-20.284 56.567-56.567c4.584-4.584 10.807-7.16 17.286-7.16h55.527l19.388-19.388c4.584-4.584 10.796-7.16 17.276-7.16h45.06c6.48 0 12.692 2.575 17.276 7.16l46.812 46.811h59.514c6.48 0 12.702 2.575 17.276 7.149z" fill="#ffdbaa"/><path id="XMLID_2285_" d="m467.723 324.096-423.446-1.741 20.284-20.284h381.137z" fill="#ffc26d"/><path id="XMLID_2286_" d="m467.723 324.095-31.524-.134-29.927-29.916c-4.584-4.584-10.796-7.16-17.276-7.16h-59.513l-46.811-46.811c-4.584-4.584-10.796-7.16-17.276-7.16h-60.111c-2.369 0-4.698.35-6.923 1.01l14.969-14.969c4.584-4.584 10.796-7.16 17.276-7.16h45.06c6.48 0 12.692 2.575 17.276 7.16l46.811 46.811h59.514c6.48 0 12.702 2.575 17.276 7.16z" fill="#ffc26d"/><path id="XMLID_2288_" d="m484.319 336.984v75.945c0 20.243-16.411 36.664-36.654 36.664h-383.33c-20.243 0-36.654-16.421-36.654-36.664v-75.945z" fill="#1475cc"/><path id="XMLID_2291_" d="m27.681 336.984h456.638v25.796h-456.638z" fill="#0057a1"/><path id="XMLID_2294_" d="m484.319 336.992v75.935c0 20.243-16.411 36.664-36.654 36.664h-27.681c20.243 0 36.654-16.421 36.654-36.664v-75.935z" fill="#0057a1"/><path id="XMLID_2930_" d="m497.098 347.329h-482.196c-8.23 0-14.902-6.672-14.902-14.902 0-8.23 6.672-14.902 14.902-14.902h482.195c8.23 0 14.902 6.672 14.902 14.902.001 8.23-6.671 14.902-14.901 14.902z" fill="#85afe2"/><path id="XMLID_2298_" d="m512 332.429c0 4.11-1.669 7.84-4.368 10.539-2.699 2.689-6.428 4.358-10.539 4.358h-24.209c4.11 0 7.84-1.669 10.539-4.358 2.699-2.699 4.368-6.428 4.368-10.539 0-8.231-6.676-14.907-14.907-14.907h24.209c8.231 0 14.907 6.676 14.907 14.907z" fill="#5592d7"/><g fill="#ffc26d"><path id="XMLID_2299_" d="m236.457 262.081c-4.268 0-7.726-3.459-7.726-7.726v-.119c0-4.267 3.459-7.726 7.726-7.726s7.726 3.459 7.726 7.726v.119c0 4.267-3.459 7.726-7.726 7.726z"/><path id="XMLID_2300_" d="m266.302 275.632c-4.268 0-7.726-3.459-7.726-7.726v-.119c0-4.267 3.459-7.726 7.726-7.726s7.726 3.459 7.726 7.726v.119c0 4.267-3.459 7.726-7.726 7.726z"/><path id="XMLID_2301_" d="m159.163 293.205c-4.268 0-7.726-3.459-7.726-7.726v-.119c0-4.267 3.459-7.726 7.726-7.726s7.726 3.459 7.726 7.726v.119c0 4.266-3.458 7.726-7.726 7.726z"/></g></svg>