<svg id="Flat" height="512" viewBox="0 0 64 64" width="512" xmlns="http://www.w3.org/2000/svg"><path d="m44.452 11.645-1.252-5.645h-5.087v-2h5.887a1 1 0 0 1 .977.783l1.428 6.428z" fill="#895e7a"/><path d="m22.956 51.083-1.994-.166c.025-.3.038-.607.038-.917a11 11 0 0 0 -17.149-9.122l-1.12-1.656a13 13 0 0 1 20.269 10.778c0 .364-.015.726-.044 1.083z" fill="#35d7fd"/><circle cx="54" cy="50" fill="#7dd491" r="7"/><path d="m55 56a7 7 0 0 1 -5.423-11.423 7 7 0 1 0 9.846 9.846 6.966 6.966 0 0 1 -4.423 1.577z" fill="#58a066"/><circle cx="54" cy="50" fill="#ffe8ae" r="4"/><circle cx="10" cy="50" fill="#7dd491" r="7"/><path d="m11 56a7 7 0 0 1 -5.423-11.423 7 7 0 1 0 9.846 9.846 6.966 6.966 0 0 1 -4.423 1.577z" fill="#58a066"/><circle cx="10" cy="50" fill="#ffe8ae" r="4"/><path d="m55.959 49.6-8.559-39.766-3.961.561 8.574 39.79h.01a2 2 0 1 0 3.941-.586z" fill="#ffd257"/><path d="m53.584 50.183h-.01l-8.574-39.783 2.441-.346-.041-.22-3.961.561 8.574 39.79h.01a1.991 1.991 0 0 0 2.77 1.655 2 2 0 0 1 -1.209-1.657z" fill="#f89c5b"/><path d="m33 49 16-16 3.158-1.053 1.273 5.909-3.431 1.144-10 10z" fill="#e94561"/><path d="m48.569 38.053-10 10h-4.622l-.947.947h7l10-10 3.431-1.144-.287-1.328z" fill="#895e7a"/><path d="m10 48h31a0 0 0 0 1 0 0v.976a3.024 3.024 0 0 1 -3.024 3.024h-27.976a2 2 0 0 1 -2-2 2 2 0 0 1 2-2z" fill="#e94561"/><path d="m37.976 50h-27.976a1.994 1.994 0 0 1 -1.723-1 1.988 1.988 0 0 0 1.723 3h27.976a3.024 3.024 0 0 0 3.024-3.024v-.976h-.19a3.015 3.015 0 0 1 -2.834 2z" fill="#895e7a"/><rect fill="#aa889f" height="4" rx="2" width="10" x="29" y="3"/><circle cx="31" cy="5" fill="#895e7a" r="2"/></svg>