<svg id="Layer_1" enable-background="new 0 0 512 512" height="512" viewBox="0 0 512 512" width="512" xmlns="http://www.w3.org/2000/svg"><path id="XMLID_2985_" d="m302.719 358.652h-93.438c-6.529 0-11.411-5.995-10.088-12.388l14.343-69.347 4.492-21.727h75.945l7.881 38.117 10.954 52.956c1.322 6.393-3.56 12.389-10.089 12.389z" fill="#5592d7"/><path id="XMLID_2965_" d="m301.854 293.307-88.318-16.39 4.492-21.727h75.945z" fill="#1475cc"/><path id="XMLID_2964_" d="m302.72 358.652h-8.777l-21.398-103.462h21.428l18.835 91.073c1.322 6.394-3.56 12.389-10.088 12.389z" fill="#1475cc"/><path id="XMLID_2963_" d="m274.342 358.65h-36.683v-30.195c0-10.13 8.212-18.341 18.341-18.341 10.13 0 18.341 8.212 18.341 18.341v30.195z" fill="#ffc26d"/><path id="XMLID_2961_" d="m453.632 355.621c-.468 0-.943-.043-1.419-.131-4.196-.779-6.966-4.811-6.187-9.007l7.611-41.009c.779-4.195 4.817-6.963 9.006-6.187 4.196.779 6.966 4.811 6.187 9.007l-7.611 41.009c-.689 3.719-3.936 6.318-7.587 6.318z" fill="#1475cc"/><path id="XMLID_2960_" d="m34.858 277.896c-.468 0-.943-.043-1.42-.131-4.195-.779-6.965-4.811-6.186-9.007l7.612-41.009c.779-4.195 4.812-6.963 9.007-6.187 4.195.779 6.965 4.811 6.186 9.007l-7.612 41.009c-.69 3.719-3.936 6.318-7.587 6.318z" fill="#1475cc"/><path id="XMLID_2555_" d="m381.5 206.6-4.08 22.02-3.54 19.06c-.69 3.72-3.94 6.32-7.59 6.32-.47 0-.94-.05-1.42-.14-4.2-.77-6.97-4.81-6.19-9l3.54-19.06 4.08-22.02c.78-4.19 4.82-6.97 9.01-6.19 4.2.78 6.97 4.82 6.19 9.01z" fill="#5592d7"/><path id="XMLID_2558_" d="m164.43 166.31-4.08 22.02-3.54 19.06c-.69 3.72-3.94 6.32-7.59 6.32-.47 0-.94-.05-1.42-.13-4.19-.78-6.96-4.81-6.19-9.01l3.54-19.06 4.09-22.02c.78-4.19 4.81-6.96 9-6.18 4.2.78 6.97 4.81 6.19 9z" fill="#5592d7"/><path id="XMLID_2953_" d="m511.827 282.768-3.719 20.037c-1.02 5.532-6.346 9.179-11.878 8.159l-487.897-90.553c-5.532-1.03-9.189-6.346-8.159-11.878l3.719-20.037c.752-4.09 3.863-7.16 7.665-8.046 1.339-.33 2.771-.381 4.214-.113l111.435 20.686 265.016 49.181 111.446 20.686c1.432.268 2.74.824 3.874 1.597 3.233 2.194 5.046 6.181 4.284 10.281z" fill="#ff6c7e"/><path id="XMLID_2950_" d="m507.541 272.487c-5.326 11.909-17.266 19.944-30.792 19.944-2.06 0-4.141-.196-6.181-.567l-50.716-9.416c-8.88-1.648-16.576-6.655-21.696-14.093-3.74-5.439-5.759-11.713-5.934-18.152l111.446 20.686c1.432.269 2.74.825 3.873 1.598z" fill="#ff4a59"/><path id="XMLID_2947_" d="m127.206 201.023c-5.161 12.352-17.328 20.748-31.163 20.748-2.06 0-4.141-.196-6.181-.567l-50.716-9.416c-8.88-1.648-16.576-6.655-21.685-14.093-3.564-5.182-5.573-11.116-5.903-17.245 1.339-.33 2.771-.381 4.214-.113z" fill="#ff4a59"/><path id="XMLID_2945_" d="m473.383 276.666-50.715-9.413c-9.96-1.849-16.535-11.421-14.686-21.38 1.849-9.96 11.421-16.535 21.38-14.686l50.715 9.413c9.96 1.848 16.535 11.421 14.686 21.38-1.848 9.959-11.421 16.535-21.38 14.686z" fill="#ffc26d"/><path id="XMLID_2943_" d="m92.679 206.007-50.715-9.413c-9.96-1.848-16.535-11.421-14.686-21.38 1.848-9.96 11.421-16.535 21.38-14.686l50.715 9.413c9.96 1.848 16.535 11.421 14.686 21.38-1.848 9.959-11.42 16.535-21.38 14.686z" fill="#ffc26d"/><path id="XMLID_2566_" d="m381.5 206.6-4.08 22.02-15.2-2.82 4.08-22.02c.78-4.19 4.82-6.97 9.01-6.19 4.2.78 6.97 4.82 6.19 9.01z" fill="#1475cc"/><path id="XMLID_2088_" d="m401.963 217.783c-.468 0-.943-.043-1.419-.131l-64.119-11.9c-4.196-.779-6.966-4.811-6.187-9.007.779-4.195 4.819-6.965 9.006-6.187l64.119 11.9c4.196.779 6.966 4.811 6.187 9.007-.69 3.718-3.936 6.318-7.587 6.318z" fill="#e0e8ec"/><path id="XMLID_2568_" d="m164.43 166.31-4.08 22.02-15.2-2.82 4.09-22.02c.78-4.19 4.81-6.96 9-6.18 4.2.78 6.97 4.81 6.19 9z" fill="#1475cc"/><path id="XMLID_2087_" d="m192.909 178.982c-.468 0-.943-.043-1.419-.131l-64.118-11.9c-4.196-.779-6.966-4.811-6.187-9.007.779-4.195 4.816-6.965 9.006-6.187l64.118 11.9c4.196.779 6.966 4.811 6.187 9.007-.689 3.719-3.936 6.318-7.587 6.318z" fill="#e0e8ec"/><g fill="#ffc26d"><path id="XMLID_2933_" d="m468.192 337.665c-.468 0-.943-.043-1.419-.131l-21.706-4.029c-4.196-.779-6.966-4.811-6.187-9.007.779-4.195 4.818-6.966 9.006-6.187l21.706 4.029c4.196.779 6.966 4.811 6.187 9.007-.69 3.719-3.936 6.318-7.587 6.318z"/><path id="XMLID_2932_" d="m463.977 360.374c-.469 0-.943-.043-1.42-.131l-21.707-4.029c-4.195-.779-6.965-4.811-6.186-9.007.779-4.197 4.818-6.963 9.007-6.187l21.707 4.029c4.195.779 6.965 4.811 6.186 9.007-.689 3.719-3.937 6.318-7.587 6.318z"/><path id="XMLID_2930_" d="m49.419 259.94c-.468 0-.943-.043-1.419-.131l-21.707-4.029c-4.196-.779-6.966-4.811-6.187-9.007.779-4.195 4.818-6.966 9.006-6.187l21.707 4.029c4.196.779 6.966 4.811 6.187 9.007-.69 3.719-3.937 6.318-7.587 6.318z"/><path id="XMLID_2929_" d="m45.203 282.649c-.468 0-.943-.043-1.419-.131l-21.706-4.029c-4.196-.779-6.966-4.811-6.187-9.007.779-4.195 4.817-6.964 9.006-6.187l21.706 4.029c4.196.779 6.966 4.811 6.187 9.007-.689 3.719-3.936 6.318-7.587 6.318z"/></g><path id="XMLID_2574_" d="m274.34 328.45v30.2h-13v-30.2c0-5.07-2.05-9.65-5.37-12.97-1.82-1.82-4.02-3.26-6.47-4.18 2.02-.77 4.21-1.19 6.5-1.19 5.06 0 9.65 2.05 12.97 5.37s5.37 7.9 5.37 12.97z" fill="#ffa730"/></svg>