<svg height="512pt" viewBox="0 -39 512.00022 512" width="512pt" xmlns="http://www.w3.org/2000/svg"><path d="m.015625 119.898438c.0039062-35.425782 18.90625-68.160157 49.585937-85.871094l18.78125-10.84375c53.40625-30.835938 119.246094-30.671875 172.5.429687 0 0 62.632813 35.921875 76.121094 44.457031h.003906c44.324219 28.046876 141.515626 91.074219 160.328126 116.101563 43.671874 58.105469 33.679687 158.363281 33.679687 158.363281l-.050781-.011718c-.304688 22.035156-13.777344 43.039062-41.03125 58.773437l-16.433594 9.488281c-60.851562 35.132813-167.140625 30.726563-237.40625-9.839844l-157.96875-91.203124c-38.507812-22.230469-58.15625-50.707032-58.078125-77.691407l-.046875-.011719zm0 0" fill="#c93e30"/><path d="m423.023438 136.351562c23.222656 17.394532 44.925781 35.332032 54.3125 47.820313 43.671874 58.105469 33.679687 158.363281 33.679687 158.363281l-.046875-.011718c-.304688 22.035156-13.777344 43.039062-41.035156 58.773437l-16.433594 9.488281c-56.242188 32.472656-151.289062 31.140625-220.847656-1.277344-.765625-43.421874 2.546875-120.917968 31.894531-169.128906 34.703125-57.015625 126.03125-92.789062 158.476563-104.027344zm0 0" fill="#dbedf9"/><g fill="#b1e0ff"><path d="m.046875 177.476562c-.0742188 26.984376 19.570313 55.460938 58.078125 77.695313l157.96875 91.203125c70.265625 40.566406 176.554688 44.972656 237.40625 9.839844l16.433594-9.488282c26.71875-15.425781 40.160156-35.914062 40.964844-57.476562 2.402343 30.316406.117187 53.285156.117187 53.285156l-.046875-.011718c-.304688 22.035156-13.777344 43.039062-41.035156 58.777343l-16.433594 9.484375c-60.851562 35.132813-167.140625 30.726563-237.40625-9.839844l-157.96875-91.203124c-38.507812-22.230469-58.15625-50.707032-58.078125-77.691407l-.046875-.011719.0117188-54.570312zm0 0"/><path d="m288.34375 184.832031c1.929688 0 3.890625-.496093 5.683594-1.53125l83.949218-48.46875c5.449219-3.144531 7.316407-10.113281 4.167969-15.5625-3.140625-5.445312-10.109375-7.320312-15.5625-4.167969l-83.949219 48.46875c-5.449218 3.144532-7.316406 10.109376-4.167968 15.5625 2.109375 3.652344 5.9375 5.699219 9.878906 5.699219zm0 0"/><path d="m246.367188 152.492188c1.929687 0 3.890624-.492188 5.683593-1.527344l83.949219-48.46875c5.449219-3.148438 7.316406-10.113282 4.171875-15.5625-3.144531-5.449219-10.113281-7.320313-15.566406-4.171875l-83.949219 48.46875c-5.445312 3.144531-7.3125 10.113281-4.167969 15.5625 2.109375 3.65625 5.941407 5.699219 9.878907 5.699219zm0 0"/></g><path d="m15.121094 172.78125c0 24.558594 14.929687 53.089844 33.351562 63.722656 18.417969 10.636719 33.347656-.652344 33.347656-25.210937 0-24.558594-14.929687-53.085938-33.347656-63.722657-18.421875-10.632812-33.351562.652344-33.351562 25.210938zm0 0" fill="#dbedf9"/><path d="m68.113281 74.140625c-10.980469-6.695313-10.773437-22.710937.378907-29.117187 75.207031-51.902344 140.304687-30.589844 204.703124 13.355468 5.476563 3.734375 5.566407 11.679688-.253906 14.859375l-49.632812 27.105469c-36.609375 19.996094-81.105469 18.941406-116.726563-2.765625zm0 0" fill="#8a2015"/><path d="m293.054688 83.996094c8.234374-5.054688 16.796874-10.714844 23.789062-16.242188 15.800781-12.484375 20.136719-39.808594 8.753906-55.167968-6.820312-9.203126-18.710937-13.703126-32.621094-12.347657-4.90625.476563-10.113281 1.695313-15.472656 3.625-39.386718 14.152344-43.0625 45.5-39.898437 67.878907-13.703125-6.179688-31.777344-11.175782-52.539063-9.152344-8.335937.816406-16.597656 2.738281-24.558594 5.722656-25.570312 9.582031-37.382812 26.003906-31.601562 43.933594 5.589844 17.3125 26.589844 30.890625 48.851562 31.574218 2.429688.074219 4.949219-.011718 7.496094-.261718 18.347656-1.789063 37.503906-12.046875 52.511719-22.265625.398437 8.804687 1.464844 18.382812 3.964844 25.09375 1.570312 4.214843 7.265625 6.875 13.117187 6.300781.457032-.042969.914063-.105469 1.371094-.191406 6.308594-1.167969 10.046875-5.800782 8.355469-10.34375-2.984375-8.015625-3.46875-23.570313-3.320313-34.117188 2.445313 1.359375 5.601563 2.054688 8.890625 1.734375 6.464844-.628906 10.9375-4.90625 9.992188-9.558593-.105469-.523438-.242188-1.074219-.394531-1.636719 11.445312 2.816406 25.597656 7.371093 31.441406 13.152343 2.679687 2.648438 7.066406 3.882813 11.261718 3.472657 1.847657-.179688 3.65625-.679688 5.269532-1.515625 5.269531-2.730469 6.414062-8.035156 2.554687-11.851563-8.53125-8.433593-24.089843-14.207031-37.214843-17.835937zm-4.796876-64.925782c3.054688-1.097656 5.792969-1.769531 8.136719-1.996093 3.453125-.339844 5.925781.105469 8.347657 3.375 7.105468 9.585937 2.867187 29.21875-5.472657 35.808593-9.972656 7.882813-23.9375 16.316407-34.667969 22.410157-.648437-.402344-1.339843-.777344-2.035156-1.148438-4.039062-17.796875-5.339844-47.296875 25.691406-58.449219zm-109.734374 107.777344c-11.515626-.355468-23.4375-8.554687-26.574219-18.277344-3.304688-10.242187 3.679687-19.1875 19.671875-25.179687 5.550781-2.082031 11.226562-3.414063 16.859375-3.964844 22.671875-2.207031 42.082031 8.542969 51.625 15.144531-.015625.011719-.023438.027344-.035157.042969-15.613281 13.3125-40.753906 30.40625-58.234374 32.109375-1.160157.113282-2.277344.15625-3.3125.125zm0 0" fill="#dbedf9"/></svg>