<svg height="464pt" viewBox="0 0 464 464" width="464pt" xmlns="http://www.w3.org/2000/svg"><path d="m336 192 128 32v240h-136v-272zm0 0" fill="#666"/><path d="m0 224 128-32h8v272h-136zm0 0" fill="#666"/><path d="m0 456v8h136v-68.070312c-34.828125 38.308593-84.222656 60.128906-136 60.070312zm0 0" fill="#565655"/><path d="m368 320h64v32h-64zm0 0" fill="#71a2af"/><path d="m368 256h64v32h-64zm0 0" fill="#71a2af"/><path d="m32 320h64v32h-64zm0 0" fill="#71a2af"/><path d="m32 256h64v32h-64zm0 0" fill="#71a2af"/><path d="m32 384h64v48h-64zm0 0" fill="#71a2af"/><path d="m336 288h-6.542969l-1.457031 176h59.28125c-33.554688-52.5625-51.351562-113.640625-51.28125-176zm0 0" fill="#565655"/><path d="m128 160h208v304h-208zm0 0" fill="#ededeb"/><path d="m128 455.496094v8.503906h208v-125.742188c-47.527344 69.078126-124.289062 112.347657-208 117.238282zm0 0" fill="#ddddd9"/><path d="m152 40h160l-8 80h-144zm0 0" fill="#ffe183"/><path d="m158.007812 100.089844 1.992188 19.910156h144l8-80h-16.191406c-36.695313 36.714844-85.925782 58.183594-137.800782 60.089844zm0 0" fill="#eaca71"/><path d="m208 144c0 8.835938-7.164062 16-16 16s-16-7.164062-16-16 7.164062-16 16-16 16 7.164062 16 16zm0 0" fill="#ff7b03"/><path d="m198.558594 129.441406c2.769531 6.050782 1.484375 13.1875-3.222656 17.894532-4.707032 4.707031-11.84375 5.992187-17.894532 3.222656 2.898438 6.527344 9.773438 10.339844 16.84375 9.347656 7.070313-.992188 12.628906-6.550781 13.621094-13.621094.992188-7.070312-2.820312-13.945312-9.347656-16.84375zm0 0" fill="#e56107"/><path d="m208 384h72v80h-72zm0 0" fill="#71a2af"/><path d="m160 320h56v32h-56zm0 0" fill="#9fccdb"/><path d="m248 320h56v32h-56zm0 0" fill="#9fccdb"/><path d="m160 256h56v32h-56zm0 0" fill="#9fccdb"/><path d="m248 256h56v32h-56zm0 0" fill="#9fccdb"/><path d="m248 192h56v32h-56zm0 0" fill="#9fccdb"/><path d="m288 144c0 8.835938-7.164062 16-16 16s-16-7.164062-16-16 7.164062-16 16-16 16 7.164062 16 16zm0 0" fill="#ff7b03"/><path d="m278.558594 129.441406c2.769531 6.050782 1.484375 13.1875-3.222656 17.894532-4.707032 4.707031-11.84375 5.992187-17.894532 3.222656 2.898438 6.527344 9.773438 10.339844 16.84375 9.347656 7.070313-.992188 12.628906-6.550781 13.621094-13.621094.992188-7.070312-2.820312-13.945312-9.347656-16.84375zm0 0" fill="#e56107"/><path d="m304 128h-144c-3.980469 0-7.355469-2.925781-7.921875-6.863281l-15.015625-105.136719h-17.0625v-16h24c3.980469 0 7.355469 2.925781 7.921875 6.863281l3.589844 25.136719h156.488281c2.269531-.011719 4.433594.941406 5.960938 2.617188 1.523437 1.679687 2.265624 3.925781 2.039062 6.183593l-8 80c-.414062 4.101563-3.875 7.21875-8 7.199219zm-137.0625-16h129.863281l6.398438-64h-145.398438zm0 0" fill="#ffc933"/><path d="m312 32h-8.625c-5.066406 5.625-10.441406 10.964844-16.09375 16h15.917969l-6.398438 64h-129.863281l-1.761719-12.320312c-4.96875.359374-9.96875.601562-15.03125.601562-.351562 0-.695312 0-1.046875 0l2.980469 20.878906c.578125 3.929688 3.949219 6.84375 7.921875 6.839844h144c4.125.019531 7.585938-3.097656 8-7.199219l8-80c.226562-2.257812-.515625-4.503906-2.039062-6.183593-1.527344-1.675782-3.691407-2.628907-5.960938-2.617188zm0 0" fill="#eab328"/><path d="m160 192h56v32h-56zm0 0" fill="#9fccdb"/><g fill="#91bbc6"><path d="m160 223.601562v.398438h56v-32h-.113281c-13.386719 17.890625-33.65625 29.351562-55.886719 31.601562zm0 0"/><path d="m248 223.601562v.398438h56v-32h-.113281c-13.386719 17.890625-33.65625 29.351562-55.886719 31.601562zm0 0"/><path d="m160 287.601562v.398438h56v-32h-.113281c-13.386719 17.890625-33.65625 29.351562-55.886719 31.601562zm0 0"/><path d="m248 287.601562v.398438h56v-32h-.113281c-13.386719 17.890625-33.65625 29.351562-55.886719 31.601562zm0 0"/><path d="m160 351.601562v.398438h56v-32h-.113281c-13.386719 17.890625-33.65625 29.351562-55.886719 31.601562zm0 0"/><path d="m248 351.601562v.398438h56v-32h-.113281c-13.386719 17.890625-33.65625 29.351562-55.886719 31.601562zm0 0"/></g><path d="m376 351.601562v.398438h56v-32h-.113281c-13.386719 17.890625-33.65625 29.351562-55.886719 31.601562zm0 0" fill="#64939b"/><path d="m376 287.601562v.398438h56v-32h-.113281c-13.386719 17.890625-33.65625 29.351562-55.886719 31.601562zm0 0" fill="#64939b"/><path d="m40 351.601562v.398438h56v-32h-.113281c-13.386719 17.890625-33.65625 29.351562-55.886719 31.601562zm0 0" fill="#64939b"/><path d="m40 287.601562v.398438h56v-32h-.113281c-13.386719 17.890625-33.65625 29.351562-55.886719 31.601562zm0 0" fill="#64939b"/><path d="m40 431.601562v.398438h56v-32h-.113281c-13.386719 17.890625-33.65625 29.351562-55.886719 31.601562zm0 0" fill="#64939b"/><path d="m368 384h64v48h-64zm0 0" fill="#71a2af"/><path d="m376 431.601562v.398438h56v-32h-.113281c-13.386719 17.890625-33.65625 29.351562-55.886719 31.601562zm0 0" fill="#64939b"/><path d="m184 384h48v80h-48zm0 0" fill="#9fccdb"/><path d="m184 464h48v-48c0 26.507812-21.492188 48-48 48zm0 0" fill="#91bbc6"/><path d="m232 464h48v-48c0 26.507812-21.492188 48-48 48zm0 0" fill="#64939b"/></svg>