<svg id="Layer_1" enable-background="new 0 0 512 512" height="512" viewBox="0 0 512 512" width="512" xmlns="http://www.w3.org/2000/svg"><path id="XMLID_2653_" d="m245.806 166.709h-49.52c-4.267 0-7.726-3.459-7.726-7.726s3.459-7.726 7.726-7.726h49.52c4.267 0 7.726 3.459 7.726 7.726s-3.459 7.726-7.726 7.726z" fill="#62879d"/><path id="XMLID_2654_" d="m245.806 118.66h-49.52c-4.267 0-7.726-3.459-7.726-7.726s3.459-7.726 7.726-7.726h49.52c4.267 0 7.726 3.459 7.726 7.726s-3.459 7.726-7.726 7.726z" fill="#62879d"/><path id="XMLID_2656_" d="m245.806 282.503h-49.52c-4.267 0-7.726-3.459-7.726-7.726s3.459-7.726 7.726-7.726h49.52c4.267 0 7.726 3.459 7.726 7.726s-3.459 7.726-7.726 7.726z" fill="#62879d"/><path id="XMLID_2657_" d="m245.806 234.455h-49.52c-4.267 0-7.726-3.459-7.726-7.726s3.459-7.726 7.726-7.726h49.52c4.267 0 7.726 3.459 7.726 7.726 0 4.266-3.459 7.726-7.726 7.726z" fill="#62879d"/><path id="XMLID_2661_" d="m73.699 292.736v29.226c0 4.265-3.461 7.726-7.726 7.726-4.275 0-7.726-3.462-7.726-7.726v-29.226c0-4.275 3.451-7.726 7.726-7.726 4.265 0 7.726 3.451 7.726 7.726z" fill="#e0e8ec"/><path id="XMLID_2662_" d="m169.362 292.736v29.226c0 4.265-3.461 7.726-7.726 7.726s-7.726-3.462-7.726-7.726v-29.226c0-4.275 3.461-7.726 7.726-7.726 4.264 0 7.726 3.451 7.726 7.726z" fill="#e0e8ec"/><path id="XMLID_2663_" d="m73.699 292.736v10.22h-15.453v-10.22c0-4.275 3.451-7.726 7.726-7.726 4.266 0 7.727 3.451 7.727 7.726z" fill="#c2d0d9"/><path id="XMLID_2664_" d="m169.362 292.736v10.22h-15.453v-10.22c0-4.275 3.461-7.726 7.726-7.726s7.727 3.451 7.727 7.726z" fill="#c2d0d9"/><path id="XMLID_2667_" d="m315.714 54.9h-49.52c-4.267 0-7.726-3.459-7.726-7.726s3.459-7.726 7.726-7.726h49.52c4.267 0 7.726 3.459 7.726 7.726s-3.459 7.726-7.726 7.726z" fill="#62879d"/><path id="XMLID_2668_" d="m315.714 102.948h-49.52c-4.267 0-7.726-3.459-7.726-7.726s3.459-7.726 7.726-7.726h49.52c4.267 0 7.726 3.459 7.726 7.726s-3.459 7.726-7.726 7.726z" fill="#62879d"/><path id="XMLID_2086_" d="m262.972 506.107h-13.945c-5.69 0-10.302-4.612-10.302-10.302v-479.61c0-5.69 4.612-10.302 10.302-10.302h13.945c5.69 0 10.302 4.612 10.302 10.302v479.61c0 5.689-4.612 10.302-10.302 10.302z" fill="#83a0b1"/><path id="XMLID_2669_" d="m273.276 16.194v479.611c0 5.69-4.612 10.302-10.302 10.302h-8.839v-489.913c0-4.79-3.276-8.818-7.706-9.962.834-.227 1.7-.34 2.596-.34h13.949c5.69.001 10.302 4.613 10.302 10.302z" fill="#62879d"/><path id="XMLID_2671_" d="m453.754 113.176v29.237c0 4.265-3.451 7.726-7.726 7.726-4.265 0-7.726-3.461-7.726-7.726v-29.237c0-4.265 3.461-7.726 7.726-7.726 4.274-.001 7.726 3.461 7.726 7.726z" fill="#e0e8ec"/><path id="XMLID_2672_" d="m453.754 113.176v10.23h-15.453v-10.23c0-4.265 3.461-7.726 7.726-7.726 4.275-.001 7.727 3.461 7.727 7.726z" fill="#c2d0d9"/><path id="XMLID_2673_" d="m358.091 113.176v29.237c0 4.265-3.461 7.726-7.726 7.726s-7.726-3.461-7.726-7.726v-29.237c0-4.265 3.461-7.726 7.726-7.726 4.265-.001 7.726 3.461 7.726 7.726z" fill="#e0e8ec"/><path id="XMLID_2674_" d="m358.091 113.176v10.23h-15.453v-10.23c0-4.265 3.461-7.726 7.726-7.726 4.266-.001 7.727 3.461 7.727 7.726z" fill="#c2d0d9"/><path id="XMLID_2675_" d="m453.754 205.748v29.226c0 4.275-3.451 7.726-7.726 7.726-4.265 0-7.726-3.451-7.726-7.726v-29.226c0-4.265 3.461-7.726 7.726-7.726 4.274-.001 7.726 3.461 7.726 7.726z" fill="#e0e8ec"/><path id="XMLID_2676_" d="m358.091 205.748v29.226c0 4.275-3.461 7.726-7.726 7.726s-7.726-3.451-7.726-7.726v-29.226c0-4.265 3.461-7.726 7.726-7.726 4.265-.001 7.726 3.461 7.726 7.726z" fill="#e0e8ec"/><path id="XMLID_2678_" d="m358.091 205.748v7.623h-15.453v-7.623c0-4.265 3.461-7.726 7.726-7.726 4.266-.001 7.727 3.461 7.727 7.726z" fill="#c2d0d9"/><path id="XMLID_2679_" d="m453.754 205.748v7.623h-15.453v-7.623c0-4.265 3.461-7.726 7.726-7.726 4.275-.001 7.727 3.461 7.727 7.726z" fill="#c2d0d9"/><path id="XMLID_2955_" d="m501.698 113.177h-184.953c-5.69 0-10.302-4.612-10.302-10.302v-63.354c0-5.69 4.612-10.302 10.302-10.302h184.954c5.69 0 10.302 4.612 10.302 10.302v63.354c-.001 5.689-4.613 10.302-10.303 10.302z" fill="#00d2b4"/><path id="XMLID_2680_" d="m512 39.518v63.356c0 5.687-4.615 10.302-10.302 10.302h-19.47c5.697 0 10.302-4.615 10.302-10.302v-63.356c0-5.686-4.605-10.302-10.302-10.302h19.47c5.687 0 10.302 4.615 10.302 10.302z" fill="#00b7a0"/><path id="XMLID_2952_" d="m10.302 92.979h184.954c5.69 0 10.302 4.612 10.302 10.302v63.354c0 5.69-4.612 10.302-10.302 10.302h-184.954c-5.69 0-10.302-4.613-10.302-10.302v-63.354c0-5.689 4.612-10.302 10.302-10.302z" fill="#00d2b4"/><path id="XMLID_2682_" d="m205.562 103.286v63.346c0 5.697-4.615 10.302-10.302 10.302h-19.47c5.687 0 10.302-4.605 10.302-10.302v-63.346c0-5.697-4.615-10.302-10.302-10.302h19.47c5.687 0 10.302 4.605 10.302 10.302z" fill="#00b7a0"/><path id="XMLID_2949_" d="m10.302 208.774h184.954c5.69 0 10.302 4.612 10.302 10.302v63.354c0 5.69-4.612 10.302-10.302 10.302h-184.954c-5.69-.001-10.302-4.613-10.302-10.303v-63.354c0-5.689 4.612-10.301 10.302-10.301z" fill="#00d2b4"/><path id="XMLID_2685_" d="m205.562 219.078v63.356c0 5.687-4.615 10.302-10.302 10.302h-19.47c5.687 0 10.302-4.615 10.302-10.302v-63.356c0-5.697-4.615-10.302-10.302-10.302h19.47c5.687 0 10.302 4.605 10.302 10.302z" fill="#00b7a0"/><path id="XMLID_2687_" d="m464.642 203.141h-127.959c-5.69 0-10.302-4.612-10.302-10.302v-37.523c0-5.69 4.612-10.302 10.302-10.302h127.959c3.161 0 6.147 1.451 8.1 3.936l14.744 18.762c2.936 3.736 2.936 8.995 0 12.731l-14.744 18.762c-1.953 2.484-4.939 3.936-8.1 3.936z" fill="#00d2b4"/><path id="XMLID_2689_" d="m487.482 180.446-14.742 18.76c-1.947 2.483-4.935 3.935-8.097 3.935h-19.47c3.163 0 6.15-1.452 8.108-3.935l14.742-18.76c2.936-3.739 2.936-9.004 0-12.733l-14.742-18.76c-1.957-2.493-4.945-3.935-8.108-3.935h19.47c3.163 0 6.15 1.442 8.097 3.935l14.742 18.76c2.936 3.73 2.936 8.994 0 12.733z" fill="#00b7a0"/><path id="XMLID_2691_" d="m464.642 295.711h-127.959c-5.69 0-10.302-4.612-10.302-10.302v-37.523c0-5.69 4.612-10.302 10.302-10.302h127.959c3.161 0 6.147 1.451 8.1 3.936l14.744 18.762c2.936 3.736 2.936 8.995 0 12.731l-14.744 18.762c-1.953 2.484-4.939 3.936-8.1 3.936z" fill="#00d2b4"/><path id="XMLID_2693_" d="m487.482 273.008-14.742 18.77c-1.947 2.483-4.935 3.935-8.097 3.935h-19.47c3.163 0 6.15-1.453 8.108-3.935l14.742-18.77c2.936-3.729 2.936-8.993 0-12.723l-14.742-18.77c-1.957-2.483-4.945-3.935-8.108-3.935h19.47c3.163 0 6.15 1.453 8.097 3.935l14.742 18.77c2.936 3.73 2.936 8.994 0 12.723z" fill="#00b7a0"/><path id="XMLID_2936_" d="m47.358 382.695h127.959c5.69 0 10.302-4.612 10.302-10.302v-37.523c0-5.69-4.612-10.302-10.302-10.302h-127.959c-3.161 0-6.147 1.451-8.1 3.936l-14.744 18.762c-2.936 3.736-2.936 8.995 0 12.731l14.744 18.762c1.953 2.485 4.939 3.936 8.1 3.936z" fill="#ffc26d"/><path id="XMLID_2698_" d="m185.618 334.871v37.519c0 5.697-4.615 10.302-10.302 10.302h-19.47c5.697 0 10.302-4.605 10.302-10.302v-37.519c0-5.687-4.605-10.302-10.302-10.302h19.47c5.687 0 10.302 4.615 10.302 10.302z" fill="#ffa730"/><g fill="#e0e8ec"><path id="XMLID_2699_" d="m415.678 274.373h-54.256c-4.267 0-7.726-3.459-7.726-7.726s3.459-7.726 7.726-7.726h54.256c4.267 0 7.726 3.459 7.726 7.726s-3.459 7.726-7.726 7.726z"/><path id="XMLID_2700_" d="m388.55 181.803h-27.128c-4.267 0-7.726-3.459-7.726-7.726s3.459-7.726 7.726-7.726h27.128c4.267 0 7.726 3.459 7.726 7.726s-3.459 7.726-7.726 7.726z"/><path id="XMLID_2701_" d="m442.806 181.803h-16.826c-4.267 0-7.726-3.459-7.726-7.726s3.459-7.726 7.726-7.726h16.826c4.267 0 7.726 3.459 7.726 7.726s-3.459 7.726-7.726 7.726z"/><path id="XMLID_2702_" d="m463.753 78.922h-102.331c-4.267 0-7.726-3.459-7.726-7.726s3.459-7.726 7.726-7.726h102.331c4.267 0 7.726 3.459 7.726 7.726s-3.459 7.726-7.726 7.726z"/><path id="XMLID_2703_" d="m153.944 142.684h-102.331c-4.267 0-7.726-3.459-7.726-7.726s3.459-7.726 7.726-7.726h102.331c4.267 0 7.726 3.459 7.726 7.726s-3.459 7.726-7.726 7.726z"/><path id="XMLID_2704_" d="m153.944 258.482h-102.331c-4.267 0-7.726-3.459-7.726-7.726s3.459-7.726 7.726-7.726h102.331c4.267 0 7.726 3.459 7.726 7.726.001 4.267-3.459 7.726-7.726 7.726z"/></g></svg>