<svg id="Layer_1" enable-background="new 0 0 512 512" height="512" viewBox="0 0 512 512" width="512" xmlns="http://www.w3.org/2000/svg"><path id="XMLID_1469_" d="m329.959 377.526c-32.897 0-59.66-26.763-59.66-59.659 0-5.436 4.406-9.843 9.843-9.843s9.843 4.407 9.843 9.843c0 22.041 17.932 39.973 39.974 39.973 22.041 0 39.973-17.932 39.973-39.973 0-5.436 4.406-9.843 9.843-9.843s9.843 4.407 9.843 9.843c-.001 32.896-26.764 59.659-59.659 59.659z" fill="#ffa730"/><path id="XMLID_1472_" d="m329.959 442.778c-32.897 0-59.66-26.763-59.66-59.659 0-5.436 4.406-9.843 9.843-9.843s9.843 4.407 9.843 9.843c0 22.041 17.932 39.974 39.974 39.974 22.041 0 39.973-17.932 39.973-39.974 0-5.436 4.406-9.843 9.843-9.843s9.843 4.407 9.843 9.843c-.001 32.896-26.764 59.659-59.659 59.659z" fill="#ffa730"/><path id="XMLID_1475_" d="m493.086 275.017c0 4.265-3.451 7.726-7.726 7.726h-78.737c-4.265 0-7.726-3.461-7.726-7.726 0-4.275 3.462-7.726 7.726-7.726h78.737c4.275 0 7.726 3.451 7.726 7.726z" fill="#ff6c7e"/><path id="XMLID_1476_" d="m493.086 312.918c0 4.265-3.451 7.726-7.726 7.726h-78.737c-4.265 0-7.726-3.461-7.726-7.726s3.462-7.726 7.726-7.726h78.737c4.275-.001 7.726 3.461 7.726 7.726z" fill="#ff6c7e"/><path id="XMLID_1477_" d="m493.086 350.828c0 4.265-3.451 7.726-7.726 7.726h-92.912c-4.265 0-7.726-3.461-7.726-7.726 0-4.275 3.462-7.726 7.726-7.726h92.912c4.275 0 7.726 3.451 7.726 7.726z" fill="#ff6c7e"/><path id="XMLID_1478_" d="m493.086 388.728c0 4.265-3.451 7.726-7.726 7.726h-92.912c-4.265 0-7.726-3.461-7.726-7.726s3.462-7.726 7.726-7.726h92.912c4.275 0 7.726 3.462 7.726 7.726z" fill="#ff6c7e"/><path id="XMLID_1479_" d="m493.086 426.639c0 4.265-3.451 7.726-7.726 7.726h-92.912c-4.265 0-7.726-3.461-7.726-7.726 0-4.275 3.462-7.726 7.726-7.726h92.912c4.275 0 7.726 3.451 7.726 7.726z" fill="#ff6c7e"/><path id="XMLID_1480_" d="m493.601 464.54c0 4.265-3.451 7.726-7.726 7.726h-92.912c-4.265 0-7.726-3.461-7.726-7.726s3.462-7.726 7.726-7.726h92.912c4.275-.001 7.726 3.461 7.726 7.726z" fill="#ff6c7e"/><g fill="#ff4a59"><path id="XMLID_1483_" d="m493.601 464.54c0 4.265-3.451 7.726-7.726 7.726h-21.18v-15.453h21.18c4.275 0 7.726 3.462 7.726 7.727z"/><path id="XMLID_1484_" d="m493.601 426.639c0 4.265-3.451 7.726-7.726 7.726h-21.18v-15.453h21.18c4.275.001 7.726 3.452 7.726 7.727z"/><path id="XMLID_1485_" d="m493.601 388.728c0 4.265-3.451 7.726-7.726 7.726h-21.18v-15.453h21.18c4.275.001 7.726 3.463 7.726 7.727z"/><path id="XMLID_1486_" d="m493.601 350.828c0 4.265-3.451 7.726-7.726 7.726h-21.18v-15.453h21.18c4.275.001 7.726 3.452 7.726 7.727z"/><path id="XMLID_1487_" d="m493.601 312.918c0 4.265-3.451 7.726-7.726 7.726h-21.18v-15.453h21.18c4.275 0 7.726 3.462 7.726 7.727z"/><path id="XMLID_1488_" d="m485.875 282.743h-21.18v-15.453h21.18c4.275 0 7.726 3.451 7.726 7.726 0 4.266-3.451 7.727-7.726 7.727z"/><path id="XMLID_1489_" d="m392.963 381.002h24.436v15.453h-24.436c-4.265 0-7.726-3.461-7.726-7.726-.001-4.265 3.461-7.727 7.726-7.727z"/><path id="XMLID_1490_" d="m392.963 418.913h24.436v15.453h-24.436c-4.265 0-7.726-3.461-7.726-7.726-.001-4.276 3.461-7.727 7.726-7.727z"/><path id="XMLID_1491_" d="m392.963 456.813h24.436v15.453h-24.436c-4.265 0-7.726-3.461-7.726-7.726s3.461-7.727 7.726-7.727z"/><path id="XMLID_1492_" d="m392.963 343.102h25.188c-.247.144-.495.288-.752.422v15.03h-24.436c-4.265 0-7.726-3.461-7.726-7.726-.001-4.275 3.461-7.726 7.726-7.726z"/><path id="XMLID_1493_" d="m431.862 267.291v15.453h-24.724c-4.265 0-7.726-3.461-7.726-7.726 0-4.275 3.462-7.726 7.726-7.726h24.724z"/><path id="XMLID_1494_" d="m407.138 305.191h24.724v14.268c0 .402-.01.793-.031 1.185h-24.693c-4.265 0-7.726-3.461-7.726-7.726-.001-4.265 3.461-7.727 7.726-7.727z"/></g><path id="XMLID_1510_" d="m290.851 323.158v162.562c0 5.69-4.612 10.302-10.302 10.302h-11.755c-5.69 0-10.302-4.612-10.302-10.302v-162.562z" fill="#afc2cd"/><path id="XMLID_1511_" d="m258.493 323.158h32.358v27.835h-32.358z" fill="#83a0b1"/><path id="XMLID_2092_" d="m280.553 496.019h-5.881v-172.863h16.182v162.561c.001 5.69-4.612 10.302-10.301 10.302z" fill="#83a0b1"/><path id="XMLID_1513_" d="m401.431 323.158v162.562c0 5.69-4.612 10.302-10.302 10.302h-11.765c-5.69 0-10.302-4.612-10.302-10.302v-162.562z" fill="#afc2cd"/><path id="XMLID_1514_" d="m369.062 323.158h32.368v27.835h-32.368z" fill="#83a0b1"/><path id="XMLID_2091_" d="m391.125 496.019h-5.88v-172.863h16.182v162.561c0 5.69-4.612 10.302-10.302 10.302z" fill="#83a0b1"/><path id="XMLID_1517_" d="m258.493 51.756h32.358v165.869h-32.358z" fill="#afc2cd"/><path id="XMLID_1518_" d="m258.493 51.756h32.358v57.958h-32.358z" fill="#83a0b1"/><path id="XMLID_1519_" d="m274.672 51.756h16.182v165.871h-16.182z" fill="#83a0b1"/><path id="XMLID_1521_" d="m369.062 51.756h32.368v165.869h-32.368z" fill="#afc2cd"/><path id="XMLID_1522_" d="m369.062 51.756h32.368v57.958h-32.368z" fill="#83a0b1"/><path id="XMLID_1523_" d="m385.245 51.756h16.182v165.871h-16.182z" fill="#83a0b1"/><path id="XMLID_2955_" d="m501.698 496.019h-11.761c-5.69 0-10.302-4.612-10.302-10.302v-223.371c0-6.524 5.289-11.813 11.813-11.813h8.739c6.524 0 11.813 5.289 11.813 11.813v223.371c0 5.69-4.612 10.302-10.302 10.302z" fill="#ffc26d"/><path id="XMLID_1528_" d="m512 262.346v223.374c0 5.687-4.615 10.302-10.302 10.302h-5.882v-233.676c0-5.223-3.389-9.653-8.087-11.208 1.164-.402 2.421-.608 3.719-.608h8.736c6.531 0 11.816 5.295 11.816 11.816z" fill="#ffa730"/><path id="XMLID_1532_" d="m299.546 296.177c0 11.682-9.478 21.16-21.17 21.16h-57.927c-7.046 0-13.774 3.379-17.987 9.024l-107.17 143.618c-12.166 16.308-31.575 26.043-51.921 26.043h-22.211c-11.682 0-21.16-9.478-21.16-21.17 0-11.682 9.478-21.16 21.16-21.16h22.211c7.057 0 13.784-3.369 17.997-9.024l107.17-143.618c12.166-16.308 31.565-26.033 51.911-26.033h57.927c11.692 0 21.17 9.467 21.17 21.16z" fill="#ff6c7e"/><path id="XMLID_1537_" d="m299.546 296.177c0 11.682-9.478 21.16-21.17 21.16h-49.809v-42.32h49.809c11.692 0 21.17 9.467 21.17 21.16z" fill="#ff4a59"/><path id="XMLID_2939_" d="m404.081 331.272h-148.245c-6.524 0-11.813-5.289-11.813-11.813v-96.56c0-6.524 5.289-11.813 11.813-11.813h148.246c6.524 0 11.813 5.289 11.813 11.813v96.56c-.001 6.524-5.289 11.813-11.814 11.813z" fill="#ffc26d"/><path id="XMLID_1541_" d="m415.894 222.9v96.559c0 6.521-5.285 11.816-11.816 11.816h-14.196c6.521 0 11.806-5.295 11.806-11.816v-96.559c0-6.521-5.285-11.816-11.806-11.816h14.196c6.532 0 11.816 5.295 11.816 11.816z" fill="#ffa730"/><path id="XMLID_1543_" d="m244.023 250.533v68.926c0 6.524 5.289 11.813 11.813 11.813h20.627v-70.438c0-5.69-4.612-10.302-10.302-10.302h-22.138z" fill="#f47e14"/><path id="XMLID_1545_" d="m313.738 260.835v70.438h32.44v-70.438c0-5.69-4.612-10.302-10.302-10.302h-11.836c-5.689 0-10.302 4.612-10.302 10.302z" fill="#f47e14"/><path id="XMLID_1547_" d="m415.894 250.53v68.929c0 6.521-5.285 11.816-11.816 11.816h-20.624v-70.444c0-5.687 4.615-10.302 10.302-10.302h22.138z" fill="#f47e14"/><path id="XMLID_1548_" d="m415.894 250.53v68.929c0 6.521-5.285 11.816-11.816 11.816h-14.196c6.521 0 11.806-5.295 11.806-11.816v-68.929z" fill="#e87413"/><path id="XMLID_1549_" d="m256.806 22.769-19.69 54.258c-2.438 6.718 2.538 13.816 9.684 13.816h166.318c7.146 0 12.122-7.099 9.684-13.816l-19.69-54.258c-1.479-4.074-5.349-6.787-9.684-6.787h-126.938c-4.335-.001-8.206 2.712-9.684 6.787z" fill="#ff6c7e"/><path id="XMLID_1552_" d="m413.113 90.841h-23.746c7.139 0 12.115-7.098 9.684-13.815l-19.697-54.26c-1.473-4.069-5.347-6.789-9.684-6.789h23.756c4.337 0 8.211 2.72 9.684 6.789l19.687 54.26c2.441 6.717-2.535 13.815-9.684 13.815z" fill="#ff4a59"/></svg>