<svg id="Layer_1" enable-background="new 0 0 520 520" height="512" viewBox="0 0 520 520" width="512" xmlns="http://www.w3.org/2000/svg"><g id="_x31_70_x2C__Animal_x2C__Doodle_x2C__Snail"><g><g><path d="m394.252 158.491c-2.434 0-4.566-1.78-4.938-4.261-5.15-34.427 16.891-50.182 17.83-50.836 2.269-1.577 5.384-1.016 6.961 1.252 1.569 2.261 1.018 5.365-1.232 6.945-.783.559-17.861 13.134-13.67 41.159.409 2.731-1.475 5.276-4.205 5.685-.25.038-.5.056-.746.056z" fill="#e2c533"/><path d="m350.169 158.835c-2.761 0-5-2.234-5-4.995 0-.248.02-.505.056-.75 4.211-28.14-12.489-41.038-13.202-41.573-2.199-1.651-2.664-4.777-1.026-6.986s4.739-2.689 6.958-1.064c.912.668 22.265 16.748 17.172 51.025-.324 2.449-2.421 4.343-4.958 4.343z" fill="#e2c533"/><path d="m414.999 180v79c0 87.54-70.96 158.5-158.5 158.5h-134c-23.454 0-42.5-19.02-42.5-42.5 0-23.471 19.03-42.5 42.5-42.5h62.49c16.71 12.561 37.49 20 60.01 20 55.229 0 100-44.77 100-100 0-19.34-5.49-37.4-15-52.69.01-.01.01-.01 0-.01v-19.8c0-15.139 7.982-28.657 20.17-36.16v-.01c13.54-8.366 30.591-8.406 44.09-.34 12.421 7.42 20.74 20.99 20.74 36.51z" fill="#ffe44c"/><path d="m332.999 201.81c.01-.01.01-.01 0-.01-30.124-48.499-93.444-61.207-139.56-31.11-.97.62-1.93 1.28-2.88 1.95-25.74 18.09-42.56 48.01-42.56 81.86 0 55.223 44.766 100 100 100 55.229 0 100-44.77 100-100 0-19.34-5.49-37.4-15-52.69z" fill="#b79c79"/><path d="m232.309 159.33c-14.31 0-27.65 4.17-38.87 11.36-.97.62-1.93 1.28-2.88 1.95-18.39 13.07-30.38 34.54-30.38 58.82 0 39.84 32.3 72.13 72.13 72.13 39.839 0 72.13-32.29 72.13-72.13s-32.291-72.13-72.13-72.13z" fill="#93795a"/><circle cx="399.999" cy="447.5" fill="#aeef66" r="25"/><path d="m459.999 242.5c8.28 0 15 6.72 15 15 0 8.279-6.72 15-15 15s-15-6.721-15-15c0-8.28 6.72-15 15-15z" fill="#aeef66"/><path d="m179.999 82.5c11.05 0 20 8.95 20 20s-8.95 20-20 20-20-8.95-20-20 8.95-20 20-20z" fill="#aeef66"/><circle cx="79.999" cy="267.5" fill="#aeef66" r="35"/><g fill="#f0a65f"><path d="m469.229 342.7c4.03.96 6.521 5 5.57 9.03-.96 4.028-5 6.52-9.029 5.568-4.029-.96-6.521-5-5.569-9.029.958-4.029 4.998-6.519 9.028-5.569z"/><circle cx="452.499" cy="135" r="7.5"/><path d="m324.229 437.7c4.03.96 6.521 5 5.57 9.03-.96 4.028-5 6.52-9.029 5.568-4.029-.96-6.521-5-5.569-9.03.947-4.028 4.998-6.518 9.028-5.568z"/><circle cx="267.499" cy="55" r="7.5"/><circle cx="102.499" cy="140" r="7.5"/><path d="m88.459 437.9c4.03.96 6.52 5 5.57 9.028-.96 4.03-5 6.53-9.03 5.57s-6.52-5-5.57-9.03c.95-4.028 5-6.518 9.03-5.568z"/></g><path d="m214.999 387.5h-55c-2.761 0-5-2.238-5-5s2.239-5 5-5h55c2.761 0 5 2.238 5 5s-2.239 5-5 5z" fill="#e2c533"/><path d="m249.999 402.5h-20c-2.761 0-5-2.238-5-5s2.239-5 5-5h20c2.761 0 5 2.238 5 5s-2.239 5-5 5z" fill="#e2c533"/><path d="m283.785 251.221c0 19.619-15.9 35.529-35.52 35.529s-35.53-15.91-35.53-35.529c0-19.621 15.91-35.521 35.53-35.521 19.62.001 35.52 15.901 35.52 35.521z" fill="#b79c79"/><path d="m188.069 266.221c-2.761 0-5-2.238-5-5 0-38.885 31.64-70.521 70.53-70.521 2.761 0 5 2.239 5 5s-2.239 5-5 5c-33.376 0-60.53 27.149-60.53 60.521 0 2.759-2.239 5-5 5z" fill="#b79c79"/></g></g></g></svg>