<svg id="Layer_1" height="512" viewBox="0 0 512 512" width="512" xmlns="http://www.w3.org/2000/svg" data-name="Layer 1"><g id="_Group_3" data-name=" Group 3"><path d="m298.23 154.07 57.6-98.33 64.26 109.7a74.475 74.475 0 1 1 -128.52 0z" fill="#00efd1"/><path d="m170.19 138.5a243.83 243.83 0 0 1 78.01 0c19.01 3.15 36.08 8.54 50.03 15.57l-6.66 11.37a74.521 74.521 0 0 0 41.78 108.67l-.07.22c-3.73 73.64-9.93 179.25-15.74 199.91a19.591 19.591 0 0 1 -18.93 14.21h-178.83a19.591 19.591 0 0 1 -18.93-14.21c-9.1-32.36-19.16-273.05-19.16-273.05 0-29.34 37.16-54.19 88.5-62.69z" fill="#00acea"/><path d="m134.87 244.82h148.65v203.03h-148.65z" fill="#fedb41"/><path d="m238.62 105.94 9.58 32.56a243.83 243.83 0 0 0 -78.01 0l9.58-32.56z" fill="#00efd1"/><path d="m385.53 178h-23.53v-23.81a6 6 0 0 0 -12 0v23.81h-23.87a6 6 0 0 0 0 12h23.87v23.59a6 6 0 1 0 12 0v-23.59h23.53a6 6 0 0 0 0-12z" fill="#00acea"/><path d="m254.31 332.62h-90.23a6 6 0 0 1 0-12h90.23a6 6 0 1 1 0 12z" fill="#f4b844"/><path d="m234.7 293.39h-51.01a6 6 0 0 1 0-12h51.01a6 6 0 0 1 0 12z" fill="#f4b844"/><path d="m352.913 32.8-32.371-14.488a5.846 5.846 0 0 0 -2.482-.312h-163.79a6 6 0 0 0 0 12h48.73v43h12v-43h101.761l31.187 13.947a5.845 5.845 0 0 0 2.479.427 6.071 6.071 0 0 0 2.486-11.574z" fill="#00acea"/><g fill="#f4b844"><path d="m254.31 370.87h-90.23a6 6 0 0 1 0-12h90.23a6 6 0 1 1 0 12z"/><path d="m254.31 408.14h-90.23a6 6 0 0 1 0-12h90.23a6 6 0 1 1 0 12z"/></g></g><path d="m248.43 72.59v33.35h-9.81-58.85-9.81v-33.35h39.24z" fill="#fedb41"/></svg>