<svg height="512" viewBox="0 0 512 512" width="512" xmlns="http://www.w3.org/2000/svg"><g id="flat"><path d="m136 96v89.163a100 100 0 0 0 35.982 76.822l111.326 92.771a160.683 160.683 0 0 0 102.869 37.244 101.823 101.823 0 0 0 101.823-101.823 101.823 101.823 0 0 0 -29.823-72l-67.55-67.55a77.254 77.254 0 0 1 -22.627-54.627z" fill="#48bdff"/><path d="m318.627 246.627a77.22 77.22 0 0 1 -16.909-25.486l10.282-5.141-24-48v-48h-152v65.163a100 100 0 0 0 35.981 76.822l111.327 92.771a160.683 160.683 0 0 0 102.869 37.244 101.788 101.788 0 0 0 29.805-4.437c.007-.462.018-.923.018-1.386a101.823 101.823 0 0 0 -29.823-72z" fill="#3ba4f2"/><path d="m136 24h224v48h-224z" fill="#48bdff"/><g fill="#e6e6e6"><path d="m160 24h16v64h-16z"/><path d="m224 24h16v64h-16z"/><path d="m192 24h16v64h-16z"/><path d="m256 24h16v64h-16z"/><path d="m288 24h16v64h-16z"/><path d="m320 24h16v64h-16z"/></g><path d="m136 72-24 48 24.845 12.422a33.883 33.883 0 0 0 15.155 3.578 33.883 33.883 0 0 0 15.155-3.578l17.69-8.844a33.883 33.883 0 0 1 15.155-3.578 33.883 33.883 0 0 1 15.155 3.578l17.69 8.844a33.883 33.883 0 0 0 15.155 3.578 33.883 33.883 0 0 0 15.155-3.578l17.69-8.844a33.883 33.883 0 0 1 15.155-3.578 33.883 33.883 0 0 1 15.155 3.578l17.69 8.844a33.883 33.883 0 0 0 15.155 3.578 33.883 33.883 0 0 0 15.155-3.578l24.845-12.422-24-48z" fill="#ffcd01"/><path d="m482.724 257.836-118.84 71.3 8.232 13.72 114.6-68.759a101.846 101.846 0 0 0 -3.992-16.261z" fill="#e6e6e6"/><path d="m387.153 315.178-23.269 13.962 8.232 13.72 25.374-15.224a101.773 101.773 0 0 0 -10.337-12.458z" fill="#ccc"/><path d="m48 120h224v64h-224z" fill="#48bdff"/><path d="m72 120h16v64h-16z" fill="#e6e6e6"/><path d="m136 120h16v64h-16z" fill="#e6e6e6"/><path d="m104 120h16v64h-16z" fill="#e6e6e6"/><path d="m168 120h16v64h-16z" fill="#e6e6e6"/><path d="m200 120h16v64h-16z" fill="#e6e6e6"/><path d="m232 120h16v64h-16z" fill="#e6e6e6"/><path d="m48 192v89.163a100 100 0 0 0 35.982 76.822l111.326 92.771a160.683 160.683 0 0 0 102.869 37.244 101.823 101.823 0 0 0 101.823-101.823 101.823 101.823 0 0 0 -29.823-72l-67.55-67.55a77.254 77.254 0 0 1 -22.627-54.627z" fill="#48bdff"/><path d="m48 168-24 48 24.845 12.422a33.883 33.883 0 0 0 15.155 3.578 33.883 33.883 0 0 0 15.155-3.578l17.69-8.844a33.883 33.883 0 0 1 15.155-3.578 33.883 33.883 0 0 1 15.155 3.578l17.69 8.844a33.883 33.883 0 0 0 15.155 3.578 33.883 33.883 0 0 0 15.155-3.578l17.69-8.844a33.883 33.883 0 0 1 15.155-3.578 33.883 33.883 0 0 1 15.155 3.578l17.69 8.844a33.883 33.883 0 0 0 15.155 3.578 33.883 33.883 0 0 0 15.155-3.578l24.845-12.422-24-48z" fill="#ffcd01"/><path d="m394.724 353.836-118.84 71.3 8.232 13.72 114.6-68.759a101.846 101.846 0 0 0 -3.992-16.261z" fill="#e6e6e6"/><path d="m348 444.067c-127.787 0-239.486-68.878-300-171.532v8.628a100 100 0 0 0 35.981 76.822l111.327 92.771a160.683 160.683 0 0 0 102.869 37.244 101.725 101.725 0 0 0 84.956-45.687q-17.333 1.737-35.133 1.754z" fill="#3ba4f2"/></g></svg>