<svg id="Flat" height="512" viewBox="0 0 512 512" width="512" xmlns="http://www.w3.org/2000/svg"><path d="m368 168v80h-80v80h-96v80h-104v80h384v-80-80-80-80z" fill="#95573a"/><g fill="#734b39"><path d="m424 168v-136h24a8 8 0 0 0 0-16h-32v.009a7.971 7.971 0 0 0 -5.387 2.071l-349.706 317.92h-12.907a8 8 0 0 0 0 16h16a8.006 8.006 0 0 0 5.382-2.08l34.618-31.471v89.551h16v-104h-.106l128.106-116.46v140.46h16v-155.006l144-130.909v125.915z"/><path d="m488 496h-448a8 8 0 0 1 0-16h448a8 8 0 0 1 0 16z"/></g></svg>