<?xml version="1.0" encoding="iso-8859-1"?>
<!-- Generator: Adobe Illustrator 19.0.0, SVG Export Plug-In . SVG Version: 6.00 Build 0)  -->
<svg version="1.1" id="Layer_1" xmlns="http://www.w3.org/2000/svg" xmlns:xlink="http://www.w3.org/1999/xlink" x="0px" y="0px"
	 viewBox="0 0 512 512" style="enable-background:new 0 0 512 512;" xml:space="preserve">
<path style="fill:#FFD039;" d="M134.132,34.259H43.848c-4.674,0-8.464,3.789-8.464,8.464c0,23.336,24.048,42.321,53.606,42.321
	s53.606-18.984,53.606-42.321C142.596,38.049,138.806,34.259,134.132,34.259z"/>
<path style="fill:#FF9F34;" d="M134.132,34.259h-32.115c4.674,0,8.464,3.789,8.464,8.464c0,18.921-15.811,34.979-37.548,40.378
	c5.072,1.259,10.466,1.942,16.058,1.942c29.558,0,53.606-18.984,53.606-42.321C142.596,38.049,138.806,34.259,134.132,34.259z"/>
<path style="fill:#8A8990;" d="M182.659,0H78.108C54.55,0,35.383,19.165,35.383,42.724c0,4.676,3.79,8.464,8.464,8.464h138.812
	c4.674,0,8.464-3.789,8.464-8.464V8.464C191.124,3.789,187.334,0,182.659,0z"/>
<g>
	<path style="fill:#56555B;" d="M182.659,0h-22.571v51.188h22.571c4.674,0,8.464-3.789,8.464-8.464V8.464
		C191.124,3.789,187.334,0,182.659,0z"/>
	<path style="fill:#56555B;" d="M329.339,11.688h-22.943c-21.349,0-40.077,11.427-50.397,28.484
		c-10.319-17.057-29.048-28.484-50.397-28.484h-22.943c-4.674,0-8.464,3.789-8.464,8.464s3.79,8.464,8.464,8.464h22.943
		c23.122,0,41.932,18.811,41.932,41.932v402.515c0,4.676,3.79,8.464,8.464,8.464c4.674,0,8.464-3.789,8.464-8.464V70.55
		c0-23.122,18.812-41.932,41.932-41.932h22.943c4.674,0,8.464-3.789,8.464-8.464S334.015,11.688,329.339,11.688z"/>
</g>
<path style="fill:#2A2A2C;" d="M311.593,464.601H200.407c-21.468,0-38.935,17.467-38.935,38.935c0,4.676,3.79,8.464,8.464,8.464
	h172.128c4.674,0,8.464-3.789,8.464-8.464C350.528,482.066,333.061,464.601,311.593,464.601z"/>
<path style="fill:#161618;" d="M311.593,464.601h-30.224c21.468,0,38.935,17.467,38.935,38.935c0,4.676-3.79,8.464-8.464,8.464
	h30.224c4.674,0,8.464-3.789,8.464-8.464C350.528,482.066,333.061,464.601,311.593,464.601z"/>
<path style="fill:#FFD039;" d="M468.151,34.259h-90.284c-4.674,0-8.464,3.789-8.464,8.464c0,23.336,24.048,42.321,53.606,42.321
	c29.558,0,53.606-18.984,53.606-42.321C476.615,38.049,472.827,34.259,468.151,34.259z"/>
<path style="fill:#FF9F34;" d="M468.151,34.259h-32.116c4.674,0,8.464,3.789,8.464,8.464c0,18.921-15.811,34.979-37.548,40.378
	c5.072,1.259,10.466,1.942,16.058,1.942c29.558,0,53.606-18.984,53.606-42.321C476.615,38.049,472.827,34.259,468.151,34.259z"/>
<path style="fill:#8A8990;" d="M433.892,0H329.341c-4.674,0-8.464,3.789-8.464,8.464v34.259c0,4.676,3.79,8.464,8.464,8.464h138.812
	c4.674,0,8.464-3.789,8.464-8.464C476.615,19.165,457.45,0,433.892,0z"/>
<path style="fill:#56555B;" d="M476.615,42.724C476.615,19.165,457.45,0,433.892,0h-20.94C431.1,9.857,443.42,29.084,443.42,51.188
	h24.732C472.827,51.188,476.615,47.399,476.615,42.724z"/>
<g>
</g>
<g>
</g>
<g>
</g>
<g>
</g>
<g>
</g>
<g>
</g>
<g>
</g>
<g>
</g>
<g>
</g>
<g>
</g>
<g>
</g>
<g>
</g>
<g>
</g>
<g>
</g>
<g>
</g>
</svg>
