<svg id="Layer_1" enable-background="new 0 0 497 497" height="512" viewBox="0 0 497 497" width="512" xmlns="http://www.w3.org/2000/svg"><g><g><path d="m219.286 250.62c15.037-14.95 44.437-14.311 59.464.63l5.25 13.765-12.777 7.878c-12.518-10.607-34.211-10.381-45.308.752l-16.415-7.009z" fill="#fed33a"/><path d="m364.295 184.074c42.562-8.714 88.695-3.215 113.297 1.055 10.554 1.831 18.37 10.738 18.795 21.365 1.003 25.089 1.618 71.889-5.213 108.055-11.416 60.439-69.944 100.294-130.726 89.02-60.782-11.275-100.801-69.41-89.385-129.848 9.024-47.777 47.488-82.683 93.232-89.647z" fill="#ff80bb"/><path d="m496.387 206.493c-.425-10.626-8.241-19.533-18.795-21.365-17.9-3.106-47.201-6.858-78.23-5.318 19.237.884 36.278 3.244 48.23 5.318 10.554 1.832 18.37 10.738 18.795 21.365 1.003 25.089 1.618 71.889-5.213 108.055-9.147 48.428-48.545 83.635-95.111 89.917 58.732 7.899 114.047-31.342 125.111-89.917 6.831-36.166 6.217-82.965 5.213-108.055z" fill="#fa69ac"/><path d="m132.737 184.054c-42.557-8.688-88.693-3.162-113.298 1.122-10.555 1.838-18.376 10.749-18.808 21.376-1.019 25.09-1.662 71.89 5.148 108.052 11.379 60.432 69.883 100.253 130.672 88.942s100.843-69.47 89.464-129.902c-8.995-47.77-47.439-82.653-93.178-89.59z" fill="#ff80bb"/><g><ellipse cx="116.179" cy="294.462" fill="#6362b5" rx="82.498" ry="82.02" transform="matrix(.999 -.052 .052 .999 -15.074 6.403)"/><g fill="#4e4fa1"><path d="m116.401 340.335c-6.877 6.842 3.706 17.469 10.578 10.636l70.541-70.16c-.968-5.737-2.538-11.27-4.642-16.54z"/><path d="m147.243 281.016c-2.923-2.937-7.672-2.948-10.606-.025l-75.173 74.817c3.791 3.346 7.886 6.357 12.25 8.97l73.504-73.155c2.935-2.923 2.947-7.672.025-10.607z"/><path d="m158.048 270.306c3.532 2.937 7.068 2.945 10.606.023l18.218-18.137c-2.632-4.338-5.664-8.407-9.032-12.174l-19.768 19.682c-2.936 2.922-2.946 7.671-.024 10.606z"/><path d="m64.751 275.167c-2.925-2.934-7.674-2.941-10.606-.017l-20.436 20.373c.079 6.463.908 12.749 2.415 18.772l28.611-28.522c2.933-2.923 2.941-7.672.016-10.606z"/><path d="m75.548 264.45c3.532 2.938 7.067 2.947 10.606.027l49.887-49.629c-6.057-1.491-12.375-2.31-18.872-2.383l-41.594 41.378c-2.936 2.922-2.948 7.67-.027 10.607z"/></g></g><g><ellipse cx="379.059" cy="294.462" fill="#6362b5" rx="82.498" ry="82.02" transform="matrix(.999 -.052 .052 .999 -14.722 19.999)"/><g fill="#4e4fa1"><path d="m378.837 248.589c6.877-6.842-3.706-17.469-10.578-10.636l-70.541 70.16c.968 5.737 2.538 11.27 4.642 16.54z"/><path d="m347.995 307.909c2.923 2.937 7.672 2.948 10.606.025l75.173-74.817c-3.791-3.346-7.886-6.357-12.25-8.97l-73.504 73.155c-2.935 2.922-2.947 7.671-.025 10.607z"/><path d="m337.19 318.618c-3.532-2.937-7.068-2.945-10.606-.023l-18.218 18.137c2.632 4.338 5.664 8.407 9.032 12.174l19.769-19.682c2.935-2.922 2.945-7.67.023-10.606z"/><path d="m430.487 313.757c2.925 2.934 7.674 2.941 10.606.017l20.436-20.373c-.079-6.463-.908-12.749-2.415-18.772l-28.611 28.522c-2.933 2.924-2.941 7.673-.016 10.606z"/><path d="m419.69 324.475c-3.532-2.938-7.067-2.947-10.606-.027l-49.887 49.629c6.057 1.491 12.375 2.31 18.872 2.383l41.594-41.378c2.936-2.922 2.948-7.671.027-10.607z"/></g></g></g><g><path d="m471.761 184.124-137.152-87.688c-10.957-7.006-25.112-6.477-35.516 1.326l-22.832 17.124c-7.359 5.519-8.5 16.119-2.484 23.078 6.295 7.281 17.569 7.329 23.925.102l8.847-10.059c5.584-6.349 15.075-7.422 21.936-2.48l73.192 52.72" fill="#fed33a"/><g><path d="m304.609 96.436 132.624 84.793 34.528 2.895-137.152-87.688c-9.703-6.204-21.908-6.488-31.801-1.056.607.334 1.211.679 1.801 1.056z" fill="#f5bf00"/></g><path d="m25.239 184.124 137.152-87.688c10.957-7.006 25.112-6.477 35.516 1.326l22.832 17.124c7.359 5.519 8.5 16.119 2.484 23.078-6.295 7.281-17.569 7.329-23.925.102l-8.847-10.059c-5.584-6.349-15.075-7.422-21.936-2.48l-73.192 52.72" fill="#fed33a"/></g></g></svg>