<svg id="Layer_1" enable-background="new 0 0 512 512" height="512" viewBox="0 0 512 512" width="512" xmlns="http://www.w3.org/2000/svg"><path id="XMLID_2516_" d="m161.22 34.5v377.82c0 4.27-3.46 7.73-7.72 7.73-4.27 0-7.73-3.46-7.73-7.73v-377.82c0-4.27 3.46-7.72 7.73-7.72 4.26 0 7.72 3.45 7.72 7.72z" fill="#e0e8ec"/><path id="XMLID_2517_" d="m366.23 34.5v377.82c0 4.27-3.46 7.73-7.73 7.73-4.26 0-7.72-3.46-7.72-7.73v-377.82c0-4.27 3.46-7.72 7.72-7.72 4.27 0 7.73 3.45 7.73 7.72z" fill="#e0e8ec"/><path id="XMLID_2521_" d="m122.55 33.924-3.781 28.392-58.622 440.74c-.681 5.12-5.048 8.944-10.212 8.944h-17.857c-6.229 0-11.033-5.485-10.212-11.66l58.262-438.024 3.781-28.392z" fill="#ffc26d"/><path id="XMLID_2524_" d="m83.908 33.924h38.642l-3.78 28.392h-38.642z" fill="#ffa730"/><path id="XMLID_2527_" d="m122.55 33.924-62.403 469.133c-.681 5.119-5.047 8.943-10.212 8.943h-10.211l63.603-478.076z" fill="#ffa730"/><path id="XMLID_2529_" d="m479.922 512h-17.857c-5.165 0-9.531-3.824-10.212-8.944l-58.623-440.74-3.781-28.392h38.642l3.781 28.392 58.261 438.024c.822 6.175-3.982 11.66-10.211 11.66z" fill="#64e1c5"/><path id="XMLID_2530_" d="m431.872 62.316h-38.642l-3.78-28.392h38.642z" fill="#00d2b4"/><path id="XMLID_2531_" d="m479.922 512h-6.43l-63.604-478.076h18.203l62.042 466.416c.822 6.175-3.982 11.66-10.211 11.66z" fill="#00d2b4"/><path id="XMLID_2947_" d="m452.297 43.774h-388.114c-12.088 0-21.887-9.799-21.887-21.887 0-12.088 9.799-21.887 21.887-21.887h388.114c12.088 0 21.887 9.799 21.887 21.887 0 12.088-9.799 21.887-21.887 21.887z" fill="#ff6c7e"/><path id="XMLID_2533_" d="m161.22 34.5v27.82h-15.45v-27.82c0-4.27 3.46-7.72 7.73-7.72 4.26 0 7.72 3.45 7.72 7.72z" fill="#c2d0d9"/><path id="XMLID_2534_" d="m366.23 34.5v27.82h-15.45v-27.82c0-4.27 3.46-7.72 7.72-7.72 4.27 0 7.73 3.45 7.73 7.72z" fill="#c2d0d9"/><path id="XMLID_2941_" d="m328.284 0h60.437v43.774h-60.437z" fill="#5592d7"/><path id="XMLID_2940_" d="m372.229 0h16.492v43.774h-16.492z" fill="#1475cc"/><path id="XMLID_2937_" d="m123.278 0h60.437v43.774h-60.437z" fill="#5592d7"/><path id="XMLID_2936_" d="m167.223 0h16.492v43.774h-16.492z" fill="#1475cc"/><path id="XMLID_2539_" d="m474.182 21.891c0 6.047-2.452 11.507-6.408 15.473-3.966 3.956-9.426 6.408-15.473 6.408h-25.415c6.037 0 11.518-2.452 15.473-6.408 3.966-3.966 6.418-9.426 6.418-15.473.001-12.094-9.807-21.891-21.891-21.891h25.415c12.084 0 21.881 9.797 21.881 21.891z" fill="#ff4a59"/><path id="XMLID_2543_" d="m327.381 329.627v91.202h-142.762v-91.202c0-15.061 12.208-27.269 27.269-27.269h88.225c15.061 0 27.268 12.208 27.268 27.269z" fill="#5592d7"/><path id="XMLID_2544_" d="m184.619 389.924h142.763v30.905h-142.763z" fill="#1475cc"/><path id="XMLID_2545_" d="m327.381 329.627v91.202h-24.034v-91.202c0-15.061-12.208-27.269-27.279-27.269h24.045c15.061 0 27.268 12.208 27.268 27.269z" fill="#1475cc"/><path id="XMLID_2925_" d="m347.724 439.039h-183.448c-10.22 0-18.505-8.285-18.505-18.505v-6.079c0-5.69 4.612-10.302 10.302-10.302h199.855c5.69 0 10.302 4.612 10.302 10.302v6.079c-.001 10.22-8.286 18.505-18.506 18.505z" fill="#64e1c5"/><path id="XMLID_2547_" d="m366.229 414.455v6.083c0 10.218-8.283 18.501-18.501 18.501h-22.898c10.214 0 18.501-8.287 18.501-18.501v-16.385h12.597c5.689.001 10.301 4.613 10.301 10.302z" fill="#00d2b4"/></svg>