<?xml version="1.0" encoding="iso-8859-1"?>
<!-- Generator: Adobe Illustrator 19.0.0, SVG Export Plug-In . SVG Version: 6.00 Build 0)  -->
<svg version="1.1" id="Layer_1" xmlns="http://www.w3.org/2000/svg" xmlns:xlink="http://www.w3.org/1999/xlink" x="0px" y="0px"
	 viewBox="0 0 512.001 512.001" style="enable-background:new 0 0 512.001 512.001;" xml:space="preserve">
<path style="fill:#6CC6E4;" d="M223.196,109.49c-8.683,0-15.721,7.041-15.721,15.723v21.87v10.21v21.87
	c4.651-0.374,9.349-0.586,14.096-0.586c5.854,0,11.641,0.291,17.344,0.854v-21.87v-10.479v-21.87
	C238.917,116.531,231.879,109.49,223.196,109.49z"/>
<g>
	<path style="fill:#41B0CE;" d="M223.196,157.295v-10.21v-21.87c0-5.816,3.165-10.882,7.86-13.603
		c-2.313-1.341-4.994-2.12-7.86-2.12c-8.683,0-15.721,7.041-15.721,15.723v21.87v10.21v21.87c4.651-0.374,9.349-0.586,14.096-0.586
		c0.543,0,1.082,0.016,1.624,0.02v-21.305H223.196z"/>
	<path style="fill:#41B0CE;" d="M237.292,178.58c-2.598,0-5.179,0.069-7.747,0.187c3.145,0.143,6.271,0.36,9.371,0.666v-0.833
		C238.374,178.594,237.835,178.58,237.292,178.58z"/>
</g>
<path style="fill:#F7A539;" d="M466.823,239.567h-97.003c-30.642-49.711-85.567-82.859-148.25-82.859s-117.606,33.147-148.25,82.859
	H45.175C20.226,239.567,0,259.792,0,284.744v42.039c0,24.952,20.226,45.177,45.175,45.177h23.177
	c-2.829-6.37-4.413-13.413-4.413-20.83c0-28.378,23.005-51.382,51.38-51.382c28.378,0,51.382,23.005,51.382,51.382
	c0,7.417-1.585,14.46-4.414,20.83h186.165c-2.829-6.37-4.413-13.413-4.413-20.83c0-28.378,23.005-51.382,51.381-51.382
	c28.378,0,51.381,23.005,51.381,51.382c0,7.417-1.585,14.46-4.414,20.83h24.435h28.512c9.205,0,16.665-7.461,16.665-16.665v-28.512
	v-39.999v-2.041C512,259.792,491.774,239.567,466.823,239.567z"/>
<path style="fill:#E58D23;" d="M22.18,326.783v-42.039c0-24.952,20.226-45.175,45.175-45.175h-22.18
	C20.226,239.567,0,259.792,0,284.744v42.039c0,24.952,20.226,45.177,45.175,45.177h22.18C42.405,371.96,22.18,351.735,22.18,326.783
	z"/>
<path style="fill:#97D3EE;" d="M324.424,230.196c-27.05-28.366-63.577-43.987-102.852-43.987s-75.802,15.621-102.852,43.987
	c-1.532,1.606-1.958,3.97-1.086,6.01c0.874,2.039,2.879,3.362,5.097,3.362h197.679c2.219,0,4.224-1.323,5.098-3.362
	C326.382,234.165,325.955,231.801,324.424,230.196z"/>
<path style="fill:#FF5357;" d="M45.175,239.567c-23.457,0-42.736,17.879-44.958,40.755h36.268c7.349,0,13.308-5.959,13.308-13.308
	v-27.447H45.175z"/>
<path style="fill:#ED242E;" d="M42.165,239.678c-0.492,0.032-0.987,0.064-1.475,0.112c-0.298,0.029-0.593,0.071-0.889,0.106
	c-0.437,0.052-0.874,0.102-1.307,0.166c-0.315,0.047-0.625,0.104-0.938,0.157c-0.409,0.07-0.82,0.138-1.225,0.218
	c-0.32,0.063-0.637,0.136-0.955,0.206c-0.391,0.087-0.784,0.173-1.172,0.271c-0.322,0.081-0.64,0.169-0.959,0.255
	c-0.377,0.103-0.754,0.207-1.128,0.32c-0.32,0.096-0.64,0.201-0.958,0.304c-0.364,0.119-0.726,0.24-1.087,0.367
	c-0.319,0.113-0.635,0.231-0.95,0.35c-0.352,0.133-0.701,0.271-1.049,0.414c-0.316,0.13-0.63,0.262-0.943,0.398
	c-0.338,0.147-0.674,0.301-1.008,0.456c-0.312,0.145-0.623,0.293-0.93,0.445c-0.326,0.161-0.648,0.327-0.969,0.496
	c-0.307,0.162-0.614,0.323-0.917,0.49c-0.314,0.174-0.623,0.355-0.932,0.536c-0.302,0.177-0.604,0.353-0.902,0.537
	c-0.299,0.185-0.592,0.377-0.886,0.568c-0.298,0.194-0.598,0.386-0.891,0.587c-0.282,0.193-0.557,0.394-0.833,0.593
	c-0.295,0.212-0.592,0.42-0.883,0.64c-0.261,0.197-0.515,0.404-0.771,0.607c-0.296,0.234-0.594,0.464-0.885,0.704
	c-0.223,0.185-0.437,0.379-0.657,0.569c-1.205,1.041-2.358,2.145-3.447,3.307c-0.129,0.136-0.262,0.268-0.388,0.406
	c-0.302,0.33-0.591,0.67-0.883,1.009c-0.164,0.191-0.333,0.377-0.495,0.57c-0.275,0.332-0.541,0.672-0.808,1.012
	c-0.165,0.21-0.334,0.417-0.496,0.63c-0.256,0.338-0.502,0.684-0.749,1.029c-0.16,0.224-0.324,0.447-0.48,0.674
	c-0.238,0.347-0.468,0.702-0.698,1.056c-0.151,0.233-0.303,0.466-0.449,0.702c-0.223,0.359-0.438,0.724-0.651,1.09
	c-0.14,0.24-0.279,0.479-0.416,0.722c-0.206,0.37-0.407,0.746-0.603,1.125c-0.129,0.245-0.255,0.491-0.378,0.739
	c-0.191,0.383-0.375,0.769-0.554,1.157c-0.116,0.252-0.232,0.506-0.344,0.76c-0.173,0.394-0.342,0.788-0.505,1.188
	c-0.103,0.255-0.204,0.511-0.303,0.769c-0.157,0.407-0.311,0.815-0.456,1.229c-0.09,0.255-0.175,0.512-0.261,0.769
	c-0.14,0.421-0.277,0.844-0.405,1.27c-0.075,0.254-0.145,0.51-0.216,0.764c-0.122,0.438-0.244,0.875-0.353,1.317
	c-0.061,0.247-0.115,0.497-0.172,0.745c-0.104,0.457-0.21,0.913-0.301,1.374c-0.047,0.232-0.082,0.466-0.124,0.699
	c-0.088,0.484-0.175,0.969-0.247,1.458c-0.028,0.192-0.048,0.386-0.073,0.578c-0.071,0.536-0.142,1.071-0.195,1.612
	c0,0.003,0,0.007,0,0.01h22.18c1.632-16.802,12.463-30.908,27.396-37.214v-3.541h-4.618c-0.757,0-1.509,0.021-2.258,0.058
	C42.666,239.637,42.416,239.661,42.165,239.678z"/>
<path style="fill:#97D3EE;" d="M512,310.891v-24.107v-2.041c0-2.312-0.175-4.583-0.511-6.801c-3.461-1.342-7.215-2.489-11.185-3.369
	c-20.33-4.51-38.526-0.429-40.644,9.118c-2.119,9.546,12.642,20.943,32.972,25.454C499.514,310.673,506.148,311.212,512,310.891z"/>
<path style="fill:#6CC6E4;" d="M490.711,285.349c1.056-4.759,6.108-8.159,13.426-9.814c-1.256-0.345-2.527-0.673-3.834-0.963
	c-20.33-4.51-38.526-0.429-40.644,9.118c-2.119,9.546,12.642,20.943,32.972,25.454c6.881,1.527,13.515,2.066,19.368,1.746v-3.653
	C498.024,301.7,489.026,292.941,490.711,285.349z"/>
<path style="fill:#F98B38;" d="M356.586,371.96c-3.121-6.37-4.87-13.413-4.87-20.83c0-6.2,1.212-12.144,3.435-17.648h-30.79h-31.199
	H152.635c2.22,5.504,3.433,11.448,3.433,17.648c0,7.417-1.748,14.46-4.868,20.83H356.586z"/>
<path style="fill:#E87528;" d="M156.068,370.369c0,0.533-0.029,1.061-0.047,1.591h195.742c-0.018-0.53-0.047-1.057-0.047-1.591
	c0-3.301,0.354-6.527,1.01-9.656c-0.545-2.601-0.871-5.269-0.964-7.992h-27.402h-31.199H156.021
	c-0.092,2.725-0.419,5.393-0.964,7.994C155.714,363.842,156.068,367.068,156.068,370.369z"/>
<path style="fill:#6CC6E4;" d="M221.571,186.208c-1.337,0-2.672,0.021-4.001,0.058c-0.309,0.008-0.619,0.024-0.928,0.034
	c-1.059,0.037-2.117,0.079-3.169,0.138c-0.254,0.014-0.506,0.032-0.759,0.047c-1.174,0.072-2.345,0.154-3.512,0.255
	c-0.089,0.007-0.177,0.016-0.266,0.022c-35.444,3.122-67.15,19.25-90.332,43.574c-1.428,1.601-1.817,3.885-0.968,5.867
	c0.874,2.039,2.879,3.362,5.097,3.362h37.929h28.279h34.255V186.23C222.653,186.226,222.116,186.208,221.571,186.208z"/>
<g>
	<circle style="fill:#5B5E5E;" cx="115.323" cy="351.126" r="51.379"/>
	<circle style="fill:#5B5E5E;" cx="395.418" cy="351.126" r="51.379"/>
</g>
<g>
	<path style="fill:#424444;" d="M86.119,351.129c0-24.568,17.248-45.097,40.292-50.169c-3.573-0.786-7.28-1.213-11.09-1.213
		c-28.375,0-51.38,23.005-51.38,51.382c0,28.377,23.005,51.381,51.38,51.381c3.809,0,7.517-0.427,11.09-1.213
		C103.367,396.225,86.119,375.697,86.119,351.129z"/>
	<path style="fill:#424444;" d="M366.219,351.129c0-24.568,17.248-45.097,40.292-50.169c-3.573-0.786-7.28-1.213-11.09-1.213
		c-28.377,0-51.381,23.005-51.381,51.382c0,28.377,23.005,51.381,51.381,51.381c3.809,0,7.517-0.427,11.09-1.213
		C383.467,396.225,366.219,375.697,366.219,351.129z"/>
</g>
<g>
	<circle style="fill:#E6E9ED;" cx="115.323" cy="351.126" r="17.648"/>
	<circle style="fill:#E6E9ED;" cx="395.418" cy="351.126" r="17.648"/>
</g>
<g>
	<path style="fill:#B2C3D3;" d="M119.299,351.129c0-5.668,2.683-10.698,6.835-13.928c-2.989-2.324-6.734-3.721-10.813-3.721
		c-9.747,0-17.647,7.901-17.647,17.648c0,9.746,7.9,17.647,17.647,17.647c4.079,0,7.824-1.397,10.813-3.721
		C121.981,361.827,119.299,356.796,119.299,351.129z"/>
	<path style="fill:#B2C3D3;" d="M399.398,351.129c0-5.668,2.683-10.698,6.835-13.928c-2.989-2.324-6.734-3.721-10.813-3.721
		c-9.747,0-17.647,7.901-17.647,17.648c0,9.746,7.9,17.647,17.647,17.647c4.079,0,7.824-1.397,10.813-3.721
		C402.081,361.827,399.398,356.796,399.398,351.129z"/>
</g>
<g>
</g>
<g>
</g>
<g>
</g>
<g>
</g>
<g>
</g>
<g>
</g>
<g>
</g>
<g>
</g>
<g>
</g>
<g>
</g>
<g>
</g>
<g>
</g>
<g>
</g>
<g>
</g>
<g>
</g>
</svg>
