<svg height="512pt" viewBox="-33 0 512 512" width="512pt" xmlns="http://www.w3.org/2000/svg"><path d="m149.71875 60.4375c0 33.378906-27.058594 60.4375-60.4375 60.4375s-60.4375-27.058594-60.4375-60.4375 27.058594-60.4375 60.4375-60.4375 60.4375 27.058594 60.4375 60.4375zm0 0" fill="#b24e2f"/><path d="m89.28125 89.96875c-16.285156 0-29.53125-13.246094-29.53125-29.53125s13.246094-29.53125 29.53125-29.53125 29.53125 13.246094 29.53125 29.53125-13.25 29.53125-29.53125 29.53125zm0 0" fill="#ffa93f"/><path d="m416.371094 60.4375c0 33.378906-27.058594 60.4375-60.4375 60.4375s-60.4375-27.058594-60.4375-60.4375 27.058594-60.4375 60.4375-60.4375 60.4375 27.058594 60.4375 60.4375zm0 0" fill="#dd6642"/><path d="m355.933594 89.96875c-16.285156 0-29.53125-13.246094-29.53125-29.53125s13.246094-29.53125 29.53125-29.53125c16.28125 0 29.53125 13.246094 29.53125 29.53125s-13.25 29.53125-29.53125 29.53125zm0 0" fill="#ffbe73"/><path d="m93.234375 219.175781s-59.617187 40.027344-85.40625 106.683594c-8.46875 21.890625-4.367187 46.75 10.902344 64.570313 13.304687 15.527343 35.121093 29.941406 70.082031 29.105468-.894531-2.660156 38.113281-179.96875 38.113281-179.96875zm0 0" fill="#a34325"/><path d="m351.980469 219.175781s59.613281 40.027344 85.40625 106.683594c8.46875 21.890625 4.367187 46.75-10.902344 64.570313-13.304687 15.527343-35.121094 29.941406-70.082031 29.105468.894531-2.660156-38.113282-179.96875-38.113282-179.96875zm0 0" fill="#b24e2f"/><path d="m380.472656 395.394531c0 96.71875-70.679687 116.605469-157.867187 116.605469s-157.863281-19.886719-157.863281-116.605469c0-96.714843 70.679687-253.683593 157.863281-253.683593 87.1875 0 157.867187 156.96875 157.867187 253.683593zm0 0" fill="#dd6642"/><path d="m245.65625 352.695312c27.09375-6.429687 39.535156-16.800781 39.535156-16.800781v-167.160156c-19.1875-16.816406-40.347656-27.023437-62.582031-27.023437-87.1875 0-157.867187 156.96875-157.867187 253.6875 0 86.304687 56.285156 111.429687 130.355468 115.839843 12.96875-37.734375 13.367188-72.042969 9.726563-98.628906-3.769531-27.554687 13.773437-53.496094 40.832031-59.914063zm0 0" fill="#cb5935"/><path d="m160.023438 260.277344c20.878906 0 55.867187 16.929687 55.867187 37.808594 0 20.878906-34.988281 37.808593-55.867187 37.808593-20.882813 0-22.546876-16.929687-22.546876-37.808593 0-20.878907 1.664063-37.808594 22.546876-37.808594zm0 0" fill="#00d2b4"/><path d="m285.191406 260.277344c-20.882812 0-55.867187 16.929687-55.867187 37.808594 0 20.878906 34.984375 37.808593 55.867187 37.808593 20.878906 0 22.542969-16.929687 22.542969-37.808593 0-20.878907-1.664063-37.808594-22.542969-37.808594zm0 0" fill="#00d2b4"/><path d="m256.171875 298.085938c0 18.535156-15.027344 33.5625-33.566406 33.5625-18.535157 0-33.5625-15.027344-33.5625-33.5625 0-18.535157 15.027343-33.5625 33.5625-33.5625 18.539062 0 33.566406 15.027343 33.566406 33.5625zm0 0" fill="#76e7d6"/><path d="m385.179688 162.574219c0 89.789062-72.785157 120.851562-162.574219 120.851562-89.785157 0-162.574219-31.066406-162.574219-120.851562 0-89.789063 72.789062-162.574219 162.574219-162.574219 89.789062 0 162.574219 72.785156 162.574219 162.574219zm0 0" fill="#e7896e"/><path d="m291.167969 219.175781c-186.878907-44.113281-126.75-208.449219-126.75-208.453125-61.042969 23.410156-104.386719 82.570313-104.386719 151.851563 0 89.789062 72.789062 120.851562 162.574219 120.851562 10 0 19.777343-.382812 29.277343-1.191406 30.054688-26.3125 38.972657-62.714844 39.285157-63.058594zm0 0" fill="#dd6642"/><path d="m306.121094 182.398438c0-35.570313-37.390625-64.40625-83.515625-64.40625-46.121094 0-83.511719 28.835937-83.511719 64.40625 0 35.566406 37.390625 64.402343 83.511719 64.402343 46.125 0 83.515625-28.835937 83.515625-64.402343zm0 0" fill="#ffd4a3"/><path d="m258.703125 171.78125c0-14.464844-16.160156-26.1875-36.097656-26.1875-19.933594 0-36.09375 11.722656-36.09375 26.1875 0 14.460938 16.160156 26.1875 36.09375 26.1875 19.9375 0 36.097656-11.726562 36.097656-26.1875zm0 0" fill="#516980"/><path d="m147.332031 436.511719c0-41.691407-32.984375-75.488281-73.667969-75.488281-40.683593 0-73.664062 33.796874-73.664062 75.488281 0 41.691406 32.980469 75.488281 73.664062 75.488281 40.683594 0 73.667969-33.796875 73.667969-75.488281zm0 0" fill="#e7896e"/><path d="m445.214844 436.511719c0-41.691407-32.984375-75.488281-73.667969-75.488281s-73.664063 33.796874-73.664063 75.488281c0 41.691406 32.980469 75.488281 73.664063 75.488281s73.667969-33.796875 73.667969-75.488281zm0 0" fill="#e7896e"/><path d="m115.59375 436.511719c0 23.160156-18.769531 41.929687-41.929688 41.929687-23.15625 0-41.929687-18.769531-41.929687-41.929687 0-23.15625 18.773437-41.929688 41.929687-41.929688 23.160157 0 41.929688 18.773438 41.929688 41.929688zm0 0" fill="#ffbe73"/><path d="m413.480469 436.511719c0 23.160156-18.773438 41.929687-41.933594 41.929687-23.15625 0-41.929687-18.769531-41.929687-41.929687 0-23.15625 18.773437-41.929688 41.929687-41.929688 23.160156 0 41.933594 18.773438 41.933594 41.929688zm0 0" fill="#ffbe73"/><g fill="#454545"><path d="m318.289062 138.851562c-4.269531 0-7.726562-3.457031-7.726562-7.726562v-12.828125c0-4.265625 3.457031-7.722656 7.726562-7.722656 4.269532 0 7.726563 3.457031 7.726563 7.722656v12.828125c0 4.269531-3.457031 7.726562-7.726563 7.726562zm0 0"/><path d="m126.925781 138.851562c-4.269531 0-7.726562-3.457031-7.726562-7.726562v-12.828125c0-4.265625 3.457031-7.722656 7.726562-7.722656 4.265625 0 7.726563 3.457031 7.726563 7.722656v12.828125c0 4.269531-3.460938 7.726562-7.726563 7.726562zm0 0"/></g></svg>