<?xml version="1.0" encoding="iso-8859-1"?>
<!-- Generator: Adobe Illustrator 19.0.0, SVG Export Plug-In . SVG Version: 6.00 Build 0)  -->
<svg version="1.1" id="Layer_1" xmlns="http://www.w3.org/2000/svg" xmlns:xlink="http://www.w3.org/1999/xlink" x="0px" y="0px"
	 viewBox="0 0 512 512" style="enable-background:new 0 0 512 512;" xml:space="preserve">
<path style="fill:#464949;" d="M397.291,42.489C466.422,88.326,512,166.841,512,256c0,141.384-114.616,256-256,256S0,397.384,0,256
	S114.616,0,256,0c42.08,0,81.786,10.152,116.808,28.141"/>
<path style="fill:#5B5E5E;" d="M397.291,42.489l-24.482-14.348C337.786,10.152,298.08,0,256,0c-15.19,0-30.069,1.331-44.532,3.869
	c-34.41,45.091-54.86,101.404-54.86,162.503c0,148.088,120.05,268.135,268.137,268.135c5.084,0,10.134-0.156,15.15-0.435
	C484.522,387.997,512,325.211,512,256C512,166.841,466.422,88.326,397.291,42.489z"/>
<circle style="fill:#A9AAAA;" cx="255.443" cy="256" r="197.075"/>
<path style="fill:#B7B7B7;" d="M255.449,58.928c-29.955,0-58.344,6.696-83.767,18.652c-9.755,27.79-15.073,57.668-15.073,88.791
	c0,124.285,84.566,228.804,199.289,259.198c57.845-34.34,96.623-97.42,96.623-169.57C452.522,147.16,364.289,58.928,255.449,58.928z
	"/>
<path style="fill:#FF5357;" d="M336.578,404.236c-23.958,13.075-51.416,20.51-80.578,20.51c-93.047,0-168.745-75.7-168.745-168.746
	c0-93.047,75.699-168.745,168.745-168.745S424.745,162.953,424.745,256c0,53.986-25.483,102.132-65.05,133.042 M256,122.595
	c-73.56,0-133.404,59.846-133.404,133.405c0,73.56,59.844,133.406,133.404,133.406S389.404,329.56,389.404,256
	S329.56,122.595,256,122.595z"/>
<path style="fill:#E23740;" d="M300.866,260.109l86.38-28.066c-2.152-11.815-5.862-23.095-10.916-33.613l-86.309,28.043
	c-4.448-5.121-10.024-9.233-16.351-11.933v-90.774c-5.783-0.768-11.68-1.173-17.671-1.173s-11.887,0.404-17.671,1.173v90.774
	c-6.292,2.685-11.843,6.767-16.277,11.848l-86.339-28.051c-5.061,10.514-8.779,21.79-10.939,33.604l86.352,28.058
	c0.622,7.06,2.861,13.655,6.361,19.403l-53.27,73.322c8.544,8.113,18.159,15.107,28.609,20.749l53.392-73.489
	c3.152,0.698,6.422,1.077,9.783,1.077c3.46,0,6.829-0.403,10.065-1.142l53.348,73.429c10.437-5.663,20.039-12.676,28.567-20.806
	l-53.319-73.391C298.056,273.49,300.239,267.026,300.866,260.109z"/>
<path style="fill:#FF6971;" d="M256,87.255c-35.092,0-67.714,10.772-94.741,29.177c-3.05,16.18-4.649,32.873-4.649,49.94
	c0,0.246,0.009,0.489,0.01,0.735c24.445-27.3,59.939-44.512,99.381-44.512c73.56,0,133.404,59.846,133.404,133.405
	c0,67.437-50.298,123.339-115.349,132.179c13.975,9.512,28.897,17.732,44.592,24.501c6.161-2.473,12.15-5.29,17.929-8.445
	l23.119-15.193c39.568-30.911,65.05-79.056,65.05-133.042C424.745,162.953,349.047,87.255,256,87.255z"/>
<path style="fill:#EF4152;" d="M218.664,337.908l27.553-37.925c3.152,0.698,6.422,1.077,9.783,1.077
	c3.46,0,6.829-0.403,10.065-1.142l53.348,73.429c10.437-5.663,20.039-12.676,28.567-20.806l-53.319-73.391
	c3.396-5.659,5.579-12.123,6.204-19.039l86.38-28.067c-2.152-11.815-5.862-23.095-10.916-33.613l-86.309,28.043
	c-4.448-5.121-10.024-9.233-16.351-11.933v-90.774c-5.783-0.768-11.68-1.173-17.671-1.173s-11.887,0.404-17.671,1.173v90.774
	c-6.292,2.685-11.843,6.767-16.277,11.848l-62.511-20.309c2.04,13.745,5.113,27.153,9.158,40.135l42.427,13.785
	c0.622,7.06,2.861,13.655,6.361,19.403l-20.597,28.35C203.459,318.315,210.735,328.391,218.664,337.908z"/>
<circle style="fill:#E6E9ED;" cx="255.443" cy="256" r="13.351"/>
<g>
</g>
<g>
</g>
<g>
</g>
<g>
</g>
<g>
</g>
<g>
</g>
<g>
</g>
<g>
</g>
<g>
</g>
<g>
</g>
<g>
</g>
<g>
</g>
<g>
</g>
<g>
</g>
<g>
</g>
</svg>
