<svg height="512" viewBox="0 0 64 64" width="512" xmlns="http://www.w3.org/2000/svg"><g id="Tow_Truck-breakdown-crane" data-name="Tow Truck-breakdown-crane"><path d="m6 11h2v16h-2z" fill="#898890"/><path d="m61 48v4l-2 1h-14v-5z" fill="#acabb1"/><path d="m61 36v12h-16v-16z" fill="#ff6243"/><path d="m3 48h23v5h-23z" fill="#acabb1"/><circle cx="52" cy="54" fill="#2d2d30" r="6"/><path d="m5 27h4v6h-4z" fill="#d80027"/><path d="m23 25v11h-3l-13-23.95v-3.05z" fill="#cd2a00"/><path d="m26 18h5v14h-5z" fill="#ff6243"/><path d="m26 32h5v4h-5z" fill="#cd2a00"/><path d="m26 36h5v17h-5z" fill="#ff9811"/><path d="m20 25h6v23h-6z" fill="#ab2300"/><circle cx="12" cy="54" fill="#2d2d30" r="6"/><path d="m58 39h3v5h-3z" fill="#ffda44"/><path d="m31 36h14v17h-14z" fill="#cd2a00"/><path d="m45 32h-14v-14h11z" fill="#57a4ff"/><path d="m31 32h14v4h-14z" fill="#3e3d42"/><path d="m39 18h-10l1-9h8z" fill="#ffda44"/><circle cx="7" cy="11" fill="#57565c" r="4"/><path d="m39 18h-10l.33-3h9.34z" fill="#ff9811"/><path d="m33 38h3v2h-3z" fill="#e0e0e2"/><circle cx="52" cy="54" r="3"/><path d="m48 39h2v2h-2z" fill="#ffda44"/><circle cx="12" cy="54" r="3"/><path d="m32 11h2v2h-2z" fill="#fff"/><g fill="#d80027"><path d="m33 4h2v2h-2z"/><path d="m27.05 5.05h2v2h-2z" transform="matrix(.707 -.707 .707 .707 3.943 21.615)"/><path d="m25 11h2v2h-2z"/><path d="m41 11h2v2h-2z"/><path d="m38.949 5.05h2v2h-2z" transform="matrix(.707 -.707 .707 .707 7.415 30.01)"/></g><circle cx="7" cy="11" fill="#898890" r="1"/><path d="m5 42a3 3 0 0 1 -3-3v-2h2v2a1 1 0 0 0 2 0v-6h2v6a3 3 0 0 1 -3 3z" fill="#3e3d42"/><path d="m6 33h2v1h-2z" fill="#2d2d30"/><path d="m6 28h1v3h-1z" fill="#cd2a00"/><path d="m34 32h-3l7-14h3z" fill="#9bc9ff"/></g></svg>