<svg id="Capa_1" enable-background="new 0 0 512 512" height="512" viewBox="0 0 512 512" width="512" xmlns="http://www.w3.org/2000/svg"><path d="m316.313 70.225c4.466-24.266 17.081-51.472 48.343-68.297 10.523-5.663 23.288 1.819 23.288 13.769v60.887c0 19.942-16.166 36.109-36.109 36.109-22.485-.001-39.592-20.355-35.522-42.468z" fill="#d2996f"/><path d="m351.828 75.666c-7.276-60.96-88.391-98.134-151.775-44.302-54.604 46.376-53.791 104.351-74.722 131.18-4.794 6.144-2.202 15.203 5.21 17.61 11.846 3.847 26.152 6.686 38.122 5.869.423 14.474-2.484 31.084-8.379 44.242-4.255 9.497 3.289 20.093 13.611 18.771 28.377-3.636 59.891-14.758 76.864-46.08z" fill="#4e5660"/><path d="m53.861 512c-8.494 0-16.984-3.239-23.466-9.719-12.959-12.96-12.959-33.972 0-46.932l191.261-191.26c12.963-12.957 33.972-12.957 46.932 0 12.959 12.96 12.959 33.972 0 46.932l-191.261 191.26c-6.48 6.478-14.974 9.719-23.466 9.719z" fill="#b36d3a"/><path d="m323.483 293.484-18.663 52.169c-4.049 11.319-19.736 12.155-24.966 1.331l-4.314-8.93c-3.456-7.154-9.391-12.81-16.702-15.918l-20.677-8.791c-7.812-3.321-14.032-9.542-17.353-17.353l-8.791-20.677c-3.108-7.311-8.765-13.246-15.918-16.702l-8.93-4.314c-10.824-5.229-9.988-20.916 1.331-24.965l52.169-18.663z" fill="#e1b89a"/><path d="m414.102 88.523c-43.484-30.726-96.184-40.037-140.317-25.335v-31.448c0-11.864-12.664-19.462-23.121-13.858-31.384 16.818-44.036 44.078-48.51 68.387-1.333 7.244-.39 14.297 2.268 20.508 2.317 5.414 2.49 11.487.161 16.896-19.054 44.251-.554 97.414 41.686 139.655 52.746 52.746 173.303 65.35 221.524 10.437 56.639-64.501-.024-147.322-53.691-185.242z" fill="#e1b89a"/><path d="m303.005 57.044c-10.014.977-19.813 3.009-29.22 6.143v-31.447c0-11.864-12.664-19.462-23.121-13.858-31.385 16.818-44.036 44.078-48.51 68.387-1.333 7.244-.39 14.297 2.268 20.508 2.318 5.414 2.49 11.487.161 16.896-19.054 44.251-.555 97.414 41.686 139.655 23.319 23.319 59.893 38.784 97.609 44.046-61.686-49.576-92.382-178.573-40.873-250.33z" fill="#d2996f"/><path d="m467.793 273.764c37.758-42.999 25.157-94.136-3.337-134.688-92.67 18.384-127.777 118.99-95.656 170.26 39.215.683 76.78-10.276 98.993-35.572z" fill="#fcf2d0"/><path d="m435.344 252.542c-11.565 0-22.564-5.009-30.176-13.743-2.722-3.123-2.396-7.86.727-10.582 3.122-2.722 7.859-2.396 10.582.727 4.763 5.465 11.64 8.599 18.867 8.599 7.228 0 14.104-3.134 18.866-8.598 2.72-3.124 7.459-3.449 10.581-.727 3.123 2.721 3.449 7.459.728 10.581-7.612 8.733-18.61 13.743-30.175 13.743z" fill="#4e5660"/><ellipse cx="291.605" cy="180.188" fill="#fff" rx="38.276" ry="30.481"/><path d="m332.13 154.519c-4.143 0-7.5-3.357-7.5-7.5 0-5.91-4.808-10.718-10.718-10.718s-10.719 4.808-10.719 10.718c0 4.143-3.357 7.5-7.5 7.5s-7.5-3.357-7.5-7.5c0-14.181 11.537-25.718 25.719-25.718 14.181 0 25.718 11.537 25.718 25.718 0 4.143-3.358 7.5-7.5 7.5z" fill="#4e5660"/></svg>