<?xml version="1.0" encoding="iso-8859-1"?>
<!-- Generator: Adobe Illustrator 19.0.0, SVG Export Plug-In . SVG Version: 6.00 Build 0)  -->
<svg version="1.1" id="Layer_1" xmlns="http://www.w3.org/2000/svg" xmlns:xlink="http://www.w3.org/1999/xlink" x="0px" y="0px"
	 viewBox="0 0 512.006 512.006" style="enable-background:new 0 0 512.006 512.006;" xml:space="preserve">
<path style="fill:#E57E25;" d="M190.731,177.224v49.771c0.712,0.278,1.441,0.512,2.179,0.695v0.096
	c10.498,2.944,21.621,2.813,32.04-0.399c1.667-0.478,3.3-1.033,4.897-1.684c19.415-8.11,33.872-24.894,39.03-45.299l-5.54-1.884
	l-33.126-18.078c-1.615,2.805-3.595,5.375-5.896,7.65c-6.451,6.608-15.273,10.367-24.503,10.428
	c-3.039,0.026-6.069-0.417-8.987-1.294L190.731,177.224L190.731,177.224z"/>
<path style="fill:#F0C419;" d="M480.742,204.358l-43.328,15.768l0,0l-21.03-57.785l0,0l43.328-15.768
	c15.768-5.739,33.212,2.388,38.952,18.165l0.243,0.669C504.646,181.184,496.51,198.619,480.742,204.358L480.742,204.358z"/>
<g>
	<path style="fill:#2980BA;" d="M3.76,242.746l65.27,73.276c-1.537-10.176-0.425-20.579,3.221-30.199
		c5.184-13.519,14.883-24.825,27.456-32.014l21.421-11.21L20.31,217.331c-3.178-0.79-6.521-0.625-9.603,0.478l-0.087,0.035
		c-8.153,2.735-12.547,11.574-9.803,19.728C1.451,239.464,2.449,241.226,3.76,242.746z"/>
	<path style="fill:#2980BA;" d="M438.96,256.96l-25.78,9.386l0,0l-45.065-123.819l0,0l25.78-9.386
		c9.013-3.282,18.981,1.363,22.254,10.376l33.186,91.18C452.618,243.718,447.972,253.678,438.96,256.96z"/>
</g>
<g>
	<path style="fill:#C03A2B;" d="M503.318,288.957c-3.647,0-6.912-2.284-8.153-5.713l-27.039-74.291
		c-1.528-4.541,0.92-9.473,5.462-11.001c4.385-1.476,9.161,0.755,10.854,5.062l27.039,74.291c1.641,4.506-0.686,9.491-5.192,11.132
		C505.332,288.774,504.325,288.957,503.318,288.957z"/>
	<path style="fill:#C03A2B;" d="M455.249,156.889c-3.647,0-6.912-2.284-8.153-5.713l-27.039-74.291
		c-1.754-4.463,0.452-9.499,4.915-11.253c4.463-1.754,9.499,0.452,11.253,4.915c0.052,0.13,0.104,0.269,0.148,0.399l27.039,74.291
		c1.641,4.506-0.686,9.49-5.192,11.132C457.263,156.715,456.256,156.889,455.249,156.889L455.249,156.889z"/>
</g>
<path style="fill:#2980BA;" d="M262.548,106.744l18.252,50.153l31.259-16.836l-10.116-27.794
	c-4.698-14.249-20.066-21.994-34.315-17.296c-0.009,0-0.017,0.009-0.026,0.009C262.973,96.846,260.716,102.099,262.548,106.744z"/>
<path style="fill:#2C2F38;" d="M314.211,325.738c9.126,25.076,36.859,38.005,61.936,28.871c23.192-8.44,36.286-33.004,30.39-56.96
	c-0.425-1.676-0.929-3.334-1.528-4.958c-9.117-25.068-36.824-37.997-61.892-28.888c-23.071,8.388-36.173,32.743-30.469,56.613
	C313.039,322.221,313.56,324.001,314.211,325.738z"/>
<path style="fill:#A5A5A4;" d="M359.589,322.403c-5.531-0.026-10.463-3.491-12.365-8.692l-0.13-0.634l-0.295-0.894
	c-1.641-7.103,2.787-14.188,9.89-15.829c0.964-0.226,1.945-0.339,2.926-0.339c7.285,0.069,13.137,6.035,13.068,13.32
	C372.622,316.534,366.795,322.351,359.589,322.403z"/>
<path style="fill:#C03A2B;" d="M63.43,311.966c0.347,1.754,0.703,3.43,1.146,5.271c0.425,1.789,0.946,3.543,1.58,5.271
	c6.156,16.836,19.736,29.904,36.807,35.4l34.958-66.147l186.05-67.727l-86.083,112.531l74.752-16.159
	c-6.165-25.962,9.881-52.002,35.843-58.167c23.861-5.67,48.19,7.45,56.57,30.495c0.53,1.58,1.051,3.247,1.493,4.923
	c13.363-9.004,18.877-25.962,13.354-41.114l-40.324-110.769c-6.616-18.217-26.752-27.621-44.969-21.004
	c-2.014,0.729-3.959,1.65-5.8,2.735l-17.922,9.404l-31.363,16.515l-0.616,0.347c-5.409,2.891-8.935,8.379-9.308,14.501
	c-0.33,4.324-1.155,8.596-2.457,12.738c-5.505,18.599-19.528,33.464-37.771,40.055c-1.554,0.582-3.135,1.077-4.741,1.493
	c-10.124,2.831-20.822,2.952-31.007,0.347v-0.087c-0.712-0.165-1.415-0.373-2.11-0.616c-7.849-2.101-15.178-5.809-21.525-10.888
	l-55.337,29.166l-3.43,1.849l-19.849,10.454c-11.696,6.834-20.622,17.557-25.207,30.304
	C62.831,292.317,61.893,302.259,63.43,311.966z"/>
<path style="fill:#2980BA;" d="M100.767,446.804c1.754,0.174,3.603,0.174,5.444,0.174c27.49-0.304,53.609-12.087,72.034-32.5
	l59.643-77.912l86.083-112.523l-186.05,67.727l-34.958,66.147l-28.636,54.19C64.75,430.202,75.994,444.955,100.767,446.804z"/>
<path style="fill:#F0C419;" d="M165.151,144.185c0.017,16.011,10.854,29.982,26.353,33.994h0.087
	c2.831,0.781,5.757,1.164,8.692,1.146c8.778,0.009,17.244-3.291,23.722-9.221c2.205-1.98,4.124-4.255,5.705-6.764
	c3.742-5.679,5.731-12.347,5.713-19.146c0-19.406-15.734-35.14-35.14-35.14S165.151,124.779,165.151,144.185L165.151,144.185z"/>
<g>
</g>
<g>
</g>
<g>
</g>
<g>
</g>
<g>
</g>
<g>
</g>
<g>
</g>
<g>
</g>
<g>
</g>
<g>
</g>
<g>
</g>
<g>
</g>
<g>
</g>
<g>
</g>
<g>
</g>
</svg>
