<svg id="Flat" height="512" viewBox="0 0 64 64" width="512" xmlns="http://www.w3.org/2000/svg"><circle cx="8" cy="41" fill="#e94561" r="3"/><path d="m33 3a5.993 5.993 0 0 0 -5 2.686 6 6 0 1 0 -2 8.505v7.809h4v-7.809a6 6 0 1 0 3-11.191zm-10 8a2 2 0 1 1 2-2 2 2 0 0 1 -2 2zm10 0a2 2 0 1 1 2-2 2 2 0 0 1 -2 2z" fill="#c6ec6b"/><path d="m15.012 36h33.976a9.012 9.012 0 0 1 9.012 9.012v5.988a0 0 0 0 1 0 0h-52a0 0 0 0 1 0 0v-5.988a9.012 9.012 0 0 1 9.012-9.012z" fill="#ffd257"/><path d="m20.907 22h14.186a6.907 6.907 0 0 1 6.907 6.907v7.093a0 0 0 0 1 0 0h-28a0 0 0 0 1 0 0v-7.093a6.907 6.907 0 0 1 6.907-6.907z" fill="#35d7fd"/><path d="m56 39h3a0 0 0 0 1 0 0v6a0 0 0 0 1 0 0h-3a3 3 0 0 1 -3-3 3 3 0 0 1 3-3z" fill="#bbf9ff"/><path d="m53.184 41a2.962 2.962 0 0 0 -.184 1 3 3 0 0 0 3 3h3v-2h-3a2.99 2.99 0 0 1 -2.816-2z" fill="#35d7fd"/><path d="m35.093 22h-14.186a6.905 6.905 0 0 0 -6.634 5h27.454a6.905 6.905 0 0 0 -6.634-5z" fill="#ffd257"/><path d="m20.262 22.076.024-.024a6.894 6.894 0 0 0 -6.013 4.948h27.454a6.881 6.881 0 0 0 -.944-2h-19.231a1.741 1.741 0 0 1 -1.29-2.924z" fill="#f89c5b"/><path d="m18 27h-3.727a6.9 6.9 0 0 0 -.273 1.907v7.093h28v-3h-18a6 6 0 0 1 -6-6z" fill="#03b3e2"/><path d="m38.763 30.763-1.526-1.526a.725.725 0 0 1 .513-1.237h1.525a.726.726 0 0 1 .725.725v1.525a.725.725 0 0 1 -1.237.513z" fill="#fff"/><path d="m23 27h2v9h-2z" fill="#895e7a"/><path d="m28 12a4.973 4.973 0 0 1 -3.615-1.561 2 2 0 1 1 -1.385-3.439 4.964 4.964 0 0 1 1.714-3.741 6 6 0 1 0 1.286 10.932v7.809h4v-7.809a5.983 5.983 0 0 0 8.191-2.191z" fill="#7dd491"/><path d="m22 36h20a0 0 0 0 1 0 0v5.054a3.946 3.946 0 0 1 -3.946 3.946h-12.108a3.946 3.946 0 0 1 -3.946-3.946v-5.054a0 0 0 0 1 0 0z" fill="#7dd491"/><path d="m40.054 43h-12.108a3.946 3.946 0 0 1 -3.946-3.946v-3.054h-2v5.054a3.946 3.946 0 0 0 3.946 3.946h12.108a3.942 3.942 0 0 0 3.6-2.345 3.93 3.93 0 0 1 -1.6.345z" fill="#58a066"/><path d="m25 39h3v2h-3z" fill="#58a066"/><path d="m12 36.527a9.006 9.006 0 0 0 -6 8.485v4.988h52v-3h-35.527a10.473 10.473 0 0 1 -10.473-10.473z" fill="#f89c5b"/><rect fill="#aa889f" height="4" rx="2" width="58" x="3" y="50"/><path d="m61 52a2 2 0 0 1 -2 2h-54a2 2 0 0 1 -2-2z" fill="#895e7a"/><circle cx="15" cy="54" fill="#895e7a" r="7"/><circle cx="15" cy="54" fill="#aa889f" r="3"/><circle cx="47" cy="54" fill="#895e7a" r="7"/><circle cx="47" cy="54" fill="#aa889f" r="3"/></svg>