<?xml version="1.0" encoding="iso-8859-1"?>
<!-- Generator: Adobe Illustrator 19.0.0, SVG Export Plug-In . SVG Version: 6.00 Build 0)  -->
<svg version="1.1" id="Layer_1" xmlns="http://www.w3.org/2000/svg" xmlns:xlink="http://www.w3.org/1999/xlink" x="0px" y="0px"
	 viewBox="0 0 512 512" style="enable-background:new 0 0 512 512;" xml:space="preserve">
<g>
	<path style="fill:#5B5E5E;" d="M122.198,213.165h37.078v118.078h-4.701c-26.829,0-48.583-21.753-48.583-48.581v-53.294
		C105.993,220.42,113.25,213.165,122.198,213.165z"/>
	<path style="fill:#5B5E5E;" d="M122.198,361.657h37.078v118.076h-4.701c-26.829,0-48.583-21.753-48.583-48.581v-53.293
		C105.993,368.912,113.25,361.657,122.198,361.657z"/>
	<path style="fill:#5B5E5E;" d="M122.198,64.821h37.078v118.077h-4.701c-26.829,0-48.583-21.751-48.583-48.581V81.024
		C105.993,72.076,113.25,64.821,122.198,64.821z"/>
	<path style="fill:#5B5E5E;" d="M389.803,64.821h-37.076v118.077h4.699c26.828,0,48.581-21.751,48.581-48.581V81.024
		C406.007,72.076,398.752,64.821,389.803,64.821z"/>
</g>
<path style="fill:#464949;" d="M376.152,64.821h-23.425v118.077h4.699c6.637,0,12.962-1.335,18.725-3.745V64.821z"/>
<path style="fill:#5B5E5E;" d="M389.803,213.165h-37.076v118.078h4.699c26.828,0,48.581-21.753,48.581-48.581v-53.294
	C406.007,220.42,398.752,213.165,389.803,213.165z"/>
<path style="fill:#464949;" d="M376.152,213.165h-23.425v118.078h4.699c6.637,0,12.962-1.335,18.725-3.746V213.165z"/>
<path style="fill:#5B5E5E;" d="M389.803,361.657h-37.076v118.076h4.699c26.828,0,48.581-21.753,48.581-48.581v-53.293
	C406.007,368.912,398.752,361.657,389.803,361.657z"/>
<g>
	<path style="fill:#464949;" d="M376.152,361.657h-23.425v118.076h4.699c6.637,0,12.962-1.335,18.725-3.746V361.657z"/>
	<path style="fill:#464949;" d="M135.853,64.821h23.424v118.077h-4.699c-6.637,0-12.962-1.335-18.724-3.745
		C135.853,179.153,135.853,64.821,135.853,64.821z"/>
	<path style="fill:#464949;" d="M135.853,213.165h23.424v118.078h-4.699c-6.637,0-12.962-1.335-18.724-3.746
		C135.853,327.497,135.853,213.165,135.853,213.165z"/>
	<path style="fill:#464949;" d="M135.853,361.657h23.424v118.076h-4.699c-6.637,0-12.962-1.335-18.724-3.746
		C135.853,475.987,135.853,361.657,135.853,361.657z"/>
</g>
<path style="fill:#5B5E5E;" d="M264.086,0h-50.844c-8.948,0-16.204,7.255-16.204,16.202v18.905h117.926V16.202
	C314.963,7.255,307.709,0,298.761,0h-6.79"/>
<path style="fill:#464949;" d="M235.551,0h-22.309c-8.948,0-16.204,7.255-16.204,16.202v18.905h22.309V16.202
	C219.347,7.255,226.603,0,235.551,0z"/>
<path style="fill:#6E7070;" d="M291.972,512h28.226h17.439c8.949,0,16.206-7.255,16.206-16.202v-43.21V93.405V50.196
	c0-8.948-7.256-16.203-16.206-16.203h-17.439H191.804h-17.44c-8.949,0-16.202,7.255-16.202,16.203v43.209v359.182v43.21
	c0,8.948,7.254,16.202,16.202,16.202h17.44h72.282"/>
<path style="fill:#7E8282;" d="M337.637,33.993h-17.439h-99.482c-15.408,28.669-24.158,61.449-24.158,96.275
	c0,96.524,67.151,177.361,157.284,198.349V93.405V50.196C353.842,41.248,346.586,33.993,337.637,33.993z"/>
<path style="fill:#FF5357;" d="M256,85.471c-21.125,0-38.315,17.187-38.315,38.314c0,21.125,17.189,38.314,38.315,38.314
	c21.127,0,38.317-17.189,38.317-38.314C294.317,102.658,277.127,85.471,256,85.471z"/>
<path style="fill:#F7A539;" d="M255.999,230.159c-22.961,0-41.644,18.681-41.644,41.644c0,22.961,18.683,41.644,41.644,41.644
	c22.963,0,41.647-18.683,41.647-41.644C297.646,248.839,278.962,230.159,255.999,230.159z"/>
<path style="fill:#4FED70;" d="M256,376.657c-24.191,0-43.875,19.681-43.875,43.875c0,24.191,19.684,43.876,43.875,43.876
	c24.192,0,43.878-19.685,43.878-43.876C299.878,396.338,280.192,376.657,256,376.657z"/>
<path style="fill:#FF5357;" d="M256,155.743c17.62,0,31.957-14.338,31.957-31.957c0-17.622-14.338-31.957-31.957-31.957
	s-31.957,14.335-31.957,31.957C224.043,141.406,238.38,155.743,256,155.743z"/>
<path style="fill:#F9757C;" d="M278.5,155.743c17.62,0,31.957-14.338,31.957-31.957c0-17.622-14.337-31.957-31.957-31.957
	c-17.62,0-31.957,14.335-31.957,31.957C246.542,141.406,260.88,155.743,278.5,155.743z"/>
<path style="fill:#F9B946;" d="M278.5,304.953c17.62,0,31.957-14.338,31.957-31.957c0-17.622-14.337-31.957-31.957-31.957
	c-17.62,0-31.957,14.336-31.957,31.957C246.542,290.616,260.88,304.953,278.5,304.953z"/>
<path style="fill:#77F78C;" d="M278.5,452.727c17.62,0,31.957-14.338,31.957-31.957c0-17.622-14.337-31.957-31.957-31.957
	c-17.62,0-31.957,14.336-31.957,31.957C246.542,438.389,260.88,452.727,278.5,452.727z"/>
<path style="fill:#F98B38;" d="M256,331.242c-32.513,0-58.963-26.452-58.963-58.964c0-32.513,26.45-58.963,58.963-58.963
	c32.514,0,58.963,26.45,58.963,58.963C314.963,304.789,288.514,331.242,256,331.242z M256,240.319
	c-17.62,0-31.957,14.338-31.957,31.958c0,17.621,14.338,31.957,31.957,31.957c17.622,0,31.959-14.337,31.959-31.957
	S273.622,240.319,256,240.319z"/>
<path style="fill:#4ABF69;" d="M256,479.733c-32.513,0-58.963-26.45-58.963-58.963c0-32.514,26.45-58.964,58.963-58.964
	c32.514,0,58.963,26.45,58.963,58.964C314.963,453.283,288.514,479.733,256,479.733z M256,388.812
	c-17.62,0-31.957,14.337-31.957,31.958c0,17.621,14.338,31.958,31.957,31.958c17.622,0,31.959-14.338,31.959-31.958
	C287.959,403.149,273.622,388.812,256,388.812z"/>
<path style="fill:#E23740;" d="M312.232,141.537c0.011-0.036,0.02-0.071,0.031-0.107c0.066-0.206,0.123-0.417,0.185-0.626
	c0.192-0.635,0.375-1.274,0.546-1.917c0.076-0.286,0.148-0.573,0.22-0.861c0.153-0.612,0.294-1.228,0.427-1.847
	c0.055-0.255,0.114-0.51,0.164-0.766c0.173-0.861,0.331-1.729,0.466-2.604c0.018-0.113,0.029-0.229,0.047-0.342
	c0.114-0.771,0.212-1.546,0.297-2.327c0.03-0.277,0.055-0.554,0.08-0.832c0.061-0.654,0.112-1.31,0.151-1.97
	c0.017-0.272,0.035-0.543,0.047-0.817c0.042-0.908,0.07-1.818,0.07-2.736c0-1.016-0.025-2.026-0.077-3.03
	c-1.582-31.11-27.388-55.934-58.886-55.934s-57.304,24.824-58.886,55.934c-0.052,1.004-0.077,2.013-0.077,3.03
	c0,0.918,0.027,1.828,0.068,2.736c0.013,0.273,0.031,0.544,0.048,0.817c0.039,0.659,0.089,1.316,0.151,1.97
	c0.026,0.277,0.05,0.556,0.08,0.832c0.084,0.781,0.183,1.556,0.297,2.327c0.018,0.114,0.029,0.23,0.047,0.342
	c0.135,0.875,0.293,1.742,0.466,2.604c0.051,0.257,0.11,0.511,0.165,0.766c0.133,0.619,0.274,1.236,0.427,1.847
	c0.071,0.288,0.144,0.576,0.22,0.861c0.171,0.644,0.354,1.282,0.545,1.917c0.062,0.209,0.119,0.419,0.185,0.626
	c0.011,0.036,0.021,0.071,0.031,0.107l0.011,0.018c2.78,8.774,7.566,16.658,13.81,23.13l0.037,0.061
	c0.117,0.122,0.243,0.235,0.36,0.356c0.338,0.342,0.682,0.677,1.027,1.012c0.34,0.329,0.678,0.658,1.027,0.979
	c0.354,0.327,0.716,0.645,1.079,0.964c0.354,0.311,0.708,0.624,1.07,0.928c0.373,0.311,0.752,0.612,1.131,0.915
	c0.366,0.292,0.732,0.586,1.105,0.869c0.39,0.297,0.789,0.581,1.186,0.868c0.378,0.273,0.754,0.547,1.139,0.811
	c0.405,0.278,0.819,0.544,1.233,0.813c0.39,0.253,0.777,0.51,1.175,0.754c0.422,0.259,0.851,0.505,1.278,0.755
	c0.4,0.234,0.801,0.471,1.209,0.696c0.436,0.24,0.88,0.465,1.322,0.695c0.413,0.214,0.822,0.432,1.24,0.636
	c0.451,0.221,0.911,0.426,1.371,0.636c0.419,0.192,0.837,0.389,1.26,0.571c0.47,0.201,0.947,0.386,1.421,0.574
	c0.426,0.17,0.848,0.346,1.278,0.505c0.485,0.181,0.98,0.342,1.471,0.511c0.431,0.146,0.858,0.301,1.291,0.438
	c0.505,0.16,1.018,0.299,1.529,0.445c0.431,0.123,0.859,0.255,1.294,0.368c0.525,0.137,1.059,0.254,1.591,0.377
	c0.429,0.099,0.856,0.209,1.287,0.298c0.551,0.115,1.109,0.206,1.664,0.305c0.423,0.075,0.842,0.161,1.268,0.226
	c0.586,0.09,1.181,0.158,1.774,0.232c0.403,0.049,0.801,0.112,1.205,0.154c0.663,0.068,1.331,0.109,2,0.156
	c0.341,0.023,0.679,0.06,1.023,0.078c1.014,0.052,2.036,0.079,3.063,0.079s2.049-0.027,3.063-0.079
	c0.344-0.018,0.682-0.055,1.023-0.078c0.669-0.047,1.337-0.088,2-0.156c0.404-0.042,0.802-0.104,1.205-0.154
	c0.592-0.074,1.187-0.141,1.774-0.232c0.426-0.066,0.846-0.152,1.268-0.226c0.556-0.098,1.113-0.191,1.664-0.305
	c0.433-0.089,0.859-0.199,1.287-0.298c0.532-0.123,1.065-0.24,1.591-0.377c0.436-0.113,0.862-0.245,1.294-0.368
	c0.51-0.146,1.024-0.286,1.529-0.445c0.434-0.136,0.86-0.291,1.291-0.438c0.491-0.167,0.986-0.33,1.471-0.511
	c0.432-0.16,0.853-0.336,1.278-0.505c0.475-0.189,0.953-0.374,1.421-0.574c0.424-0.182,0.841-0.379,1.26-0.571
	c0.458-0.21,0.919-0.415,1.371-0.636c0.418-0.204,0.828-0.422,1.239-0.636c0.442-0.23,0.887-0.455,1.323-0.695
	c0.408-0.225,0.809-0.463,1.209-0.696c0.428-0.25,0.857-0.495,1.278-0.755c0.396-0.244,0.784-0.501,1.175-0.754
	c0.414-0.268,0.828-0.534,1.233-0.813c0.386-0.263,0.762-0.538,1.14-0.811c0.397-0.287,0.796-0.571,1.186-0.868
	c0.374-0.283,0.74-0.578,1.105-0.869c0.379-0.303,0.759-0.605,1.131-0.915c0.361-0.303,0.716-0.616,1.07-0.928
	c0.363-0.319,0.724-0.637,1.079-0.964c0.349-0.321,0.687-0.65,1.027-0.979c0.346-0.335,0.689-0.669,1.027-1.012
	c0.117-0.12,0.243-0.234,0.36-0.356l0.037-0.061c6.243-6.472,11.03-14.356,13.81-23.13L312.232,141.537z M224.043,123.786
	c0-17.622,14.338-31.957,31.957-31.957s31.957,14.335,31.957,31.957c0,17.62-14.338,31.957-31.957,31.957
	S224.043,141.406,224.043,123.786z"/>
<g>
</g>
<g>
</g>
<g>
</g>
<g>
</g>
<g>
</g>
<g>
</g>
<g>
</g>
<g>
</g>
<g>
</g>
<g>
</g>
<g>
</g>
<g>
</g>
<g>
</g>
<g>
</g>
<g>
</g>
</svg>
