<svg height="512pt" viewBox="0 -86 512.00011 512" width="512pt" xmlns="http://www.w3.org/2000/svg"><path d="m461.414062 305.503906h-359.332031c-16.03125 0-29.027343-12.996094-29.027343-29.027344v-35.050781h417.386718v35.050781c0 16.03125-12.996094 29.027344-29.027344 29.027344zm0 0" fill="#516980"/><path d="m370.234375 275.394531v-234.3125c0-22.6875-18.390625-41.082031-41.082031-41.082031h-173.992188c-23.050781 0-44.789062 10.746094-58.785156 29.066406l-86.640625 113.378906c-11.699219 15.3125-12.960937 36.183594-3.191406 52.792969l30.777343 52.320313c10.144532 17.246094 28.65625 27.835937 48.664063 27.835937zm0 0" fill="#73da8c"/><path d="m118.738281 247.558594-30.777343-52.320313c-9.769532-16.609375-8.507813-37.480469 3.191406-52.792969l86.640625-113.378906c13.996093-18.320312 35.734375-29.066406 58.789062-29.066406h-81.417969c-23.054687 0-44.792968 10.746094-58.789062 29.066406l-86.640625 113.378906c-11.699219 15.3125-12.960937 36.183594-3.191406 52.792969l30.777343 52.320313c10.144532 17.246094 28.65625 27.835937 48.664063 27.835937h81.417969c-20.007813 0-38.519532-10.589843-48.664063-27.835937zm0 0" fill="#29ce69"/><path d="m479.722656 167.738281h-109.488281v-97.875h63.398437c25.457032 0 46.089844 20.636719 46.089844 46.09375zm0 0" fill="#a7b6c5"/><path d="m483.238281 275.394531h-113.003906v-107.65625h108.40625c18.425781 0 33.359375 14.933594 33.359375 33.359375v45.53125c0 15.886719-12.878906 28.765625-28.761719 28.765625zm0 0" fill="#889cb0"/><path d="m452.21875 167.738281h-81.984375v-69.714843h54.011719c15.449218 0 27.972656 12.523437 27.972656 27.972656zm0 0" fill="#a4e7ff"/><g fill="#6a829a"><path d="m483.878906 191.050781c-7.5625 0-13.695312-6.128906-13.695312-13.691406v-18.414063c0-7.5625 6.128906-13.695312 13.695312-13.695312 7.5625 0 13.691406 6.132812 13.691406 13.695312v18.414063c0 7.5625-6.128906 13.691406-13.691406 13.691406zm0 0"/><path d="m453.167969 287.398438c0 28.855468-23.390625 52.246093-52.246094 52.246093-28.851563 0-52.246094-23.390625-52.246094-52.246093 0-28.855469 23.394531-52.246094 52.246094-52.246094 28.855469 0 52.246094 23.390625 52.246094 52.246094zm0 0"/><path d="m211.292969 287.398438c0 28.855468-23.390625 52.246093-52.246094 52.246093s-52.246094-23.390625-52.246094-52.246093c0-28.855469 23.390625-52.246094 52.246094-52.246094s52.246094 23.390625 52.246094 52.246094zm0 0"/></g><path d="m261.597656 80.164062c-3.980468-1.539062-8.453125.433594-9.996094 4.414063l-3.292968 8.503906-22.789063-39.46875c-1.382812-2.390625-3.929687-3.863281-6.691406-3.863281s-5.3125 1.472656-6.691406 3.863281l-30.855469 53.445313c-2.132812 3.695312-.78125 8.277344 2.828125 10.554687 4.773437 3.007813 9.121094-.351562 10.550781-2.828125l24.167969-41.859375 15.941406 27.613281-9.414062-1.605468c-4.203125-.714844-8.195313 2.113281-8.914063 6.316406-.714844 4.207031 2.113282 8.199219 6.320313 8.917969l25.625 4.367187c2.960937.511719 6.785156-.40625 8.503906-4.824218l9.121094-23.550782c1.542969-3.980468-.433594-8.457031-4.414063-9.996094zm0 0" fill="#fffcdc"/><path d="m137.753906 144.347656c.65625 4.21875 4.605469 7.101563 8.820313 6.449219l9.015625-1.398437-22.789063 39.472656c-1.382812 2.386718-1.382812 5.332031 0 7.722656 1.378907 2.394531 3.929688 3.863281 6.691407 3.863281h61.710937c4.269531 0 7.5625-3.460937 7.726563-7.722656.21875-5.640625-4.863282-7.726563-7.726563-7.726563h-48.332031l15.945312-27.613281 3.316406 8.953125c1.480469 4 5.925782 6.042969 9.925782 4.5625 4.003906-1.480468 6.046875-5.925781 4.5625-9.929687l-9.027344-24.375c-1.039062-2.820313-3.746094-5.675781-8.433594-4.953125l-24.957031 3.875c-4.214844.65625-7.101563 4.605468-6.449219 8.820312zm0 0" fill="#fffcdc"/><path d="m256.417969 218.34375c3.324219-2.675781 3.847656-7.539062 1.175781-10.863281l-5.71875-7.105469h45.578125c2.757813 0 5.308594-1.472656 6.691406-3.863281 1.378907-2.390625 1.378907-5.335938 0-7.726563l-30.859375-53.445312c-2.132812-3.695313-6.777344-4.816406-10.554687-2.828125-4.992188 2.628906-4.257813 8.074219-2.824219 10.554687l24.164062 41.855469h-31.882812l6.097656-7.347656c2.722656-3.285157 2.269532-8.15625-1.015625-10.882813-3.285156-2.722656-8.152343-2.269531-10.878906 1.015625l-16.597656 20.007813c-1.921875 2.308594-3.039063 6.082031-.074219 9.777344l15.835938 19.675781c2.675781 3.324219 7.539062 3.851562 10.863281 1.175781zm0 0" fill="#fffcdc"/><path d="m181.113281 287.398438c0 12.1875-9.878906 22.066406-22.066406 22.066406s-22.066406-9.878906-22.066406-22.066406 9.878906-22.066407 22.066406-22.066407 22.066406 9.878907 22.066406 22.066407zm0 0" fill="#516980"/><path d="m422.988281 287.398438c0 12.1875-9.878906 22.066406-22.066406 22.066406-12.183594 0-22.0625-9.878906-22.0625-22.066406s9.878906-22.066407 22.0625-22.066407c12.1875 0 22.066406 9.878907 22.066406 22.066407zm0 0" fill="#516980"/></svg>