<svg id="Flat" height="512" viewBox="0 0 64 64" width="512" xmlns="http://www.w3.org/2000/svg"><circle cx="48" cy="48" fill="#e94561" r="13"/><path d="m50 59a12.992 12.992 0 0 1 -10.133-21.133 12.994 12.994 0 1 0 18.266 18.266 12.937 12.937 0 0 1 -8.133 2.867z" fill="#895e7a"/><circle cx="48" cy="48" fill="#ffd257" r="8"/><path d="m48 40a8 8 0 0 1 0 16z" fill="#f89c5b"/><path d="m38.704 46.75h19.092v2h-19.092z" fill="#58a066" transform="matrix(.707 -.707 .707 .707 -19.632 48.104)"/><rect fill="#7dd491" height="4" rx="2" transform="matrix(-1 0 0 -1 114 82)" width="8" x="53" y="39"/><rect fill="#7dd491" height="4" rx="2" transform="matrix(-1 0 0 -1 78 110)" width="8" x="35" y="53"/><path d="m19 38-1-1a6.826 6.826 0 0 1 -2-4.828v-4.172h4v2.172a6.826 6.826 0 0 0 2 4.828l1.554 1.554z" fill="#35d7fd"/><path d="m20 37a6.826 6.826 0 0 1 -2-4.828v-2.172h2v-2h-4v4.172a6.826 6.826 0 0 0 2 4.828l1 1 1.518-.482z" fill="#03b3e2"/><path d="m25 29h-10a3 3 0 0 1 -3-3 3 3 0 0 1 3-3h2.586a3.415 3.415 0 0 1 2.414 1 3.415 3.415 0 0 0 2.414 1h2.586a2 2 0 0 1 2 2 2 2 0 0 1 -2 2z" fill="#aa889f"/><path d="m26 27h-10a3 3 0 0 1 -3-3c0-.083.018-.16.024-.242a2.989 2.989 0 0 0 1.976 5.242h10a2 2 0 0 0 2-2 1.905 1.905 0 0 0 -.027-.263 1.972 1.972 0 0 1 -.973.263z" fill="#895e7a"/><path d="m42.413 29.235-25.413 13.765-4 9-3.5-1.875 4.5-10.125 28-15.556z" fill="#35d7fd"/><path d="m15.461 42.186-4.461 9.814h2l4-9 25.413-13.765.587-2.235-25.843 13.4a3.768 3.768 0 0 0 -1.696 1.786z" fill="#03b3e2"/><path d="m46 19h4a3 3 0 0 0 3-3 3 3 0 0 0 -3-3h-5.016a2.984 2.984 0 0 0 -2.984 2.984v20.531a20.484 20.484 0 0 0 6 14.485l1 1 3-3a20.484 20.484 0 0 1 -6-14.485z" fill="#35d7fd"/><path d="m44 15.984a2.984 2.984 0 0 1 2.984-2.984h-2a2.984 2.984 0 0 0 -2.984 2.984v20.531a20.484 20.484 0 0 0 6 14.485l1 1 1-1a20.484 20.484 0 0 1 -6-14.485z" fill="#03b3e2"/><path d="m50 16h-2v-5.963a4.042 4.042 0 0 0 -4.037-4.037h-2.963v-2h2.963a6.044 6.044 0 0 1 6.037 6.037z" fill="#03b3e2"/><rect fill="#f89c5b" height="4" rx="2" width="10" x="32" y="3"/><circle cx="34" cy="5" fill="#ffd257" r="2"/><path d="m41 23h6v8h-6z" fill="#35d7fd"/><path d="m41 23h6v8h-6z" fill="#35d7fd"/><path d="m41 23h6v1h-6z" fill="#bbf9ff"/><path d="m42 31h4v2h-4z" fill="#03b3e2"/><path d="m45 26h2v3h-2z" fill="#c6ec6b"/><path d="m41 24h2v7h-2z" fill="#03b3e2"/><circle cx="9" cy="55" fill="#e94561" r="6"/><path d="m11 60a5.995 5.995 0 0 1 -3.629-10.77 6 6 0 1 0 5.258 10.54 6 6 0 0 1 -1.629.23z" fill="#895e7a"/><circle cx="9" cy="55" fill="#ffd257" r="2"/><g fill="#bbf9ff"><circle cx="48" cy="48" r="1"/><circle cx="55" cy="41" r="1"/><circle cx="41" cy="55" r="1"/></g></svg>