<svg height="512pt" viewBox="0 -33 512 512" width="512pt" xmlns="http://www.w3.org/2000/svg"><path d="m503.742188 445.9375h-8.257813l-239.152344-24.777344-239.816406 24.777344h-8.257813c-4.5625 0-8.257812-3.699219-8.257812-8.257812v-181.679688c0-141.386719 114.613281-256 256-256s256 114.613281 256 256v181.679688c0 4.558593-3.695312 8.257812-8.257812 8.257812zm0 0" fill="#f9eac7"/><path d="m512 256h-16.515625c0-63.160156-24.464844-120.601562-64.417969-163.390625l11.652344-11.648437c-3.765625-4.019532-7.660156-7.910157-11.675781-11.679688l-11.652344 11.652344c-40.917969-38.203125-95.230469-62.230469-155.132813-64.257813v-16.464843c-2.746093-.089844-5.488281-.210938-8.257812-.210938s-5.511719.121094-8.257812.210938v16.464843c-59.902344 2.027344-114.214844 26.054688-155.132813 64.257813l-11.648437-11.652344c-4.019532 3.769531-7.910157 7.660156-11.679688 11.679688l11.652344 11.648437c-39.953125 42.789063-64.417969 100.230469-64.417969 163.390625h-16.515625v16.515625h16.515625v173.417969h33.03125l206.453125-24.773438 206.453125 24.777344h33.03125v-173.421875h16.515625zm0 0" fill="#f4dbb3"/><g fill="#eac89f"><path d="m264.257812 57.808594v-41.082032c-2.746093-.09375-5.488281-.210937-8.257812-.210937s-5.511719.117187-8.257812.210937v41.082032zm0 0"/><path d="m113.097656 124.773438 11.675782-11.675782-32.136719-32.136718c-4.027344 3.757812-7.917969 7.652343-11.675781 11.675781zm0 0"/><path d="m419.363281 80.960938-28.007812 28.007812 11.675781 11.675781 28.007812-28.007812c-3.757812-4.023438-7.648437-7.917969-11.675781-11.675781zm0 0"/><path d="m16.515625 256h33.03125v16.515625h-33.03125zm0 0"/><path d="m462.453125 256h33.03125v16.515625h-33.03125zm0 0"/></g><path d="m256 156.902344c-50.167969 0-90.839844 40.671875-90.839844 90.839844v189.9375h181.679688v-189.9375c0-50.167969-40.671875-90.839844-90.839844-90.839844zm0 0" fill="#dad8db"/><path d="m256 49.550781c-114.019531 0-206.453125 92.429688-206.453125 206.449219v189.9375l206.453125-24.777344 206.453125 24.777344v-189.9375c0-114.019531-92.433594-206.449219-206.453125-206.449219zm0 0" fill="#5d5360"/><path d="m256 107.355469c-72.972656 0-132.128906 59.15625-132.128906 132.128906v160.65625h264.257812v-160.65625c0-72.972656-59.15625-132.128906-132.128906-132.128906zm0 0" fill="#6f6571"/><path d="m256 156.902344c-50.167969 0-90.839844 40.671875-90.839844 90.839844v107.355468h181.679688v-107.355468c0-50.167969-40.671875-90.839844-90.839844-90.839844zm0 0" fill="#857e87"/><path d="m322.066406 297.289062-66.066406-12.320312-66.066406 12.320312-140.386719 148.648438h57.808594l149.644531-17.300781 147.644531 17.300781h57.808594zm0 0" fill="#c8c5c9"/><path d="m303.566406 297.289062-47.566406-6.320312-47.566406 6.320312-101.078125 148.648438h74.320312l75.324219-17.300781 73.324219 17.300781h74.320312zm0 0" fill="#dad8db"/><path d="m279.78125 297.289062-23.78125-6.320312-23.78125 6.320312-50.542969 148.648438h148.648438zm0 0" fill="#eceaec"/><path d="m256 421.160156c-4.566406 0-8.257812-3.691406-8.257812-8.257812v-16.515625c0-4.5625 3.695312-8.257813 8.257812-8.257813s8.257812 3.695313 8.257812 8.257813v16.515625c0 4.566406-3.691406 8.257812-8.257812 8.257812zm0 0" fill="#fff"/><path d="m256 371.613281c-4.566406 0-8.257812-3.695312-8.257812-8.257812v-8.257813c0-4.566406 3.695312-8.257812 8.257812-8.257812s8.257812 3.691406 8.257812 8.257812v8.257813c0 4.566406-3.691406 8.257812-8.257812 8.257812zm0 0" fill="#fff"/><path d="m256.082031 334.621094h-.082031c-4.566406 0-8.257812-3.695313-8.257812-8.257813s3.695312-8.257812 8.257812-8.257812 8.296875 3.695312 8.296875 8.257812-3.652344 8.257813-8.214844 8.257813zm0 0" fill="#fff"/><path d="m322.066406 297.289062h-132.132812v-49.546874c0-36.484376 29.578125-66.0625 66.066406-66.0625 36.484375 0 66.0625 29.578124 66.0625 66.0625v49.546874zm0 0" fill="#fff"/></svg>