<svg id="Capa_1" enable-background="new 0 0 512 512" height="512" viewBox="0 0 512 512" width="512" xmlns="http://www.w3.org/2000/svg"><g><g><path d="m84.209 511.594h-17.956c-5.701 0-10.323-4.622-10.323-10.323v-22.124l19.301-9 19.301 9v22.124c0 5.702-4.622 10.323-10.323 10.323z" fill="#c6d0da"/><path d="m55.931 479.148h38.601v-18.581l-19.301-9-19.3 9z" fill="#a0aab7"/><path d="m445.747 511.594h-17.956c-5.701 0-10.323-4.622-10.323-10.323v-22.124l19.3-9 19.301 9v22.124c0 5.702-4.621 10.323-10.322 10.323z" fill="#c6d0da"/><path d="m417.468 479.148h38.601v-18.581l-19.3-9-19.301 9z" fill="#a0aab7"/><path d="m50.552 267.513h410.896c5.7 0 10.321-13.62 10.322-19.32v-237.465c0-5.701-4.622-10.323-10.322-10.323h-410.896c-5.701 0-10.322 4.622-10.322 10.323v237.462c0 5.701 4.621 19.323 10.322 19.323z" fill="#808b95"/><path d="m461.448 258.513h-410.896c-5.701 0-10.322-4.622-10.322-10.323v18.581c0 5.701 4.622 10.323 10.322 10.323h62.614l-45.416 39.724c-3.118 2.728-3.435 7.466-.707 10.583 1.482 1.695 3.56 2.562 5.648 2.562 1.753 0 3.512-.61 4.935-1.854l58.325-51.015h240.099l58.326 51.015c1.423 1.244 3.182 1.854 4.934 1.854 2.088 0 4.166-.867 5.649-2.562 2.726-3.117 2.41-7.855-.708-10.583l-45.417-39.724h62.614c5.701 0 10.323-4.621 10.323-10.323v-18.581c0 5.701-4.622 10.323-10.323 10.323z" fill="#5e6b75"/><path d="m487.471 377.603-231.471-9-231.471 9v72.641c0 5.701 4.622 10.323 10.323 10.323h442.298c5.701 0 10.323-4.622 10.323-10.323v-72.641z" fill="#ecb85e"/><path d="m24.529 359.023v18.58h462.942v-18.58l-231.471-9z" fill="#eaa949"/><path d="m10.323 349.442h491.355c5.701 0 10.323-13.622 10.323-19.323v-2.809c0-5.701-4.622-10.323-10.323-10.323h-491.355c-5.701.001-10.323 4.622-10.323 10.323v2.809c0 5.701 4.622 19.323 10.323 19.323z" fill="#cf8151"/><path d="m436.769 224.172v-184.264c0-2.851-2.311-5.161-5.161-5.161h-351.215c-2.85 0-5.161 2.311-5.161 5.161v184.264l180.769 9z" fill="#9ec8fc"/><path d="m80.393 242.752h351.215c2.85 0 5.161-2.311 5.161-5.161v-13.419h-361.538v13.419c0 2.851 2.311 5.161 5.162 5.161z" fill="#80b6fc"/><path d="m501.677 340.442h-491.354c-5.701 0-10.323-4.622-10.323-10.323v18.581c0 5.701 4.622 10.323 10.323 10.323h491.355c5.701 0 10.323-4.622 10.323-10.323v-18.581c-.001 5.701-4.623 10.323-10.324 10.323z" fill="#bd6e45"/></g></g></svg>