<svg height="512pt" viewBox="0 -10 512.00039 512" width="512pt" xmlns="http://www.w3.org/2000/svg"><path d="m422.871094 151.347656h-70.84375v-115.925781c0-19.5625 15.859375-35.421875 35.421875-35.421875s35.421875 15.859375 35.421875 35.421875zm0 0" fill="#9ad880"/><path d="m422.871094 56.316406-68.390625-33.875c-1.582031 4.019532-2.453125 8.398438-2.453125 12.980469v115.925781h70.84375zm0 0" fill="#8dc971"/><path d="m391.109375 492.519531h-270.21875c-29.101563 0-52.699219-23.59375-52.699219-52.699219v-231.628906l187.808594-168.832031 187.808594 168.832031v231.628906c0 29.105469-23.59375 52.699219-52.699219 52.699219zm0 0" fill="#ccf8ff"/><path d="m256 39.359375-187.808594 168.832031v231.628906c0 29.105469 23.597656 52.699219 52.699219 52.699219h109.503906v-235.949219c0-34.890624 13.730469-68.378906 38.226563-93.226562l36.015625-36.539062v-43.722657zm0 0" fill="#abebf4"/><path d="m443.15625 252.328125-187.15625-169.597656-187.152344 169.597656c-16.859375 15.277344-42.902344 13.996094-58.179687-2.859375-15.277344-16.859375-13.992188-42.90625 2.863281-58.179688l187.644531-170.046874c31.253907-28.324219 78.394531-28.324219 109.652344.003906l187.640625 170.042968c16.855469 15.273438 18.136719 41.320313 2.863281 58.179688-8.128906 8.96875-34.863281 22-58.175781 2.859375zm0 0" fill="#ff929f"/><path d="m294.496094 292.59375h-76.992188c-21.566406 0-39.050781 17.484375-39.050781 39.050781v160.875h155.09375v-160.875c0-21.566406-17.484375-39.050781-39.050781-39.050781zm0 0" fill="#b2e59c"/><path d="m230.394531 292.59375h-12.890625c-21.566406 0-39.050781 17.484375-39.050781 39.050781v160.875h51.941406zm0 0" fill="#9ad880"/><path d="m83.765625 177.769531c-17.941406-24.921875 1.234375-51.246093 1.234375-51.246093l-71.46875 64.765624c-16.855469 15.273438-18.136719 41.320313-2.863281 58.179688 15.277343 16.855469 41.320312 18.136719 58.179687 2.859375l65.464844-59.324219s-32.601562 9.6875-50.546875-15.234375zm0 0" fill="#ff737d"/></svg>