<svg height="512pt" viewBox="-29 0 512 512.00103" width="512pt" xmlns="http://www.w3.org/2000/svg"><path d="m433.675781 326.417969-18.570312-10.71875c-6.152344-3.550781-9.289063-10.683594-7.730469-17.613281 4.320312-19.25 8.164062-51.039063.113281-85.894532-1.617187-7.003906 1.453125-14.25 7.679688-17.84375l18.507812-10.6875c19.910157-11.496094 26.792969-37.191406 15.300781-57.101562-11.496093-19.910156-37.191406-26.792969-57.101562-15.300782l-18.527344 10.695313c-6.214844 3.59375-14.046875 2.667969-19.269531-2.257813-20.808594-19.632812-46.140625-34.523437-74.269531-42.933593-6.871094-2.054688-11.566406-8.382813-11.566406-15.550781v-19.410157c0-22.992187-18.8125-41.800781-41.800782-41.800781-22.992187 0-41.800781 18.808594-41.800781 41.800781v19.410157c0 7.167968-4.699219 13.496093-11.566406 15.550781-28.132813 8.410156-53.460938 23.300781-74.269531 42.933593-5.222657 4.925782-13.054688 5.851563-19.273438 2.257813l-16.859375-9.730469c-19.910156-11.496094-45.609375-4.613281-57.101563 15.296875-11.496093 19.910157-4.609374 45.609375 15.300782 57.101563l16.773437 9.683594c6.160157 3.558593 9.332031 10.71875 7.722657 17.648437-7.605469 32.746094-3.9375 66.425781.285156 86.296875 1.460937 6.867188-1.703125 13.882812-7.78125 17.390625l-17.003906 9.816406c-19.910157 11.496094-26.792969 37.191407-15.300782 57.101563 11.496094 19.910156 37.191406 26.796875 57.101563 15.300781l16.863281-9.734375c6.21875-3.589844 14.046875-2.667969 19.269531 2.261719 20.808594 19.632812 46.140625 34.523437 74.269531 42.933593 6.871094 2.054688 11.566407 8.382813 11.566407 15.550782v21.328125c0 22.992187 18.8125 41.800781 41.800781 41.800781 22.992188 0 41.800781-18.808594 41.800781-41.800781v-21.328125c0-7.167969 4.699219-13.496094 11.566407-15.550782 28.132812-8.410156 53.464843-23.300781 74.273437-42.933593 5.21875-4.929688 13.050781-5.851563 19.269531-2.261719l18.523438 10.695312c19.910156 11.496094 45.609375 4.609376 57.101562-15.300781 11.496094-19.910156 4.613282-45.605469-15.296875-57.101562zm-206.402343 5.726562c-42.054688 0-76.144532-34.089843-76.144532-76.144531s34.089844-76.144531 76.144532-76.144531c42.054687 0 76.144531 34.089843 76.144531 76.144531s-34.089844 76.144531-76.144531 76.144531zm0 0" fill="#ccf8ff"/><path d="m227.273438 126.027344c-71.78125 0-129.972657 58.191406-129.972657 129.972656s58.191407 129.972656 129.972657 129.972656 129.972656-58.191406 129.972656-129.972656-58.191406-129.972656-129.972656-129.972656zm0 206.117187c-42.054688 0-76.144532-34.089843-76.144532-76.144531s34.089844-76.144531 76.144532-76.144531c42.050781 0 76.144531 34.089843 76.144531 76.144531s-34.089844 76.144531-76.144531 76.144531zm0 0" fill="#8ed7e8"/><path d="m240.851562 330.9375c-4.402343.792969-8.949218 1.207031-13.578124 1.207031-42.054688 0-76.144532-34.089843-76.144532-76.144531 0-12.621094 3.074219-24.535156 8.511719-35.015625-22.421875-42.835937-35.871094-84.097656-43.8125-115.542969-5.957031 4.414063-11.644531 9.175782-17.023437 14.253906-5.222657 4.925782-13.054688 5.851563-19.273438 2.257813l-16.859375-9.730469c-19.910156-11.496094-45.605469-4.613281-57.101563 15.296875-11.496093 19.910157-4.609374 45.609375 15.300782 57.101563l16.773437 9.683594c6.160157 3.558593 9.332031 10.71875 7.722657 17.648437-7.605469 32.746094-3.933594 66.425781.289062 86.296875 1.457031 6.867188-1.703125 13.882812-7.78125 17.390625l-17.003906 9.816406c-19.910156 11.496094-26.796875 37.191407-15.300782 57.101563 11.492188 19.910156 37.191407 26.796875 57.101563 15.300781l16.859375-9.734375c6.21875-3.589844 14.046875-2.667969 19.273438 2.261719 20.808593 19.632812 46.136718 34.523437 74.269531 42.933593 6.867187 2.054688 11.566406 8.382813 11.566406 15.550782v21.328125c0 22.992187 18.808594 41.800781 41.800781 41.800781 22.988282 0 41.800782-18.808594 41.800782-41.800781v-21.328125c0-7.167969 4.695312-13.496094 11.566406-15.550782 22.863281-6.835937 43.878906-17.953124 62.121094-32.417968-40.019532-18.945313-73.324219-43.128906-101.078126-69.964844zm0 0" fill="#abebf4"/><path d="m288.992188 370.410156c-17.679688-12.199218-33.65625-25.46875-48.140626-39.472656-4.402343.792969-8.949218 1.207031-13.578124 1.207031-42.054688 0-76.148438-34.089843-76.144532-76.144531 0-12.621094 3.207032-24.800781 8.511719-35.019531-10.078125-19.25-18.335937-38.167969-25.105469-56.042969-23.027344 23.453125-37.234375 55.597656-37.234375 91.0625 0 71.78125 58.191407 129.972656 129.972657 129.972656 22.335937 0 43.359374-5.636718 61.71875-15.5625zm0 0" fill="#7ac1dd"/></svg>