<?xml version="1.0" encoding="iso-8859-1"?>
<!-- Generator: Adobe Illustrator 19.0.0, SVG Export Plug-In . SVG Version: 6.00 Build 0)  -->
<svg version="1.1" id="Layer_1" xmlns="http://www.w3.org/2000/svg" xmlns:xlink="http://www.w3.org/1999/xlink" x="0px" y="0px"
	 viewBox="0 0 512 512" style="enable-background:new 0 0 512 512;" xml:space="preserve">
<path style="fill:#5B5E5E;" d="M289.032,364.317v-28.055c-4.251,0.966-8.671,1.492-13.213,1.492h-39.639
	c-4.544,0-8.962-0.526-13.213-1.492v121.349c10.755,1.756,21.787,2.684,33.032,2.684s22.275-0.928,33.032-2.684v-65.767"/>
<g>
	<path style="fill:#464949;" d="M269.213,338.215h19.819v-1.952c-4.251,0.966-8.671,1.492-13.213,1.492h-13
		C264.92,338.054,267.05,338.215,269.213,338.215z"/>
	<path style="fill:#464949;" d="M256,337.755h-19.819c-4.544,0-8.962-0.526-13.213-1.492v121.349
		c10.755,1.756,21.787,2.684,33.032,2.684V337.755z"/>
</g>
<path style="fill:#656666;" d="M458.654,230.05c-2.527-0.108-5.266-0.165-8.238-0.165c-49.824,0-100.054-13.238-119.703-19.05
	c2.938,7.041,4.566,14.763,4.566,22.869v44.594c0,8.105-1.627,15.828-4.566,22.869c19.65-5.81,69.88-19.05,119.703-19.05
	c2.972,0,5.712-0.058,8.238-0.165c1.083-8.5,1.641-17.161,1.641-25.95C460.295,247.211,459.737,238.549,458.654,230.05z"/>
<path style="fill:#5B5E5E;" d="M181.287,210.834c-19.65,5.81-69.88,19.05-119.701,19.05c-2.974,0-5.715,0.058-8.24,0.165
	c-1.081,8.5-1.641,17.161-1.641,25.95c0,8.789,0.559,17.451,1.641,25.95c2.527,0.108,5.266,0.165,8.24,0.165
	c49.821,0,100.051,13.238,119.701,19.05c-2.935-7.041-4.564-14.763-4.564-22.869v-44.594
	C176.723,225.598,178.351,217.875,181.287,210.834z"/>
<path style="fill:#6E7070;" d="M437.019,74.981c-15.001-15.001-31.725-28.074-49.705-38.856l-24.699-13.011l-0.138-0.068
	C329.067,7.754,293.243,0,256,0C187.619,0,123.333,26.63,74.981,74.981S0,187.619,0,256s26.63,132.667,74.981,181.019
	S187.619,512,256,512s132.667-26.629,181.019-74.981S512,324.381,512,256S485.371,123.333,437.019,74.981z M256,457.543
	c-111.133,0-201.544-90.411-201.544-201.543S144.867,54.457,256,54.457c111.13,0,201.542,90.411,201.542,201.543
	c0,33.698-8.519,67.064-24.638,96.495l-16.456,25.342C377.889,428.491,319.413,457.543,256,457.543z"/>
<path style="fill:#828282;" d="M387.315,36.125l-24.699-13.011l-0.138-0.068C341.358,13.379,319.27,6.734,296.47,3.147
	c-15.238,15.103-28.314,32.382-38.726,51.333c110.33,0.941,199.798,90.972,199.798,201.52c0,33.698-8.519,67.064-24.638,96.495
	l-16.456,25.342c-1.093,1.437-2.208,2.85-3.332,4.25c13.249,2.444,26.905,3.735,40.861,3.735c7.931,0,15.764-0.42,23.484-1.224
	C499.981,345.962,512,301.907,512,256c0-68.381-26.629-132.667-74.981-181.019C422.018,59.98,405.295,46.907,387.315,36.125z"/>
<g>
	<path style="fill:#E6E9ED;" d="M131.14,264.258h-22.022c-4.561,0-8.258-3.696-8.258-8.258c0-4.562,3.697-8.258,8.258-8.258h22.022
		c4.561,0,8.258,3.696,8.258,8.258C139.398,260.562,135.7,264.258,131.14,264.258z"/>
	<path style="fill:#E6E9ED;" d="M402.881,264.258H380.86c-4.561,0-8.258-3.696-8.258-8.258c0-4.562,3.697-8.258,8.258-8.258h22.022
		c4.561,0,8.258,3.696,8.258,8.258C411.139,260.562,407.442,264.258,402.881,264.258z"/>
</g>
<path style="fill:#6E7070;" d="M275.819,171.492h-39.639c-34.303,0-62.211,27.908-62.211,62.211v44.594
	c0,34.303,27.908,62.211,62.211,62.211h39.639c34.303,0,62.211-27.908,62.211-62.211v-44.594
	C338.03,199.4,310.122,171.492,275.819,171.492z"/>
<path style="fill:#828282;" d="M275.819,171.492h-39.639c-1.937,0-3.848,0.101-5.739,0.275
	c2.725,63.833,32.18,120.738,77.471,159.802c18.035-10.905,30.118-30.703,30.118-53.273v-44.594
	C338.03,199.4,310.122,171.492,275.819,171.492z"/>
<circle style="fill:#97D3EE;" cx="256" cy="256" r="42.925"/>
<path style="fill:#B4E7F9;" d="M256,213.073c-6.766,0-13.162,1.57-18.855,4.358c7.232,28.414,19.894,54.655,36.828,77.551
	c14.727-6.802,24.951-21.693,24.951-38.981C298.924,232.293,279.707,213.073,256,213.073z"/>
<g>
</g>
<g>
</g>
<g>
</g>
<g>
</g>
<g>
</g>
<g>
</g>
<g>
</g>
<g>
</g>
<g>
</g>
<g>
</g>
<g>
</g>
<g>
</g>
<g>
</g>
<g>
</g>
<g>
</g>
</svg>
